<svg xmlns="http://www.w3.org/2000/svg" width="51" height="51" fill="none" viewBox="0 0 51 51"><path fill="#fff" d="M35.2468 26.3005H33.236C33.441 26.8617 33.553 27.4672 33.553 28.0984V35.6978C33.553 35.961 33.5072 36.2135 33.4238 36.4485H36.748C37.9898 36.4485 39 35.4382 39 34.1965V30.0537C39 27.9842 37.3163 26.3005 35.2468 26.3005Z"/><path fill="#fff" d="M18.4471 28.0984C18.4471 27.4672 18.559 26.8617 18.764 26.3005H16.7532C14.6837 26.3005 13 27.9842 13 30.0538V34.1966C13 35.4383 14.0102 36.4485 15.2519 36.4485H18.5762C18.4929 36.2135 18.4471 35.961 18.4471 35.6978V28.0984Z"/><path fill="#fff" d="M28.2985 24.3451H23.7016C21.6321 24.3451 19.9484 26.0288 19.9484 28.0983V35.6977C19.9484 36.1123 20.2845 36.4484 20.699 36.4484H31.3011C31.7157 36.4484 32.0517 36.1123 32.0517 35.6977V28.0983C32.0517 26.0288 30.368 24.3451 28.2985 24.3451Z"/><path fill="#fff" d="M26 14.3931C23.5111 14.3931 21.4863 16.4179 21.4863 18.9069C21.4863 20.5951 22.418 22.0695 23.7941 22.8436C24.4468 23.2108 25.1993 23.4206 26 23.4206C26.8007 23.4206 27.5532 23.2108 28.2059 22.8436C29.582 22.0695 30.5138 20.595 30.5138 18.9069C30.5138 16.418 28.4889 14.3931 26 14.3931Z"/><path fill="#fff" d="M18.074 18.6001C16.2126 18.6001 14.6983 20.1144 14.6983 21.9758C14.6983 23.8371 16.2126 25.3514 18.074 25.3514C18.5461 25.3514 18.9958 25.2536 19.4042 25.0778C20.1104 24.7738 20.6926 24.2356 21.0529 23.5615C21.3058 23.0884 21.4497 22.5486 21.4497 21.9758C21.4497 20.1144 19.9354 18.6001 18.074 18.6001Z"/><path fill="#fff" d="M33.9261 18.6001C32.0647 18.6001 30.5504 20.1144 30.5504 21.9758C30.5504 22.5487 30.6942 23.0884 30.9471 23.5615C31.3074 24.2357 31.8897 24.7739 32.5959 25.0778C33.0043 25.2536 33.4539 25.3514 33.9261 25.3514C35.7875 25.3514 37.3018 23.8371 37.3018 21.9758C37.3018 20.1144 35.7875 18.6001 33.9261 18.6001Z"/></svg>