<svg width="32" height="32" viewBox="0 0 32 32" fill="none" xmlns="http://www.w3.org/2000/svg">
<path d="M32 16C32 24.8366 24.8366 32 16 32C7.16344 32 0 24.8366 0 16C0 7.16344 7.16344 0 16 0C24.8366 0 32 7.16344 32 16Z" fill="#00CF8B"/>
<path d="M11.9018 10.9827V9.75729C11.9018 9.5881 11.7646 9.45093 11.5955 9.45093H7.30636C7.13718 9.45093 7 9.5881 7 9.75729V10.9827H11.9018Z" fill="white"/>
<path d="M7 11.5955V21.7055H11.9018V11.5955H7ZM10.6764 15.5782H8.22546C8.05627 15.5782 7.91909 15.441 7.91909 15.2719V12.8209C7.91909 12.6518 8.05627 12.5146 8.22546 12.5146H10.6764C10.8456 12.5146 10.9827 12.6518 10.9827 12.8209V15.2719C10.9827 15.441 10.8456 15.5782 10.6764 15.5782Z" fill="white"/>
<path d="M7 23.5437V25.0755C7 25.2447 7.13718 25.3818 7.30636 25.3818H11.5955C11.7646 25.3818 11.9018 25.2447 11.9018 25.0755V23.5437H7Z" fill="white"/>
<path d="M7 22.3182H11.9018V22.931H7V22.3182Z" fill="white"/>
<path d="M12.5146 22.3182H16.4973V22.931H12.5146V22.3182Z" fill="white"/>
<path d="M16.4973 8.22549V7.30639C16.4973 7.13721 16.3601 7.00003 16.1909 7.00003H12.8209C12.6517 7.00003 12.5146 7.13721 12.5146 7.30639V8.22549H16.4973Z" fill="white"/>
<path d="M12.5146 10.37H16.4973V21.7055H12.5146V10.37Z" fill="white"/>
<path d="M12.5146 23.5437V25.0755C12.5146 25.2447 12.6517 25.3818 12.8209 25.3818H16.1909C16.3601 25.3818 16.4973 25.2447 16.4973 25.0755V23.5437H12.5146Z" fill="white"/>
<path d="M12.5146 8.83823H16.4973V9.75732H12.5146V8.83823Z" fill="white"/>
<path d="M17.1027 13.3442L17.2666 13.9735L22.4551 12.59L22.291 11.9606L17.1027 13.3442Z" fill="white"/>
<path d="M19.663 23.1586L24.8513 21.775L24.5228 20.5156L19.3342 21.8992L19.663 23.1586Z" fill="white"/>
<path d="M24.3681 19.9228L22.6099 13.1828L17.4213 14.5664L19.1795 21.3064L24.3681 19.9228Z" fill="white"/>
<path d="M16.948 12.7514L22.1361 11.368L21.6963 9.68071C21.651 9.51735 21.4841 9.41967 21.3195 9.46021L16.7241 10.6857C16.5618 10.7301 16.465 10.8963 16.5064 11.0593L16.948 12.7514Z" fill="white"/>
<path d="M25.0059 22.3679L19.8173 23.7515L20.1828 25.1521C20.204 25.2311 20.2558 25.2984 20.3268 25.3391C20.3731 25.3671 20.426 25.3819 20.48 25.3819C20.5068 25.3819 20.5336 25.3787 20.5596 25.3727L25.1551 24.1473C25.3174 24.1029 25.4141 23.9365 25.3727 23.7735L25.0059 22.3679Z" fill="white"/>
</svg>
