<svg xmlns="http://www.w3.org/2000/svg" width="16" height="13" fill="none" viewBox="0 0 16 13"><path fill="#00CF8B" d="M2.43209 0.605072H2.43075C2.28038 0.605072 2.13895 0.66369 2.03215 0.770221C1.92417 0.877929 1.8647 1.02134 1.8647 1.17402V9.70528C1.8647 10.0181 2.12021 10.2733 2.43434 10.2741C3.75863 10.2772 5.97736 10.5532 7.50797 12.155V3.22679C7.50797 3.12074 7.48088 3.02112 7.42976 2.93868C6.1735 0.915562 3.75938 0.608177 2.43209 0.605072Z"/><path fill="#00CF8B" d="M14.0345 9.70527V1.17396C14.0345 1.02128 13.9751 0.877868 13.8671 0.77016C13.7603 0.663629 13.6187 0.605011 13.4685 0.605011H13.4671C12.1399 0.608169 9.72578 0.915555 8.46947 2.93867C8.41835 3.02111 8.39132 3.12073 8.39132 3.22678V12.1549C9.92193 10.5532 12.1406 10.2772 13.4649 10.274C13.779 10.2732 14.0345 10.0181 14.0345 9.70527Z"/><path fill="#00CF8B" d="M15.3303 2.57251H14.9178V9.70528C14.9178 10.504 14.267 11.1554 13.467 11.1574C12.3437 11.16 10.4916 11.3797 9.1799 12.6212C11.4485 12.0657 13.84 12.4268 15.203 12.7374C15.3732 12.7761 15.549 12.7361 15.6854 12.6274C15.8212 12.519 15.8992 12.357 15.8992 12.183V3.14135C15.8992 2.8277 15.644 2.57251 15.3303 2.57251Z"/><path fill="#00CF8B" d="M0.98135 9.70528V2.57251H0.568826C0.255231 2.57251 -1.33514e-05 2.8277 -1.33514e-05 3.14135V12.1829C-1.33514e-05 12.3569 0.0779304 12.5189 0.213797 12.6273C0.350038 12.7359 0.525733 12.7761 0.696181 12.7372C2.05913 12.4266 4.45071 12.0655 6.71921 12.621C5.40755 11.3796 3.55542 11.16 2.43214 11.1573C1.6322 11.1554 0.98135 10.504 0.98135 9.70528Z"/></svg>