<svg xmlns="http://www.w3.org/2000/svg" width="18" height="18" fill="none" viewBox="0 0 18 18"><path fill="#00CF88" d="M11.5515 2.43042C11.5515 1.96137 11.1855 1.61856 10.7164 1.61856H7.28339C6.81449 1.61856 6.44843 1.96137 6.44843 2.43042V3.3196H5.82987V2.43042C5.82987 1.62037 6.47334 1 7.28339 1H10.7164C11.5265 1 12.1701 1.62037 12.1701 2.43042V3.3196H11.5515V2.43042Z"/><path fill="#00CF88" d="M12.6571 16.7347H5.34268C4.63743 16.7347 4.09015 16.1144 4.09015 15.343V5.79395H13.9098V15.343C13.9098 16.1144 13.3625 16.7347 12.6571 16.7347ZM7.02831 7.27073C7.02831 7.09993 6.88983 6.96145 6.71903 6.96145C6.54823 6.96145 6.40975 7.09993 6.40975 7.27073V14.5775C6.40975 14.7483 6.54823 14.8867 6.71903 14.8867C6.88983 14.8867 7.02831 14.7483 7.02831 14.5775V7.27073ZM9.30925 7.27073C9.30925 7.09993 9.17077 6.96145 8.99997 6.96145C8.82917 6.96145 8.69069 7.09993 8.69069 7.27073V14.5775C8.69069 14.7483 8.82917 14.8867 8.99997 14.8867C9.17077 14.8867 9.30925 14.7483 9.30925 14.5775V7.27073ZM11.5902 7.27073C11.5902 7.09993 11.4517 6.96145 11.2809 6.96145C11.1101 6.96145 10.9716 7.09993 10.9716 7.27073V14.5775C10.9716 14.7483 11.1101 14.8867 11.2809 14.8867C11.4517 14.8867 11.5902 14.7483 11.5902 14.5775V7.27073Z"/><path fill="#00CF88" d="M14.2268 5.17531H3.7732C3.34613 5.17531 3 4.82918 3 4.40211C3 3.97503 3.34613 3.62891 3.7732 3.62891H14.2268C14.6539 3.62891 15 3.97503 15 4.40211C15 4.82918 14.6539 5.17531 14.2268 5.17531Z"/></svg>