<svg xmlns="http://www.w3.org/2000/svg" width="16" height="15" fill="none" viewBox="0 0 16 15"><path fill="#00CF8B" d="M15.9583 5.66832C15.8535 5.35138 15.5662 5.12627 15.2262 5.09629L10.6082 4.68608L8.78207 0.504793C8.64742 0.198358 8.34077 0 8.00006 0C7.65936 0 7.35271 0.198358 7.21806 0.505509L5.39197 4.68608L0.77321 5.09629C0.433846 5.12698 0.147218 5.35138 0.0418691 5.66832C-0.0634801 5.98526 0.0338122 6.3329 0.290532 6.55204L3.78121 9.54688L2.75189 13.9825C2.67657 14.3087 2.80597 14.6458 3.08259 14.8414C3.23128 14.9465 3.40523 15 3.58065 15C3.7319 15 3.88193 14.9601 4.01657 14.8813L8.00006 12.5522L11.9821 14.8813C12.2735 15.0528 12.6408 15.0371 12.9168 14.8414C13.1935 14.6452 13.3228 14.308 13.2475 13.9825L12.2182 9.54688L15.7089 6.55263C15.9656 6.3329 16.0636 5.98586 15.9583 5.66832Z"/></svg>