<svg width="14" height="14" viewBox="0 0 14 14" fill="none" xmlns="http://www.w3.org/2000/svg">
<path d="M11.1016 13.1797H10.6914V11.9219C10.6914 11.6953 10.5078 11.5117 10.2813 11.5117H3.71875C3.4922 11.5117 3.3086 11.6953 3.3086 11.9219V13.1797H2.89844C2.67179 13.1797 2.48828 13.3632 2.48828 13.5898C2.48828 13.8165 2.67179 14 2.89844 14H11.1016C11.3282 14 11.5117 13.8165 11.5117 13.5898C11.5117 13.3632 11.3282 13.1797 11.1016 13.1797Z" fill="#00CF8B"/>
<path d="M12.7695 0C11.4404 0 3.09657 0 1.23047 0C0.552002 0 0 0.552002 0 1.23047V1.85532C0 2.86746 0.348419 3.86049 0.98053 4.65111C1.52046 5.32605 2.23984 5.8271 3.06015 6.10065L3.49551 6.24591C4.00052 7.06804 4.79156 7.70175 5.74219 8.00285V8.64063C5.74219 8.86696 5.55794 9.05078 5.33203 9.05078C4.65356 9.05078 4.10156 9.60278 4.10156 10.2813V10.6914H9.89844V10.2813C9.89844 9.60278 9.34644 9.05078 8.66797 9.05078C8.44206 9.05078 8.25781 8.86696 8.25781 8.64063V8.00285C9.20844 7.70165 9.99948 7.06804 10.5045 6.24591L10.9398 6.10065C11.7602 5.8271 12.4795 5.32605 13.0195 4.65111C13.6516 3.86049 14 2.86746 14 1.85532V1.23047C14 0.552002 13.448 0 12.7695 0ZM1.6214 4.13841C1.10464 3.49274 0.820312 2.68204 0.820312 1.85532V1.23047C0.820312 1.00414 1.00456 0.820313 1.23047 0.820313H2.50388L2.92162 4.57698C2.94565 4.79349 2.98965 5.00391 3.04669 5.20941C2.49181 4.97304 2.00015 4.61212 1.6214 4.13841ZM8.92346 3.51196L8.26251 4.14087L8.41792 5.02687C8.44516 5.17983 8.38268 5.33524 8.25771 5.42773C8.13199 5.51991 7.96536 5.53433 7.82672 5.46256L7 5.03798L6.17328 5.46256C6.03474 5.53369 5.86748 5.52023 5.74229 5.42773C5.61732 5.33566 5.55484 5.18025 5.58208 5.02687L5.73749 4.14087L5.07664 3.51196C4.96289 3.40344 4.92123 3.23959 4.96844 3.08984C5.01651 2.93999 5.14629 2.83061 5.3017 2.80861L6.2238 2.67766L6.63396 1.86578C6.77335 1.58946 7.22676 1.58946 7.36615 1.86578L7.77631 2.67766L8.6983 2.80861C8.85382 2.83072 8.98349 2.93999 9.03166 3.08984C9.07877 3.23959 9.03722 3.40344 8.92346 3.51196ZM13.1797 1.85532C13.1797 2.68204 12.8954 3.49274 12.3786 4.13841C11.9998 4.61212 11.5082 4.97304 10.9533 5.20941C11.0103 5.00391 11.0544 4.79349 11.0784 4.57698L11.4961 0.820313H12.7695C12.9954 0.820313 13.1797 1.00414 13.1797 1.23047V1.85532Z" fill="#00CF8B"/>
<path d="M4.15474 0.830947H9.97136V5.81663H4.15474V0.830947Z" fill="#00CF8B"/>
</svg>
