<svg width="178" height="239" viewBox="0 0 178 239" fill="none" xmlns="http://www.w3.org/2000/svg">
<g filter="url(#filter0_d)">
<circle cx="84.2434" cy="144.757" r="79.2434" fill="#02C783"/>
<mask id="mask0" mask-type="alpha" maskUnits="userSpaceOnUse" x="5" y="65" width="159" height="159">
<circle cx="84.2434" cy="144.757" r="79.2434" fill="#00CF88"/>
</mask>
<g mask="url(#mask0)">
<path d="M23.5215 153.532C22.8822 156.021 22.8154 158.573 22.632 161.109C22.3762 164.658 22.1205 168.207 21.8648 171.756C21.6313 175.03 21.3978 178.31 21.1588 181.585C20.9086 185.028 20.6473 188.472 20.4027 191.915C20.2026 194.773 20.008 197.631 19.8245 200.484C19.5688 204.412 19.3075 208.341 19.0796 212.275C18.9073 215.175 18.7738 218.08 18.6237 220.981C18.5793 221.866 18.5682 222.752 18.4848 223.628C18.4403 224.123 18.6182 224.208 19.1018 224.208C27.4685 224.192 35.8408 224.197 44.2075 224.197C45.4973 224.197 46.7814 224.187 48.0712 224.181C48.3992 223.533 48.3603 222.821 48.377 222.146C48.427 219.43 48.5771 216.72 48.6938 214.009C48.8161 211.067 48.9551 208.125 49.083 205.182C49.2164 202.155 49.372 199.129 49.4832 196.102C49.5166 195.263 49.5333 194.414 49.6556 193.581C49.739 193.022 49.5444 192.68 49.0552 192.379C46.5813 190.85 44.5244 188.936 43.0956 186.452C41.9782 184.506 41.4501 182.418 41.3334 180.224C41.1277 176.307 42.3285 172.694 44.0074 169.183C44.1853 168.808 44.3576 168.434 44.5466 168.07C43.2347 170.833 42.3118 173.707 42.0616 176.734C41.578 182.603 43.8462 187.227 49.1275 190.433C49.65 190.75 50.1782 191.066 50.7396 191.319C51.3734 191.609 51.618 192.073 51.6292 192.738C51.6625 194.578 51.3456 196.392 51.1566 198.211C50.8008 201.607 50.395 204.992 50.0058 208.383C49.7223 210.851 49.4388 213.324 49.1664 215.792C48.9162 218.012 48.6216 220.226 48.4159 222.446C48.3658 223.021 48.1324 223.591 48.3659 224.176C48.6327 224.181 48.8996 224.187 49.1664 224.187C74.6334 224.187 100.095 224.187 125.562 224.187C125.673 224.187 125.784 224.181 125.895 224.181C126.151 223.939 126.073 223.617 126.062 223.338C125.912 219.293 126.04 215.249 126.001 211.204C125.984 209.622 126.057 208.04 125.984 206.464C125.879 204.212 125.884 201.96 125.862 199.703C125.84 197.447 126.101 195.205 126.229 192.959C126.351 190.729 126.524 188.503 126.679 186.278C126.841 183.989 126.996 181.701 127.152 179.412C127.302 177.166 127.519 174.92 127.591 172.668C127.608 172.099 127.708 171.54 127.641 170.97C127.747 177.266 127.658 183.562 127.741 189.858C127.769 191.92 127.819 193.982 127.847 196.049C127.88 198.348 127.608 200.632 127.48 202.92C127.358 205.129 127.18 207.328 127.03 209.538C126.874 211.784 126.707 214.031 126.557 216.277C126.39 218.734 126.168 221.186 126.062 223.649C126.057 223.839 126.04 224.034 126.207 224.181C136.241 224.187 146.281 224.187 156.316 224.202C156.861 224.202 156.849 223.97 156.849 223.601C156.799 217.996 156.672 212.391 156.749 206.791C156.799 203.236 157.105 199.682 157.183 196.123C157.272 192.226 157.183 188.329 157.039 184.432C156.927 181.421 156.738 178.416 156.438 175.421C155.426 165.365 153.77 155.441 149.517 146.076C148.877 144.662 148.127 143.307 147.326 141.973C147.338 141.657 147.137 141.419 146.971 141.172C143.963 136.711 139.916 133.299 135.102 130.678C129.22 127.477 122.832 125.721 116.172 124.746C114.549 124.509 112.92 124.34 111.286 124.187C111.086 124.166 110.891 124.139 110.702 124.234C110.435 124.419 110.441 124.709 110.391 124.973C109.74 128.738 109.012 132.492 107.878 136.157C106.988 139.036 105.665 141.72 103.575 144.003C102.28 145.417 100.684 146.492 98.9608 147.389C95.9754 148.95 92.7678 149.777 89.3822 150.067C85.6574 150.389 82.0272 150.062 78.5138 148.776C75.1838 147.557 72.7099 145.422 70.9532 142.495C69.3076 139.753 68.3792 136.769 67.6398 133.721C67.0061 131.089 66.478 128.442 66.1055 125.764C66.0721 125.516 66.0277 125.263 65.872 125.046C65.6663 124.888 65.4495 124.967 65.2382 125.015C59.5622 126.312 53.8139 127.34 48.188 128.822C43.0067 130.182 38.3258 132.513 34.2564 135.877C31.1821 138.419 28.7138 141.425 26.7903 144.847C25.3894 147.336 24.3498 149.941 23.577 152.657C23.4825 152.952 23.388 153.237 23.5215 153.532Z" fill="#EDE221"/>
<path d="M110.719 124.319C117.118 124.804 123.366 125.959 129.342 128.231C136.808 131.068 143.024 135.392 147.316 141.973C148.388 140.222 149.356 138.435 149.784 136.42C150.623 132.508 149.311 129.339 146.148 126.792C145.403 126.191 144.586 125.69 143.619 125.215C144.325 125.078 144.931 125.004 145.509 124.846C149.167 123.87 150.996 121.397 151.624 118.001C151.996 115.987 151.746 113.999 150.923 112.117C149.923 109.807 148.099 108.394 145.486 107.94C145.297 107.909 145.114 107.861 144.981 107.83C149.945 104.397 153.103 99.8038 154.487 94.1404C155.326 90.7129 154.915 87.4014 152.891 84.3588C150.696 81.0631 147.471 79.845 143.496 80.2141C140.055 80.5358 136.947 81.8119 133.962 83.378C133.768 83.4782 133.573 83.5731 133.373 83.668C133.362 83.6733 133.334 83.6469 133.289 83.6205C135.474 81.8171 136.836 79.5444 137.442 76.8868C138.209 73.5119 138.204 70.1371 136.853 66.8836C135.38 63.3295 132.545 61.4945 128.536 61.2836C127.558 61.2308 126.585 61.273 125.612 61.4048C124.667 61.5367 123.75 61.7581 122.744 62.0376C123.16 60.7615 123.566 59.5487 123.839 58.3042C124.411 55.6993 124.628 53.0838 123.866 50.4842C122.755 46.6981 119.992 44.4095 116.217 43.086C115.655 42.8909 115.077 42.7432 114.505 42.5745C114.327 42.5745 114.216 42.6852 114.127 42.8065C112.859 44.5044 110.597 44.109 109.262 42.6483C109.045 42.411 108.862 42.1368 108.59 41.9522C108.412 41.831 108.206 41.6728 107.984 41.8046C107.767 41.9364 107.917 42.1526 107.961 42.3214C108.061 42.7116 108.167 43.0965 108.267 43.4867C108.584 44.7417 108.128 45.8755 107.022 46.5662C106.043 47.1779 105.009 47.1041 103.886 46.3026C103.414 45.9651 102.93 45.9018 102.38 46.0653C101.779 46.2446 101.185 46.35 100.551 46.176C99.3723 45.8544 98.6441 44.979 98.6274 43.8189C98.6218 43.3338 98.6496 42.8487 98.6163 42.3636C98.5551 41.4724 98.0992 41.1665 97.2598 41.5146C96.2925 41.9153 95.4642 41.6359 94.7137 41.0927C93.8853 40.4969 93.4906 39.6426 93.7686 38.6882C94.0521 37.7074 93.9354 36.9111 93.2794 36.0938C92.7346 35.4188 92.8068 34.6279 93.246 33.8843C93.3794 33.6629 93.5295 33.4572 93.6741 33.241C93.8909 32.9299 93.8353 32.7084 93.4184 32.6873C92.0508 32.6188 91.0334 31.9807 90.244 30.9578C90.1662 30.8576 90.0606 30.7732 89.9549 30.6994C89.7715 30.5781 89.5713 30.4094 89.3545 30.5359C89.0988 30.6783 89.2767 30.9156 89.3267 31.1054C89.4212 31.4956 89.5324 31.8806 89.6325 32.2708C89.9327 33.4783 89.4657 34.6173 88.3872 35.2975C87.3977 35.9198 86.347 35.8565 85.2518 35.055C84.757 34.6964 84.2511 34.6384 83.6896 34.823C82.8279 35.1077 81.9829 35.0972 81.1935 34.6226C80.4375 34.1691 79.9649 33.5416 79.9816 32.6452C79.9927 32.1178 80.0094 31.5905 79.9705 31.0632C79.9038 30.2142 79.459 29.9506 78.6362 30.2406C77.063 30.789 75.4008 29.8715 75.0783 28.2685C75.0283 28.0312 75.1061 27.699 74.7948 27.6146C74.439 27.5197 74.25 27.8361 74.0443 28.0417C73.7775 28.3106 73.7552 28.6534 73.7774 28.9909C73.8386 30.0561 73.3271 30.8365 72.3876 31.3322C71.4314 31.8436 70.4585 31.696 69.5357 31.1792C69.0743 30.9208 68.6629 30.5992 68.3461 30.1826C68.2293 30.0297 68.1014 29.882 67.9458 29.7608C67.7401 29.6026 67.5121 29.3758 67.2453 29.5182C66.9618 29.6658 67.1842 29.9348 67.2342 30.1457C67.3176 30.5148 67.4287 30.8839 67.5232 31.2531C67.8234 32.4659 67.362 33.5943 66.2835 34.2798C65.2996 34.9073 64.2544 34.8441 63.1481 34.0425C62.6311 33.6629 62.1085 33.6365 61.5192 33.8263C60.4685 34.1638 59.5012 34.0109 58.6618 33.3043C58.1392 32.8666 57.8612 32.313 57.8724 31.6327C57.8835 31.0632 57.9168 30.4937 57.8446 29.9295C57.7779 29.3916 57.4498 29.07 57.0329 29.0911C56.3825 29.1227 55.7987 29.5235 55.8099 30.0191C55.8377 31.5905 54.8759 32.4395 53.4805 32.9932C53.1914 33.1092 52.9024 33.2041 52.6188 33.3307C52.4243 33.415 52.163 33.4941 52.2075 33.7578C52.2519 34.0004 52.5132 34.0373 52.7245 34.09C53.008 34.1586 53.2971 34.1427 53.5862 34.1427C54.1921 34.1533 54.7758 34.2429 55.3318 34.4908C57.1052 35.287 57.461 37.7865 55.871 38.7884C55.1428 39.2471 54.837 39.8324 54.837 40.692C54.8314 42.5534 52.6189 43.608 50.801 42.6641C50.2895 42.4005 49.8281 42.0735 49.4779 41.62C49.4 41.5198 49.3222 41.4144 49.2221 41.3247C48.9664 41.098 48.694 40.7289 48.3382 40.9134C48.0102 41.0875 48.3215 41.446 48.3715 41.715C48.4327 42.0683 48.555 42.411 48.6384 42.759C48.8997 43.8928 48.3716 45.0476 47.3042 45.6962C46.348 46.2709 45.2806 46.2024 44.2799 45.4536C43.8463 45.1267 43.3849 44.9685 42.8568 45.1372C41.2168 45.6698 39.9382 45.2638 39.0487 43.8348C39.0042 43.7609 38.9264 43.7135 38.8319 43.7082C37.0306 47.025 36.2913 50.6002 35.9855 54.2756C35.5908 59.111 35.9299 63.9096 36.7693 68.7239C35.0515 68.84 33.3615 69.0087 31.6937 69.3778C25.5507 70.7436 21.7426 74.7933 20.7531 80.6254C19.6412 87.1535 22.6933 91.6093 28.1747 95C28.5194 95.2162 28.8863 95.406 29.3589 95.6697C27.2019 95.8753 25.2005 96.197 23.2659 96.8192C19.4578 98.0478 16.2223 100.052 13.7317 103.094C10.5296 107.012 10.0515 111.315 11.6581 115.918C12.0973 117.179 12.6644 118.392 13.4427 119.504C13.6928 119.863 13.6428 120.116 13.4427 120.464C12.2919 122.452 11.3691 124.514 11.319 126.834C11.269 129.17 12.253 131.042 14.1542 132.487C16.2556 134.084 18.7351 134.828 21.3424 135.266C21.5814 135.308 21.8205 135.345 22.1374 135.397C21.6982 135.735 21.2868 136.009 20.9254 136.331C19.2465 137.813 18.4849 139.721 18.2681 141.831C17.7789 146.629 19.7413 150.442 23.555 153.495C24.7113 148.923 26.6459 144.689 29.609 140.903C34.2343 134.991 40.4218 131.211 47.7767 129.08C51.6349 127.962 55.6153 127.303 59.5346 126.412C61.6249 125.937 63.7207 125.495 65.811 125.036C66.0389 125.178 66.2835 125.131 66.517 125.073C68.2793 124.651 70.0527 124.245 71.815 123.812C72.3821 123.675 72.5989 123.412 72.5822 122.837C72.5377 121.487 72.7879 120.153 72.888 118.808C73.0492 116.688 73.2549 114.574 73.3549 112.454C73.3827 111.869 73.5829 111.289 73.4495 110.698C73.3438 110.329 73.0103 110.34 72.7045 110.287C69.6191 109.749 66.6727 108.831 64.0543 107.155C61.8695 105.752 60.2462 103.811 58.7563 101.787C55.9377 97.9477 54.3367 93.6448 53.6251 89.0308C53.3971 87.5754 53.3026 86.1042 53.1803 84.6383C53.008 82.5448 53.197 80.4778 53.3249 78.4001C53.3471 78.031 53.2359 77.6935 53.0969 77.3561C52.1908 75.1466 51.6293 72.8528 51.2568 70.5115C51.2012 70.1635 51.2513 69.8419 51.4125 69.5307C53.1359 66.2034 54.0031 62.6388 54.6813 59.0214C55.0705 56.949 55.4096 54.8609 56.1545 52.8676C56.2713 52.5512 56.4047 52.2349 56.5548 51.9343C57.8001 49.4823 59.0676 49.3083 61.5415 49.6721C63.4594 49.9569 64.9604 51.0168 66.3058 52.2929C67.3009 53.2368 67.3787 53.2315 67.9235 51.987C68.4628 50.7531 69.1354 49.593 70.0249 48.5595C71.1312 47.2781 72.4543 46.3817 74.3278 46.6664C75.5119 46.8457 76.4681 47.4627 77.3242 48.2167C79.3034 49.9621 80.6932 52.1188 81.9718 54.3441C83.4672 56.9438 84.4623 59.7438 85.552 62.5016C87.0641 66.3405 89.0655 69.9315 92.0063 72.9583C94.1466 75.1624 96.6983 76.7707 100.012 76.8762C100.401 76.8868 100.545 77.045 100.584 77.4088C100.757 78.9802 100.723 80.5621 100.89 82.1282C101.24 83.7102 101.401 85.3238 101.902 86.8793C103.709 92.4478 107.405 96.4184 113.037 98.7492C115.011 99.5665 117.129 100.031 119.074 100.927C122.032 102.282 124.606 104.043 126.09 106.954C127.152 109.032 127.313 111.204 126.919 113.43C126.485 115.882 125.329 118.012 123.589 119.868C122.188 121.36 120.414 122.199 118.391 122.626C115.906 123.148 113.437 123.153 111.075 122.178C107.767 120.812 106.121 118.291 105.732 114.959C105.576 113.625 105.693 112.322 106.177 111.046C107.244 108.214 110.752 106.19 113.871 106.633C116.172 106.959 117.551 108.362 117.885 110.724C118.013 111.626 118.04 112.523 117.735 113.124C118.241 111.505 118.046 109.717 116.656 108.236C115.3 106.796 113.482 106.648 111.614 107.16C108.551 107.998 106.46 110.345 106.505 113.372C106.56 117.643 109.007 121.313 114.494 121.513C116.528 121.587 118.48 121.181 120.253 120.216C121.915 119.314 122.944 117.854 123.805 116.288C124.845 114.389 125.49 112.396 125.329 110.218C125.173 108.077 124.189 106.3 122.649 104.782C120.809 102.968 118.546 101.776 116.095 100.89C113.215 99.846 110.458 98.6279 108.095 96.6979C105.215 94.3461 103.286 91.4353 102.158 88.0183C101.752 86.7897 101.463 85.54 101.285 84.2586C101.263 84.1004 101.324 83.8262 100.968 83.9528C100.745 84.6646 100.751 85.4081 100.729 86.1306C100.618 89.2734 100.184 92.3687 99.3668 95.4113C98.683 97.9477 97.7157 100.384 96.1479 102.567C96.0256 102.741 95.8978 102.915 95.8422 103.126C95.7755 103.479 95.9256 103.79 96.0423 104.107C97.3209 107.587 98.5551 111.078 99.7281 114.595C100.701 117.527 101.629 120.474 102.563 123.417C102.847 124.308 102.864 124.308 103.875 124.313C105.076 124.319 106.271 124.313 107.472 124.313C108.117 124.313 108.756 124.308 109.396 124.403C109.807 124.508 110.28 124.535 110.719 124.319Z" fill="#613224"/>
<path d="M48.3605 224.192C48.5329 222.82 48.7108 221.449 48.872 220.073C49.0888 218.243 49.3112 216.414 49.5113 214.579C49.667 213.181 49.7837 211.784 49.9449 210.386C50.1395 208.678 50.3674 206.975 50.5675 205.272C50.7232 203.937 50.8566 202.603 51.0123 201.274C51.218 199.487 51.4404 197.699 51.6349 195.906C51.7684 194.694 51.874 193.476 51.8017 192.257C51.7739 191.735 51.4015 191.44 50.94 191.219C49.0054 190.291 47.2598 189.115 45.8032 187.58C43.8297 185.508 42.6845 183.082 42.3343 180.303C41.8006 176.074 42.9402 172.14 44.608 168.296C44.6914 168.101 44.7692 167.906 44.8415 167.706C44.8582 167.653 44.847 167.59 44.7247 167.474C44.3967 168.091 44.0465 168.702 43.7408 169.335C42.5956 171.687 41.6783 174.123 41.3114 176.696C40.8611 179.871 41.0946 182.998 42.59 185.93C44.041 188.772 46.2925 190.939 49.0888 192.605C49.4779 192.837 49.5835 193.059 49.4835 193.476C49.2889 194.277 49.3779 195.105 49.3056 195.922C49.1611 197.573 49.2167 199.244 49.1277 200.9C48.9609 204.09 48.8275 207.281 48.7108 210.471C48.6496 212.253 48.5329 214.035 48.455 215.818C48.355 218.022 48.2438 220.226 48.1826 222.43C48.166 223.01 48.077 223.601 48.0714 224.186C48.1715 224.192 48.266 224.192 48.3605 224.192Z" fill="#C3BA1D"/>
<path d="M126.195 224.192C126.317 222.668 126.434 221.138 126.556 219.615C126.612 218.966 126.623 218.317 126.684 217.669C126.84 216.018 126.868 214.357 126.99 212.701C127.19 209.917 127.44 207.144 127.629 204.359C127.724 202.978 127.796 201.596 127.907 200.215C128.13 197.441 128.124 194.657 128.024 191.883C127.824 186.283 128.03 180.678 127.874 175.078C127.83 173.448 127.863 171.814 127.746 170.179C127.518 170.216 127.529 170.358 127.518 170.479C127.424 172.114 127.351 173.749 127.235 175.383C127.035 178.21 126.779 181.026 126.595 183.852C126.506 185.213 126.412 186.573 126.317 187.934C126.145 190.422 126.006 192.917 125.789 195.4C125.578 197.794 125.584 200.199 125.656 202.593C125.862 209.269 125.728 215.944 125.784 222.62C125.789 223.142 125.995 223.659 125.884 224.186C125.989 224.197 126.089 224.192 126.195 224.192Z" fill="#C3BA1D"/>
<path d="M73.2713 110.635C73.0544 113.398 72.8098 116.156 72.6375 118.919C72.5485 120.364 72.2539 121.798 72.3429 123.248C72.3651 123.633 72.0982 123.554 71.9481 123.591C69.8968 124.097 67.8398 124.582 65.7829 125.073C66.4444 129.233 67.1616 133.383 68.4792 137.412C69.1463 139.447 70.0079 141.398 71.1754 143.223C73.3102 146.555 76.4623 148.575 80.3593 149.545C86.658 151.111 92.7565 150.5 98.5993 147.768C103.269 145.59 106.026 141.894 107.65 137.338C108.934 133.742 109.629 130.013 110.324 126.285C110.446 125.626 110.485 124.951 110.719 124.308C108.35 124.129 105.976 124.113 103.608 124.166C103.102 124.176 102.88 124.055 102.735 123.575C100.973 117.764 99.0552 111.995 96.9927 106.274C96.6202 105.24 96.1699 104.233 95.8975 103.173C95.6029 103.173 95.4916 103.405 95.3471 103.574C94.0184 105.135 92.3729 106.321 90.5384 107.307C87.3307 109.032 83.9061 110.097 80.2537 110.529C78.2412 110.766 76.2343 110.772 74.2274 110.519C73.8939 110.487 73.5603 110.392 73.2713 110.635Z" fill="#F5AB8F"/>
<path d="M72.8784 119.452C82.0806 118.532 91.6663 108.333 95.3088 103.348L73.4536 105.649L72.8784 119.452Z" fill="#613224" fill-opacity="0.21"/>
<path d="M73.2714 110.635C74.5501 110.661 75.812 110.909 77.1018 110.893C80.971 110.846 84.6846 110.139 88.2203 108.61C90.7164 107.529 93.0735 106.263 94.9359 104.302C95.275 103.943 95.5808 103.558 95.8977 103.184C97.9157 100.558 99.0387 97.5627 99.7836 94.4304C100.445 91.6462 100.818 88.8198 100.884 85.9618C100.901 85.2921 100.962 84.6224 101.007 83.9527C101.268 83.3568 101.062 82.7662 101.001 82.1704C100.912 80.5304 100.818 78.8958 100.745 77.2558C100.729 76.9025 100.668 76.7338 100.228 76.7338C97.6044 76.7549 95.4251 75.7002 93.4905 74.1183C90.3829 71.5661 88.3982 68.2651 86.6971 64.7901C85.5741 62.4963 84.8347 60.0654 83.8118 57.7347C82.4887 54.729 80.8765 51.8815 78.6862 49.3557C78.0913 48.6754 77.4298 48.0532 76.6737 47.5206C74.0942 45.7225 71.7148 46.3025 69.8191 48.5383C68.824 49.7142 68.0791 51.0325 67.5398 52.4457C67.3286 52.9994 67.1729 52.9678 66.7838 52.5723C65.3217 51.0853 63.6539 49.8566 61.4746 49.5191C59.0675 49.1447 57.6554 49.3873 56.4435 51.7444C55.4929 53.6005 55.1315 55.6201 54.7535 57.6187C53.9696 61.737 53.1969 65.8553 51.1455 69.6309C51.001 69.8945 50.9899 70.1582 51.0343 70.4271C51.4513 72.8791 51.9794 75.3048 52.9856 77.6091C53.1079 77.8833 53.1635 78.1681 53.1302 78.4686C52.969 80.04 52.8578 81.6167 52.9022 83.1934C53.0523 88.804 54.0363 94.23 56.866 99.2448C58.506 102.15 60.5796 104.745 63.2536 106.854C65.0492 108.267 67.2063 109.079 69.4133 109.749C70.6808 110.139 71.9872 110.329 73.2714 110.635Z" fill="#F5AB8F"/>
<path d="M100.99 82.1703C100.99 82.7662 100.995 83.3567 100.995 83.9526C101.251 84.9861 101.351 86.046 101.635 87.0796C102.647 90.7549 104.537 93.9347 107.494 96.5027C109.957 98.6436 112.903 99.9777 115.994 101.08C118.424 101.945 120.659 103.131 122.476 104.929C125.234 107.65 125.745 110.824 124.483 114.321C123.933 115.839 123.138 117.247 122.071 118.507C120.72 120.105 118.885 120.859 116.817 121.207C114.427 121.608 112.136 121.408 110.051 120.126C108.2 118.993 107.322 117.258 106.838 115.296C106.093 112.264 107.194 109.569 110.001 107.988C111.869 106.933 113.871 106.675 115.85 107.829C116.984 108.494 117.367 109.58 117.64 110.735C117.89 111.8 117.784 112.812 117.234 113.835C117.645 113.561 117.979 113.029 118.018 112.443C118.101 111.199 118.035 109.976 117.423 108.815C116.639 107.318 115.283 106.617 113.648 106.485C109.696 106.168 106.16 108.678 105.571 112.412C104.831 117.1 107.205 122.035 113.259 122.995C116.489 123.506 119.602 123.032 122.315 121.186C124.116 119.958 125.328 118.233 126.179 116.298C127.363 113.593 127.68 110.819 126.685 107.998C125.89 105.746 124.355 104.017 122.36 102.619C120.169 101.09 117.684 100.162 115.127 99.366C111.83 98.343 108.912 96.7347 106.505 94.3249C103.997 91.8149 102.519 88.8039 101.64 85.4871C101.357 84.3903 101.373 83.246 100.99 82.1703Z" fill="#44241A"/>
<path d="M137.971 87.6282C138.777 86.9163 139.599 86.2678 140.711 86.0305C143.369 85.461 146.037 86.8425 146.448 89.5898C146.788 91.8415 145.998 93.7503 144.519 95.4061C143.196 96.8931 141.523 97.9636 139.466 98.3749C136.781 98.9075 134.374 98.2272 132.233 96.698C129.643 94.8524 128.859 92.3002 129.209 89.3367C129.287 88.667 129.498 88.029 129.659 87.2275C129.198 87.6282 129.098 88.0659 128.992 88.4456C128.409 90.5548 128.264 92.6588 129.176 94.7417C129.965 96.5398 131.327 97.8581 133.04 98.8705C135.591 100.373 138.36 100.869 141.262 100.099C144.308 99.2924 146.187 97.199 147.355 94.5202C148.255 92.4479 148.372 90.3228 147.36 88.2241C146.232 85.8881 143.485 84.7491 140.934 85.4188C139.588 85.7563 138.677 86.5578 137.971 87.6282Z" fill="#44241A"/>
<path d="M16.7006 122.004C17.5901 122.642 18.6464 122.942 19.7193 123.122C22.0653 123.512 24.3557 123.333 26.5016 122.257C28.3529 121.329 29.587 119.831 30.5932 118.144C31.6328 116.398 32.1832 114.516 31.933 112.512C31.6328 110.087 30.3097 108.215 28.0916 106.991C26.0736 105.879 23.8721 105.562 21.6261 106.221C19.5748 106.828 18.0237 108.879 17.9737 110.904C17.957 111.647 18.1016 112.391 18.5574 113.055C18.474 112.465 18.474 111.879 18.4852 111.289C18.5241 108.663 21.2648 106.617 23.9833 107.155C25.8234 107.519 27.4189 108.236 28.5419 109.728C29.2924 110.725 29.5703 111.869 29.6704 113.045C29.9039 115.866 28.8643 118.307 26.913 120.374C25.6288 121.73 23.8554 122.231 22.0097 122.526C20.1863 122.816 18.4574 122.426 16.7006 122.004Z" fill="#44241A"/>
<path d="M104.103 75.7214C104.259 75.8216 104.403 75.7267 104.525 75.6792C107.794 74.3504 110.257 72.2886 111.258 68.9243C111.753 67.258 111.741 65.5654 111.491 63.8674C111.202 61.9163 110.513 60.1288 109.101 58.6312C106.816 56.2055 103.247 55.4884 100.501 57.8297C98.6882 59.3747 98.1545 62.0587 99.4943 64.3209C99.4331 63.8358 99.4165 63.5194 99.3553 63.2135C98.8494 60.5242 100.628 58.1091 103.441 57.8191C104.531 57.7084 105.554 58.1144 106.432 58.821C107.728 59.8651 108.306 61.3047 108.901 62.7284C109.551 64.2787 109.962 65.8817 109.918 67.5744C109.862 69.71 109.034 71.5293 107.55 73.1112C106.655 74.0656 105.571 74.7881 104.425 75.4419C104.297 75.5052 104.125 75.5316 104.103 75.7214Z" fill="#44241A"/>
<path d="M38.1424 71.9932C38.5093 74.3713 38.7595 76.7495 38.5982 79.1383C38.4648 81.0788 38.0923 82.9824 36.4746 84.4114C34.9291 85.7771 32.6498 86.1199 31.0042 85.2076C29.1308 84.1688 28.1134 82.0174 28.6249 80.1507C28.7583 79.655 29.0085 79.2174 29.3921 78.843C29.6478 78.5951 29.859 78.3051 30.1037 78.0204C29.0752 78.4106 28.3303 79.075 27.9689 80.0716C27.3129 81.875 27.6687 83.5624 28.775 85.1074C30.7152 87.8126 34.4955 88.4928 37.2584 86.5997C38.8706 85.4977 39.56 83.8577 39.8102 82.0543C40.2771 78.6795 39.4488 75.4682 38.3258 72.299C38.2814 72.1935 38.2035 72.0986 38.1424 71.9932Z" fill="#44241A"/>
<path d="M79.9127 103.792C82.0565 103.519 83.5879 102.503 84.47 100.67C85.4062 98.7257 86.0477 96.7006 86.1373 94.5478C86.1608 93.9829 86.1382 93.407 85.8805 92.877C85.5645 92.2312 85.1035 92.0674 84.4165 92.3147C83.8369 92.5242 83.423 92.9073 83.0527 93.376C81.3613 95.5115 79.2705 97.1479 76.4948 97.8535C75.1207 98.2049 73.7333 98.1545 72.3441 97.8973C71.7553 97.7894 71.1629 97.6979 70.5637 97.7874C69.8 97.9048 69.561 98.3491 69.9016 99.0136C70.2568 99.7084 70.8282 100.243 71.3941 100.777C73.7595 103.022 76.6386 103.966 79.9127 103.792Z" fill="#613224"/>
<path d="M70.5141 81.5378C70.3584 82.8771 70.1972 84.1269 70.0693 85.3766C70.0137 85.9092 69.9581 86.2678 69.2354 86.4259C67.7455 86.7476 66.706 88.0342 66.7226 89.2471C66.7337 89.8851 67.0729 90.3755 67.5176 90.7974C68.4627 91.6885 69.6357 92.2106 71.0366 92.701C70.4974 92.142 70.0805 91.7149 69.6691 91.2772C69.5079 91.1032 69.3466 90.9292 69.1965 90.7446C68.2737 89.5898 68.3571 89.3578 69.8191 88.9518C72.1429 88.3085 72.3486 87.9815 71.7982 85.7774C71.4925 84.5698 71.1867 83.3623 70.8865 82.16C70.842 81.9543 70.8365 81.7381 70.5141 81.5378Z" fill="#613224"/>
<path d="M84.0837 64.2205C84.1837 63.9252 84.0392 63.767 83.9002 63.6563C81.9934 62.1324 80.0365 60.6401 77.4459 60.3606C76.1117 60.2182 74.7441 60.1286 73.4932 60.8141C72.9151 61.1305 72.4648 61.5418 72.1868 62.1166C71.7754 62.9655 71.5475 63.862 71.5586 64.7953C71.5642 65.3384 72.0145 65.7497 72.5259 65.7287C73.0985 65.7023 73.3821 65.3226 73.3709 64.848C73.3376 62.8864 74.9109 61.7738 76.99 61.7C78.7801 61.6314 80.3367 62.2167 81.821 63.0657C82.5493 63.4823 83.2943 63.8725 84.0837 64.2205Z" fill="#613224"/>
<path d="M54.8482 74.6086C55.204 73.8177 55.5487 73.1216 55.8323 72.4045C56.4882 70.7329 57.4222 69.3039 59.0288 68.2598C60.5965 67.2473 62.3866 67.3159 63.6208 68.6658C64.2045 69.3091 64.6826 69.3039 65.0995 68.7607C65.4053 68.36 65.3219 67.9434 65.0161 67.6006C64.4713 66.989 63.8487 66.4406 63.1038 66.0503C61.7195 65.3279 60.2519 65.6021 58.8342 66.5724C56.6383 68.07 55.5487 70.1423 54.9817 72.5574C54.8927 72.9476 54.7649 73.3273 54.6648 73.7175C54.5981 73.9706 54.5314 74.2448 54.8482 74.6086Z" fill="#613224"/>
<path d="M67.0937 78.0078C65.7814 76.4093 64.3329 75.446 62.3286 75.4597C61.3864 75.4694 60.7088 75.9958 60.1385 76.6374C59.2074 77.6909 58.5127 79.4054 58.6054 80.4026C60.9165 78.1634 63.5293 76.8632 67.0937 78.0078Z" fill="#613224"/>
<path d="M84.8292 73.1114C84.4957 72.5472 84.062 72.2835 83.6507 72.0252C82.7223 71.4346 81.7216 71.0075 80.5875 70.8967C79.5257 70.7965 78.6918 71.1498 77.9802 71.8775C77.0184 72.8689 76.4069 74.6195 76.6571 76.038C77.5466 74.6565 78.6473 73.7969 80.2484 73.3382C81.755 72.9005 83.1948 72.7792 84.8292 73.1114Z" fill="#613224"/>
<path d="M59.0748 128.08C59.65 136.898 64.2511 154.881 78.0544 156.261" stroke="#C3BA1D" stroke-width="1.2007" stroke-linecap="round"/>
<path d="M99.9095 154.536C103.36 153.194 110.607 148.439 111.987 140.157" stroke="#C3BA1D" stroke-width="1.2007" stroke-linecap="round"/>
</g>
<mask id="mask1" mask-type="alpha" maskUnits="userSpaceOnUse" x="10" y="5" width="148" height="155">
<rect x="10.7632" y="5" width="146.24" height="154.164" fill="#C4C4C4"/>
</mask>
<g mask="url(#mask1)">
<path d="M107.208 39.3725C109.703 33.5517 116.619 30.7201 122.655 33.0479L126.181 34.4076C126.785 34.6403 127.072 35.3009 126.822 35.883C124.327 41.7038 117.411 44.5354 111.375 42.2075L107.849 40.8479C107.245 40.6151 106.958 39.9545 107.208 39.3725Z" fill="#00CF88"/>
<g filter="url(#filter1_d)">
<path d="M107.008 39.5452C108.624 35.7733 113.106 33.9383 117.018 35.4468L119.303 36.3279C119.694 36.4787 119.88 36.9068 119.718 37.284C118.102 41.056 113.62 42.8909 109.708 41.3824L107.423 40.5013C107.032 40.3505 106.846 39.9224 107.008 39.5452Z" fill="#268766"/>
</g>
<path d="M43.9836 35.9393C38.9168 39.9869 31.4042 39.4332 27.2038 34.7025L24.7576 31.9474C24.3375 31.4743 24.4078 30.7627 24.9144 30.3579C29.9813 26.3103 37.4939 26.864 41.6943 31.5948L44.1405 34.3498C44.5606 34.8229 44.4903 35.5345 43.9836 35.9393Z" fill="#00CF88"/>
<g filter="url(#filter2_d)">
<path d="M44.2451 35.8745C40.9617 38.4975 36.0933 38.1387 33.3714 35.0731L31.7862 33.2877C31.514 32.9812 31.5595 32.52 31.8878 32.2577C35.1713 29.6347 40.0396 29.9936 42.7615 33.0592L44.3467 34.8445C44.6189 35.1511 44.5734 35.6123 44.2451 35.8745Z" fill="#268766"/>
</g>
<path d="M72.9617 24.2773C68.3137 19.8003 68.4376 12.5356 73.2386 8.05106L75.6357 5.812C76.1158 5.36355 76.8817 5.36295 77.3466 5.81065C81.9946 10.2877 81.8707 17.5524 77.0697 22.0369L74.6726 24.276C74.1925 24.7244 73.4265 24.725 72.9617 24.2773Z" fill="#00CF88"/>
<g filter="url(#filter3_d)">
<path d="M73.0497 24.5195C70.0377 21.6183 70.118 16.9106 73.2291 14.0046L74.7825 12.5536C75.0936 12.263 75.59 12.2626 75.8912 12.5527C78.9032 15.4539 78.8229 20.1616 75.7118 23.0677L74.1584 24.5186C73.8473 24.8092 73.3509 24.8096 73.0497 24.5195Z" fill="#268766"/>
</g>
<path d="M95.0789 25.1936C96.0981 21.6052 99.9483 19.4691 103.679 20.4223L105.834 20.9732C106.207 21.0685 106.427 21.4367 106.325 21.7955C105.306 25.3838 101.456 27.52 97.7254 26.5668L95.5698 26.0159C95.1968 25.9206 94.977 25.5524 95.0789 25.1936Z" fill="#00CF88"/>
<g filter="url(#filter4_d)">
<path d="M94.9747 25.3088C95.6351 22.9835 98.1301 21.5992 100.547 22.2169L101.944 22.5739C102.186 22.6357 102.329 22.8743 102.262 23.1068C101.602 25.4321 99.107 26.8164 96.6897 26.1987L95.2928 25.8417C95.051 25.7799 94.9086 25.5414 94.9747 25.3088Z" fill="#268766"/>
</g>
<path d="M53.0641 27.186C49.2069 27.838 45.5229 25.4006 44.8355 21.7419L44.4629 19.7588C44.3942 19.3929 44.6512 19.0435 45.0369 18.9783C48.8941 18.3263 52.5781 20.7637 53.2655 24.4224L53.6381 26.4055C53.7068 26.7714 53.4498 27.1208 53.0641 27.186Z" fill="#00CF88"/>
<g filter="url(#filter5_d)">
<path d="M53.2187 27.2262C50.7191 27.6487 48.3318 26.0692 47.8864 23.6983L47.6449 22.4132C47.6004 22.1761 47.7669 21.9496 48.0169 21.9074C50.5164 21.4849 52.9038 23.0644 53.3492 25.4353L53.5906 26.7204C53.6352 26.9575 53.4686 27.1839 53.2187 27.2262Z" fill="#268766"/>
</g>
<path d="M23.5215 153.532C22.8822 156.021 22.8154 158.573 22.632 161.109C22.3762 164.658 22.1205 168.207 21.8648 171.756C21.6313 175.031 21.3978 178.31 21.1588 181.585C20.9086 185.028 20.6473 188.472 20.4027 191.915C20.2026 194.773 20.008 197.631 19.8245 200.484C19.5688 204.412 19.3075 208.341 19.0796 212.275C18.9073 215.175 18.7738 218.08 18.6237 220.981C18.5793 221.867 18.5682 222.752 18.4848 223.628C18.4403 224.123 18.6182 224.208 19.1018 224.208C27.4685 224.192 35.8408 224.197 44.2075 224.197C45.4973 224.197 46.7814 224.187 48.0712 224.181C48.3992 223.533 48.3603 222.821 48.377 222.146C48.427 219.43 48.5771 216.72 48.6938 214.01C48.8161 211.067 48.9551 208.125 49.083 205.182C49.2164 202.156 49.372 199.129 49.4832 196.102C49.5166 195.264 49.5333 194.415 49.6556 193.581C49.739 193.022 49.5444 192.68 49.0552 192.379C46.5813 190.85 44.5244 188.936 43.0956 186.452C41.9782 184.506 41.4501 182.418 41.3334 180.225C41.1277 176.307 42.3285 172.695 44.0074 169.183C44.1853 168.808 44.3576 168.434 44.5466 168.07C43.2347 170.833 42.3118 173.707 42.0616 176.734C41.578 182.603 43.8462 187.227 49.1275 190.433C49.65 190.75 50.1782 191.066 50.7396 191.319C51.3734 191.609 51.618 192.073 51.6292 192.738C51.6625 194.578 51.3456 196.392 51.1566 198.211C50.8008 201.607 50.395 204.993 50.0058 208.383C49.7223 210.851 49.4388 213.324 49.1664 215.792C48.9162 218.012 48.6216 220.227 48.4159 222.447C48.3658 223.021 48.1324 223.591 48.3659 224.176C48.6327 224.181 48.8996 224.187 49.1664 224.187C74.6334 224.187 100.095 224.187 125.562 224.187C125.673 224.187 125.784 224.181 125.895 224.181C126.151 223.939 126.073 223.617 126.062 223.338C125.912 219.293 126.04 215.249 126.001 211.204C125.984 209.622 126.057 208.04 125.984 206.464C125.879 204.212 125.884 201.96 125.862 199.704C125.84 197.447 126.101 195.206 126.229 192.959C126.351 190.729 126.524 188.503 126.679 186.278C126.841 183.99 126.996 181.701 127.152 179.413C127.302 177.166 127.519 174.92 127.591 172.668C127.608 172.099 127.708 171.54 127.641 170.97C127.747 177.266 127.658 183.562 127.741 189.859C127.769 191.92 127.819 193.982 127.847 196.049C127.88 198.348 127.608 200.632 127.48 202.92C127.358 205.13 127.18 207.329 127.03 209.538C126.874 211.784 126.707 214.031 126.557 216.277C126.39 218.734 126.168 221.186 126.062 223.649C126.057 223.839 126.04 224.034 126.207 224.181C136.241 224.187 146.281 224.187 156.316 224.203C156.861 224.203 156.849 223.971 156.849 223.601C156.799 217.996 156.672 212.391 156.749 206.791C156.799 203.237 157.105 199.682 157.183 196.123C157.272 192.226 157.183 188.329 157.039 184.433C156.927 181.422 156.738 178.416 156.438 175.421C155.426 165.365 153.77 155.441 149.517 146.076C148.877 144.663 148.127 143.307 147.326 141.973C147.338 141.657 147.137 141.42 146.971 141.172C143.963 136.711 139.916 133.299 135.102 130.678C129.22 127.477 122.832 125.721 116.172 124.746C114.549 124.509 112.92 124.34 111.286 124.187C111.086 124.166 110.891 124.14 110.702 124.234C110.435 124.419 110.441 124.709 110.391 124.973C109.74 128.738 109.012 132.492 107.878 136.157C106.988 139.036 105.665 141.72 103.575 144.003C102.28 145.417 100.684 146.492 98.9608 147.389C95.9754 148.95 92.7678 149.778 89.3822 150.068C85.6574 150.389 82.0272 150.062 78.5138 148.776C75.1838 147.558 72.7099 145.422 70.9532 142.495C69.3076 139.753 68.3792 136.769 67.6398 133.721C67.0061 131.09 66.478 128.442 66.1055 125.764C66.0721 125.516 66.0277 125.263 65.872 125.047C65.6663 124.888 65.4495 124.967 65.2382 125.015C59.5622 126.312 53.8139 127.34 48.188 128.822C43.0067 130.183 38.3258 132.513 34.2564 135.878C31.1821 138.419 28.7138 141.425 26.7903 144.847C25.3894 147.336 24.3498 149.941 23.577 152.657C23.4825 152.952 23.388 153.237 23.5215 153.532Z" fill="#EDE221"/>
<path d="M110.719 124.319C117.118 124.804 123.366 125.959 129.342 128.232C136.808 131.068 143.024 135.392 147.316 141.973C148.388 140.223 149.356 138.435 149.784 136.421C150.623 132.508 149.311 129.339 146.148 126.792C145.403 126.191 144.586 125.69 143.619 125.215C144.325 125.078 144.931 125.004 145.509 124.846C149.167 123.871 150.996 121.398 151.624 118.002C151.996 115.987 151.746 113.999 150.923 112.117C149.923 109.807 148.099 108.394 145.486 107.941C145.297 107.909 145.114 107.861 144.981 107.83C149.945 104.397 153.103 99.8041 154.487 94.1407C155.326 90.7132 154.915 87.4017 152.891 84.3591C150.696 81.0634 147.471 79.8453 143.496 80.2144C140.055 80.536 136.947 81.8121 133.962 83.3783C133.768 83.4785 133.573 83.5734 133.373 83.6683C133.362 83.6736 133.334 83.6472 133.289 83.6208C135.474 81.8174 136.836 79.5447 137.442 76.887C138.209 73.5122 138.204 70.1374 136.853 66.8839C135.38 63.3298 132.545 61.4948 128.536 61.2838C127.558 61.2311 126.585 61.2733 125.612 61.4051C124.667 61.5369 123.75 61.7584 122.744 62.0379C123.16 60.7618 123.566 59.549 123.839 58.3045C124.411 55.6996 124.628 53.0841 123.866 50.4844C122.755 46.6983 119.992 44.4098 116.217 43.0862C115.655 42.8911 115.077 42.7435 114.505 42.5747C114.327 42.5747 114.216 42.6855 114.127 42.8068C112.859 44.5047 110.597 44.1092 109.262 42.6486C109.045 42.4113 108.862 42.1371 108.59 41.9525C108.412 41.8312 108.206 41.673 107.984 41.8049C107.767 41.9367 107.917 42.1529 107.961 42.3216C108.061 42.7118 108.167 43.0968 108.267 43.487C108.584 44.742 108.128 45.8757 107.022 46.5665C106.043 47.1782 105.009 47.1044 103.886 46.3029C103.414 45.9654 102.93 45.9021 102.38 46.0656C101.779 46.2449 101.185 46.3503 100.551 46.1763C99.3723 45.8546 98.6441 44.9793 98.6274 43.8192C98.6218 43.3341 98.6496 42.849 98.6163 42.3638C98.5551 41.4727 98.0992 41.1668 97.2598 41.5148C96.2925 41.9156 95.4642 41.6361 94.7137 41.093C93.8853 40.4971 93.4906 39.6429 93.7686 38.6884C94.0521 37.7076 93.9354 36.9114 93.2794 36.0941C92.7346 35.4191 92.8068 34.6281 93.246 33.8846C93.3794 33.6632 93.5295 33.4575 93.6741 33.2413C93.8909 32.9302 93.8353 32.7087 93.4184 32.6876C92.0508 32.6191 91.0334 31.981 90.244 30.958C90.1662 30.8578 90.0606 30.7735 89.9549 30.6997C89.7715 30.5784 89.5713 30.4096 89.3545 30.5362C89.0988 30.6786 89.2767 30.9158 89.3267 31.1057C89.4212 31.4959 89.5324 31.8808 89.6325 32.271C89.9327 33.4786 89.4657 34.6176 88.3872 35.2978C87.3977 35.9201 86.347 35.8568 85.2518 35.0553C84.757 34.6967 84.2511 34.6387 83.6896 34.8232C82.8279 35.108 81.9829 35.0974 81.1935 34.6229C80.4375 34.1694 79.9649 33.5419 79.9816 32.6454C79.9927 32.1181 80.0094 31.5908 79.9705 31.0635C79.9038 30.2145 79.459 29.9509 78.6362 30.2409C77.063 30.7893 75.4008 29.8718 75.0783 28.2687C75.0283 28.0314 75.1061 27.6992 74.7948 27.6149C74.439 27.52 74.25 27.8363 74.0443 28.042C73.7775 28.3109 73.7552 28.6537 73.7774 28.9912C73.8386 30.0563 73.3271 30.8368 72.3876 31.3324C71.4314 31.8439 70.4585 31.6963 69.5357 31.1795C69.0743 30.9211 68.6629 30.5995 68.3461 30.1829C68.2293 30.03 68.1014 29.8823 67.9458 29.761C67.7401 29.6028 67.5121 29.3761 67.2453 29.5185C66.9618 29.6661 67.1842 29.935 67.2342 30.146C67.3176 30.5151 67.4287 30.8842 67.5232 31.2533C67.8234 32.4662 67.362 33.5946 66.2835 34.2801C65.2996 34.9076 64.2544 34.8443 63.1481 34.0428C62.6311 33.6632 62.1085 33.6368 61.5192 33.8266C60.4685 34.1641 59.5012 34.0112 58.6618 33.3046C58.1392 32.8669 57.8612 32.3132 57.8724 31.633C57.8835 31.0635 57.9168 30.494 57.8446 29.9298C57.7779 29.3919 57.4498 29.0703 57.0329 29.0913C56.3825 29.123 55.7987 29.5237 55.8099 30.0194C55.8377 31.5908 54.8759 32.4398 53.4805 32.9935C53.1914 33.1095 52.9024 33.2044 52.6188 33.3309C52.4243 33.4153 52.163 33.4944 52.2075 33.7581C52.2519 34.0006 52.5132 34.0375 52.7245 34.0903C53.008 34.1588 53.2971 34.143 53.5862 34.143C54.1921 34.1536 54.7758 34.2432 55.3318 34.491C57.1052 35.2873 57.461 37.7867 55.871 38.7886C55.1428 39.2474 54.837 39.8327 54.837 40.6922C54.8314 42.5537 52.6189 43.6083 50.801 42.6644C50.2895 42.4007 49.8281 42.0738 49.4779 41.6203C49.4 41.5201 49.3222 41.4147 49.2221 41.325C48.9664 41.0983 48.694 40.7292 48.3382 40.9137C48.0102 41.0877 48.3215 41.4463 48.3715 41.7152C48.4327 42.0685 48.555 42.4113 48.6384 42.7593C48.8997 43.893 48.3716 45.0478 47.3042 45.6964C46.348 46.2712 45.2806 46.2027 44.2799 45.4539C43.8463 45.1269 43.3849 44.9688 42.8568 45.1375C41.2168 45.6701 39.9382 45.264 39.0487 43.835C39.0042 43.7612 38.9264 43.7137 38.8319 43.7085C37.0306 47.0253 36.2913 50.6005 35.9855 54.2758C35.5908 59.1113 35.9299 63.9099 36.7693 68.7242C35.0515 68.8402 33.3615 69.009 31.6937 69.3781C25.5507 70.7438 21.7426 74.7936 20.7531 80.6257C19.6412 87.1538 22.6933 91.6096 28.1747 95.0002C28.5194 95.2164 28.8863 95.4063 29.3589 95.6699C27.2019 95.8756 25.2005 96.1973 23.2659 96.8195C19.4578 98.0481 16.2223 100.052 13.7317 103.095C10.5296 107.012 10.0515 111.315 11.6581 115.919C12.0973 117.179 12.6644 118.392 13.4427 119.505C13.6928 119.863 13.6428 120.116 13.4427 120.464C12.2919 122.452 11.3691 124.514 11.319 126.834C11.269 129.17 12.253 131.042 14.1542 132.487C16.2556 134.085 18.7351 134.828 21.3424 135.266C21.5814 135.308 21.8205 135.345 22.1374 135.398C21.6982 135.735 21.2868 136.009 20.9254 136.331C19.2465 137.813 18.4849 139.722 18.2681 141.831C17.7789 146.63 19.7413 150.442 23.555 153.495C24.7113 148.923 26.6459 144.689 29.609 140.903C34.2343 134.992 40.4218 131.211 47.7767 129.081C51.6349 127.963 55.6153 127.303 59.5346 126.412C61.6249 125.938 63.7207 125.495 65.811 125.036C66.0389 125.178 66.2835 125.131 66.517 125.073C68.2793 124.651 70.0527 124.245 71.815 123.813C72.3821 123.676 72.5989 123.412 72.5822 122.837C72.5377 121.487 72.7879 120.153 72.888 118.808C73.0492 116.689 73.2549 114.574 73.3549 112.454C73.3827 111.869 73.5829 111.289 73.4495 110.698C73.3438 110.329 73.0103 110.34 72.7045 110.287C69.6191 109.749 66.6727 108.832 64.0543 107.155C61.8695 105.752 60.2462 103.812 58.7563 101.787C55.9377 97.9479 54.3367 93.6451 53.6251 89.0311C53.3971 87.5757 53.3026 86.1045 53.1803 84.6385C53.008 82.5451 53.197 80.478 53.3249 78.4004C53.3471 78.0313 53.2359 77.6938 53.0969 77.3563C52.1908 75.1469 51.6293 72.8531 51.2568 70.5118C51.2012 70.1638 51.2513 69.8421 51.4125 69.531C53.1359 66.2037 54.0031 62.639 54.6813 59.0217C55.0705 56.9493 55.4096 54.8612 56.1545 52.8679C56.2713 52.5515 56.4047 52.2351 56.5548 51.9346C57.8001 49.4826 59.0676 49.3085 61.5415 49.6724C63.4594 49.9571 64.9604 51.017 66.3058 52.2931C67.3009 53.237 67.3787 53.2318 67.9235 51.9873C68.4628 50.7534 69.1354 49.5933 70.0249 48.5598C71.1312 47.2784 72.4543 46.382 74.3278 46.6667C75.5119 46.846 76.4681 47.4629 77.3242 48.217C79.3034 49.9624 80.6932 52.1191 81.9718 54.3444C83.4672 56.944 84.4623 59.7441 85.552 62.5019C87.0641 66.3408 89.0655 69.9318 92.0063 72.9585C94.1466 75.1627 96.6983 76.771 100.012 76.8765C100.401 76.887 100.545 77.0452 100.584 77.4091C100.757 78.9805 100.723 80.5624 100.89 82.1285C101.24 83.7105 101.401 85.324 101.902 86.8796C103.709 92.4481 107.405 96.4187 113.037 98.7495C115.011 99.5668 117.129 100.031 119.074 100.927C122.032 102.282 124.606 104.044 126.09 106.954C127.152 109.032 127.313 111.205 126.919 113.43C126.485 115.882 125.329 118.012 123.589 119.868C122.188 121.361 120.414 122.199 118.391 122.626C115.906 123.148 113.437 123.154 111.075 122.178C107.767 120.812 106.121 118.292 105.732 114.959C105.576 113.625 105.693 112.322 106.177 111.046C107.244 108.215 110.752 106.19 113.871 106.633C116.172 106.96 117.551 108.362 117.885 110.725C118.013 111.626 118.04 112.523 117.735 113.124C118.241 111.505 118.046 109.718 116.656 108.236C115.3 106.796 113.482 106.649 111.614 107.16C108.551 107.999 106.46 110.345 106.505 113.372C106.56 117.643 109.007 121.313 114.494 121.514C116.528 121.587 118.48 121.181 120.253 120.216C121.915 119.315 122.944 117.854 123.805 116.288C124.845 114.39 125.49 112.396 125.329 110.219C125.173 108.078 124.189 106.301 122.649 104.782C120.809 102.968 118.546 101.776 116.095 100.89C113.215 99.8463 110.458 98.6282 108.095 96.6982C105.215 94.3464 103.286 91.4356 102.158 88.0186C101.752 86.79 101.463 85.5402 101.285 84.2589C101.263 84.1007 101.324 83.8265 100.968 83.953C100.745 84.6649 100.751 85.4084 100.729 86.1308C100.618 89.2736 100.184 92.3689 99.3668 95.4116C98.683 97.9479 97.7157 100.384 96.1479 102.567C96.0256 102.741 95.8978 102.915 95.8422 103.126C95.7755 103.479 95.9256 103.791 96.0423 104.107C97.3209 107.587 98.5551 111.078 99.7281 114.595C100.701 117.527 101.629 120.475 102.563 123.417C102.847 124.308 102.864 124.308 103.875 124.314C105.076 124.319 106.271 124.314 107.472 124.314C108.117 124.314 108.756 124.308 109.396 124.403C109.807 124.509 110.28 124.535 110.719 124.319Z" fill="#613224"/>
<path d="M38.7984 43.7348C39.5211 45.2957 40.9221 45.9074 42.651 45.3959C43.168 45.243 43.6572 45.1586 44.0853 45.5541C45.8643 47.1993 48.4048 45.8283 48.7995 43.9669C48.9886 43.0652 48.6272 42.2689 48.4382 41.4305C48.4048 41.2934 48.3437 41.1616 48.277 40.9823C48.7662 41.0403 48.9663 41.3514 49.1998 41.6203C49.8336 42.348 50.5452 42.9544 51.5625 43.1548C53.4138 43.5239 55.0815 42.2425 55.0037 40.455C54.9815 39.9276 55.0648 39.49 55.5819 39.2158C56.8938 38.5039 57.2663 37.4071 56.8827 36.0255C56.5547 34.8496 55.3817 34.085 53.8974 34.0006C53.347 33.969 52.7855 34.0587 52.2519 33.8108C52.263 33.5472 52.5242 33.5735 52.6799 33.505C53.2803 33.236 53.9252 33.0409 54.4867 32.7193C55.4873 32.1445 56.021 31.2903 55.9488 30.1407C55.921 29.703 56.4491 29.2759 57.0328 29.2654C57.5443 29.2548 57.6444 29.6187 57.6721 29.9878C57.7055 30.4255 57.7555 30.879 57.6888 31.3113C57.3942 33.3626 59.4956 34.5754 61.2245 34.1061C62.0973 33.8688 62.7088 33.9426 63.4538 34.5069C64.8603 35.5668 67.1785 34.5332 67.6844 32.7456C67.9568 31.7859 67.5732 30.9211 67.3508 30.0247C67.323 29.9034 67.273 29.7927 67.2063 29.6081C67.6733 29.6556 67.8734 29.9509 68.1014 30.2145C68.7296 30.9422 69.4356 31.5592 70.4529 31.7648C72.3431 32.155 74.0164 30.8737 73.9275 29.0439C73.8941 28.3795 74.1443 27.9576 74.8392 27.6729C74.8892 28.0526 74.8781 28.4217 75.0004 28.775C75.5007 30.1987 77.2408 30.9791 78.6862 30.4096C79.4089 30.1249 79.7258 30.2936 79.7981 31.0319C79.837 31.4484 79.8815 31.8808 79.8148 32.2922C79.4979 34.3223 81.5826 35.6142 83.4561 35.0922C84.2622 34.8654 84.8236 34.9182 85.5019 35.4666C86.875 36.5792 89.2877 35.572 89.8103 33.7739C90.0883 32.8142 89.7102 31.9494 89.4879 31.053C89.4545 30.9159 89.3378 30.7946 89.3989 30.6258C89.7492 30.6417 89.9437 30.8737 90.1328 31.1057C91.0445 32.2236 92.1452 32.9935 93.7407 32.8406C93.7296 33.0778 93.5517 33.1622 93.4516 33.2888C92.4954 34.5227 92.4788 35.4613 93.4683 36.6741C93.8686 37.1645 93.8797 37.6444 93.7129 38.2086C93.1626 40.0542 94.0854 41.4621 96.0589 41.884C96.537 41.9894 96.9262 41.8365 97.3376 41.6731C98.0936 41.3725 98.3994 41.5412 98.4717 42.3269C98.5106 42.7435 98.5439 43.1759 98.4828 43.5872C98.1826 45.5752 100.267 46.8882 102.169 46.3345C102.958 46.1025 103.503 46.1763 104.153 46.7089C105.515 47.8268 107.939 46.846 108.473 45.0479C108.756 44.0882 108.384 43.2234 108.161 42.3269C108.128 42.1898 108.067 42.058 108 41.8629C108.456 41.9103 108.656 42.1845 108.867 42.4377C109.34 43.0019 109.874 43.5081 110.574 43.8192C112.047 44.4784 113.521 44.0143 114.521 42.5853C114.716 42.1476 114.794 41.6941 114.727 41.2248C114.66 40.7292 114.838 40.3495 115.288 40.1017C116.717 39.3265 116.967 38.1242 116.589 36.8534C116.245 35.688 115.055 34.9445 113.565 34.876C113.026 34.8496 112.464 34.9498 111.858 34.6071C112.559 34.3223 113.187 34.0956 113.799 33.8214C115.338 33.1253 116.022 31.7385 115.516 30.3464C115.205 29.5027 114.621 28.891 113.687 28.6537C112.954 28.4691 112.548 28.042 112.281 27.367C111.43 25.2209 108.895 24.857 107.35 26.6393C106.905 27.1508 106.616 27.7414 106.366 28.3531C106.31 28.4849 106.327 28.6853 106.11 28.6537C105.916 28.6273 105.927 28.4375 105.899 28.3004C105.804 27.7625 105.821 27.2088 105.649 26.6815C104.948 24.5037 102.391 23.8024 100.684 25.3316C100.634 25.3738 100.556 25.4107 100.54 25.4582C100.206 26.5497 99.2222 26.3862 98.366 26.4917C98.1048 26.5233 98.0936 26.4179 98.0547 26.228C97.7212 24.5512 96.6482 23.6917 94.8414 23.6231C94.4634 23.6073 94.0854 23.602 93.7129 23.5598C93.5795 23.544 93.4016 23.544 93.2571 23.3278C93.8908 23.0747 94.519 22.8427 95.125 22.5738C96.6705 21.883 97.3542 20.4962 96.8483 19.104C96.5426 18.2551 95.9589 17.6434 95.0249 17.4114C94.2911 17.2268 93.8797 16.805 93.6128 16.13C92.7623 13.9838 90.2328 13.6147 88.6818 15.3865C88.2259 15.9138 87.9202 16.5202 87.6811 17.1583C87.6366 17.2795 87.6144 17.4272 87.4476 17.4114C87.2864 17.3955 87.2697 17.2479 87.2419 17.1213C87.1307 16.5624 87.1585 15.9876 86.9806 15.4392C86.2802 13.2561 83.734 12.5548 82.0218 14.0787C82.0051 14.0946 81.9828 14.1051 81.9717 14.1209C81.5714 15.1492 80.6431 15.1281 79.7091 15.2599C77.8078 15.5341 76.8516 17.3165 77.6299 18.9933C77.9857 19.7685 78.5583 20.3696 79.2977 20.8336C79.4923 20.9549 79.8036 21.0762 79.6146 21.3557C79.4534 21.5982 79.2032 21.382 79.0197 21.3135C78.1136 20.9813 77.1796 21.0287 76.2568 21.1553C75.3951 21.2713 74.8336 21.8092 74.4667 22.5263C74.3166 22.8216 74.1776 22.9271 73.8107 22.7952C73.2881 22.6107 72.7267 22.5896 72.1707 22.6054C71.8205 22.6107 71.4758 22.5949 71.0756 22.3417C71.7705 22.0623 72.3987 21.8303 73.0046 21.5613C74.5446 20.8653 75.2283 19.4784 74.7224 18.0863C74.4111 17.2426 73.8274 16.6309 72.8934 16.3937C72.1596 16.2091 71.7538 15.782 71.4869 15.107C70.6364 12.9608 68.1013 12.6023 66.5559 14.3793C66.1111 14.8908 65.822 15.4814 65.5719 16.0931C65.5163 16.2249 65.533 16.4253 65.3162 16.3937C65.1216 16.3673 65.1327 16.1775 65.1049 16.0404C65.0104 15.5025 65.0271 14.9488 64.8547 14.4215C64.1598 12.2701 61.6582 11.5582 59.9403 13.0294C59.907 13.0558 59.8569 13.0821 59.8458 13.1138C59.4455 14.0893 58.5783 14.1209 57.6444 14.2369C55.6541 14.4901 54.6757 16.3884 55.5652 18.1021C55.9321 18.8193 56.4825 19.3888 57.1885 19.8265C57.3664 19.9372 57.6388 20.0374 57.522 20.2958C57.3831 20.6069 57.1329 20.3907 56.955 20.3221C56.0544 19.9688 55.1149 20.0005 54.1976 20.1323C52.4186 20.396 51.3234 22.5685 52.3686 23.9395C53.0857 24.8729 53.1636 25.706 52.6632 26.6974C52.3464 25.8484 51.8627 25.1101 50.9065 24.7832C49.7669 24.393 48.4215 24.8096 47.5876 25.8062C47.1707 26.3071 46.8872 26.8766 46.6481 27.4672C46.5925 27.5991 46.6092 27.7994 46.3924 27.7678C46.2033 27.7414 46.2089 27.5516 46.1811 27.4092C46.0866 26.8714 46.1033 26.3177 45.931 25.7904C45.2361 23.6389 42.7344 22.9271 41.0166 24.4035C40.9832 24.4299 40.9332 24.4563 40.9221 24.4879C40.5218 25.4634 39.6545 25.4898 38.7206 25.6111C36.7304 25.8642 35.7575 27.7625 36.6414 29.4816C37.0083 30.1987 37.5587 30.7682 38.2647 31.2006C38.4426 31.3113 38.715 31.4115 38.5983 31.6699C38.4593 31.9758 38.2036 31.7648 38.0312 31.6963C37.1306 31.343 36.2022 31.4168 35.2738 31.5012C33.8228 31.6277 32.2051 33.9057 33.5004 35.4349C34.1008 36.1415 34.1953 36.8007 33.9285 37.6497C33.4504 39.163 34.4844 40.803 36.697 41.0456C37.0583 41.0825 37.3753 40.8821 37.7033 40.7503C38.3481 40.4971 38.6928 40.6712 38.7428 41.3356C38.7984 42.1371 38.7817 42.9386 38.7984 43.7348Z" fill="#EDE221"/>
<path d="M73.2711 110.635C73.0543 113.398 72.8097 116.156 72.6374 118.919C72.5484 120.364 72.2538 121.798 72.3427 123.248C72.365 123.633 72.0981 123.554 71.948 123.591C69.8966 124.097 67.8397 124.582 65.7828 125.073C66.4443 129.233 67.1615 133.383 68.479 137.412C69.1462 139.447 70.0078 141.398 71.1753 143.223C73.31 146.556 76.4622 148.575 80.3592 149.545C86.6579 151.112 92.7564 150.5 98.5992 147.768C103.269 145.591 106.026 141.894 107.65 137.338C108.934 133.742 109.629 130.014 110.324 126.286C110.446 125.627 110.485 124.952 110.718 124.308C108.35 124.129 105.976 124.113 103.608 124.166C103.102 124.176 102.88 124.055 102.735 123.575C100.973 117.764 99.055 111.995 96.9925 106.274C96.6201 105.241 96.1698 104.233 95.8974 103.174C95.6027 103.174 95.4915 103.406 95.347 103.574C94.0183 105.135 92.3728 106.322 90.5382 107.308C87.3305 109.032 83.906 110.097 80.2536 110.53C78.2411 110.767 76.2342 110.772 74.2273 110.519C73.8937 110.487 73.5602 110.392 73.2711 110.635Z" fill="#F5AB8F"/>
<path d="M72.8783 119.453C82.0805 118.532 91.6662 108.333 95.3087 103.349L73.4534 105.649L72.8783 119.453Z" fill="#613224" fill-opacity="0.21"/>
<path d="M73.2713 110.635C74.5499 110.661 75.8119 110.909 77.1017 110.893C80.9709 110.846 84.6845 110.139 88.2202 108.61C90.7163 107.529 93.0734 106.264 94.9358 104.302C95.2749 103.943 95.5807 103.558 95.8976 103.184C97.9156 100.558 99.0385 97.5629 99.7835 94.4307C100.445 91.6465 100.817 88.8201 100.884 85.962C100.901 85.2923 100.962 84.6227 101.007 83.953C101.268 83.3571 101.062 82.7665 101.001 82.1707C100.912 80.5307 100.817 78.896 100.745 77.2561C100.729 76.9028 100.667 76.7341 100.228 76.7341C97.6042 76.7551 95.425 75.7005 93.4904 74.1186C90.3827 71.5664 88.3981 68.2654 86.6969 64.7904C85.574 62.4966 84.8346 60.0657 83.8117 57.735C82.4886 54.7293 80.8764 51.8818 78.686 49.3559C78.0912 48.6757 77.4296 48.0535 76.6736 47.5209C74.0941 45.7228 71.7147 46.3028 69.819 48.5386C68.8239 49.7145 68.0789 51.0328 67.5397 52.446C67.3284 52.9997 67.1728 52.968 66.7836 52.5726C65.3216 51.0855 63.6537 49.8569 61.4745 49.5194C59.0673 49.145 57.6553 49.3876 56.4434 51.7447C55.4927 53.6008 55.1314 55.6204 54.7534 57.6189C53.9695 61.7373 53.1968 65.8556 51.1454 69.6311C51.0009 69.8948 50.9897 70.1585 51.0342 70.4274C51.4512 72.8794 51.9793 75.305 52.9855 77.6094C53.1078 77.8836 53.1634 78.1683 53.1301 78.4689C52.9688 80.0403 52.8576 81.617 52.9021 83.1936C53.0522 88.8043 54.0362 94.2303 56.8659 99.2451C58.5059 102.151 60.5795 104.745 63.2535 106.854C65.0491 108.267 67.2061 109.079 69.4132 109.749C70.6807 110.139 71.9871 110.329 73.2713 110.635Z" fill="#F5AB8F"/>
<path d="M100.99 82.1706C100.99 82.7665 100.995 83.3571 100.995 83.9529C101.251 84.9865 101.351 86.0464 101.635 87.0799C102.646 90.7553 104.537 93.935 107.494 96.503C109.957 98.6439 112.903 99.978 115.994 101.08C118.424 101.945 120.658 103.131 122.476 104.929C125.234 107.65 125.745 110.825 124.483 114.321C123.933 115.84 123.138 117.248 122.07 118.508C120.72 120.106 118.885 120.86 116.817 121.208C114.426 121.608 112.136 121.408 110.051 120.127C108.2 118.993 107.322 117.258 106.838 115.296C106.093 112.264 107.194 109.57 110.001 107.988C111.869 106.933 113.871 106.675 115.85 107.83C116.984 108.494 117.367 109.58 117.64 110.735C117.89 111.8 117.784 112.813 117.234 113.836C117.645 113.562 117.979 113.029 118.018 112.444C118.101 111.199 118.034 109.976 117.423 108.816C116.639 107.318 115.283 106.617 113.648 106.485C109.696 106.169 106.16 108.679 105.571 112.412C104.831 117.1 107.205 122.036 113.259 122.995C116.489 123.507 119.602 123.032 122.315 121.187C124.116 119.958 125.328 118.234 126.179 116.298C127.363 113.593 127.68 110.82 126.685 107.998C125.89 105.747 124.355 104.017 122.36 102.62C120.169 101.091 117.684 100.163 115.127 99.3663C111.83 98.3433 108.912 96.735 106.505 94.3252C103.997 91.8152 102.519 88.8042 101.64 85.4874C101.357 84.3906 101.373 83.2463 100.99 82.1706Z" fill="#44241A"/>
<path d="M137.971 87.6285C138.777 86.9166 139.599 86.268 140.711 86.0307C143.369 85.4612 146.037 86.8428 146.448 89.5901C146.788 91.8417 145.998 93.7506 144.519 95.4064C143.196 96.8934 141.523 97.9638 139.466 98.3751C136.781 98.9077 134.374 98.2275 132.233 96.6983C129.643 94.8527 128.859 92.3005 129.209 89.337C129.287 88.6673 129.498 88.0293 129.659 87.2277C129.198 87.6285 129.098 88.0662 128.992 88.4458C128.409 90.5551 128.264 92.6591 129.176 94.742C129.965 96.5401 131.327 97.8584 133.04 98.8708C135.591 100.374 138.36 100.869 141.262 100.099C144.308 99.2927 146.187 97.1992 147.355 94.5205C148.255 92.4481 148.372 90.3231 147.36 88.2244C146.232 85.8884 143.485 84.7494 140.934 85.419C139.588 85.7565 138.677 86.558 137.971 87.6285Z" fill="#44241A"/>
<path d="M16.7005 122.004C17.59 122.642 18.6462 122.943 19.7192 123.122C22.0652 123.512 24.3556 123.333 26.5015 122.257C28.3527 121.329 29.5869 119.831 30.5931 118.144C31.6327 116.399 32.1831 114.516 31.9329 112.512C31.6327 110.087 30.3096 108.215 28.0914 106.991C26.0734 105.879 23.872 105.562 21.626 106.221C19.5746 106.828 18.0236 108.879 17.9736 110.904C17.9569 111.648 18.1015 112.391 18.5573 113.055C18.4739 112.465 18.4739 111.88 18.485 111.289C18.524 108.663 21.2647 106.617 23.9831 107.155C25.8233 107.519 27.4188 108.236 28.5417 109.728C29.2922 110.725 29.5702 111.869 29.6703 113.045C29.9038 115.866 28.8642 118.307 26.9129 120.375C25.6287 121.73 23.8553 122.231 22.0096 122.526C20.1862 122.816 18.4572 122.426 16.7005 122.004Z" fill="#44241A"/>
<path d="M104.103 75.7218C104.259 75.822 104.403 75.727 104.525 75.6796C107.794 74.3508 110.257 72.289 111.258 68.9247C111.753 67.2584 111.741 65.5657 111.491 63.8678C111.202 61.9167 110.513 60.1291 109.101 58.6315C106.816 56.2059 103.247 55.4888 100.501 57.83C98.6882 59.3751 98.1545 62.0591 99.4943 64.3213C99.4331 63.8361 99.4165 63.5197 99.3553 63.2139C98.8494 60.5246 100.628 58.1095 103.441 57.8195C104.531 57.7088 105.554 58.1148 106.432 58.8214C107.728 59.8655 108.306 61.305 108.901 62.7288C109.551 64.2791 109.962 65.8821 109.918 67.5748C109.862 69.7104 109.034 71.5296 107.55 73.1116C106.655 74.066 105.571 74.7884 104.425 75.4423C104.297 75.5056 104.125 75.5319 104.103 75.7218Z" fill="#44241A"/>
<path d="M38.1422 71.9934C38.5092 74.3716 38.7593 76.7498 38.5981 79.1385C38.4647 81.079 38.0922 82.9826 36.4745 84.4117C34.929 85.7774 32.6497 86.1202 31.0041 85.2079C29.1307 84.1691 28.1133 82.0177 28.6248 80.151C28.7582 79.6553 29.0084 79.2176 29.392 78.8432C29.6477 78.5954 29.8589 78.3054 30.1035 78.0206C29.0751 78.4108 28.3301 79.0753 27.9688 80.0719C27.3128 81.8753 27.6686 83.5627 28.7749 85.1077C30.715 87.8128 34.4954 88.4931 37.2583 86.6C38.8705 85.4979 39.5599 83.858 39.81 82.0546C40.277 78.6798 39.4487 75.4684 38.3257 72.2993C38.2812 72.1938 38.2034 72.0989 38.1422 71.9934Z" fill="#44241A"/>
<path d="M61.7579 23.3332C61.7691 24.5724 62.9365 25.6428 64.2652 25.6323C65.5994 25.627 66.7669 24.5408 66.7502 23.3174C66.7335 22.0835 65.5661 20.9708 64.2763 20.9656C62.931 20.9708 61.7468 22.0782 61.7579 23.3332Z" fill="#263238"/>
<path d="M88.8765 24.3665C88.8765 23.1009 87.6923 21.9672 86.3748 21.983C85.0517 21.9988 83.8898 23.0798 83.8842 24.3085C83.8787 25.5477 85.0183 26.6286 86.3525 26.6445C87.6812 26.6603 88.8765 25.5846 88.8765 24.3665Z" fill="#263238"/>
<path d="M42.8285 34.7071C42.8341 35.9463 43.9959 37.0168 45.3246 37.0168C46.6588 37.0168 47.8318 35.9358 47.8207 34.7124C47.8096 33.4732 46.6477 32.3606 45.358 32.3553C44.0126 32.3448 42.8229 33.4521 42.8285 34.7071Z" fill="#263238"/>
<path d="M107.533 35.6457C107.544 34.3801 106.371 33.2411 105.053 33.2411C103.736 33.2411 102.557 34.3221 102.541 35.5455C102.524 36.8111 103.703 37.9131 105.053 37.9026C106.365 37.8921 107.522 36.8374 107.533 35.6457Z" fill="#263238"/>
<path d="M96.0981 29.9613C96.1815 30.921 95.759 31.6487 94.9417 32.3501C95.6255 32.3501 96.187 32.3395 96.7485 32.3553C97.1321 32.3659 97.4823 32.503 97.8381 32.6243C97.9994 32.6823 98.1828 32.7983 98.2996 32.5821C98.4052 32.3817 98.2495 32.2657 98.0994 32.1708C97.6547 31.8913 97.2377 31.5802 96.8986 31.1847C96.5762 30.8103 96.3483 30.3885 96.0981 29.9613Z" fill="#00CE87"/>
<path d="M79.9127 103.792C82.0565 103.519 83.5879 102.504 84.47 100.671C85.4062 98.726 86.0477 96.7009 86.1373 94.548C86.1608 93.9832 86.1382 93.4073 85.8805 92.8773C85.5645 92.2314 85.1035 92.0677 84.4165 92.315C83.8369 92.5245 83.423 92.9076 83.0527 93.3762C81.3613 95.5118 79.2705 97.1481 76.4948 97.8538C75.1207 98.2052 73.7333 98.1547 72.3441 97.8976C71.7553 97.7897 71.1629 97.6982 70.5637 97.7877C69.8 97.9051 69.561 98.3494 69.9016 99.0139C70.2568 99.7087 70.8282 100.243 71.3941 100.778C73.7595 103.022 76.6386 103.966 79.9127 103.792Z" fill="#613224"/>
<path d="M70.5139 81.538C70.3583 82.8774 70.1971 84.1271 70.0692 85.3769C70.0136 85.9095 69.958 86.268 69.2353 86.4262C67.7454 86.7479 66.7058 88.0345 66.7225 89.2473C66.7336 89.8854 67.0727 90.3758 67.5175 90.7976C68.4626 91.6888 69.6356 92.2108 71.0365 92.7012C70.4973 92.1423 70.0803 91.7152 69.6689 91.2775C69.5077 91.1035 69.3465 90.9295 69.1964 90.7449C68.2736 89.5901 68.3569 89.3581 69.819 88.952C72.1428 88.3087 72.3485 87.9818 71.7981 85.7776C71.4924 84.5701 71.1866 83.3625 70.8864 82.1603C70.8419 81.9546 70.8364 81.7384 70.5139 81.538Z" fill="#613224"/>
<path d="M84.0835 64.2208C84.1836 63.9255 84.0391 63.7673 83.9001 63.6566C81.9933 62.1327 80.0364 60.6404 77.4458 60.3609C76.1116 60.2185 74.7439 60.1289 73.4931 60.8144C72.9149 61.1308 72.4647 61.5421 72.1867 62.1168C71.7753 62.9658 71.5474 63.8622 71.5585 64.7956C71.5641 65.3387 72.0143 65.75 72.5258 65.7289C73.0984 65.7026 73.3819 65.3229 73.3708 64.8483C73.3375 62.8867 74.9107 61.7741 76.9899 61.7003C78.78 61.6317 80.3366 62.217 81.8209 63.066C82.5492 63.4826 83.2941 63.8728 84.0835 64.2208Z" fill="#613224"/>
<path d="M54.8482 74.6089C55.204 73.8179 55.5487 73.1219 55.8323 72.4047C56.4882 70.7332 57.4222 69.3041 59.0288 68.2601C60.5965 67.2476 62.3866 67.3162 63.6208 68.6661C64.2045 69.3094 64.6826 69.3041 65.0995 68.761C65.4053 68.3602 65.3219 67.9437 65.0161 67.6009C64.4713 66.9892 63.8487 66.4408 63.1038 66.0506C61.7195 65.3282 60.2519 65.6024 58.8342 66.5727C56.6383 68.0702 55.5487 70.1426 54.9817 72.5577C54.8927 72.9479 54.7649 73.3275 54.6648 73.7177C54.5981 73.9709 54.5314 74.2451 54.8482 74.6089Z" fill="#613224"/>
<path d="M67.0937 78.0081C65.7814 76.4096 64.3329 75.4463 62.3286 75.46C61.3864 75.4697 60.7088 75.9961 60.1385 76.6378C59.2074 77.6912 58.5127 79.4057 58.6054 80.403C60.9165 78.1637 63.5293 76.8635 67.0937 78.0081Z" fill="#613224"/>
<path d="M84.8292 73.1117C84.4957 72.5474 84.062 72.2838 83.6507 72.0254C82.7223 71.4348 81.7216 71.0077 80.5875 70.897C79.5257 70.7968 78.6918 71.1501 77.9802 71.8778C77.0184 72.8691 76.4069 74.6198 76.6571 76.0383C77.5466 74.6567 78.6473 73.7972 80.2484 73.3384C81.755 72.9007 83.1948 72.7795 84.8292 73.1117Z" fill="#613224"/>
<ellipse cx="45.0256" cy="34.5578" rx="3.35907" ry="3.18618" fill="#FFA400"/>
<ellipse cx="63.8367" cy="23.0877" rx="3.35907" ry="3.18618" fill="#FFA400"/>
<ellipse cx="86.6783" cy="24.362" rx="3.35907" ry="3.18618" fill="#FFA400"/>
<ellipse cx="105.489" cy="35.8321" rx="3.35907" ry="3.18618" fill="#FFA400"/>
<path d="M59.0747 128.08C59.6498 136.899 64.251 154.881 78.0543 156.262" stroke="#C3BA1D" stroke-width="1.2007" stroke-linecap="round"/>
<path d="M99.9095 154.536C103.36 153.194 110.607 148.44 111.987 140.158" stroke="#C3BA1D" stroke-width="1.2007" stroke-linecap="round"/>
</g>
</g>
<defs>
<filter id="filter0_d" x="0.197183" y="0.672464" width="177.698" height="237.736" filterUnits="userSpaceOnUse" color-interpolation-filters="sRGB">
<feFlood flood-opacity="0" result="BackgroundImageFix"/>
<feColorMatrix in="SourceAlpha" type="matrix" values="0 0 0 0 0 0 0 0 0 0 0 0 0 0 0 0 0 0 127 0"/>
<feOffset dx="4.80282" dy="4.80282"/>
<feGaussianBlur stdDeviation="4.80282"/>
<feColorMatrix type="matrix" values="0 0 0 0 0 0 0 0 0 0 0 0 0 0 0 0 0 0 0.1 0"/>
<feBlend mode="normal" in2="BackgroundImageFix" result="effect1_dropShadow"/>
<feBlend mode="normal" in="SourceGraphic" in2="effect1_dropShadow" result="shape"/>
</filter>
<filter id="filter1_d" x="93.5077" y="21.4771" width="46.4317" height="40.5959" filterUnits="userSpaceOnUse" color-interpolation-filters="sRGB">
<feFlood flood-opacity="0" result="BackgroundImageFix"/>
<feColorMatrix in="SourceAlpha" type="matrix" values="0 0 0 0 0 0 0 0 0 0 0 0 0 0 0 0 0 0 127 0"/>
<feOffset dx="3.36045" dy="3.36045"/>
<feGaussianBlur stdDeviation="8.40113"/>
<feColorMatrix type="matrix" values="0 0 0 0 0 0 0 0 0 0 0 0 0 0 0 0 0 0 0.15 0"/>
<feBlend mode="normal" in2="BackgroundImageFix" result="effect1_dropShadow"/>
<feBlend mode="normal" in="SourceGraphic" in2="effect1_dropShadow" result="shape"/>
</filter>
<filter id="filter2_d" x="18.1666" y="17.0613" width="46.5206" height="40.7306" filterUnits="userSpaceOnUse" color-interpolation-filters="sRGB">
<feFlood flood-opacity="0" result="BackgroundImageFix"/>
<feColorMatrix in="SourceAlpha" type="matrix" values="0 0 0 0 0 0 0 0 0 0 0 0 0 0 0 0 0 0 127 0"/>
<feOffset dx="3.36045" dy="3.36045"/>
<feGaussianBlur stdDeviation="8.40113"/>
<feColorMatrix type="matrix" values="0 0 0 0 0 0 0 0 0 0 0 0 0 0 0 0 0 0 0.15 0"/>
<feBlend mode="normal" in2="BackgroundImageFix" result="effect1_dropShadow"/>
<feBlend mode="normal" in="SourceGraphic" in2="effect1_dropShadow" result="shape"/>
</filter>
<filter id="filter3_d" x="57.4004" y="-1.10641" width="40.861" height="46.006" filterUnits="userSpaceOnUse" color-interpolation-filters="sRGB">
<feFlood flood-opacity="0" result="BackgroundImageFix"/>
<feColorMatrix in="SourceAlpha" type="matrix" values="0 0 0 0 0 0 0 0 0 0 0 0 0 0 0 0 0 0 127 0"/>
<feOffset dx="3.36045" dy="3.36045"/>
<feGaussianBlur stdDeviation="8.40113"/>
<feColorMatrix type="matrix" values="0 0 0 0 0 0 0 0 0 0 0 0 0 0 0 0 0 0 0.15 0"/>
<feBlend mode="normal" in2="BackgroundImageFix" result="effect1_dropShadow"/>
<feBlend mode="normal" in="SourceGraphic" in2="effect1_dropShadow" result="shape"/>
</filter>
<filter id="filter4_d" x="81.5167" y="8.62802" width="40.9246" height="37.8805" filterUnits="userSpaceOnUse" color-interpolation-filters="sRGB">
<feFlood flood-opacity="0" result="BackgroundImageFix"/>
<feColorMatrix in="SourceAlpha" type="matrix" values="0 0 0 0 0 0 0 0 0 0 0 0 0 0 0 0 0 0 127 0"/>
<feOffset dx="3.36045" dy="3.36045"/>
<feGaussianBlur stdDeviation="8.40113"/>
<feColorMatrix type="matrix" values="0 0 0 0 0 0 0 0 0 0 0 0 0 0 0 0 0 0 0.15 0"/>
<feBlend mode="normal" in2="BackgroundImageFix" result="effect1_dropShadow"/>
<feBlend mode="normal" in="SourceGraphic" in2="effect1_dropShadow" result="shape"/>
</filter>
<filter id="filter5_d" x="34.1959" y="8.39725" width="39.5646" height="39.06" filterUnits="userSpaceOnUse" color-interpolation-filters="sRGB">
<feFlood flood-opacity="0" result="BackgroundImageFix"/>
<feColorMatrix in="SourceAlpha" type="matrix" values="0 0 0 0 0 0 0 0 0 0 0 0 0 0 0 0 0 0 127 0"/>
<feOffset dx="3.36045" dy="3.36045"/>
<feGaussianBlur stdDeviation="8.40113"/>
<feColorMatrix type="matrix" values="0 0 0 0 0 0 0 0 0 0 0 0 0 0 0 0 0 0 0.15 0"/>
<feBlend mode="normal" in2="BackgroundImageFix" result="effect1_dropShadow"/>
<feBlend mode="normal" in="SourceGraphic" in2="effect1_dropShadow" result="shape"/>
</filter>
</defs>
</svg>
