<svg width="227" height="233" viewBox="0 0 227 233" fill="none" xmlns="http://www.w3.org/2000/svg">
<g filter="url(#filter0_d)">
<circle cx="113.504" cy="138.002" r="86.0574" fill="#00CF88"/>
</g>
<mask id="mask0" mask-type="alpha" maskUnits="userSpaceOnUse" x="27" y="51" width="173" height="174">
<circle cx="113.504" cy="138.002" r="86.0574" fill="#C4C4C4"/>
</mask>
<g mask="url(#mask0)">
<path d="M66.0268 81.2457C66.0775 81.2863 66.1283 81.3371 66.1791 81.3777C66.1182 81.3879 66.0674 81.3879 66.0065 81.398C66.0268 81.3371 66.0369 81.2863 66.0572 81.2254C66.0674 81.2254 66.0268 81.2457 66.0268 81.2457Z" fill="#FEFEFD"/>
<path d="M49.1757 89.9104C49.1757 89.2671 49.1757 88.6238 49.1757 87.9804C49.5477 87.8397 49.3968 87.508 49.4371 87.2567C50.1308 82.9242 53.0465 80.1699 57.3297 79.8483C59.6824 79.6774 61.9546 80.1599 64.1967 80.8133C64.8 80.9842 65.363 81.4566 66.0668 81.2254C66.0467 81.2857 66.0366 81.336 66.0165 81.3963C66.0769 81.3862 66.1271 81.3862 66.1875 81.3762C66.1372 81.336 66.0869 81.2857 66.0366 81.2455C62.1657 77.7876 60.9391 73.3345 61.4016 68.3486C61.7937 64.177 64.5587 61.5232 68.701 60.9704C70.0785 60.7894 71.4458 60.8899 72.8735 61.0307C69.6763 51.833 69.6964 50.1141 73.0243 45.5805C73.9192 44.8668 74.814 44.1531 75.7088 43.4394C76.2719 43.1881 76.8349 42.9469 77.3879 42.6956C79.1273 44.2235 80.6555 44.0426 82.0128 42.1729C82.1938 41.9216 82.2743 41.5798 82.6261 41.4793C82.6563 41.5195 82.6965 41.5496 82.7267 41.5898C82.7066 41.9919 82.6764 42.384 82.6563 42.7861C82.596 43.9923 83.0585 44.9473 84.1544 45.4298C85.1598 45.862 86.1954 45.8117 86.9897 44.8668C87.3416 44.4447 87.794 44.4346 88.3068 44.5351C90.0663 44.8769 91.7856 43.1881 91.1421 41.5898C91.0315 41.3084 91.0617 40.9566 91.0416 40.6349C91.0014 39.9916 91.1924 39.7101 91.9464 39.7905C94.1282 40.0016 95.3046 38.4435 94.5907 36.3426C94.45 35.9204 94.2087 35.4983 94.46 35.0761C95.2945 33.7291 94.9828 32.563 93.7964 31.4472C95.4554 31.3769 96.1994 30.1907 97.0842 28.9443C97.0842 29.6982 97.0842 30.2108 97.0842 30.7134C97.0741 31.8895 97.6372 32.7339 98.6828 33.1662C99.6379 33.5582 100.583 33.4275 101.317 32.6233C101.719 32.171 102.162 32.1408 102.725 32.1911C104.766 32.3921 105.841 31.2563 105.55 29.2559C105.51 28.9744 105.479 28.703 105.459 28.4216C105.419 27.7179 105.51 27.2756 106.455 27.4867C107.752 27.7581 108.878 26.8836 109.189 25.5667C109.26 25.2752 109.119 24.9134 109.441 24.6922C109.853 24.7827 110.074 25.044 110.094 25.4461C110.175 26.6825 110.798 27.5068 111.995 27.7682C113.332 28.0597 114.297 27.3962 115.051 26.3207C115.252 26.0291 115.333 25.5869 115.876 25.5165C115.825 25.9789 115.765 26.3709 115.735 26.7629C115.634 27.9491 116.016 28.9443 117.112 29.477C118.158 29.9897 119.204 29.9294 120.048 28.9744C120.41 28.5623 120.842 28.5723 121.365 28.6326C123.366 28.8739 124.562 27.5671 124.201 25.5768C124.16 25.3355 124.1 25.1043 124.09 24.8631C124.07 24.4208 124.009 23.8981 124.633 23.8679C125.125 23.8378 125.508 23.9785 125.588 24.652C125.729 25.8181 126.533 26.4513 127.609 26.7831C128.061 26.9238 128.524 27.0344 129.097 27.1851C128.554 27.6777 128.031 27.5872 127.579 27.7179C126.483 28.0496 125.668 28.6628 125.528 29.8188C125.387 30.9647 125.739 31.9599 126.905 32.4927C127.287 32.6636 127.619 32.9048 127.639 33.3672C127.689 34.6237 128.363 35.4178 129.539 35.6691C130.826 35.9506 131.771 35.3173 132.515 34.302C132.747 33.9804 132.847 33.5079 133.42 33.3974C133.37 33.7492 133.33 34.0206 133.279 34.302C133.078 35.6088 133.4 36.7347 134.617 37.378C135.723 37.9711 136.778 37.77 137.643 36.805C137.945 36.4733 138.327 36.4733 138.749 36.5035C140.559 36.6341 141.172 36.2522 141.896 34.5835C143.042 35.84 143.464 37.5187 144.379 38.916C144.55 39.4387 144.731 39.9715 144.902 40.4942C146.36 45.5001 146.933 50.6167 146.863 55.8136C146.853 56.6278 147.134 56.7083 147.828 56.668C148.944 56.6077 150.08 56.5876 151.196 56.6781C155.932 57.0902 159.461 59.3218 161.371 63.785C163.352 68.419 163.171 72.8319 159.793 76.8427C158.908 77.8981 157.902 78.8431 156.736 79.8784C159.119 79.8282 161.281 79.9588 163.382 80.5419C167.444 81.6576 170.832 83.7786 172.974 87.4778C175.135 91.1971 174.753 95.0973 173.305 98.9574C173.084 99.5404 173.054 99.9425 173.456 100.465C174.251 101.48 174.864 102.596 175.336 103.802C176.633 107.18 175.729 110.155 172.783 112.256C171.305 113.312 169.676 113.995 167.766 114.619C169.867 115.714 171.134 117.292 171.717 119.403C173.155 124.59 171.144 129.817 166.539 133.064C163.633 135.115 160.335 136.211 157.008 137.256C146.853 140.443 136.457 142.614 126.061 144.775C121.043 145.82 116.057 147.087 110.909 147.449C103.026 148.012 95.194 147.519 87.412 146.202C80.7058 145.077 74.1504 143.428 68.1078 140.151C64.5687 138.231 61.6831 135.638 59.9337 131.948C58.0335 127.948 58.8479 124.007 62.1356 121.052C62.4372 120.781 62.7388 120.499 63.131 120.147C58.3652 119.745 55.912 117.504 55.2082 113.071C54.5848 109.16 56.1634 106.316 59.8734 104.697C59.6723 104.577 59.5014 104.476 59.3405 104.375C54.434 101.531 51.1463 97.4395 49.5979 91.951C49.4069 91.2775 49.6583 90.5136 49.1757 89.9104ZM83.6014 101.772C83.6014 101.209 83.6215 100.817 83.6014 100.445C83.521 98.9272 84.4259 98.0426 85.6525 97.4898C87.9348 96.4544 91.313 97.6807 92.5698 99.9023C93.8567 102.164 93.2535 105.662 91.2427 107.13C87.9046 109.572 81.6911 109.753 78.5542 104.828C77.77 103.601 77.1566 102.295 77.1064 100.807C77.0159 97.9119 78.705 96.0423 80.8164 94.444C82.8976 92.8658 85.4011 91.9812 87.5527 90.4935C92.0772 87.3572 94.2891 83.0549 94.1282 77.5463C93.9472 78.0489 93.7964 78.5716 93.7462 79.1044C93.1731 85.005 89.634 88.6539 84.5566 91.0564C82.3748 92.0918 80.1428 93.0467 78.343 94.6651C75.7692 96.967 74.6129 99.6208 75.7591 103.199C77.9007 109.864 84.2248 111.573 90.1668 109.271C93.0625 108.145 94.9024 104.768 94.2087 101.531C93.4043 97.7813 89.7345 95.9317 86.0345 96.8163C83.5612 97.4093 82.5457 100.003 83.6014 101.772ZM61.653 84.6431C61.1503 84.2511 60.7179 84.1606 60.2353 84.1305C57.8123 83.9897 55.6204 85.6785 55.2484 88.081C54.6552 91.9309 57.028 95.2984 59.9337 96.6755C64.4883 98.8468 70.37 96.0322 71.6369 91.1469C72.0792 89.438 71.9988 87.6588 71.0939 86.0404C71.104 87.0355 71.3754 88.0307 71.2749 88.9957C70.913 92.4938 68.319 94.9968 64.5386 95.6402C61.9546 96.0825 58.134 93.8308 56.8973 91.1569C55.4797 88.0709 56.7767 85.3066 59.8935 84.6833C60.4465 84.5627 60.9693 84.8944 61.653 84.6431ZM169.334 102.687C168.107 102.837 166.901 103.169 165.674 103.079C162.799 102.868 160.728 101.39 159.461 98.8166C157.912 95.6703 157.902 92.0717 161.462 90.021C163.362 88.9253 165.755 89.3174 167.112 90.9659C167.745 91.7399 167.856 92.6949 167.967 93.881C168.399 91.0866 167.142 89.1063 164.729 88.473C161.09 87.518 156.746 90.785 156.575 94.6148C156.414 98.123 158.878 101.993 162.165 103.29C164.629 104.245 167.042 103.983 169.334 102.687ZM89.5133 70.741C89.262 70.2083 88.8196 70.1681 88.4978 69.957C87.1204 69.0925 85.8837 68.0772 85.2503 66.5292C83.8628 63.1215 84.4259 59.8144 86.0547 56.6982C87.231 54.4566 90.559 54.4365 92.057 56.467C92.7206 57.3717 92.8614 58.4272 93.1228 59.6334C93.3943 57.231 92.8614 55.703 91.5041 54.738C88.9704 52.9488 85.6525 53.8333 83.9734 56.6178C82.7267 58.6885 82.7971 60.91 82.8976 63.1517C83.0585 66.6197 86.125 70.158 89.5133 70.741ZM155.107 65.2224C154.896 65.6144 155.147 65.8356 155.228 66.0869C155.811 68.0873 154.956 70.2183 153.197 71.113C151.649 71.897 149.246 71.304 148.13 69.7559C147.426 68.7809 146.953 67.6751 146.682 66.4789C146.199 64.4082 146.169 62.2972 146.119 60.1863C145.375 63.1718 145.123 66.1673 146.028 69.1427C146.662 71.2436 147.898 72.8821 150.251 73.2641C152.352 73.5958 154.434 72.6409 155.469 70.8315C156.424 69.1327 156.927 66.5593 155.107 65.2224ZM154.283 64.6193C154.333 64.6595 154.373 64.6997 154.424 64.7399C154.444 64.7098 154.484 64.6595 154.484 64.6595C154.444 64.6193 154.393 64.5791 154.353 64.5389C154.323 64.559 154.303 64.5891 154.283 64.6193Z" fill="#623224"/>
<path d="M83.6359 101.895C83.5804 101.911 83.5215 101.888 83.4917 101.838C82.3761 99.997 83.4562 97.3025 86.0049 96.7016C86.005 96.7016 86.005 96.7016 86.0051 96.7015L86.0345 96.8263C89.7445 95.9418 93.4143 97.7913 94.2086 101.541C94.9023 104.768 93.0624 108.155 90.1668 109.281L83.6359 101.895ZM83.6359 101.895C83.6913 101.88 83.7296 101.83 83.7296 101.772M83.6359 101.895L83.7296 101.772M78.2573 94.5798C76.9599 95.7402 76.0111 96.9969 75.5344 98.4229C75.057 99.851 75.0568 101.437 75.637 103.249C76.7139 106.621 78.8547 108.748 81.4851 109.735C84.112 110.721 87.2141 110.565 90.2132 109.4L90.2132 109.4C93.1692 108.251 95.0405 104.8 94.3339 101.514L93.6184 79.1024C93.0509 84.9448 89.5517 88.5611 84.5017 90.9506L84.5016 90.9506C84.268 91.0614 84.0336 91.1715 83.7989 91.2816C81.8485 92.197 79.8791 93.1214 78.2573 94.5798ZM78.2573 94.5798C78.2574 94.5797 78.2575 94.5797 78.2575 94.5796L78.343 94.6752L78.2573 94.5798C78.2573 94.5798 78.2573 94.5798 78.2573 94.5798ZM83.7296 101.772C83.7296 101.569 83.7322 101.388 83.7346 101.222C83.7389 100.928 83.7424 100.682 83.7294 100.448L83.6014 100.455M83.7296 101.772L94.1486 77.4298M94.1486 77.4298C94.2092 77.4396 94.2544 77.491 94.2563 77.5524C94.4286 83.0954 92.185 87.4384 87.6259 90.6088L87.6258 90.6089C86.6265 91.3031 85.5494 91.8644 84.4801 92.4217C84.395 92.4661 84.31 92.5104 84.225 92.5548C83.0697 93.1581 81.9299 93.7694 80.8939 94.5562L80.8937 94.5563C78.7924 96.147 77.1461 97.9919 77.2345 100.813C77.2837 102.267 77.8831 103.551 78.6622 104.769L78.6624 104.769C81.7498 109.627 87.873 109.447 91.1669 107.036L91.1671 107.036C92.1338 106.332 92.7719 105.124 93.0091 103.805C93.2462 102.487 93.0791 101.076 92.4582 99.9756C91.8431 98.8972 90.7122 98.0525 89.4491 97.6056C88.1857 97.1586 86.8087 97.1161 85.7055 97.6166C85.1084 97.8879 84.5956 98.2362 84.242 98.694C83.8906 99.149 83.6908 99.7192 83.7294 100.448L83.6014 100.455M94.1486 77.4298C94.088 77.42 94.029 77.4545 94.0078 77.5122M94.1486 77.4298L94.0078 77.5122M83.6014 100.455C83.5209 98.9373 84.4359 98.0527 85.6524 97.4998C87.9347 96.4645 91.3029 97.6908 92.5697 99.9123L83.6014 100.455ZM94.0078 77.5122C93.8248 78.0103 93.6702 78.5544 93.6185 79.1021L94.0078 77.5122Z" fill="#4F281D" stroke="#4F281D" stroke-width="0.256447" stroke-linejoin="round"/>
<path d="M61.7795 84.6638C61.772 84.71 61.7398 84.7485 61.6956 84.7641C61.325 84.8949 60.999 84.8716 60.7091 84.8344C60.6648 84.8288 60.6218 84.8229 60.5799 84.8171C60.3409 84.7844 60.1375 84.7565 59.9291 84.799L59.929 84.799C58.4041 85.1088 57.3382 85.9359 56.8213 87.0482C56.3038 88.1618 56.3272 89.5817 57.0238 91.0932L57.0238 91.0932C57.6283 92.4051 58.8681 93.6189 60.2839 94.4503C61.7013 95.2826 63.2711 95.7179 64.527 95.5038C68.2501 94.8685 70.8023 92.4044 71.1574 88.9725L71.1574 88.9724C71.2061 88.5049 71.165 88.027 71.1085 87.5339C71.0991 87.4513 71.0891 87.3681 71.0792 87.2846C71.0302 86.8736 70.98 86.4523 70.9757 86.0317C70.9751 85.9731 71.0144 85.9215 71.071 85.9064C71.1276 85.8914 71.1873 85.9166 71.2159 85.9678C72.1401 87.6208 72.2198 89.4352 71.771 91.169M61.7795 84.6638L71.771 91.169M61.7795 84.6638C61.787 84.6176 61.7687 84.5709 61.7318 84.5421M61.7795 84.6638L61.7318 84.5421M71.771 91.169C70.4845 96.1405 64.5177 98.9981 59.8885 96.7812M71.771 91.169L59.8885 96.7812M59.8885 96.7812C56.941 95.3741 54.5284 91.9568 55.1317 88.0514M59.8885 96.7812L55.1317 88.0514M61.7318 84.5421C61.2028 84.1296 60.7435 84.0342 60.2562 83.9927L60.2562 83.9926L60.2528 83.9925C57.7669 83.8481 55.5143 85.5805 55.1317 88.0513L55.1317 88.0514M61.7318 84.5421L55.1317 88.0514" fill="#4F281D" stroke="#4F281D" stroke-width="0.256447" stroke-linejoin="round"/>
<path d="M169.456 102.646C169.475 102.704 169.45 102.768 169.397 102.798C167.074 104.123 164.621 104.39 162.098 103.399C160.425 102.744 158.967 101.435 157.949 99.8484C156.93 98.2619 156.345 96.389 156.427 94.599L156.427 94.5988C156.52 92.6326 157.674 90.8233 159.258 89.6297C160.842 88.4362 162.875 87.8441 164.742 88.339C165.98 88.6628 166.93 89.3341 167.512 90.2899C168.093 91.2449 168.298 92.4709 168.073 93.8911C168.063 93.9547 168.007 94.001 167.943 93.9992C167.878 93.9974 167.825 93.9481 167.819 93.884C167.697 92.6901 167.597 91.7861 166.992 91.0368C165.687 89.44 163.354 89.056 161.505 90.122L169.456 102.646ZM169.456 102.646C169.436 102.588 169.379 102.552 169.318 102.559M169.456 102.646L169.318 102.559M169.318 102.559C168.955 102.604 168.587 102.666 168.223 102.727C167.974 102.768 167.726 102.81 167.483 102.845C166.876 102.934 166.274 102.99 165.664 102.941L165.663 102.941M169.318 102.559L165.663 102.941M165.663 102.941C162.836 102.733 160.803 101.285 159.556 98.75M165.663 102.941L159.556 98.75M159.556 98.75C158.789 97.1923 158.411 95.5334 158.656 94.0184M159.556 98.75L158.656 94.0184M158.656 94.0184C158.9 92.509 159.763 91.1291 161.505 90.1221L158.656 94.0184Z" fill="#4F281D" stroke="#4F281D" stroke-width="0.256447" stroke-linejoin="round"/>
<path d="M89.4914 70.8674C89.5385 70.8755 89.5862 70.8567 89.6152 70.8187C89.6441 70.7806 89.6495 70.7296 89.6291 70.6863C89.4895 70.3905 89.2945 70.2299 89.0976 70.1151C89.0222 70.0711 88.9446 70.0328 88.8731 69.9976C88.8543 69.9884 88.836 69.9793 88.8183 69.9705C88.7301 69.9264 88.6525 69.8846 88.5841 69.8339L88.5844 69.8336L88.5755 69.8281C87.1953 68.9681 85.997 67.9809 85.379 66.4608L85.3789 66.4607C84.0094 63.0972 84.5616 59.8302 86.1782 56.7375L86.1782 56.7375C86.7362 55.6698 87.8154 55.124 88.9449 55.0924C90.0753 55.0608 91.2424 55.5453 91.9637 56.523L91.9641 56.5235C92.5194 57.2693 92.6932 58.1176 92.896 59.1077C92.9315 59.2809 92.9679 59.4584 93.0074 59.6405C93.0207 59.7019 93.0764 59.7446 93.1391 59.7414C93.2019 59.7382 93.253 59.6901 93.2601 59.6277C93.3971 58.4153 93.3326 57.4124 93.0557 56.5859C92.7779 55.7566 92.2884 55.1113 91.5882 54.6134L91.5879 54.6132C88.9845 52.7747 85.5853 53.703 83.8736 56.5313L83.8734 56.5316C82.6041 58.6398 82.679 60.9097 82.7794 63.1372C82.8563 64.9156 83.6753 66.6989 84.8994 68.1097C86.1234 69.5205 87.7621 70.5699 89.4914 70.8674Z" fill="#4F281D" stroke="#4F281D" stroke-width="0.256447" stroke-linejoin="round"/>
<path d="M155.183 65.1194C155.154 65.0973 155.115 65.0892 155.079 65.0973C155.043 65.1054 155.012 65.1289 154.994 65.1616C154.87 65.3926 154.88 65.5833 154.937 65.7499C154.962 65.8244 154.996 65.8937 155.026 65.9535L155.03 65.9622C155.062 66.0267 155.088 66.0803 155.105 66.1338C155.672 68.0802 154.838 70.1447 153.139 71.0088L153.138 71.009C152.399 71.3883 151.445 71.4379 150.534 71.1988C149.623 70.9599 148.771 70.4368 148.233 69.691L148.233 69.691C147.541 68.7314 147.075 67.642 146.807 66.4606L146.807 66.4599C146.348 64.4904 146.3 62.4828 146.253 60.4581C146.251 60.3699 146.249 60.2816 146.247 60.1933C146.245 60.1292 146.197 60.076 146.133 60.0689C146.069 60.0619 146.01 60.103 145.994 60.1653C145.247 63.153 144.991 66.1841 145.905 69.1899C146.547 71.3281 147.802 73.0185 150.231 73.4009C152.382 73.7404 154.527 72.7634 155.581 70.9048C156.071 70.0417 156.444 68.9528 156.461 67.9021C156.478 66.8481 156.135 65.8236 155.183 65.1194Z" fill="#4F281D" stroke="#4F281D" stroke-width="0.256447" stroke-linejoin="round"/>
<path d="M154.283 64.6195C154.303 64.5893 154.323 64.559 154.343 64.5389C154.394 64.5792 154.434 64.6195 154.474 64.6598C154.474 64.6699 154.434 64.7102 154.414 64.7404C154.384 64.7001 154.333 64.6598 154.283 64.6195Z" fill="#4F281D"/>
<path d="M50.412 219.989C50.2913 219.909 50.1707 219.778 50.04 219.748C45.3647 218.923 42.5093 215.928 40.7699 211.726C38.5178 206.288 37.9145 200.618 38.3569 194.768C39.0004 186.164 39.292 177.549 39.1412 168.924C39.1311 168.361 39.1512 167.798 39.1512 167.245C39.4629 167.286 39.7846 167.316 40.0963 167.376C44.3493 168.17 48.0693 167.105 51.2264 164.119C51.528 163.828 51.9201 163.566 51.7794 163.013C50.8644 159.375 50.3416 155.645 49.1854 152.067C49.4166 150.197 48.9943 148.297 49.4568 146.437C51.0555 140.105 54.3331 135.079 60.3958 132.194C60.9488 131.932 61.4013 131.912 61.9643 132.173C63.7339 133.008 65.5235 133.812 67.3232 134.576C67.9365 134.837 68.2482 135.219 68.389 135.873C70.0077 143.14 71.6365 150.408 73.2854 157.666C73.396 158.158 73.3859 158.591 73.2854 159.073C72.6017 162.491 71.9482 165.908 71.2846 169.326C68.58 183.158 65.9257 196.99 63.1206 210.801C62.3263 214.732 60.0741 217.737 56.2334 219.305C55.5899 219.567 54.9062 219.758 54.2427 219.979C52.9658 219.989 51.6889 219.989 50.412 219.989ZM53.9008 167.155C54.0215 167.527 54.1019 167.909 54.2628 168.261C57.1182 174.714 58.3146 181.62 59.8127 188.455C60.5869 192.004 61.2304 195.582 62.1453 199.091C62.2257 199.392 62.1956 199.885 62.5676 199.844C63.0904 199.794 62.839 199.272 62.8491 198.96C62.9295 197.151 62.6178 195.371 62.3866 193.592C61.904 189.913 61.4918 186.224 60.8483 182.565C60.0942 178.263 58.2342 174.332 56.0826 170.583C55.4291 169.427 55.1174 168.06 53.9008 167.155Z" fill="#EBE121"/>
<path d="M22.3305 122.463C23.3661 123.539 24.7033 124.202 25.9199 125.016C28.8054 126.956 31.7614 128.786 34.9385 130.233C35.9138 130.686 36.9092 131.068 38.0151 131.158C38.9703 131.229 39.6942 131.852 40.3678 132.495C42.7306 134.787 44.0075 137.722 45.1436 140.738C45.8675 142.648 46.2998 144.648 46.8528 146.608C47.3857 148.518 48.009 150.408 49.1753 152.057C50.3416 155.635 50.8544 159.365 51.7693 163.003C51.9101 163.556 51.518 163.818 51.2164 164.109C48.0593 167.095 44.3493 168.16 40.0863 167.366C39.7746 167.306 39.4529 167.276 39.1412 167.235C38.7893 160.882 38.4776 154.539 37.2711 148.267C36.9293 146.498 35.6825 145.714 34.5364 144.809C30.575 141.693 26.0405 140.054 21.0134 139.522C17.796 139.18 14.7295 138.094 11.8439 136.556C11.492 136.365 11.1401 136.144 10.7681 136.034C9.54148 135.682 8.90807 134.888 8.93823 133.611C8.95834 132.917 8.57627 132.616 8.02329 132.375C7.21895 132.023 6.44477 131.611 5.62032 131.279C4.48419 130.827 3.52904 130.284 3.59942 128.836C3.60948 128.665 3.47876 128.424 3.338 128.324C2.24209 127.539 1.297 126.544 0 126.062C0 125.901 0 125.74 0 125.579C0.844557 125.177 1.63884 124.504 2.65432 125.117C2.7247 125.248 2.76492 125.479 2.87552 125.509C5.92196 126.504 8.66676 128.183 11.6328 129.339C12.3969 129.63 13.1107 129.982 13.6738 130.535C14.1463 131.007 14.6591 131.138 15.2925 131.118C16.9716 131.068 18.6506 131.078 20.2392 131.741C20.571 131.882 20.9631 131.983 21.305 131.55C19.4952 130.837 17.7156 130.535 15.8555 130.625C15.3428 130.656 14.7797 130.716 14.3474 130.364C12.3466 128.685 9.74257 128.233 7.55074 126.946C6.2839 126.203 4.77577 125.981 3.57931 125.087C4.23284 124.795 4.88636 124.544 5.63037 124.715C7.80209 125.217 9.97381 125.75 12.055 126.544C13.0202 126.916 14.0458 127.258 14.7596 128.032C15.3428 128.665 16.0365 128.967 16.8107 129.158C18.3189 129.54 19.8169 129.942 21.3351 130.264C23.2555 130.686 25.1859 131.108 27.3677 130.806C26.9957 130.485 26.7544 130.294 26.5332 130.093C25.0451 128.756 23.5169 127.459 22.431 125.75C21.7775 124.715 21.5161 123.629 22.059 122.453C22.1797 122.463 22.2601 122.463 22.3305 122.463ZM26.6438 134.988C27.1465 135.551 27.5688 135.451 27.9408 135.451C29.5394 135.461 31.128 135.491 32.7266 135.44C33.8627 135.41 34.7777 135.832 35.7026 136.456C38.3268 138.195 39.2015 140.889 39.845 143.733C39.9757 144.316 39.9858 144.94 40.398 145.663C40.4985 145.322 40.589 145.171 40.5689 145.04C40.1768 142.417 39.6238 139.793 37.9146 137.702C36.8287 136.375 35.4714 135.099 33.5812 135.008C31.3592 134.918 29.1272 134.988 26.6438 134.988ZM9.76267 132.837C11.4518 132.927 12.9398 133.561 14.277 134.506C15.3026 135.229 16.1773 136.094 17.6251 135.772C18.0072 135.682 18.4998 136.084 18.9322 136.285C19.7264 136.647 20.5207 137.029 21.315 137.391C21.8177 137.612 22.1998 137.421 22.0088 136.888C21.5463 135.682 21.0938 134.486 20.9128 133.189C20.2694 134.465 21.1441 135.591 21.2949 136.938C20.0783 136.285 19.0428 135.36 17.8563 135.32C16.4588 135.28 15.4936 134.646 14.4077 133.963C13.0303 133.088 11.5624 132.204 9.76267 132.837ZM20.1688 134.295C19.636 133.37 18.8216 133.52 18.1881 133.309C16.7805 132.837 15.2221 133.309 13.8548 132.334C11.5825 130.716 9.11921 129.399 6.39451 128.675C5.57006 128.454 4.89642 128.404 4.08202 128.726C4.1323 128.776 4.18257 128.876 4.2429 128.886C7.32955 129.077 9.94365 130.495 12.4874 132.093C13.8749 132.958 15.1518 133.943 17.0319 133.641C17.9569 133.48 19.0025 134.023 20.1688 134.295Z" fill="#F3AA90"/>
<path d="M53.9009 167.155C55.1174 168.05 55.4291 169.427 56.0927 170.583C58.2443 174.342 60.1044 178.263 60.8584 182.565C61.5019 186.214 61.9141 189.913 62.3967 193.592C62.628 195.371 62.9497 197.15 62.8592 198.96C62.8492 199.271 63.0905 199.794 62.5777 199.844C62.2057 199.875 62.2258 199.392 62.1554 199.091C61.2405 195.572 60.597 191.994 59.8228 188.455C58.3248 181.63 57.1283 174.714 54.2729 168.261C54.102 167.909 54.0215 167.527 53.9009 167.155Z" fill="#A9A218"/>
<path d="M26.6438 134.988C29.1272 134.988 31.3592 134.908 33.5812 135.008C35.4614 135.099 36.8287 136.365 37.9146 137.702C39.6138 139.793 40.1668 142.417 40.5689 145.04C40.589 145.171 40.4985 145.322 40.398 145.663C39.9858 144.94 39.9858 144.316 39.845 143.733C39.2015 140.879 38.3268 138.195 35.7027 136.456C34.7777 135.843 33.8527 135.41 32.7266 135.44C31.128 135.481 29.5394 135.461 27.9408 135.45C27.5587 135.45 27.1465 135.551 26.6438 134.988Z" fill="#C38873"/>
<path d="M162.91 228.852C162.83 228.852 162.749 228.852 162.669 228.852C162.528 228.792 162.387 228.691 162.236 228.671C156.174 227.676 150.091 226.842 143.978 226.229C135.261 225.344 126.524 224.841 117.756 224.66C108.064 224.459 98.392 224.751 88.7298 225.414C80.9579 225.947 73.2061 226.751 65.5045 227.917C64.3784 228.088 64.2678 227.787 64.5594 226.781C68.2996 214.025 71.9895 201.249 75.7398 188.493C76.0414 187.467 75.8705 187.045 74.855 186.683C73.3669 186.151 72.0699 185.236 71.0042 184.06C66.5904 179.185 66.0072 173.364 66.9021 167.192C66.9624 169.756 66.7915 172.349 67.7165 175.053C68.5007 168.821 70.1999 163.131 73.4373 157.914C71.9292 158.588 70.9037 159.754 69.8882 160.92C68.3097 162.739 67.4048 164.89 66.9021 167.223C66.9322 166.489 66.701 165.845 66.3692 165.182C63.363 159.161 60.8494 152.938 59.1703 146.405C58.6475 144.374 58.2252 142.323 57.7527 140.283C57.7527 138.674 57.7527 137.076 57.7527 135.468C58.4062 131.97 61.1008 130.582 64.0064 129.336C68.8425 127.265 73.7892 125.516 78.7862 123.898C82.4459 122.712 86.0755 121.445 89.8157 120.54C90.61 126.431 93.2643 131.286 97.7887 135.166C107.652 143.63 123.115 141.992 130.978 131.638C133.592 128.2 135.07 124.32 135.643 120.078C140.751 121.435 145.778 123.074 150.785 124.772C155.902 126.511 161.02 128.26 165.836 130.773C167.626 131.708 168.601 133.146 168.933 135.076C168.973 135.297 168.902 135.568 169.174 135.699C169.174 137.227 169.174 138.745 169.174 140.273C168.681 141.127 168.752 142.102 168.561 143.027C166.932 150.848 164.016 158.196 160.497 165.323C160.226 165.865 159.994 166.358 160.105 167.021C160.557 169.937 160.537 172.862 159.984 175.757C159.009 180.853 156.586 184.904 151.529 186.915C150.664 187.256 150.996 187.749 151.147 188.242C152.926 194.393 154.726 200.545 156.516 206.697C158.657 214.075 160.779 221.464 162.91 228.852ZM158.728 174.772C161.472 169.585 157.561 158.527 152.806 157.985C156.365 163.011 157.853 168.801 158.728 174.772Z" fill="#EBE121"/>
<path d="M129.088 104.859C129.832 109.071 130.596 113.273 131.29 117.495C131.44 118.44 131.752 119.013 132.768 119.214C133.743 119.405 134.688 119.776 135.643 120.068C135.06 124.31 133.582 128.19 130.968 131.628C123.095 141.982 107.632 143.61 97.7788 135.156C93.2544 131.276 90.6001 126.421 89.8058 120.53C91.1832 120.108 92.5305 119.616 93.928 119.284C95.0139 119.033 95.5065 118.51 95.6473 117.374C95.8685 115.514 96.2908 113.685 96.6226 111.845C99.2467 112.559 101.891 113.233 104.626 113.303C110.357 113.444 115.716 111.986 120.873 109.614C123.779 108.287 126.383 106.488 129.088 104.859Z" fill="#F4AB8F"/>
<path d="M66.8922 167.202C67.3949 164.87 68.2998 162.719 69.8783 160.9C70.8938 159.734 71.9193 158.568 73.4275 157.894C70.19 163.111 68.4908 168.801 67.7066 175.033C66.7816 172.339 66.9626 169.746 66.8922 167.172C66.9023 167.182 66.8922 167.202 66.8922 167.202Z" fill="#A8A117"/>
<path d="M129.088 104.859C126.383 106.487 123.769 108.277 120.883 109.604C115.726 111.976 110.357 113.434 104.636 113.293C101.891 113.222 99.2567 112.549 96.6326 111.835C97.5274 106.508 98.4423 101.18 99.307 95.8523C99.4477 95.008 99.9304 94.9979 100.584 95.008C106.687 95.0884 112.79 95.3698 118.893 95.1889C121.416 95.1185 123.95 95.0884 126.474 95.008C127.137 94.9879 127.509 95.1286 127.62 95.8624C128.082 98.868 128.595 101.864 129.088 104.859Z" fill="#D6947A"/>
<path d="M176.773 221.829C182.504 224.453 186.516 228.534 187.823 234.907C187.873 235.138 187.984 235.359 188.064 235.58C185.963 237.721 183.862 239.873 181.77 242.014C179.116 244.738 176.482 247.482 173.797 250.176C172.711 251.262 171.495 252.176 169.846 252.186C168.71 252.196 167.855 251.724 167.342 250.669C166.699 249.332 166.025 248.015 165.352 246.688C164.769 245.552 163.783 245.271 162.667 245.934C161.642 246.547 160.787 247.432 160.485 248.558C160.013 250.297 158.957 251.071 157.188 251.04C157.439 248.216 158.615 245.833 160.707 243.803C161.903 242.637 162.959 241.451 164.819 241.612C165.392 241.662 165.503 241.431 165.231 240.898C164.517 239.501 163.864 239.199 162.225 239.511C158.867 240.174 156.434 242.265 154.192 244.667C154.081 244.788 154 244.929 153.9 245.049C152.673 246.477 152.714 246.437 151.376 245.17C150.733 244.557 150.924 244.105 151.276 243.511C153.618 239.581 157.158 237.169 161.33 235.55C161.692 235.409 162.064 235.269 162.466 235.108C161.853 234.193 161.038 234.304 160.214 234.475C157.61 235.027 155.609 236.626 153.699 238.345C152.181 239.712 150.894 241.31 149.637 242.918C149.386 243.24 149.235 244.014 148.632 243.582C148.129 243.22 147.485 242.778 147.777 241.913C148.089 240.948 148.511 240.043 149.044 239.199C150.421 237.018 152.08 235.058 153.98 233.339C155.318 232.122 157.137 231.64 158.666 230.705C158.806 230.625 158.957 230.574 159.088 230.484C159.731 230.042 161.059 229.901 160.978 229.278C160.857 228.363 159.721 227.82 158.997 227.147C158.545 226.734 158.093 227.177 157.68 227.348C154.453 228.674 151.949 230.956 149.687 233.54C149.164 234.143 148.702 234.806 148.159 235.389C147.877 235.701 147.666 236.374 147.043 235.912C146.57 235.56 146.138 235.198 146.309 234.424C146.751 232.484 147.777 230.886 149.104 229.469C151.075 227.378 153.437 225.79 155.961 224.473C157.047 223.9 158.012 223.075 159.269 222.834C160.113 222.955 160.827 222.502 161.601 222.301C161.682 222.472 161.823 222.653 161.833 222.834C162.134 226.765 164.678 229.609 166.629 232.736C167.282 233.791 168.036 234.776 168.67 235.842C169.162 236.666 169.424 236.575 169.786 235.761C171.686 231.529 173.757 227.378 175.919 223.266C176.19 222.784 176.492 222.311 176.773 221.829Z" fill="#F4AB90"/>
<path d="M158.728 174.772C157.863 168.801 156.375 163.011 152.806 157.985C157.561 158.527 161.462 169.585 158.728 174.772Z" fill="#A8A117"/>
<path d="M114.569 105.695C112.81 105.695 111.05 105.695 109.28 105.695C107.752 105.031 106.043 104.921 104.545 104.157C98.3113 101 94.7119 95.7733 92.9826 89.169C91.947 85.2386 92.0073 81.1575 91.9872 77.1065C95.1643 76.3023 97.1953 74.1009 98.7436 71.3767C100.503 68.2907 101.649 64.9635 102.283 61.4653C102.906 58.0175 103.912 54.7003 105.45 51.5439C106.144 50.1265 106.968 48.8097 108.175 47.7743C109.622 46.5279 111.191 46.4475 112.799 47.4828C114.187 48.3775 115.132 49.6641 115.926 51.0714C116.349 51.8153 116.58 51.7952 117.042 51.1318C117.998 49.7546 119.214 48.679 120.803 48.0759C122.994 47.2416 124.553 47.8246 125.709 49.8551C126.473 51.182 127.006 52.6094 127.469 54.0569C128.816 58.2989 130.254 62.4907 133.069 66.0491C134.064 72.6735 134.004 79.2878 133.079 85.9222C131.903 94.3358 123.94 104.428 114.851 105.494C114.76 105.514 114.67 105.624 114.569 105.695Z" fill="#F4AA8F"/>
<path d="M133.079 66.0592C130.264 62.5108 128.826 58.309 127.479 54.067C127.016 52.6195 126.483 51.1921 125.719 49.8652C124.553 47.8347 123.005 47.2517 120.813 48.086C119.224 48.6891 118.008 49.7647 117.052 51.1419C116.59 51.8053 116.349 51.8254 115.936 51.0815C115.142 49.6843 114.197 48.3876 112.81 47.4929C111.201 46.4576 109.632 46.5279 108.185 47.7844C106.978 48.8198 106.154 50.1366 105.46 51.554C103.922 54.7104 102.926 58.0276 102.293 61.4755C101.659 64.9736 100.513 68.2908 98.7537 71.3869C97.2053 74.111 95.1744 76.3124 91.9972 77.1166C89.9864 77.4081 88.1063 76.9758 86.3166 76.0711C78.2631 71.99 76.5841 63.124 80.0327 56.0071C80.5455 54.9516 81.2291 53.9766 82.3251 53.4639C83.1495 53.0819 83.8131 52.5291 84.4365 51.9058C87.2818 49.0309 89.9763 45.9952 93.1635 43.4821C97.9192 39.7327 103.198 37.2197 109.321 36.7774C109.572 36.7573 109.904 36.898 110.025 36.506C110.829 36.506 111.623 36.506 112.427 36.506C112.508 36.8377 112.789 36.7673 113.001 36.7874C118.933 37.3001 124.372 39.2502 129.359 42.487C133.803 45.3719 137.04 49.1817 138.267 54.5093C138.458 55.3436 138.307 56.2584 138.85 57.0022C138.85 58.4498 138.85 59.8973 138.85 61.3448C138.307 61.4956 138.478 61.9881 138.418 62.3299C138.096 64.2599 137.533 66.1095 136.829 67.9289C136.558 68.6125 136.276 68.6527 135.703 68.321C134.657 67.7279 133.934 66.8232 133.079 66.0592Z" fill="#633325"/>
<path d="M86.7087 75.5808C83.3204 74.9978 80.2539 71.4594 80.103 67.9713C80.0025 65.7398 79.9321 63.5082 81.1788 61.4375C82.8579 58.6631 86.1758 57.7684 88.7095 59.5577C90.0668 60.5227 90.5997 62.0506 90.3282 64.4531C90.0668 63.2468 89.9361 62.1914 89.2625 61.2867C87.7644 59.2561 84.4264 59.2863 83.2601 61.5179C81.6313 64.634 81.0682 67.9412 82.4557 71.3489C83.0892 72.9069 84.3158 73.9122 85.7033 74.7766C86.0149 75.0078 86.4573 75.048 86.7087 75.5808Z" fill="#4F281D"/>
<path d="M112.958 96.0551C111.982 96.0149 111.037 95.8139 110.163 95.4018C109.167 94.9394 108.463 94.1955 108.343 93.0496C108.262 92.2856 108.262 91.4915 109.006 91.009C109.73 90.5466 110.203 91.21 110.695 91.5417C112.013 92.4163 113.36 92.557 114.787 91.8735C115.33 91.6121 115.873 91.3608 116.406 91.0894C116.808 90.8783 117.261 90.6471 117.643 90.9487C118.085 91.2904 118.095 91.8232 117.975 92.3761C117.432 94.8991 115.743 95.8943 112.958 96.0551Z" fill="black"/>
<path d="M101.134 72.1612C103.074 69.9598 105.558 69.9899 107.769 72.2014C107.418 72.121 107.166 72.0808 106.925 72.0205C105.537 71.6385 105.558 71.6385 105.769 72.9855C105.909 73.8801 105.799 74.7345 105.095 75.408C104.733 75.7498 104.271 75.78 103.868 75.5387C103.084 75.0663 103.074 74.2621 102.974 73.4479C102.903 72.885 103.637 72.2517 102.994 71.8596C102.481 71.548 101.878 72.1511 101.134 72.1612Z" fill="black"/>
<path d="M125.244 72.2617C124.751 72.1411 124.44 72.0607 124.138 71.9803C122.76 71.6385 122.75 71.6586 122.931 72.9754C123.012 73.5685 123.052 74.1716 122.801 74.7346C122.569 75.2673 122.238 75.7096 121.574 75.7096C120.971 75.6996 120.649 75.3176 120.418 74.815C120.106 74.1716 120.026 73.468 120.267 72.8448C120.659 71.8496 120.388 71.6988 119.483 72.0607C119.302 72.1311 119.121 72.1813 118.91 72.2416C119.714 70.3016 123.203 69.8191 125.244 72.2617Z" fill="black"/>
<path d="M115.18 85.9327C115.26 85.6412 115.26 85.601 115.28 85.5708C116.497 83.3995 116.497 83.3995 114.134 82.7763C113.47 82.6054 112.897 82.3139 112.948 81.5097C113.038 80.1326 113.179 78.7554 113.48 77.3481C113.742 78.2629 114.013 79.1676 114.255 80.0823C114.365 80.5045 114.556 80.7357 115.039 80.8463C116.205 81.1076 117.351 81.5298 117.452 82.9472C117.552 84.445 116.426 85.1386 115.18 85.9327Z" fill="black"/>
<path d="M99.4949 67.8583C100.892 66.3706 102.541 65.476 104.623 65.3855C106.473 65.3051 107.639 66.2199 108.554 67.6573C108.725 67.9388 108.916 68.2604 108.554 68.4916C108.282 68.6625 108.041 68.4514 107.82 68.2604C105.035 65.8178 103.316 65.6569 100.078 67.5266C99.877 67.6473 99.6859 67.7478 99.4949 67.8583Z" fill="black"/>
<path d="M127.084 68.261C125.877 67.2457 124.61 66.4315 122.982 66.2405C121.544 66.0696 120.267 66.2606 119.201 67.306C118.89 67.6076 118.467 68.0298 118.085 67.5875C117.763 67.2055 118.276 66.8939 118.528 66.6024C120.126 64.8332 122.388 64.602 124.781 66.0194C125.706 66.5722 126.531 67.2658 127.084 68.261Z" fill="black"/>
</g>
<path d="M66.0268 81.2458C66.0775 81.2864 66.1283 81.3372 66.1791 81.3778C66.1182 81.3879 66.0674 81.3879 66.0065 81.3981C66.0268 81.3371 66.0369 81.2864 66.0572 81.2255C66.0674 81.2255 66.0268 81.2458 66.0268 81.2458Z" fill="#FEFEFD"/>
<path d="M113.736 11.4577C113.013 11.2366 112.289 11.2667 111.575 11.5381C110.941 10.1007 109.916 8.92459 108.971 7.69823C108.488 7.06495 108.066 6.98453 107.443 7.59771C105.512 9.48751 104.396 11.7492 104.074 14.4231C102.999 14.4834 101.903 14.594 101.219 13.4581C101.078 8.55266 102.657 4.36092 106.296 0.983403C107 0.330015 107.402 0.269702 108.066 1.07387C110.358 3.82816 112.409 6.71312 113.495 10.1811C113.646 10.5832 113.817 10.9953 113.736 11.4577Z" fill="#03CF89"/>
<path d="M74.9547 32.9249C75.3871 33.8799 76.0808 34.5232 77.0963 34.8248C76.7444 34.875 76.3925 34.9756 76.0406 34.9756C73.9192 34.9756 71.9485 35.6491 70.008 36.3929C69.3344 36.6543 69.0529 36.9659 69.4048 37.7399C70.7118 40.5344 72.7327 42.4946 75.6988 43.4495C74.8039 44.1632 73.9091 44.8769 73.0143 45.5906C68.7814 44.2838 65.4233 41.8613 63.332 37.8706C62.1456 35.6089 62.1356 35.5988 64.5184 34.7042C67.8765 33.4275 71.3252 32.6133 74.9547 32.9249Z" fill="#03CF89"/>
<path d="M145.164 30.6431C145.747 29.5776 145.154 28.5824 144.983 27.5571C149.668 27.3259 153.68 28.8237 157.028 32.1409C157.802 32.9049 157.953 33.3673 157.018 34.1714C153.941 36.8453 150.714 39.2075 146.652 40.1625C146.068 40.3032 145.475 40.3736 144.882 40.4842C144.711 39.9615 144.53 39.4287 144.359 38.906C146.913 38.2224 148.864 36.5839 150.784 34.8751C151.277 34.4328 151.005 34.1513 150.683 33.7995C149.205 32.1409 147.315 31.1558 145.164 30.6431Z" fill="#03CF89"/>
<path d="M145.164 30.6431C147.315 31.1558 149.195 32.1409 150.693 33.7995C151.015 34.1613 151.287 34.4327 150.794 34.875C148.874 36.5839 146.923 38.2224 144.369 38.906C143.454 37.5087 143.032 35.83 141.886 34.5735C141.816 34.1814 141.745 33.7995 141.675 33.4074C141.433 31.97 141.554 31.8292 142.972 31.8795C143.967 31.9197 144.56 31.2764 145.164 30.6431Z" fill="#2B8862"/>
<path d="M75.6989 43.4395C72.7429 42.4845 70.7119 40.5244 69.4049 37.7299C69.0429 36.9659 69.3245 36.6442 70.0081 36.3829C71.9587 35.639 73.9193 34.9655 76.0407 34.9655C76.3926 34.9655 76.7445 34.865 77.0964 34.8148C77.5187 34.9153 77.9309 35.0158 78.494 35.1465C78.0214 35.6591 77.4684 35.5687 77.016 35.6993C75.9402 36.011 75.1057 36.594 74.9549 37.7701C74.804 38.916 75.0956 39.9615 76.282 40.444C77.3578 40.8862 76.9154 41.992 77.3679 42.6956C76.8149 42.9469 76.2518 43.1982 75.6989 43.4395Z" fill="#2C8962"/>
<path d="M49.1757 89.9104C49.1757 89.2671 49.1757 88.6238 49.1757 87.9804C49.5477 87.8397 49.3968 87.508 49.4371 87.2567C50.1308 82.9242 53.0465 80.1699 57.3297 79.8483C59.6824 79.6774 61.9546 80.1599 64.1967 80.8133C64.8 80.9842 65.363 81.4566 66.0668 81.2254C66.0467 81.2857 66.0366 81.336 66.0165 81.3963C66.0769 81.3862 66.1271 81.3862 66.1875 81.3762C66.1372 81.336 66.0869 81.2857 66.0366 81.2455C62.1657 77.7876 60.9391 73.3345 61.4016 68.3486C61.7937 64.177 64.5587 61.5232 68.701 60.9704C70.0785 60.7894 71.4458 60.8899 72.8735 61.0307C69.6763 51.833 69.6964 50.1141 73.0243 45.5805C73.9192 44.8668 74.814 44.1531 75.7088 43.4394C76.2719 43.1881 76.8349 42.9469 77.3879 42.6956C79.1273 44.2235 80.6555 44.0426 82.0128 42.1729C82.1938 41.9216 82.2743 41.5798 82.6261 41.4793C82.6563 41.5195 82.6965 41.5496 82.7267 41.5898C82.7066 41.9919 82.6764 42.384 82.6563 42.7861C82.596 43.9923 83.0585 44.9473 84.1544 45.4298C85.1598 45.862 86.1954 45.8117 86.9897 44.8668C87.3416 44.4447 87.794 44.4346 88.3068 44.5351C90.0663 44.8769 91.7856 43.1881 91.1421 41.5898C91.0315 41.3084 91.0617 40.9566 91.0416 40.6349C91.0014 39.9916 91.1924 39.7101 91.9464 39.7905C94.1282 40.0016 95.3046 38.4435 94.5907 36.3426C94.45 35.9204 94.2087 35.4983 94.46 35.0761C95.2945 33.7291 94.9828 32.563 93.7964 31.4472C95.4554 31.3769 96.1994 30.1907 97.0842 28.9443C97.0842 29.6982 97.0842 30.2108 97.0842 30.7134C97.0741 31.8895 97.6372 32.7339 98.6828 33.1662C99.6379 33.5582 100.583 33.4275 101.317 32.6233C101.719 32.171 102.162 32.1408 102.725 32.1911C104.766 32.3921 105.841 31.2563 105.55 29.2559C105.51 28.9744 105.479 28.703 105.459 28.4216C105.419 27.7179 105.51 27.2756 106.455 27.4867C107.752 27.7581 108.878 26.8836 109.189 25.5667C109.26 25.2752 109.119 24.9134 109.441 24.6922C109.853 24.7827 110.074 25.044 110.094 25.4461C110.175 26.6825 110.798 27.5068 111.995 27.7682C113.332 28.0597 114.297 27.3962 115.051 26.3207C115.252 26.0291 115.333 25.5869 115.876 25.5165C115.825 25.9789 115.765 26.3709 115.735 26.7629C115.634 27.9491 116.016 28.9443 117.112 29.477C118.158 29.9897 119.204 29.9294 120.048 28.9744C120.41 28.5623 120.842 28.5723 121.365 28.6326C123.366 28.8739 124.562 27.5671 124.201 25.5768C124.16 25.3355 124.1 25.1043 124.09 24.8631C124.07 24.4208 124.009 23.8981 124.633 23.8679C125.125 23.8378 125.508 23.9785 125.588 24.652C125.729 25.8181 126.533 26.4513 127.609 26.7831C128.061 26.9238 128.524 27.0344 129.097 27.1851C128.554 27.6777 128.031 27.5872 127.579 27.7179C126.483 28.0496 125.668 28.6628 125.528 29.8188C125.387 30.9647 125.739 31.9599 126.905 32.4927C127.287 32.6636 127.619 32.9048 127.639 33.3672C127.689 34.6237 128.363 35.4178 129.539 35.6691C130.826 35.9506 131.771 35.3173 132.515 34.302C132.747 33.9804 132.847 33.5079 133.42 33.3974C133.37 33.7492 133.33 34.0206 133.279 34.302C133.078 35.6088 133.4 36.7347 134.617 37.378C135.723 37.9711 136.778 37.77 137.643 36.805C137.945 36.4733 138.327 36.4733 138.749 36.5035C140.559 36.6341 141.172 36.2522 141.896 34.5835C143.042 35.84 143.464 37.5187 144.379 38.916C144.55 39.4387 144.731 39.9715 144.902 40.4942C146.36 45.5001 146.933 50.6167 146.863 55.8136C146.853 56.6278 147.134 56.7083 147.828 56.668C148.944 56.6077 150.08 56.5876 151.196 56.6781C155.932 57.0902 159.461 59.3218 161.371 63.785C163.352 68.419 163.171 72.8319 159.793 76.8427C158.908 77.8981 157.902 78.8431 156.736 79.8784C159.119 79.8282 161.281 79.9588 163.382 80.5419C167.444 81.6576 170.832 83.7786 172.974 87.4778C175.135 91.1971 174.753 95.0973 173.305 98.9574C173.084 99.5404 173.054 99.9425 173.456 100.465C174.251 101.48 174.864 102.596 175.336 103.802C176.633 107.18 175.729 110.155 172.783 112.256C171.305 113.312 169.676 113.995 167.766 114.619C169.867 115.714 171.134 117.292 171.717 119.403C173.155 124.59 171.144 129.817 166.539 133.064C163.633 135.115 160.335 136.211 157.008 137.256C146.853 140.443 136.457 142.614 126.061 144.775C121.043 145.82 116.057 147.087 110.909 147.449C103.026 148.012 95.194 147.519 87.412 146.202C80.7058 145.077 74.1504 143.428 68.1078 140.151C64.5687 138.231 61.6831 135.638 59.9337 131.948C58.0335 127.948 58.8479 124.007 62.1356 121.052C62.4372 120.781 62.7388 120.499 63.131 120.147C58.3652 119.745 55.912 117.504 55.2082 113.071C54.5848 109.16 56.1634 106.316 59.8734 104.697C59.6723 104.577 59.5014 104.476 59.3405 104.375C54.434 101.531 51.1463 97.4395 49.5979 91.951C49.4069 91.2775 49.6583 90.5136 49.1757 89.9104ZM83.6014 101.772C83.6014 101.209 83.6215 100.817 83.6014 100.445C83.521 98.9272 84.4259 98.0426 85.6525 97.4898C87.9348 96.4544 91.313 97.6807 92.5698 99.9023C93.8567 102.164 93.2535 105.662 91.2427 107.13C87.9046 109.572 81.6911 109.753 78.5542 104.828C77.77 103.601 77.1566 102.295 77.1064 100.807C77.0159 97.9119 78.705 96.0423 80.8164 94.444C82.8976 92.8658 85.4011 91.9812 87.5527 90.4935C92.0772 87.3572 94.2891 83.0549 94.1282 77.5463C93.9472 78.0489 93.7964 78.5716 93.7462 79.1044C93.1731 85.005 89.634 88.6539 84.5566 91.0564C82.3748 92.0918 80.1428 93.0467 78.343 94.6651C75.7692 96.967 74.6129 99.6208 75.7591 103.199C77.9007 109.864 84.2248 111.573 90.1668 109.271C93.0625 108.145 94.9024 104.768 94.2087 101.531C93.4043 97.7813 89.7345 95.9317 86.0345 96.8163C83.5612 97.4093 82.5457 100.003 83.6014 101.772ZM61.653 84.6431C61.1503 84.2511 60.7179 84.1606 60.2353 84.1305C57.8123 83.9897 55.6204 85.6785 55.2484 88.081C54.6552 91.9309 57.028 95.2984 59.9337 96.6755C64.4883 98.8468 70.37 96.0322 71.6369 91.1469C72.0792 89.438 71.9988 87.6588 71.0939 86.0404C71.104 87.0355 71.3754 88.0307 71.2749 88.9957C70.913 92.4938 68.319 94.9968 64.5386 95.6402C61.9546 96.0825 58.134 93.8308 56.8973 91.1569C55.4797 88.0709 56.7767 85.3066 59.8935 84.6833C60.4465 84.5627 60.9693 84.8944 61.653 84.6431ZM169.334 102.687C168.107 102.837 166.901 103.169 165.674 103.079C162.799 102.868 160.728 101.39 159.461 98.8166C157.912 95.6703 157.902 92.0717 161.462 90.021C163.362 88.9253 165.755 89.3174 167.112 90.9659C167.745 91.7399 167.856 92.6949 167.967 93.881C168.399 91.0866 167.142 89.1063 164.729 88.473C161.09 87.518 156.746 90.785 156.575 94.6148C156.414 98.123 158.878 101.993 162.165 103.29C164.629 104.245 167.042 103.983 169.334 102.687ZM89.5133 70.741C89.262 70.2083 88.8196 70.1681 88.4978 69.957C87.1204 69.0925 85.8837 68.0772 85.2503 66.5292C83.8628 63.1215 84.4259 59.8144 86.0547 56.6982C87.231 54.4566 90.559 54.4365 92.057 56.467C92.7206 57.3717 92.8614 58.4272 93.1228 59.6334C93.3943 57.231 92.8614 55.703 91.5041 54.738C88.9704 52.9488 85.6525 53.8333 83.9734 56.6178C82.7267 58.6885 82.7971 60.91 82.8976 63.1517C83.0585 66.6197 86.125 70.158 89.5133 70.741ZM155.107 65.2224C154.896 65.6144 155.147 65.8356 155.228 66.0869C155.811 68.0873 154.956 70.2183 153.197 71.113C151.649 71.897 149.246 71.304 148.13 69.7559C147.426 68.7809 146.953 67.6751 146.682 66.4789C146.199 64.4082 146.169 62.2972 146.119 60.1863C145.375 63.1718 145.123 66.1673 146.028 69.1427C146.662 71.2436 147.898 72.8821 150.251 73.2641C152.352 73.5958 154.434 72.6409 155.469 70.8315C156.424 69.1327 156.927 66.5593 155.107 65.2224ZM154.283 64.6193C154.333 64.6595 154.373 64.6997 154.424 64.7399C154.444 64.7098 154.484 64.6595 154.484 64.6595C154.444 64.6193 154.393 64.5791 154.353 64.5389C154.323 64.559 154.303 64.5891 154.283 64.6193Z" fill="#623224"/>
<path d="M83.6359 101.895C83.5804 101.911 83.5215 101.888 83.4917 101.838C82.3761 99.997 83.4562 97.3025 86.0049 96.7016C86.005 96.7016 86.005 96.7016 86.0051 96.7015L86.0345 96.8263C89.7445 95.9418 93.4143 97.7913 94.2086 101.541C94.9023 104.768 93.0624 108.155 90.1668 109.281L83.6359 101.895ZM83.6359 101.895C83.6913 101.88 83.7296 101.83 83.7296 101.772M83.6359 101.895L83.7296 101.772M78.2573 94.5798C76.9599 95.7402 76.0111 96.9969 75.5344 98.4229C75.057 99.851 75.0568 101.437 75.637 103.249C76.7139 106.621 78.8547 108.748 81.4851 109.735C84.112 110.721 87.2141 110.565 90.2132 109.4L90.2132 109.4C93.1692 108.251 95.0405 104.8 94.3339 101.514L93.6184 79.1024C93.0509 84.9448 89.5517 88.5611 84.5017 90.9506L84.5016 90.9506C84.268 91.0614 84.0336 91.1715 83.7989 91.2816C81.8485 92.197 79.8791 93.1214 78.2573 94.5798ZM78.2573 94.5798C78.2574 94.5797 78.2575 94.5797 78.2575 94.5796L78.343 94.6752L78.2573 94.5798C78.2573 94.5798 78.2573 94.5798 78.2573 94.5798ZM83.7296 101.772C83.7296 101.569 83.7322 101.388 83.7346 101.222C83.7389 100.928 83.7424 100.682 83.7294 100.448L83.6014 100.455M83.7296 101.772L94.1486 77.4298M94.1486 77.4298C94.2092 77.4396 94.2544 77.491 94.2563 77.5524C94.4286 83.0954 92.185 87.4384 87.6259 90.6088L87.6258 90.6089C86.6265 91.3031 85.5494 91.8644 84.4801 92.4217C84.395 92.4661 84.31 92.5104 84.225 92.5548C83.0697 93.1581 81.9299 93.7694 80.8939 94.5562L80.8937 94.5563C78.7924 96.147 77.1461 97.9919 77.2345 100.813C77.2837 102.267 77.8831 103.551 78.6622 104.769L78.6624 104.769C81.7498 109.627 87.873 109.447 91.1669 107.036L91.1671 107.036C92.1338 106.332 92.7719 105.124 93.0091 103.805C93.2462 102.487 93.0791 101.076 92.4582 99.9756C91.8431 98.8972 90.7122 98.0525 89.4491 97.6056C88.1857 97.1586 86.8087 97.1161 85.7055 97.6166C85.1084 97.8879 84.5956 98.2362 84.242 98.694C83.8906 99.149 83.6908 99.7192 83.7294 100.448L83.6014 100.455M94.1486 77.4298C94.088 77.42 94.029 77.4545 94.0078 77.5122M94.1486 77.4298L94.0078 77.5122M83.6014 100.455C83.5209 98.9373 84.4359 98.0527 85.6524 97.4998C87.9347 96.4645 91.3029 97.6908 92.5697 99.9123L83.6014 100.455ZM94.0078 77.5122C93.8248 78.0103 93.6702 78.5544 93.6185 79.1021L94.0078 77.5122Z" fill="#4F281D" stroke="#4F281D" stroke-width="0.256447" stroke-linejoin="round"/>
<path d="M61.7795 84.6638C61.772 84.71 61.7398 84.7485 61.6956 84.7641C61.325 84.8949 60.999 84.8716 60.7091 84.8344C60.6648 84.8288 60.6218 84.8229 60.5799 84.8171C60.3409 84.7844 60.1375 84.7565 59.9291 84.799L59.929 84.799C58.4041 85.1088 57.3382 85.9359 56.8213 87.0482C56.3038 88.1618 56.3272 89.5817 57.0238 91.0932L57.0238 91.0932C57.6283 92.4051 58.8681 93.6189 60.2839 94.4503C61.7013 95.2826 63.2711 95.7179 64.527 95.5038C68.2501 94.8685 70.8023 92.4044 71.1574 88.9725L71.1574 88.9724C71.2061 88.5049 71.165 88.027 71.1085 87.5339C71.0991 87.4513 71.0891 87.3681 71.0792 87.2846C71.0302 86.8736 70.98 86.4523 70.9757 86.0317C70.9751 85.9731 71.0144 85.9215 71.071 85.9064C71.1276 85.8914 71.1873 85.9166 71.2159 85.9678C72.1401 87.6208 72.2198 89.4352 71.771 91.169M61.7795 84.6638L71.771 91.169M61.7795 84.6638C61.787 84.6176 61.7687 84.5709 61.7318 84.5421M61.7795 84.6638L61.7318 84.5421M71.771 91.169C70.4845 96.1405 64.5177 98.9981 59.8885 96.7812M71.771 91.169L59.8885 96.7812M59.8885 96.7812C56.941 95.3741 54.5284 91.9568 55.1317 88.0514M59.8885 96.7812L55.1317 88.0514M61.7318 84.5421C61.2028 84.1296 60.7435 84.0342 60.2562 83.9927L60.2562 83.9926L60.2528 83.9925C57.7669 83.8481 55.5143 85.5805 55.1317 88.0513L55.1317 88.0514M61.7318 84.5421L55.1317 88.0514" fill="#4F281D" stroke="#4F281D" stroke-width="0.256447" stroke-linejoin="round"/>
<path d="M169.456 102.646C169.475 102.704 169.45 102.768 169.397 102.798C167.074 104.123 164.621 104.39 162.098 103.399C160.425 102.744 158.967 101.435 157.949 99.8484C156.93 98.2619 156.345 96.389 156.427 94.599L156.427 94.5988C156.52 92.6326 157.674 90.8233 159.258 89.6297C160.842 88.4362 162.875 87.8441 164.742 88.339C165.98 88.6628 166.93 89.3341 167.512 90.2899C168.093 91.2449 168.298 92.4709 168.073 93.8911C168.063 93.9547 168.007 94.001 167.943 93.9992C167.878 93.9974 167.825 93.9481 167.819 93.884C167.697 92.6901 167.597 91.7861 166.992 91.0368C165.687 89.44 163.354 89.056 161.505 90.122L169.456 102.646ZM169.456 102.646C169.436 102.588 169.379 102.552 169.318 102.559M169.456 102.646L169.318 102.559M169.318 102.559C168.955 102.604 168.587 102.666 168.223 102.727C167.974 102.768 167.726 102.81 167.483 102.845C166.876 102.934 166.274 102.99 165.664 102.941L165.663 102.941M169.318 102.559L165.663 102.941M165.663 102.941C162.836 102.733 160.803 101.285 159.556 98.75M165.663 102.941L159.556 98.75M159.556 98.75C158.789 97.1923 158.411 95.5334 158.656 94.0184M159.556 98.75L158.656 94.0184M158.656 94.0184C158.9 92.509 159.763 91.1291 161.505 90.1221L158.656 94.0184Z" fill="#4F281D" stroke="#4F281D" stroke-width="0.256447" stroke-linejoin="round"/>
<path d="M89.4914 70.8674C89.5385 70.8755 89.5862 70.8567 89.6152 70.8187C89.6441 70.7806 89.6495 70.7296 89.6291 70.6863C89.4895 70.3905 89.2945 70.2299 89.0976 70.1151C89.0222 70.0711 88.9446 70.0328 88.8731 69.9976C88.8543 69.9884 88.836 69.9793 88.8183 69.9705C88.7301 69.9264 88.6525 69.8846 88.5841 69.8339L88.5844 69.8336L88.5755 69.8281C87.1953 68.9681 85.997 67.9809 85.379 66.4608L85.3789 66.4607C84.0094 63.0972 84.5616 59.8302 86.1782 56.7375L86.1782 56.7375C86.7362 55.6698 87.8154 55.124 88.9449 55.0924C90.0753 55.0608 91.2424 55.5453 91.9637 56.523L91.9641 56.5235C92.5194 57.2693 92.6932 58.1176 92.896 59.1077C92.9315 59.2809 92.9679 59.4584 93.0074 59.6405C93.0207 59.7019 93.0764 59.7446 93.1391 59.7414C93.2019 59.7382 93.253 59.6901 93.2601 59.6277C93.3971 58.4153 93.3326 57.4124 93.0557 56.5859C92.7779 55.7566 92.2884 55.1113 91.5882 54.6134L91.5879 54.6132C88.9845 52.7747 85.5853 53.703 83.8736 56.5313L83.8734 56.5316C82.6041 58.6398 82.679 60.9097 82.7794 63.1372C82.8563 64.9156 83.6753 66.6989 84.8994 68.1097C86.1234 69.5205 87.7621 70.5699 89.4914 70.8674Z" fill="#4F281D" stroke="#4F281D" stroke-width="0.256447" stroke-linejoin="round"/>
<path d="M155.183 65.1194C155.154 65.0973 155.115 65.0892 155.079 65.0973C155.043 65.1054 155.012 65.1289 154.994 65.1616C154.87 65.3926 154.88 65.5833 154.937 65.7499C154.962 65.8244 154.996 65.8937 155.026 65.9535L155.03 65.9622C155.062 66.0267 155.088 66.0803 155.105 66.1338C155.672 68.0802 154.838 70.1447 153.139 71.0088L153.138 71.009C152.399 71.3883 151.445 71.4379 150.534 71.1988C149.623 70.9599 148.771 70.4368 148.233 69.691L148.233 69.691C147.541 68.7314 147.075 67.642 146.807 66.4606L146.807 66.4599C146.348 64.4904 146.3 62.4828 146.253 60.4581C146.251 60.3699 146.249 60.2816 146.247 60.1933C146.245 60.1292 146.197 60.076 146.133 60.0689C146.069 60.0619 146.01 60.103 145.994 60.1653C145.247 63.153 144.991 66.1841 145.905 69.1899C146.547 71.3281 147.802 73.0185 150.231 73.4009C152.382 73.7404 154.527 72.7634 155.581 70.9048C156.071 70.0417 156.444 68.9528 156.461 67.9021C156.478 66.8481 156.135 65.8236 155.183 65.1194Z" fill="#4F281D" stroke="#4F281D" stroke-width="0.256447" stroke-linejoin="round"/>
<path d="M154.283 64.6195C154.303 64.5893 154.323 64.559 154.343 64.5389C154.394 64.5792 154.434 64.6195 154.474 64.6598C154.474 64.6699 154.434 64.7102 154.414 64.7404C154.384 64.7001 154.333 64.6598 154.283 64.6195Z" fill="#4F281D"/>
<path d="M134.677 17.4044C133.611 18.1382 133.631 19.4953 132.928 20.6111C132.716 20.2793 132.566 20.0381 132.405 19.7968C132.797 18.3292 133.209 16.8817 133.219 15.3437C133.229 14.4491 132.857 14.228 132.053 14.3486C130.374 14.5999 128.966 15.3739 127.729 16.4997C127.357 16.1379 126.975 15.786 126.603 15.4242C128.373 12.5593 130.957 11.0414 134.275 10.6896C135.19 10.5891 135.532 10.8605 135.511 11.8355C135.481 13.6449 135.089 15.394 134.868 17.1732L134.888 17.1531C134.677 17.1129 134.697 17.2838 134.677 17.4044Z" fill="#04CF8A"/>
<path d="M87.1204 25.4963C86.3462 25.1345 85.5217 25.0842 84.6872 25.1144C82.5658 22.9129 81.3794 20.3496 81.5905 17.2234C81.6408 16.4193 81.8519 16.0875 82.7267 16.2182C85.2 16.6002 87.5829 17.1832 89.6641 18.6709C89.5635 19.063 89.453 19.455 89.3524 19.847C88.8598 19.6862 88.3771 19.4952 87.8744 19.3846C86.9997 19.1936 85.8535 18.4699 85.2905 19.1233C84.6269 19.8973 84.9487 21.1739 85.2905 22.2093C85.4413 22.6616 85.6424 23.1039 85.8535 23.5261C86.2054 24.2298 86.9394 24.6821 87.1204 25.4963Z" fill="#04CF89"/>
<path d="M104.062 14.0169C104.384 11.343 105.5 9.08127 107.43 7.19147C108.063 6.57829 108.476 6.65871 108.958 7.29199C109.903 8.5284 110.929 9.69445 111.562 11.1319C111.412 11.2626 111.21 11.3732 111.13 11.544C110.507 12.9111 109.582 13.9968 108.506 15.0723C107.35 16.2283 108.184 18.1382 109.873 18.8017C110.185 18.9223 110.657 18.8318 110.738 19.2942C110.788 19.5556 110.497 19.5857 110.326 19.636C109.863 19.7767 109.481 20.2994 108.908 19.9074C107.038 18.6207 107.038 18.6207 104.434 19.3545C105.751 17.3944 106.978 15.4644 104.062 14.0169Z" fill="#2D8962"/>
<path d="M87.1203 25.4964C86.9394 24.6822 86.1954 24.2198 85.8435 23.5262C85.6323 23.104 85.4212 22.6617 85.2804 22.2093C84.9386 21.174 84.6168 19.8973 85.2804 19.1233C85.8334 18.4699 86.9896 19.1937 87.8644 19.3847C88.3671 19.4952 88.8497 19.6963 89.3423 19.8471C89.3926 21.1136 90.0361 21.9379 91.2124 22.3802C91.4839 22.4807 91.9464 22.5008 91.8961 22.8929C91.866 23.1844 91.5141 23.3553 91.1923 23.4759C90.0863 23.8679 89.3323 24.5716 89.3725 25.8583C89.3926 26.4513 88.9804 26.3307 88.6285 26.3106C88.1358 26.0392 87.8442 25.3959 87.1505 25.4964H87.1203Z" fill="#2C8963"/>
<path d="M127.72 16.5098C128.956 15.384 130.374 14.61 132.043 14.3587C132.847 14.2381 133.219 14.4592 133.209 15.3538C133.199 16.8918 132.777 18.3494 132.395 19.8069C130.474 18.2187 129.157 18.4499 127.83 20.6614C127.358 20.0582 127.277 19.4853 127.669 18.8218C128.122 18.078 127.991 17.2838 127.72 16.5098Z" fill="#2D8A62"/>
<path d="M82.4251 35.1867C82.5357 34.0809 83.7121 33.0355 84.7175 33.136C85.8536 33.2567 86.8188 34.3121 86.7183 35.3174C86.6077 36.4231 85.4414 37.4685 84.4259 37.3579C83.2797 37.2474 82.3246 36.2019 82.4251 35.1867Z" fill="#FEB220"/>
<path d="M134.878 17.1934C136.125 17.0727 137.361 16.9923 138.226 18.1986C138.427 18.47 138.819 18.3896 139.141 18.3494C140.277 18.2287 141.222 18.5403 141.755 19.6059C142.298 20.7016 141.946 21.6967 141.323 22.6416C141.092 22.9934 140.629 23.1744 140.549 23.7473C141.293 23.6267 141.916 23.2447 142.64 23.1945C144.892 23.0437 146.099 24.7023 145.194 26.7529C145.083 27.0143 144.932 27.2455 145.013 27.5471C145.184 28.5724 145.777 29.5675 145.194 30.6331C144.59 31.2663 143.987 31.9097 143.012 31.8795C141.594 31.8293 141.474 31.97 141.715 33.4074C141.775 33.7995 141.856 34.1815 141.926 34.5735C141.212 36.2421 140.599 36.6241 138.779 36.4935C138.357 36.4633 137.965 36.4633 137.673 36.795C136.809 37.76 135.763 37.9611 134.647 37.368C133.43 36.7247 133.109 35.5988 133.31 34.292C133.35 34.0206 133.39 33.7392 133.45 33.3873C132.877 33.4979 132.777 33.9804 132.546 34.292C131.801 35.3073 130.856 35.9506 129.569 35.6591C128.393 35.3978 127.719 34.6137 127.669 33.3572C127.649 32.9048 127.317 32.6535 126.935 32.4827C125.769 31.9599 125.427 30.9547 125.558 29.8088C125.699 28.6528 126.513 28.0296 127.609 27.7079C128.061 27.5772 128.574 27.6677 129.127 27.1751C128.564 27.0243 128.102 26.9138 127.639 26.773C126.563 26.4413 125.759 25.798 125.618 24.642C125.538 23.9685 125.156 23.8278 124.663 23.8579C124.03 23.8881 124.09 24.4208 124.12 24.8531C124.13 25.0943 124.19 25.3255 124.231 25.5668C124.593 27.5571 123.396 28.8639 121.395 28.6226C120.883 28.5623 120.44 28.5623 120.078 28.9644C119.234 29.9194 118.188 29.9696 117.142 29.467C116.057 28.9342 115.664 27.9391 115.765 26.7529C115.795 26.3609 115.855 25.9588 115.906 25.5065C115.363 25.5768 115.282 26.0191 115.081 26.3106C114.327 27.3762 113.362 28.0396 112.025 27.7581C110.828 27.4968 110.205 26.6725 110.125 25.4361C110.094 25.034 109.883 24.7727 109.471 24.6822C109.149 24.9033 109.29 25.2652 109.22 25.5567C108.908 26.8635 107.782 27.7481 106.485 27.4767C105.53 27.2756 105.439 27.7079 105.49 28.4115C105.51 28.693 105.54 28.9745 105.58 29.2459C105.872 31.2462 104.796 32.3721 102.755 32.1811C102.202 32.1308 101.759 32.161 101.347 32.6133C100.613 33.4175 99.6681 33.5482 98.7129 33.1561C97.6673 32.7239 97.0942 31.8795 97.1143 30.7034C97.1143 30.1908 97.1143 29.6882 97.1143 28.9342C96.2295 30.1908 95.4855 31.3669 93.8266 31.4372C95.013 32.5631 95.3246 33.7191 94.4901 35.066C94.2388 35.4782 94.47 35.9104 94.6209 36.3326C95.3347 38.4235 94.1684 39.9815 91.9766 39.7805C91.2225 39.7101 91.0315 39.9815 91.0717 40.6249C91.0918 40.9465 91.0616 41.2883 91.1722 41.5798C91.8157 43.1781 90.0964 44.8669 88.3369 44.5251C87.8242 44.4246 87.3818 44.4346 87.0198 44.8568C86.2256 45.7917 85.19 45.852 84.1845 45.4197C83.0886 44.9473 82.6161 43.9823 82.6865 42.776C82.7066 42.3739 82.7267 41.9819 82.7568 41.5798C82.8574 41.5095 82.9076 41.4291 82.7769 41.3486C82.7669 41.3386 82.6965 41.429 82.6462 41.4793C82.2943 41.5798 82.2139 41.9317 82.0329 42.1729C80.6756 44.0426 79.1474 44.2235 77.408 42.6956C76.9555 41.992 77.3979 40.8862 76.3221 40.4439C75.1357 39.9614 74.8441 38.916 74.9949 37.7701C75.1458 36.604 75.9803 36.021 77.0561 35.6993C77.5085 35.5687 78.0514 35.6591 78.534 35.1465C77.971 35.0158 77.5588 34.9153 77.1365 34.8147C76.1311 34.5132 75.4273 33.8698 74.9949 32.9149C74.9145 31.6081 75.2765 30.5426 76.5634 29.9797C77.0058 29.7887 77.2672 29.4469 77.3476 28.9946C77.5688 27.8888 78.0715 27.0243 79.268 26.8334C80.565 26.6223 81.4799 27.2656 82.1737 28.311C82.3446 28.5724 82.5256 28.8237 82.8473 29.1152C82.7769 27.4164 82.9981 25.8784 84.7275 25.1044C85.562 25.0742 86.3864 25.1345 87.1606 25.4864L87.1807 25.4663C87.3818 26.2704 87.9247 26.4614 88.6587 26.2805C89.0106 26.3006 89.4228 26.4212 89.4027 25.8281C89.3625 24.5415 90.1165 23.8479 91.2225 23.4458C91.5543 23.3252 91.8961 23.1543 91.9263 22.8628C91.9766 22.4707 91.5141 22.4607 91.2426 22.3501C90.0663 21.9078 89.4329 21.0835 89.3725 19.817C89.4731 19.4249 89.5837 19.0329 89.6842 18.6409C90.75 17.7764 91.7453 16.9622 92.248 15.5147C92.7206 14.1476 94.7616 14.0772 95.938 15.2131C96.3904 15.6453 96.7322 16.1881 97.2852 16.8717C97.3657 15.3237 97.2048 13.8158 98.6828 13.0519C99.4972 12.6297 100.382 12.6699 101.237 13.0318C101.91 14.1677 103.006 14.0571 104.092 13.9968C107.008 15.4443 105.781 17.3743 104.464 19.3546C107.068 18.6208 107.068 18.6107 108.938 19.9074C109.511 20.2995 109.893 19.7768 110.356 19.636C110.527 19.5858 110.818 19.5556 110.768 19.2943C110.677 18.8319 110.215 18.9223 109.903 18.8017C108.214 18.1383 107.38 16.2183 108.536 15.0724C109.612 13.9968 110.537 12.9112 111.16 11.5441C111.241 11.3732 111.442 11.2727 111.592 11.1319C112.306 10.8706 113.02 10.8404 113.744 11.0515C114.679 11.4938 115.212 12.3382 115.876 13.3836C115.966 12.4789 115.966 11.8155 116.117 11.1822C116.589 9.17176 118.852 8.48821 120.32 9.91562C120.702 10.2875 121.043 10.5087 121.566 10.4484C122.743 10.3076 123.728 10.6193 124.281 11.7552C124.864 12.9715 124.381 14.0068 123.637 14.9718C123.456 15.2131 123.125 15.3538 123.145 15.8363C124.311 15.4845 125.437 15.012 126.634 15.4342C127.006 15.7961 127.388 16.1479 127.76 16.5098C128.031 17.2838 128.162 18.0679 127.709 18.8218C127.317 19.4852 127.398 20.0582 127.87 20.6613C129.207 18.4499 130.515 18.2086 132.435 19.8069C132.586 20.0482 132.737 20.2794 132.958 20.6211C133.672 19.4953 133.641 18.1483 134.707 17.4145C134.838 17.3944 134.948 17.3542 134.928 17.1833L134.878 17.1934ZM82.425 35.1867C82.3144 36.2019 83.2696 37.2474 84.4158 37.368C85.4313 37.4685 86.5976 36.4231 86.7082 35.3274C86.8087 34.3121 85.8435 33.2567 84.7074 33.1461C83.712 33.0255 82.5457 34.0709 82.425 35.1867ZM119.726 19.244C119.716 18.2086 118.681 17.2336 117.595 17.2235C116.61 17.2135 115.443 18.4398 115.463 19.4651C115.483 20.4502 116.589 21.4555 117.665 21.4555C118.771 21.4655 119.736 20.4301 119.726 19.244ZM135.139 29.2459C136.386 29.2459 137.301 28.3713 137.291 27.1751C137.281 26.1498 136.245 25.1546 135.16 25.1446C134.064 25.1345 133.008 26.19 133.008 27.3058C132.998 28.4115 133.913 29.2459 135.139 29.2459ZM98.9643 24.9134C100.05 24.9234 101.116 23.9785 101.146 22.9733C101.176 21.9279 100.11 20.8724 98.9844 20.8222C97.9186 20.7719 96.863 21.8475 96.8529 22.9733C96.8529 24.1193 97.7075 24.9033 98.9643 24.9134ZM92.5798 31.1256C92.0067 30.5727 91.6951 30.0802 91.3934 29.4369C91.0516 30.3616 90.3277 30.9246 89.9758 31.779C90.7902 31.4573 91.5945 31.2663 92.5798 31.1256Z" fill="#FDF101"/>
<circle cx="84.8483" cy="35.1867" r="3.07948" fill="#FFA400"/>
<circle cx="99.1434" cy="23.1787" r="3.07948" fill="#FFA400"/>
<circle cx="118.013" cy="19.7478" r="3.07948" fill="#FFA400"/>
<circle cx="135.167" cy="27.1813" r="3.07948" fill="#FFA400"/>
<path d="M92.5799 31.1256C91.5946 31.2663 90.7902 31.4573 89.9758 31.7689C90.3277 30.9246 91.0416 30.3516 91.3935 29.4268C91.6951 30.0802 92.0068 30.5828 92.5799 31.1256Z" fill="#724520"/>
<path d="M87.1405 25.4763C87.8343 25.3758 88.1258 26.0191 88.6185 26.2905C87.8845 26.4715 87.3416 26.2805 87.1405 25.4763Z" fill="#04CF89"/>
<path d="M134.677 17.4039C134.697 17.2835 134.677 17.113 134.898 17.1732C134.918 17.3437 134.808 17.3839 134.677 17.4039Z" fill="#FEFEFD"/>
<path d="M82.6161 41.479C82.6562 41.4389 82.7365 41.3486 82.7466 41.3486C82.867 41.4389 82.8269 41.5091 82.7265 41.5794C82.6863 41.5493 82.6462 41.5192 82.6161 41.479Z" fill="#623224"/>
<path d="M50.412 219.539C50.2913 219.458 50.1707 219.327 50.04 219.297C45.3647 218.473 42.5093 215.478 40.7699 211.276C38.5178 205.838 37.9145 200.168 38.3569 194.318C39.0004 185.713 39.292 177.098 39.1412 168.474C39.1311 167.911 39.1512 167.348 39.1512 166.795C39.4629 166.835 39.7846 166.865 40.0963 166.926C44.3493 167.72 48.0693 166.654 51.2264 163.669C51.528 163.377 51.9201 163.116 51.7794 162.563C50.8644 158.924 50.3416 155.195 49.1854 151.616C49.4166 149.747 48.9943 147.847 49.4568 145.987C51.0555 139.654 54.3331 134.628 60.3958 131.743C60.9488 131.482 61.4013 131.462 61.9643 131.723C63.7339 132.557 65.5235 133.362 67.3232 134.126C67.9365 134.387 68.2482 134.769 68.389 135.422C70.0077 142.69 71.6365 149.958 73.2854 157.215C73.396 157.708 73.3859 158.14 73.2854 158.623C72.6017 162.04 71.9482 165.458 71.2846 168.876C68.58 182.708 65.9257 196.539 63.1206 210.351C62.3263 214.281 60.0741 217.287 56.2334 218.855C55.5899 219.116 54.9062 219.307 54.2427 219.529C52.9658 219.539 51.6889 219.539 50.412 219.539ZM53.9008 166.705C54.0215 167.076 54.1019 167.458 54.2628 167.81C57.1182 174.264 58.3146 181.17 59.8127 188.005C60.5869 191.553 61.2304 195.132 62.1453 198.64C62.2257 198.942 62.1956 199.434 62.5676 199.394C63.0904 199.344 62.839 198.821 62.8491 198.51C62.9295 196.7 62.6178 194.921 62.3866 193.142C61.904 189.463 61.4918 185.773 60.8483 182.114C60.0942 177.812 58.2342 173.882 56.0826 170.132C55.4291 168.976 55.1174 167.609 53.9008 166.705Z" fill="#EBE121"/>
<path d="M22.3305 122.013C23.3661 123.088 24.7033 123.752 25.9199 124.566C28.8054 126.506 31.7614 128.336 34.9385 129.783C35.9138 130.235 36.9092 130.617 38.0151 130.708C38.9703 130.778 39.6942 131.401 40.3678 132.045C42.7306 134.337 44.0075 137.272 45.1436 140.288C45.8675 142.197 46.2998 144.198 46.8528 146.158C47.3857 148.068 48.009 149.958 49.1753 151.606C50.3416 155.185 50.8544 158.914 51.7693 162.553C51.9101 163.106 51.518 163.367 51.2164 163.659C48.0593 166.644 44.3493 167.71 40.0863 166.916C39.7746 166.855 39.4529 166.825 39.1412 166.785C38.7893 160.432 38.4776 154.089 37.2711 147.817C36.9293 146.047 35.6825 145.263 34.5364 144.359C30.575 141.242 26.0405 139.604 21.0134 139.071C17.796 138.729 14.7295 137.644 11.8439 136.106C11.492 135.915 11.1401 135.694 10.7681 135.583C9.54148 135.231 8.90807 134.437 8.93823 133.161C8.95834 132.467 8.57627 132.165 8.02329 131.924C7.21895 131.572 6.44477 131.16 5.62032 130.828C4.48419 130.376 3.52904 129.833 3.59942 128.386C3.60948 128.215 3.47876 127.974 3.338 127.873C2.24209 127.089 1.297 126.094 0 125.611C0 125.451 0 125.29 0 125.129C0.844557 124.727 1.63884 124.053 2.65432 124.667C2.7247 124.797 2.76492 125.028 2.87552 125.059C5.92196 126.054 8.66676 127.732 11.6328 128.888C12.3969 129.18 13.1107 129.532 13.6738 130.085C14.1463 130.557 14.6591 130.688 15.2925 130.668C16.9716 130.617 18.6506 130.627 20.2392 131.291C20.571 131.432 20.9631 131.532 21.305 131.1C19.4952 130.386 17.7156 130.085 15.8555 130.175C15.3428 130.205 14.7797 130.266 14.3474 129.914C12.3466 128.235 9.74257 127.783 7.55074 126.496C6.2839 125.752 4.77577 125.531 3.57931 124.636C4.23284 124.345 4.88636 124.094 5.63037 124.264C7.80209 124.767 9.97381 125.3 12.055 126.094C13.0202 126.466 14.0458 126.808 14.7596 127.582C15.3428 128.215 16.0365 128.516 16.8107 128.707C18.3189 129.089 19.8169 129.492 21.3351 129.813C23.2555 130.235 25.1859 130.658 27.3677 130.356C26.9957 130.034 26.7544 129.843 26.5332 129.642C25.0451 128.305 23.5169 127.009 22.431 125.3C21.7775 124.264 21.5161 123.179 22.059 122.003C22.1797 122.013 22.2601 122.013 22.3305 122.013ZM26.6438 134.538C27.1465 135.101 27.5688 135 27.9408 135C29.5394 135.01 31.128 135.04 32.7266 134.99C33.8627 134.96 34.7777 135.382 35.7026 136.005C38.3268 137.744 39.2015 140.438 39.845 143.283C39.9757 143.866 39.9858 144.489 40.398 145.213C40.4985 144.871 40.589 144.721 40.5689 144.59C40.1768 141.966 39.6238 139.343 37.9146 137.252C36.8287 135.925 35.4714 134.648 33.5812 134.558C31.3592 134.467 29.1272 134.538 26.6438 134.538ZM9.76267 132.387C11.4518 132.477 12.9398 133.11 14.277 134.055C15.3026 134.779 16.1773 135.643 17.6251 135.322C18.0072 135.231 18.4998 135.633 18.9322 135.834C19.7264 136.196 20.5207 136.578 21.315 136.94C21.8177 137.161 22.1998 136.97 22.0088 136.438C21.5463 135.231 21.0938 134.035 20.9128 132.738C20.2694 134.015 21.1441 135.141 21.2949 136.488C20.0783 135.834 19.0428 134.91 17.8563 134.869C16.4588 134.829 15.4936 134.196 14.4077 133.512C13.0303 132.638 11.5624 131.753 9.76267 132.387ZM20.1688 133.844C19.636 132.919 18.8216 133.07 18.1881 132.859C16.7805 132.387 15.2221 132.859 13.8548 131.884C11.5825 130.266 9.11921 128.949 6.39451 128.225C5.57006 128.004 4.89642 127.954 4.08202 128.275C4.1323 128.326 4.18257 128.426 4.2429 128.436C7.32955 128.627 9.94365 130.044 12.4874 131.643C13.8749 132.507 15.1518 133.492 17.0319 133.191C17.9569 133.03 19.0025 133.573 20.1688 133.844Z" fill="#F3AA90"/>
<path d="M53.9009 166.705C55.1174 167.599 55.4291 168.976 56.0927 170.132C58.2443 173.892 60.1044 177.812 60.8584 182.114C61.5019 185.763 61.9141 189.463 62.3967 193.142C62.628 194.921 62.9497 196.7 62.8592 198.509C62.8492 198.821 63.0905 199.344 62.5777 199.394C62.2057 199.424 62.2258 198.942 62.1554 198.64C61.2405 195.122 60.597 191.543 59.8228 188.005C58.3248 181.18 57.1283 174.264 54.2729 167.81C54.102 167.458 54.0215 167.076 53.9009 166.705Z" fill="#A9A218"/>
<path d="M2.67432 124.687C2.986 124.677 3.29769 124.656 3.60937 124.646C4.80583 125.541 6.31396 125.762 7.5808 126.506C9.77262 127.793 12.3767 128.245 14.3775 129.924C14.7997 130.286 15.3628 130.215 15.8856 130.185C17.7456 130.095 19.5253 130.406 21.335 131.11C21.0032 131.542 20.6111 131.442 20.2693 131.301C18.6706 130.637 17.0016 130.637 15.3226 130.678C14.6891 130.698 14.1864 130.567 13.7038 130.095C13.1408 129.532 12.4269 129.19 11.6628 128.898C8.68676 127.753 5.94196 126.064 2.90558 125.069C2.78492 125.038 2.7447 124.817 2.67432 124.687Z" fill="#C38873"/>
<path d="M26.6438 134.538C29.1272 134.538 31.3592 134.457 33.5812 134.558C35.4614 134.648 36.8287 135.915 37.9146 137.252C39.6138 139.343 40.1668 141.966 40.5689 144.59C40.589 144.721 40.4985 144.871 40.398 145.213C39.9858 144.489 39.9858 143.866 39.845 143.283C39.2015 140.428 38.3268 137.744 35.7027 136.005C34.7777 135.392 33.8527 134.96 32.7266 134.99C31.128 135.03 29.5394 135.01 27.9408 135C27.5587 135 27.1465 135.101 26.6438 134.538Z" fill="#C38873"/>
<path d="M9.76257 132.387C11.5723 131.753 13.0302 132.638 14.4177 133.512C15.5036 134.196 16.4688 134.819 17.8663 134.869C19.0427 134.91 20.0883 135.834 21.3049 136.488C21.1541 135.141 20.2793 134.015 20.9228 132.738C21.1038 134.035 21.5562 135.231 22.0187 136.438C22.2198 136.96 21.8277 137.161 21.325 136.94C20.5307 136.578 19.7364 136.196 18.9421 135.834C18.5098 135.633 18.0071 135.241 17.6351 135.322C16.1873 135.654 15.3125 134.779 14.287 134.055C12.9397 133.12 11.4517 132.477 9.76257 132.387Z" fill="#C38873"/>
<path d="M20.1689 133.844C18.9925 133.573 17.9569 133.03 17.0319 133.181C15.1618 133.482 13.8749 132.497 12.4874 131.633C9.93361 130.044 7.32956 128.617 4.2429 128.426C4.18258 128.426 4.1323 128.325 4.08203 128.265C4.88637 127.944 5.56 127.994 6.38445 128.215C9.11921 128.949 11.5725 130.266 13.8447 131.874C15.2121 132.849 16.7806 132.376 18.1781 132.849C18.8216 133.07 19.636 132.919 20.1689 133.844Z" fill="#C38873"/>
<path d="M176.588 219.539C176.709 219.458 176.829 219.327 176.96 219.297C181.635 218.473 184.491 215.478 186.23 211.276C188.482 205.838 189.085 200.168 188.643 194.318C188 185.713 187.708 177.098 187.859 168.474C187.869 167.911 187.849 167.348 187.849 166.795C187.537 166.835 187.215 166.865 186.904 166.926C182.651 167.72 178.931 166.654 175.774 163.669C175.472 163.377 175.08 163.116 175.221 162.563C176.136 158.924 176.658 155.195 177.815 151.616C177.583 149.747 178.006 147.847 177.543 145.987C175.945 139.654 172.667 134.628 166.604 131.743C166.051 131.482 165.599 131.462 165.036 131.723C163.266 132.557 161.476 133.362 159.677 134.126C159.063 134.387 158.752 134.769 158.611 135.422C156.992 142.69 155.363 149.958 153.715 157.215C153.604 157.708 153.614 158.14 153.715 158.623C154.398 162.04 155.052 165.458 155.715 168.876C158.42 182.708 161.074 196.539 163.879 210.351C164.674 214.281 166.926 217.287 170.767 218.855C171.41 219.116 172.094 219.307 172.757 219.529C174.034 219.539 175.311 219.539 176.588 219.539ZM173.099 166.705C172.979 167.076 172.898 167.458 172.737 167.81C169.882 174.264 168.685 181.17 167.187 188.005C166.413 191.553 165.77 195.132 164.855 198.64C164.774 198.942 164.804 199.434 164.432 199.394C163.91 199.344 164.161 198.821 164.151 198.51C164.07 196.7 164.382 194.921 164.613 193.142C165.096 189.463 165.508 185.773 166.152 182.114C166.906 177.812 168.766 173.882 170.917 170.132C171.571 168.976 171.883 167.609 173.099 166.705Z" fill="#EBE121"/>
<path d="M204.67 122.013C203.634 123.088 202.297 123.752 201.08 124.566C198.195 126.506 195.239 128.336 192.061 129.783C191.086 130.235 190.091 130.617 188.985 130.708C188.03 130.778 187.306 131.401 186.632 132.045C184.269 134.337 182.993 137.272 181.856 140.288C181.133 142.197 180.7 144.198 180.147 146.158C179.614 148.068 178.991 149.958 177.825 151.606C176.658 155.185 176.146 158.914 175.231 162.553C175.09 163.106 175.482 163.367 175.784 163.659C178.941 166.644 182.651 167.71 186.914 166.916C187.225 166.855 187.547 166.825 187.859 166.785C188.211 160.432 188.522 154.089 189.729 147.817C190.071 146.047 191.317 145.263 192.464 144.359C196.425 141.242 200.959 139.604 205.987 139.071C209.204 138.729 212.271 137.644 215.156 136.106C215.508 135.915 215.86 135.694 216.232 135.583C217.459 135.231 218.092 134.437 218.062 133.161C218.042 132.467 218.424 132.165 218.977 131.924C219.781 131.572 220.555 131.16 221.38 130.828C222.516 130.376 223.471 129.833 223.401 128.386C223.391 128.215 223.521 127.974 223.662 127.873C224.758 127.089 225.703 126.094 227 125.611C227 125.451 227 125.29 227 125.129C226.155 124.727 225.361 124.053 224.346 124.667C224.275 124.797 224.235 125.028 224.124 125.059C221.078 126.054 218.333 127.732 215.367 128.888C214.603 129.18 213.889 129.532 213.326 130.085C212.854 130.557 212.341 130.688 211.707 130.668C210.028 130.617 208.349 130.627 206.761 131.291C206.429 131.432 206.037 131.532 205.695 131.1C207.505 130.386 209.284 130.085 211.144 130.175C211.657 130.205 212.22 130.266 212.653 129.914C214.653 128.235 217.257 127.783 219.449 126.496C220.716 125.752 222.224 125.531 223.421 124.636C222.767 124.345 222.114 124.094 221.37 124.264C219.198 124.767 217.026 125.3 214.945 126.094C213.98 126.466 212.954 126.808 212.24 127.582C211.657 128.215 210.963 128.516 210.189 128.707C208.681 129.089 207.183 129.492 205.665 129.813C203.745 130.235 201.814 130.658 199.632 130.356C200.004 130.034 200.246 129.843 200.467 129.642C201.955 128.305 203.483 127.009 204.569 125.3C205.222 124.264 205.484 123.179 204.941 122.003C204.82 122.013 204.74 122.013 204.67 122.013ZM200.356 134.538C199.854 135.101 199.431 135 199.059 135C197.461 135.01 195.872 135.04 194.273 134.99C193.137 134.96 192.222 135.382 191.297 136.005C188.673 137.744 187.798 140.438 187.155 143.283C187.024 143.866 187.014 144.489 186.602 145.213C186.501 144.871 186.411 144.721 186.431 144.59C186.823 141.966 187.376 139.343 189.085 137.252C190.171 135.925 191.529 134.648 193.419 134.558C195.641 134.467 197.873 134.538 200.356 134.538ZM217.237 132.387C215.548 132.477 214.06 133.11 212.723 134.055C211.697 134.779 210.823 135.643 209.375 135.322C208.993 135.231 208.5 135.633 208.068 135.834C207.274 136.196 206.479 136.578 205.685 136.94C205.182 137.161 204.8 136.97 204.991 136.438C205.454 135.231 205.906 134.035 206.087 132.738C206.731 134.015 205.856 135.141 205.705 136.488C206.922 135.834 207.957 134.91 209.144 134.869C210.541 134.829 211.506 134.196 212.592 133.512C213.97 132.638 215.438 131.753 217.237 132.387ZM206.831 133.844C207.364 132.919 208.178 133.07 208.812 132.859C210.219 132.387 211.778 132.859 213.145 131.884C215.418 130.266 217.881 128.949 220.605 128.225C221.43 128.004 222.104 127.954 222.918 128.275C222.868 128.326 222.817 128.426 222.757 128.436C219.67 128.627 217.056 130.044 214.513 131.643C213.125 132.507 211.848 133.492 209.968 133.191C209.043 133.03 207.997 133.573 206.831 133.844Z" fill="#F3AA90"/>
<path d="M173.099 166.705C171.883 167.599 171.571 168.976 170.907 170.132C168.756 173.892 166.896 177.812 166.142 182.114C165.498 185.763 165.086 189.463 164.603 193.142C164.372 194.921 164.05 196.7 164.141 198.509C164.151 198.821 163.91 199.344 164.422 199.394C164.794 199.424 164.774 198.942 164.845 198.64C165.76 195.122 166.403 191.543 167.177 188.005C168.675 181.18 169.872 174.264 172.727 167.81C172.898 167.458 172.978 167.076 173.099 166.705Z" fill="#A9A218"/>
<path d="M224.326 124.687C224.014 124.677 223.702 124.656 223.391 124.646C222.194 125.541 220.686 125.762 219.419 126.506C217.227 127.793 214.623 128.245 212.623 129.924C212.2 130.286 211.637 130.215 211.114 130.185C209.254 130.095 207.475 130.406 205.665 131.11C205.997 131.542 206.389 131.442 206.731 131.301C208.329 130.637 209.998 130.637 211.677 130.678C212.311 130.698 212.814 130.567 213.296 130.095C213.859 129.532 214.573 129.19 215.337 128.898C218.313 127.753 221.058 126.064 224.094 125.069C224.215 125.038 224.255 124.817 224.326 124.687Z" fill="#C38873"/>
<path d="M200.356 134.538C197.873 134.538 195.641 134.457 193.419 134.558C191.539 134.648 190.171 135.915 189.085 137.252C187.386 139.343 186.833 141.966 186.431 144.59C186.411 144.721 186.501 144.871 186.602 145.213C187.014 144.489 187.014 143.866 187.155 143.283C187.798 140.428 188.673 137.744 191.297 136.005C192.222 135.392 193.147 134.96 194.273 134.99C195.872 135.03 197.461 135.01 199.059 135C199.441 135 199.853 135.101 200.356 134.538Z" fill="#C38873"/>
<path d="M217.237 132.387C215.428 131.753 213.97 132.638 212.582 133.512C211.496 134.196 210.531 134.819 209.134 134.869C207.957 134.91 206.912 135.834 205.695 136.488C205.846 135.141 206.721 134.015 206.077 132.738C205.896 134.035 205.444 135.231 204.981 136.438C204.78 136.96 205.172 137.161 205.675 136.94C206.469 136.578 207.264 136.196 208.058 135.834C208.49 135.633 208.993 135.241 209.365 135.322C210.813 135.654 211.687 134.779 212.713 134.055C214.06 133.12 215.548 132.477 217.237 132.387Z" fill="#C38873"/>
<path d="M206.831 133.844C208.007 133.573 209.043 133.03 209.968 133.181C211.838 133.482 213.125 132.497 214.513 131.633C217.066 130.044 219.67 128.617 222.757 128.426C222.817 128.426 222.868 128.325 222.918 128.265C222.114 127.944 221.44 127.994 220.616 128.215C217.881 128.949 215.428 130.266 213.155 131.874C211.788 132.849 210.219 132.376 208.822 132.849C208.178 133.07 207.364 132.919 206.831 133.844Z" fill="#C38873"/>
<path d="M155.532 214.625C154.103 216.054 149.242 216.721 146.955 216.34C143.524 215.768 141.237 216.912 135.519 216.912C129.456 215.917 131.911 216.096 125.798 215.482C122.081 215.11 116.649 214.094 114.648 214.053C109.216 213.94 104.582 214.819 94.9203 215.482C87.1484 216.015 85.1995 216.054 81.4828 214.053C77.4801 210.336 73.1457 211.341 73.4373 210.336C77.1775 197.58 71.9895 201.249 75.7398 188.493C76.0414 187.468 75.8705 187.045 74.855 186.683C73.3669 186.151 72.0699 185.236 71.0042 184.06C66.5904 179.185 66.0072 173.364 66.9021 167.192C66.9624 169.756 66.7915 172.349 67.7165 175.053C68.5007 168.821 70.1999 163.131 73.4373 157.914C71.9292 158.588 70.9037 159.754 69.8882 160.92C68.3097 162.739 67.4048 164.89 66.9021 167.223C66.9322 166.489 66.701 165.845 66.3692 165.182C63.363 159.161 60.8494 152.938 59.1703 146.405C58.6475 144.374 58.2252 142.323 57.7527 140.283C57.7527 138.674 57.7527 137.076 57.7527 135.468C58.4062 131.97 61.1008 130.583 64.0064 129.336C68.8425 127.265 73.7892 125.516 78.7862 123.898C82.4459 122.712 86.0755 121.445 89.8157 120.54C90.61 126.431 93.2643 131.286 97.7887 135.166C107.652 143.63 123.115 141.992 130.978 131.638C133.592 128.2 135.07 124.32 135.643 120.078C140.751 121.435 145.778 123.074 150.785 124.772C155.902 126.511 161.02 128.26 165.836 130.774C167.626 131.708 168.601 133.146 168.933 135.076C168.973 135.297 168.902 135.568 169.174 135.699C169.174 137.227 169.174 138.745 169.174 140.273C168.681 141.127 168.752 142.102 168.561 143.027C166.932 150.848 164.016 158.196 160.497 165.323C160.226 165.866 159.994 166.358 160.105 167.021C160.557 169.937 160.537 172.862 159.984 175.757C159.009 180.853 156.586 184.904 151.529 186.915C150.664 187.256 150.996 187.749 151.147 188.242C152.926 194.393 154.726 200.545 156.516 206.697C158.657 214.076 157.373 213.767 155.532 214.625ZM158.728 174.772C161.472 169.585 157.561 158.527 152.806 157.985C156.365 163.011 157.853 168.801 158.728 174.772Z" fill="#EBE121"/>
<path d="M129.088 104.859C129.832 109.071 130.596 113.273 131.29 117.495C131.44 118.44 131.752 119.013 132.768 119.214C133.743 119.405 134.688 119.777 135.643 120.068C135.06 124.31 133.582 128.19 130.968 131.628C123.095 141.982 107.632 143.61 97.7788 135.156C93.2544 131.276 90.6001 126.421 89.8058 120.53C91.1832 120.108 92.5305 119.616 93.928 119.284C95.0139 119.033 95.5065 118.51 95.6473 117.374C95.8685 115.514 96.2908 113.685 96.6226 111.845C99.2467 112.559 101.891 113.233 104.626 113.303C110.357 113.444 115.716 111.986 120.873 109.614C123.779 108.287 126.383 106.488 129.088 104.859Z" fill="#F4AB8F"/>
<path d="M66.8922 167.202C67.3949 164.87 68.2998 162.719 69.8783 160.9C70.8938 159.734 71.9193 158.568 73.4275 157.894C70.19 163.111 68.4908 168.801 67.7066 175.033C66.7816 172.339 66.9626 169.746 66.8922 167.172C66.9023 167.182 66.8922 167.202 66.8922 167.202Z" fill="#A8A117"/>
<path d="M129.088 104.859C126.383 106.488 123.769 108.277 120.883 109.604C115.726 111.976 110.357 113.434 104.636 113.293C101.891 113.222 99.2567 112.549 96.6326 111.835C97.5274 106.508 98.4423 101.18 99.307 95.8524C99.4477 95.008 99.9304 94.9979 100.584 95.008C106.687 95.0884 112.79 95.3699 118.893 95.1889C121.416 95.1186 123.95 95.0884 126.474 95.008C127.137 94.9879 127.509 95.1286 127.62 95.8624C128.082 98.868 128.595 101.864 129.088 104.859Z" fill="#D6947A"/>
<path d="M158.728 174.772C157.863 168.801 156.375 163.011 152.806 157.985C157.561 158.527 161.462 169.585 158.728 174.772Z" fill="#A8A117"/>
<path d="M114.569 105.695C112.81 105.695 111.05 105.695 109.28 105.695C107.752 105.031 106.043 104.921 104.545 104.157C98.3113 101 94.7119 95.7733 92.9826 89.1691C91.947 85.2387 92.0073 81.1575 91.9872 77.1065C95.1643 76.3023 97.1953 74.1009 98.7436 71.3768C100.503 68.2908 101.649 64.9635 102.283 61.4654C102.906 58.0175 103.912 54.7003 105.45 51.544C106.144 50.1266 106.968 48.8098 108.175 47.7744C109.622 46.5279 111.191 46.4475 112.799 47.4829C114.187 48.3775 115.132 49.6642 115.926 51.0715C116.349 51.8154 116.58 51.7953 117.042 51.1318C117.998 49.7547 119.214 48.6791 120.803 48.076C122.994 47.2416 124.553 47.8247 125.709 49.8552C126.473 51.1821 127.006 52.6095 127.469 54.057C128.816 58.299 130.254 62.4907 133.069 66.0492C134.064 72.6735 134.004 79.2878 133.079 85.9222C131.903 94.3359 123.94 104.428 114.851 105.494C114.76 105.514 114.67 105.624 114.569 105.695Z" fill="#F4AA8F"/>
<path d="M133.079 66.0593C130.264 62.5109 128.826 58.3091 127.479 54.0671C127.016 52.6196 126.483 51.1921 125.719 49.8653C124.553 47.8347 123.005 47.2517 120.813 48.086C119.224 48.6892 118.008 49.7647 117.052 51.1419C116.59 51.8053 116.349 51.8254 115.936 51.0816C115.142 49.6843 114.197 48.3876 112.81 47.493C111.201 46.4576 109.632 46.528 108.185 47.7845C106.978 48.8198 106.154 50.1367 105.46 51.554C103.922 54.7104 102.926 58.0276 102.293 61.4755C101.659 64.9736 100.513 68.2908 98.7537 71.3869C97.2053 74.111 95.1744 76.3124 91.9972 77.1166C89.9864 77.4081 88.1063 76.9759 86.3166 76.0712C78.2631 71.99 76.5841 63.124 80.0327 56.0071C80.5455 54.9516 81.2291 53.9766 82.3251 53.4639C83.1495 53.082 83.8131 52.5291 84.4365 51.9058C87.2818 49.0309 89.9763 45.9952 93.1635 43.4822C97.9192 39.7327 103.198 37.2197 109.321 36.7774C109.572 36.7573 109.904 36.898 110.025 36.506C110.829 36.506 111.623 36.506 112.427 36.506C112.508 36.8377 112.789 36.7673 113.001 36.7874C118.933 37.3001 124.372 39.2502 129.359 42.487C133.803 45.372 137.04 49.1817 138.267 54.5094C138.458 55.3437 138.307 56.2584 138.85 57.0023C138.85 58.4498 138.85 59.8973 138.85 61.3448C138.307 61.4956 138.478 61.9881 138.418 62.3299C138.096 64.2599 137.533 66.1095 136.829 67.929C136.558 68.6125 136.276 68.6527 135.703 68.321C134.657 67.7279 133.934 66.8232 133.079 66.0593Z" fill="#633325"/>
<path d="M86.7087 75.5809C83.3204 74.9978 80.2539 71.4595 80.103 67.9714C80.0025 65.7398 79.9321 63.5083 81.1788 61.4375C82.8579 58.6631 86.1758 57.7685 88.7095 59.5578C90.0668 60.5228 90.5997 62.0507 90.3282 64.4532C90.0668 63.2469 89.9361 62.1914 89.2625 61.2867C87.7644 59.2562 84.4264 59.2864 83.2601 61.5179C81.6313 64.6341 81.0682 67.9412 82.4557 71.3489C83.0892 72.907 84.3158 73.9122 85.7033 74.7767C86.0149 75.0079 86.4573 75.0481 86.7087 75.5809Z" fill="#4F281D"/>
<path d="M112.958 96.0552C111.982 96.015 111.037 95.8139 110.163 95.4018C109.167 94.9394 108.463 94.1955 108.343 93.0496C108.262 92.2856 108.262 91.4915 109.006 91.009C109.73 90.5466 110.203 91.21 110.695 91.5418C112.013 92.4163 113.36 92.557 114.787 91.8735C115.33 91.6121 115.873 91.3608 116.406 91.0894C116.808 90.8783 117.261 90.6471 117.643 90.9487C118.085 91.2905 118.095 91.8232 117.975 92.3761C117.432 94.8992 115.743 95.8943 112.958 96.0552Z" fill="black"/>
<path d="M101.134 72.1612C103.074 69.9598 105.558 69.99 107.769 72.2014C107.418 72.121 107.166 72.0808 106.925 72.0205C105.537 71.6385 105.558 71.6385 105.769 72.9855C105.909 73.8801 105.799 74.7346 105.095 75.4081C104.733 75.7498 104.271 75.78 103.868 75.5387C103.084 75.0663 103.074 74.2621 102.974 73.4479C102.903 72.885 103.637 72.2517 102.994 71.8597C102.481 71.5481 101.878 72.1512 101.134 72.1612Z" fill="black"/>
<path d="M125.244 72.2618C124.751 72.1411 124.44 72.0607 124.138 71.9803C122.76 71.6385 122.75 71.6586 122.931 72.9755C123.012 73.5685 123.052 74.1717 122.801 74.7346C122.569 75.2674 122.238 75.7096 121.574 75.7096C120.971 75.6996 120.649 75.3176 120.418 74.815C120.106 74.1717 120.026 73.468 120.267 72.8448C120.659 71.8496 120.388 71.6988 119.483 72.0607C119.302 72.1311 119.121 72.1813 118.91 72.2417C119.714 70.3016 123.203 69.8191 125.244 72.2618Z" fill="black"/>
<path d="M115.18 85.9327C115.26 85.6412 115.26 85.601 115.28 85.5708C116.497 83.3996 116.497 83.3996 114.134 82.7763C113.47 82.6054 112.897 82.3139 112.948 81.5098C113.038 80.1326 113.179 78.7555 113.48 77.3482C113.742 78.2629 114.013 79.1676 114.255 80.0824C114.365 80.5045 114.556 80.7357 115.039 80.8463C116.205 81.1077 117.351 81.5299 117.452 82.9472C117.552 84.445 116.426 85.1386 115.18 85.9327Z" fill="black"/>
<path d="M99.4949 67.8584C100.892 66.3707 102.541 65.476 104.623 65.3856C106.473 65.3051 107.639 66.2199 108.554 67.6573C108.725 67.9388 108.916 68.2605 108.554 68.4917C108.282 68.6626 108.041 68.4515 107.82 68.2605C105.035 65.8178 103.316 65.657 100.078 67.5267C99.877 67.6473 99.6859 67.7478 99.4949 67.8584Z" fill="black"/>
<path d="M127.084 68.261C125.877 67.2458 124.61 66.4315 122.982 66.2406C121.544 66.0697 120.267 66.2607 119.201 67.3061C118.89 67.6076 118.467 68.0298 118.085 67.5875C117.763 67.2056 118.276 66.8939 118.528 66.6024C120.126 64.8333 122.388 64.6021 124.781 66.0194C125.706 66.5723 126.531 67.2659 127.084 68.261Z" fill="black"/>
<defs>
<filter id="filter0_d" x="23.4469" y="51.9449" width="180.115" height="180.115" filterUnits="userSpaceOnUse" color-interpolation-filters="sRGB">
<feFlood flood-opacity="0" result="BackgroundImageFix"/>
<feColorMatrix in="SourceAlpha" type="matrix" values="0 0 0 0 0 0 0 0 0 0 0 0 0 0 0 0 0 0 127 0"/>
<feOffset dy="4"/>
<feGaussianBlur stdDeviation="2"/>
<feColorMatrix type="matrix" values="0 0 0 0 0 0 0 0 0 0 0 0 0 0 0 0 0 0 0.1 0"/>
<feBlend mode="normal" in2="BackgroundImageFix" result="effect1_dropShadow"/>
<feBlend mode="normal" in="SourceGraphic" in2="effect1_dropShadow" result="shape"/>
</filter>
</defs>
</svg>
