<svg xmlns="http://www.w3.org/2000/svg" width="207" height="207" fill="none" viewBox="0 0 207 207"><path fill="#FFF100" d="M140.99 144.768C110.034 135.823 92.1904 103.478 101.135 72.5217L105.984 55.7424C106.878 52.6468 110.113 50.8625 113.208 51.7569C144.164 60.7017 162.008 93.0476 153.063 124.003L148.215 140.783C147.32 143.878 144.085 145.663 140.99 144.768Z"/><path fill="#FFF100" d="M127.399 133.466C114.346 110.326 85.9372 103.653 63.9465 118.559L53.6834 125.516C51.4844 127.007 50.7598 130.091 52.0651 132.405C65.118 155.545 93.5265 162.218 115.517 147.311L125.78 140.354C127.979 138.864 128.704 135.78 127.399 133.466Z"/><path fill="#FFF100" d="M103.562 112.87C105.646 99.1573 96.1187 87.2693 82.2817 86.317L75.824 85.8725C74.4403 85.7773 73.1496 86.8117 72.9412 88.1829C70.8572 101.895 80.3849 113.783 94.222 114.736L100.68 115.18C102.063 115.275 103.354 114.241 103.562 112.87Z"/><path fill="#FFA400" d="M141.973 145.64C121.913 139.844 110.35 118.883 116.147 98.8229L119.288 87.9495C119.868 85.9435 121.964 84.7872 123.97 85.3669C144.03 91.1633 155.593 112.124 149.797 132.184L146.655 143.057C146.075 145.063 143.979 146.22 141.973 145.64Z"/><path fill="#FFA400" d="M128.254 134.064C119.795 119.069 101.386 114.744 87.1353 124.404L80.4846 128.912C79.0596 129.878 78.5901 131.877 79.4359 133.376C87.8945 148.371 106.304 152.696 120.554 143.036L127.205 138.528C128.63 137.562 129.099 135.563 128.254 134.064Z"/><path fill="#FFA400" d="M103.72 113.391C105.071 104.505 98.8964 96.801 89.9297 96.1839L85.745 95.8959C84.8483 95.8342 84.012 96.5045 83.8769 97.3931V97.3931C82.5265 106.279 88.7006 113.983 97.6673 114.6L101.852 114.888C102.749 114.949 103.585 114.279 103.72 113.391V113.391Z"/></svg>