<svg  fill="none" xmlns="http://www.w3.org/2000/svg">
<path d="M37.4919 31.5394C37.0966 31.3223 36.6002 31.4667 36.3832 31.8619C36.166 32.2571 36.3104 32.7535 36.7056 32.9706C37.6782 33.5049 38.236 34.0972 38.236 34.5957C38.236 35.2054 37.3722 36.1503 34.9477 36.974C32.5524 37.7879 29.3514 38.236 25.9345 38.236C22.5175 38.236 19.3166 37.7879 16.9213 36.974C14.4968 36.1504 13.6329 35.2054 13.6329 34.5957C13.6329 34.0972 14.1908 33.5049 15.1634 32.9705C15.5586 32.7535 15.7029 32.257 15.4858 31.8618C15.2687 31.4666 14.7724 31.3222 14.3771 31.5394C13.2927 32.1351 12 33.149 12 34.5957C12 35.7047 12.7627 37.2858 16.396 38.5202C18.956 39.39 22.3435 39.869 25.9345 39.869C29.5254 39.869 32.9129 39.39 35.473 38.5202C39.1063 37.2858 39.869 35.7047 39.869 34.5957C39.869 33.149 38.5763 32.1351 37.4919 31.5394Z" fill="white"/>
<path d="M19.7702 35.7937C21.4277 36.2619 23.6169 36.5198 25.9345 36.5198C28.2522 36.5198 30.4414 36.262 32.0988 35.7937C34.1265 35.2209 35.1547 34.3917 35.1547 33.3293C35.1547 32.2668 34.1265 31.4377 32.0988 30.865C31.8108 30.7836 31.5068 30.7087 31.1888 30.6403C30.8599 30.5696 30.5327 30.7147 30.3627 31.005C30.0762 31.4943 30.3663 32.1314 30.9201 32.2531C31.0701 32.2861 31.2163 32.3207 31.3583 32.3569C32.7543 32.7124 32.7544 33.9463 31.3584 34.3018C29.9459 34.6616 28.1287 34.8668 26.2147 34.8851C26.122 34.892 26.0286 34.8958 25.9345 34.8958C25.8404 34.8958 25.7471 34.892 25.6543 34.8851C23.7403 34.8668 21.9231 34.6616 20.5106 34.3018C19.1146 33.9463 19.1146 32.7125 20.5107 32.3569C20.6527 32.3207 20.7989 32.2861 20.9489 32.2531C21.5027 32.1314 21.7928 31.4943 21.5063 31.005C21.3363 30.7147 21.0092 30.5696 20.6803 30.6403C20.3623 30.7087 20.0582 30.7836 19.7702 30.865C17.7425 31.4377 16.7144 32.2669 16.7144 33.3293C16.7144 34.3917 17.7425 35.2208 19.7702 35.7937Z" fill="white"/>
<path d="M25.9345 33.2628C26.6614 33.2628 27.3216 32.8925 27.7007 32.2721C30.3575 27.9254 33.5245 22.1967 33.5245 19.5899C33.5245 15.4048 30.1197 12 25.9345 12C21.7494 12 18.3446 15.4048 18.3446 19.5899C18.3446 22.1967 21.5116 27.9254 24.1683 32.2721C24.5475 32.8925 25.2078 33.2628 25.9345 33.2628ZM22.8838 19.0688C22.8838 17.3867 24.2524 16.0181 25.9345 16.0181C27.6167 16.0181 28.9853 17.3867 28.9853 19.0688C28.9853 20.7509 27.6167 22.1194 25.9345 22.1194C24.2524 22.1194 22.8838 20.751 22.8838 19.0688Z" fill="white"/>
</svg>
