<svg xmlns="http://www.w3.org/2000/svg" width="51" height="51" fill="none" viewBox="0 0 51 51"><path fill="#fff" d="M25.5899 34.2628C26.3168 34.2628 26.977 33.8925 27.3561 33.2721C30.0129 28.9254 33.1799 23.1967 33.1799 20.5899C33.1799 16.4048 29.7751 13 25.5899 13C21.4048 13 18 16.4048 18 20.5899C18 23.1967 21.167 28.9254 23.8237 33.2721C24.2029 33.8925 24.8632 34.2628 25.5899 34.2628ZM22.5392 20.0688C22.5392 18.3867 23.9078 17.0181 25.5899 17.0181C27.2721 17.0181 28.6407 18.3867 28.6407 20.0688C28.6407 21.7509 27.2721 23.1194 25.5899 23.1194C23.9078 23.1194 22.5392 21.751 22.5392 20.0688Z"/><path fill="#fff" d="M19.1486 37.3315C20.8564 37.8139 23.112 38.0796 25.5 38.0796C27.888 38.0796 30.1436 37.8139 31.8514 37.3315C33.9406 36.7413 35 35.8869 35 34.7923C35 33.6976 33.9406 32.8433 31.8514 32.2531C31.5547 32.1693 31.2414 32.0921 30.9137 32.0217C30.5748 31.9488 30.2377 32.0983 30.0626 32.3974C29.7674 32.9016 30.0663 33.558 30.6369 33.6834C30.7914 33.7174 30.9421 33.7531 31.0884 33.7903C32.5268 34.1567 32.5269 35.428 31.0884 35.7943C29.6331 36.165 27.7607 36.3764 25.7887 36.3953C25.6932 36.4024 25.5969 36.4064 25.5 36.4064C25.403 36.4064 25.3068 36.4024 25.2113 36.3953C23.2392 36.3764 21.3668 36.165 19.9115 35.7943C18.4731 35.428 18.4731 34.1567 19.9115 33.7903C20.0579 33.7531 20.2085 33.7174 20.3631 33.6835C20.9337 33.558 21.2326 32.9016 20.9374 32.3974C20.7623 32.0983 20.4252 31.9489 20.0863 32.0217C19.7586 32.0921 19.4453 32.1693 19.1486 32.2531C17.0594 32.8433 16 33.6976 16 34.7923C16 35.8869 17.0594 36.7412 19.1486 37.3315Z"/></svg>