<svg width="11" height="14" viewBox="0 0 11 14" fill="none" xmlns="http://www.w3.org/2000/svg">
<path d="M0.367856 9.89554L0.980955 14H9.65043L10.2637 9.89554H0.367856Z" fill="#00CF8B"/>
<path d="M10.3863 9.07538L10.6315 7.43357H0L0.24524 9.07538H10.3863Z" fill="#00CF8B"/>
<path d="M5.3157 4.09281C5.68837 3.48142 6.28715 3.02245 6.99499 2.83243C7.02811 2.13752 6.76748 1.45178 6.27113 0.955324L5.3157 0L4.36038 0.955324C3.86402 1.45168 3.6034 2.13752 3.63651 2.83243C4.34436 3.02245 4.94314 3.48142 5.3157 4.09281Z" fill="#00CF8B"/>
<path d="M2.76063 6.6126H4.90563V5.55591C4.90563 4.45351 4.00873 3.55661 2.90632 3.55661H0.761333V4.6133C0.761333 5.7157 1.65823 6.6126 2.76063 6.6126Z" fill="#00CF8B"/>
<path d="M7.72515 3.55661C6.62275 3.55661 5.72585 4.45351 5.72585 5.55591V6.6126H7.87073C8.97314 6.6126 9.87003 5.7157 9.87003 4.6133V3.55661H7.72515Z" fill="#00CF8B"/>
</svg>
