<svg width="51" height="51" viewBox="0 0 51 51" fill="none" xmlns="http://www.w3.org/2000/svg">
<path d="M25.5 13L19.9787 23.3271C19.6622 23.9189 18.8642 24.0372 18.3897 23.5627L18.3327 23.5057C17.8726 23.0456 17.1028 23.1404 16.7681 23.6983L10.9086 33.4645C10.5087 34.131 10.9889 34.979 11.7661 34.979H39.7674C40.4853 34.979 40.9693 34.2449 40.6865 33.585L37.6859 26.5845C37.4072 25.9343 36.5599 25.7711 36.0596 26.2714L36.0236 26.3074C35.5391 26.7919 34.7218 26.6567 34.4192 26.0419L28 13L27.5672 12.3393C27.1622 11.7209 26.2493 11.7406 25.8713 12.3759L25.5 13ZM25.7919 16.9407C26.1791 16.2366 27.1966 16.2537 27.56 16.9704L29.5236 20.8432C29.653 21.0985 29.5912 21.4091 29.374 21.5954V21.5954C29.1415 21.7948 28.7983 21.795 28.5657 21.5957L27.3407 20.5464C26.9662 20.2256 26.4138 20.2257 26.0394 20.5465L24.8894 21.532C24.6142 21.7679 24.208 21.7676 23.9331 21.5314V21.5314C23.6697 21.3051 23.6008 20.9251 23.7682 20.6207L25.7919 16.9407ZM26.0405 23.1789C26.4149 22.8584 26.967 22.8585 27.3414 23.1791L28.32 24.0174C28.6946 24.3382 29.2472 24.338 29.6216 24.0169L29.7059 23.9446C30.1981 23.5224 30.9558 23.6731 31.249 24.2516L33.873 29.43L33.9001 29.4838C34.1932 30.0648 34.9687 30.1893 35.4289 29.7291V29.7291C35.9069 29.2511 36.7166 29.407 36.9829 30.0284L37.6498 31.5852C37.9325 32.245 37.4485 32.979 36.7306 32.979H15.2966C14.5194 32.979 14.0393 32.1313 14.4391 31.4649C15.3474 29.9507 16.2563 28.4366 17.165 26.9229C17.4997 26.3652 18.2695 26.2705 18.7295 26.7305L18.8709 26.8719C19.3418 27.3428 20.1328 27.2304 20.454 26.647V26.647C20.9372 25.7686 21.4209 24.8907 21.9041 24.0125C22.21 23.4565 22.9497 23.3219 23.4316 23.7348L23.7606 24.0167C24.1349 24.3375 24.6872 24.3376 25.0616 24.017L26.0405 23.1789Z" fill="#FCFCFC"/>
</svg>
