<svg width="32" height="32" viewBox="0 0 32 32" fill="none" xmlns="http://www.w3.org/2000/svg">
<path d="M32 16C32 24.8366 24.8366 32 16 32C7.16344 32 0 24.8366 0 16C0 7.16344 7.16344 0 16 0C24.8366 0 32 7.16344 32 16Z" fill="#00CF8B"/>
<path d="M24.3779 21.287C23.7396 21.287 23.1427 20.973 22.7811 20.447L21.8328 19.0677C20.7158 21.0706 18.5924 22.3636 16.1962 22.3636C12.8525 22.3636 10.0941 19.8096 9.76888 16.5502H10.3828C10.6226 16.5502 10.8428 16.4173 10.9544 16.205C11.0661 15.9927 11.0509 15.736 10.915 15.5383L9.97343 14.1687L8.54663 12.0933C8.42618 11.9181 8.2271 11.8133 8.01437 11.8133C7.98778 11.8133 7.96141 11.815 7.93534 11.8182C7.90928 11.8213 7.88361 11.8262 7.85837 11.8324C7.7953 11.8481 7.73513 11.8732 7.67989 11.9066C7.60257 11.9534 7.53478 12.0166 7.48208 12.0933L5.11366 15.5383C4.97777 15.7359 4.9626 15.9927 5.07425 16.2049C5.18591 16.4172 5.40607 16.5502 5.64595 16.5502H6.31247C6.46616 18.9526 7.47525 21.1901 9.19281 22.9077C11.0635 24.7784 13.5506 25.8086 16.1962 25.8086C18.8417 25.8086 21.3288 24.7784 23.1995 22.9077C23.6968 22.4104 24.1372 21.8648 24.5153 21.2817C24.4697 21.2849 24.424 21.287 24.3779 21.287Z" fill="white"/>
<path d="M27.3181 15.6036C27.2064 15.3913 26.9862 15.2583 26.7464 15.2583H26.0798C25.9262 12.8559 24.9171 10.6184 23.1995 8.90085C21.3289 7.03022 18.8417 6 16.1962 6C13.5507 6 11.0635 7.03022 9.19284 8.90089C8.69553 9.3982 8.25516 9.94375 7.87708 10.5269C7.9226 10.5236 7.96835 10.5215 8.0144 10.5215C8.65271 10.5215 9.24965 10.8355 9.61121 11.3615L10.5595 12.7408C11.6765 10.738 13.8 9.445 16.1961 9.445C19.5398 9.445 22.2982 11.9989 22.6234 15.2584H22.0095C21.7697 15.2584 21.5495 15.3913 21.4379 15.6036C21.3262 15.8159 21.3414 16.0726 21.4773 16.2703L22.4189 17.6399L23.8457 19.7153C23.8758 19.7591 23.9108 19.7985 23.9498 19.8329C24.0665 19.9363 24.2184 19.9952 24.378 19.9952C24.5907 19.9952 24.7898 19.8905 24.9103 19.7153L25.7655 18.4713L27.2787 16.2703C27.4146 16.0725 27.4297 15.8158 27.3181 15.6036Z" fill="white"/>
</svg>
