<svg xmlns="http://www.w3.org/2000/svg" fill="none"><g clip-path="url(#clip0)"><g filter="url(#filter0_i)"><path fill="#00CF8B" d="M19.9925 184.329v5.903h14.3661v8.758H19.9925v11.021H8.38144v-34.44H36.3758v8.758H19.9925zm20.0513-8.758h11.6111v25.436h15.5469v9.004h-27.158v-34.44zm47.9409 35.227c-3.7064 0-7.0355-.771-9.9875-2.313-2.9519-1.541-5.2643-3.673-6.9371-6.396-1.6728-2.755-2.5091-5.854-2.5091-9.298s.8363-6.527 2.5091-9.25c1.6728-2.755 3.9852-4.903 6.9371-6.445 2.952-1.541 6.2811-2.312 9.9875-2.312 3.7063 0 7.0354.771 9.9874 2.312 2.9519 1.542 5.2639 3.69 6.9369 6.445 1.673 2.723 2.509 5.806 2.509 9.25s-.836 6.543-2.509 9.298c-1.673 2.723-3.985 4.855-6.9369 6.396-2.952 1.542-6.2811 2.313-9.9874 2.313zm0-9.397c1.4431 0 2.7387-.345 3.8867-1.033 1.1808-.722 2.1156-1.722 2.8043-3.002.6888-1.312 1.0332-2.837 1.0332-4.575 0-1.739-.3444-3.247-1.0332-4.527-.6887-1.311-1.6235-2.312-2.8043-3.001-1.148-.721-2.4436-1.082-3.8867-1.082-1.4432 0-2.7552.361-3.936 1.082-1.148.689-2.0664 1.69-2.7551 3.001-.6888 1.28-1.0332 2.788-1.0332 4.527 0 1.738.3444 3.263 1.0332 4.575.6887 1.28 1.6071 2.28 2.7551 3.002 1.1808.688 2.4928 1.033 3.936 1.033zm38.4073-.05h-3.148v8.66h-11.611v-34.44h16.58c3.181 0 5.953.525 8.314 1.574 2.362 1.05 4.182 2.559 5.462 4.527 1.279 1.968 1.918 4.264 1.918 6.888 0 2.46-.557 4.608-1.672 6.445-1.116 1.837-2.723 3.296-4.822 4.379l7.232 10.627h-12.398l-5.855-8.66zm5.806-12.791c0-1.279-.394-2.263-1.181-2.952-.787-.722-1.968-1.083-3.542-1.083h-4.231v8.069h4.231c1.574 0 2.755-.344 3.542-1.033.787-.722 1.181-1.722 1.181-3.001z"/></g><path fill="#00CF88" d="M119.973 92.088c-.455 7.944 5.616 14.753 13.561 15.209l4.306.246c.794.046 1.475-.561 1.521-1.356.455-7.9443-5.616-14.7534-13.561-15.2084l-4.306-.2467c-.794-.0455-1.475.5616-1.521 1.3561z"/><g filter="url(#filter1_d)"><path fill="#268766" d="M119.851 91.7877c-.295 5.1481 3.639 9.5603 8.787 9.8553l2.791.16c.515.029.956-.364.985-.879.295-5.1479-3.639-9.5604-8.787-9.8553l-2.791-.1598c-.514-.0295-.956.3639-.985.8788z"/></g><path fill="#00CF88" d="M32.7395 92.088c.4551 7.944-5.6162 14.753-13.5606 15.209l-4.3062.246c-.7945.046-1.4754-.561-1.5209-1.356-.455-7.9443 5.6163-14.7534 13.5607-15.2084l4.3062-.2467c.7944-.0455 1.4753.5616 1.5208 1.3561z"/><g filter="url(#filter2_d)"><path fill="#268766" d="M32.8618 91.7877c.2949 5.1481-3.6394 9.5603-8.7876 9.8553l-2.7905.16c-.5148.029-.956-.364-.9855-.879-.2949-5.1479 3.6395-9.5604 8.7876-9.8553l2.7905-.1598c.5148-.0295.956.3639.9855.8788z"/></g><path fill="#00CF88" d="M31.7533 59.7349c1.396-7.834-3.823-15.3164-11.657-16.7125l-4.2464-.7567c-.7834-.1396-1.5316.3823-1.6712 1.1657-1.396 7.8341 3.823 15.3165 11.657 16.7125l4.2463.7567c.7834.1396 1.5317-.3823 1.6713-1.1657z"/><g filter="url(#filter3_d)"><path fill="#268766" d="M31.839 60.0477c.9047-5.0766-2.4773-9.9254-7.554-10.83l-2.7517-.4904c-.5076-.0904-.9925.2478-1.083.7554-.9046 5.0766 2.4774 9.9254 7.554 10.8301l2.7517.4903c.5077.0905.9926-.2477 1.083-.7554z"/></g><path fill="#00CF88" d="M120.943 59.7349c-1.396-7.834 3.823-15.3164 11.657-16.7125l4.246-.7567c.784-.1396 1.532.3823 1.671 1.1657 1.396 7.8341-3.823 15.3165-11.657 16.7125l-4.246.7567c-.783.1396-1.532-.3823-1.671-1.1657z"/><g filter="url(#filter4_d)"><path fill="#268766" d="M120.857 60.0477c-.905-5.0766 2.477-9.9254 7.554-10.83l2.751-.4904c.508-.0904.993.2478 1.083.7554.905 5.0766-2.477 9.9254-7.554 10.8301l-2.751.4903c-.508.0905-.993-.2477-1.083-.7554z"/></g><path fill="#FFF100" d="M73.9131 1.67038c.8938-.89384 2.3463-.89384 3.2402 0L88.1667 12.6838c8.9544 8.9544 8.9544 23.4634 0 32.4179L77.1533 56.1151c-.8939.8938-2.3464.8938-3.2402 0L62.8996 45.1017c-8.9544-8.9545-8.9544-23.4635 0-32.4179L73.9131 1.67038z"/><g filter="url(#filter5_d)" opacity=".5"><path fill="#FFA400" d="M88.2137 34.2638c2.9529 2.9689 2.9529 7.8052 0 10.79l-.0479.0479-11.0134 11.0134c-.8938.8939-2.3464.8939-3.2402 0L62.8988 45.1017l-.0479-.0479c-2.9529-2.9688-2.9529-7.8211 0-10.79.016-.0159.0319-.0319.0479-.0479l11.0134-11.0134c.8938-.8939 2.3464-.8939 3.2402 0l11.0134 11.0134c.016.016.0319.032.0479.0479z"/></g><path fill="#FFF100" d="M77.1523 149.41c-.8938.894-2.3463.894-3.2402 0l-11.0134-11.013c-8.9544-8.955-8.9544-23.464 0-32.418l11.0134-11.0136c.8939-.8939 2.3464-.8939 3.2402 0l11.0134 11.0136c8.9545 8.954 8.9545 23.463 0 32.418L77.1523 149.41z"/><g filter="url(#filter6_d)" opacity=".5"><path fill="#FFA400" d="M62.8348 116.817c-2.9529-2.969-2.9529-7.805 0-10.79.0159-.016.0319-.032.0479-.048l11.0134-11.0136c.8939-.8939 2.3464-.8939 3.2402 0l11.0134 11.0136c.016.016.032.032.0479.048 2.9529 2.969 2.9529 7.821 0 10.79-.0159.016-.0319.032-.0479.048l-11.0134 11.013c-.8938.894-2.3463.894-3.2402 0l-11.0134-11.013c-.016-.016-.032-.032-.0479-.048z"/></g><path fill="#FFF100" d="M149.395 73.9122c.894.8939.894 2.3464 0 3.2402l-11.014 11.0134c-8.954 8.9544-23.463 8.9544-32.417 0L94.9502 77.1524c-.8939-.8938-.8939-2.3463 0-3.2402l11.0138-11.0134c8.954-8.9544 23.463-8.9544 32.417 0l11.014 11.0134z"/><g filter="url(#filter7_d)" opacity=".5"><path fill="#FFA400" d="M116.801 88.2297c-2.969 2.9529-7.805 2.9529-10.79 0-.016-.0159-.032-.0319-.048-.0479L94.9497 77.1684c-.8939-.8939-.8939-2.3463 0-3.2402l11.0133-11.0134c.016-.016.032-.032.048-.0479 2.969-2.9529 7.821-2.9529 10.79 0 .016.0159.032.0319.048.0479l11.013 11.0134c.894.8939.894 2.3463 0 3.2402l-11.013 11.0134c-.016.016-.032.032-.048.0479z"/></g><path fill="#FFF100" d="M1.67038 77.1683c-.89384-.8938-.89384-2.3463 0-3.2401L12.6838 62.9147c8.9544-8.9544 23.4634-8.9544 32.4179 0l11.0134 11.0135c.8938.8938.8938 2.3463 0 3.2401L45.1017 88.1818c-8.9545 8.9544-23.4635 8.9544-32.4179 0L1.67038 77.1683z"/><g filter="url(#filter8_d)" opacity=".5"><path fill="#FFA400" d="M34.2478 62.8509c2.9689-2.9529 7.8052-2.9529 10.79 0l.0479.0479 11.0134 11.0134c.8939.8939.8939 2.3464 0 3.2402L45.0857 88.1658c-.016.016-.0319.032-.0479.0479-2.9688 2.9529-7.8211 2.9529-10.79 0l-.0479-.0479-11.0134-11.0134c-.8938-.8938-.8938-2.3463 0-3.2402l11.0134-11.0134c.016-.016.032-.0319.0479-.0479z"/></g><g filter="url(#filter9_d)"><path fill="#FFF100" d="M25.4373 28.4705c0-1.5323 1.2449-2.7773 2.7773-2.7773h18.8345c15.3071 0 27.7092 12.4021 27.7092 27.7092V72.237c0 1.5323-1.245 2.7773-2.7773 2.7773H53.1464c-15.3071 0-27.7091-12.4021-27.7091-27.7092V28.4705z"/><g filter="url(#filter10_d)" opacity=".2"><path fill="#FFA400" d="M74.7583 53.3537v18.8346c0 .431-.0958.846-.2714 1.1971-1.245-27.2942-18.228-42.3778-25.6661-47.693 14.4771.9098 25.9375 12.9448 25.9375 27.6613z"/></g><g filter="url(#filter11_d)" opacity=".2"><path fill="#FFA400" d="M73.1459 74.6783c-.399.2075-.8459.3352-1.3088.3352H53.0025c-7.3902 0-14.11-2.905-19.074-7.6136-1.1971-1.1333-2.2825-2.3623-3.2561-3.6871 7.1507 2.6975 24.2295 8.5713 42.4735 10.9655z"/></g></g><g filter="url(#filter12_d)"><path fill="#FFF100" d="M122.85 25.6924c1.532 0 2.777 1.245 2.777 2.7773v18.8346c0 15.307-12.402 27.7091-27.7087 27.7091H79.0837c-1.5323 0-2.7773-1.2449-2.7773-2.7773V53.4016c0-15.3071 12.4021-27.7092 27.7096-27.7092h18.834z"/><g filter="url(#filter13_d)" opacity=".2"><path fill="#FFA400" d="M97.9663 75.0134H79.1317c-.431 0-.846-.0957-1.1971-.2713 27.2944-1.245 42.3774-18.228 47.6934-25.6661-.926 14.4771-12.945 25.9374-27.6617 25.9374z"/></g><g filter="url(#filter14_d)" opacity=".2"><path fill="#FFA400" d="M76.626 73.4014c-.2075-.3991-.3352-.846-.3352-1.3089V53.258c0-7.3902 2.905-14.11 7.6136-19.0741 1.1333-1.1971 2.3623-2.2825 3.6871-3.2561-2.6815 7.1508-8.5554 24.2296-10.9655 42.4736z"/></g></g><g filter="url(#filter15_d)"><path fill="#FFF100" d="M125.627 122.611c0 1.532-1.245 2.777-2.777 2.777h-18.834c-15.3075 0-27.7096-12.402-27.7096-27.7088V78.8446c0-1.5323 1.245-2.7773 2.7773-2.7773h18.8346c15.3067 0 27.7087 12.4021 27.7087 27.7087v18.835z"/><g filter="url(#filter16_d)" opacity=".2"><path fill="#FFA400" d="M76.3062 97.7268V78.8922c0-.431.0957-.846.2713-1.1971 1.245 27.2939 18.228 42.3779 25.6665 47.6929-14.4775-.91-25.9378-12.945-25.9378-27.6612z"/></g><g filter="url(#filter17_d)" opacity=".2"><path fill="#FFA400" d="M77.9182 76.4021c.3991-.2075.846-.3351 1.3089-.3351h18.8346c7.3903 0 14.1103 2.9049 19.0743 7.6136 1.197 1.1333 2.282 2.3623 3.256 3.6871-7.151-2.6975-24.2298-8.5713-42.4738-10.9656z"/></g></g><g filter="url(#filter18_d)"><path fill="#FFF100" d="M28.2146 125.388c-1.5324 0-2.7773-1.245-2.7773-2.777v-18.835c0-15.3069 12.402-27.709 27.7091-27.709H71.981c1.5323 0 2.7773 1.245 2.7773 2.7773v18.8346c0 15.3071-12.4021 27.7091-27.7092 27.7091H28.2146z"/><g filter="url(#filter19_d)" opacity=".2"><path fill="#FFA400" d="M53.0985 76.067h18.8346c.431 0 .846.0958 1.1971.2714-27.2941 1.245-42.3778 18.228-47.6929 25.6656.9098-14.4766 12.9447-25.937 27.6612-25.937z"/></g><g filter="url(#filter20_d)" opacity=".2"><path fill="#FFA400" d="M74.4228 77.6791c.2075.3991.3352.846.3352 1.3089v18.8346c0 7.3904-2.905 14.1104-7.6136 19.0744-1.1333 1.197-2.3623 2.282-3.6871 3.256 2.6975-7.151 8.5713-24.2299 10.9655-42.4739z"/></g></g><g filter="url(#filter21_i)"><path fill="#FFA400" d="M75.5244 94.694c10.5784 0 19.1538-8.5754 19.1538-19.1538 0-10.5783-8.5754-19.1538-19.1538-19.1538-10.5783 0-19.1538 8.5755-19.1538 19.1538 0 10.5784 8.5755 19.1538 19.1538 19.1538z"/></g></g><defs><filter id="filter0_i" width="136.264" height="37.053" x="8.381" y="174.784" color-interpolation-filters="sRGB" filterUnits="userSpaceOnUse"><feFlood flood-opacity="0" result="BackgroundImageFix"/><feBlend in="SourceGraphic" in2="BackgroundImageFix" result="shape"/><feColorMatrix in="SourceAlpha" result="hardAlpha" values="0 0 0 0 0 0 0 0 0 0 0 0 0 0 0 0 0 0 127 0"/><feOffset dy="1.039"/><feGaussianBlur stdDeviation=".519"/><feComposite in2="hardAlpha" k2="-1" k3="1" operator="arithmetic"/><feColorMatrix values="0 0 0 0 0 0 0 0 0 0 0 0 0 0 0 0 0 0 0.25 0"/><feBlend in2="shape" result="effect1_innerShadow"/></filter><filter id="filter1_d" width="40.405" height="37.774" x="108.608" y="80.146" color-interpolation-filters="sRGB" filterUnits="userSpaceOnUse"><feFlood flood-opacity="0" result="BackgroundImageFix"/><feColorMatrix in="SourceAlpha" values="0 0 0 0 0 0 0 0 0 0 0 0 0 0 0 0 0 0 127 0"/><feOffset dx="2.677" dy="2.677"/><feGaussianBlur stdDeviation="6.693"/><feColorMatrix values="0 0 0 0 0 0 0 0 0 0 0 0 0 0 0 0 0 0 0.15 0"/><feBlend in2="BackgroundImageFix" result="effect1_dropShadow"/><feBlend in="SourceGraphic" in2="effect1_dropShadow" result="shape"/></filter><filter id="filter2_d" width="40.405" height="37.774" x="9.055" y="80.146" color-interpolation-filters="sRGB" filterUnits="userSpaceOnUse"><feFlood flood-opacity="0" result="BackgroundImageFix"/><feColorMatrix in="SourceAlpha" values="0 0 0 0 0 0 0 0 0 0 0 0 0 0 0 0 0 0 127 0"/><feOffset dx="2.677" dy="2.677"/><feGaussianBlur stdDeviation="6.693"/><feColorMatrix values="0 0 0 0 0 0 0 0 0 0 0 0 0 0 0 0 0 0 0.15 0"/><feBlend in2="BackgroundImageFix" result="effect1_dropShadow"/><feBlend in="SourceGraphic" in2="effect1_dropShadow" result="shape"/></filter><filter id="filter3_d" width="41.438" height="39.176" x="8.103" y="37.854" color-interpolation-filters="sRGB" filterUnits="userSpaceOnUse"><feFlood flood-opacity="0" result="BackgroundImageFix"/><feColorMatrix in="SourceAlpha" values="0 0 0 0 0 0 0 0 0 0 0 0 0 0 0 0 0 0 127 0"/><feOffset dx="2.677" dy="2.677"/><feGaussianBlur stdDeviation="6.693"/><feColorMatrix values="0 0 0 0 0 0 0 0 0 0 0 0 0 0 0 0 0 0 0.15 0"/><feBlend in2="BackgroundImageFix" result="effect1_dropShadow"/><feBlend in="SourceGraphic" in2="effect1_dropShadow" result="shape"/></filter><filter id="filter4_d" width="41.438" height="39.176" x="108.51" y="37.854" color-interpolation-filters="sRGB" filterUnits="userSpaceOnUse"><feFlood flood-opacity="0" result="BackgroundImageFix"/><feColorMatrix in="SourceAlpha" values="0 0 0 0 0 0 0 0 0 0 0 0 0 0 0 0 0 0 127 0"/><feOffset dx="2.677" dy="2.677"/><feGaussianBlur stdDeviation="6.693"/><feColorMatrix values="0 0 0 0 0 0 0 0 0 0 0 0 0 0 0 0 0 0 0.15 0"/><feBlend in2="BackgroundImageFix" result="effect1_dropShadow"/><feBlend in="SourceGraphic" in2="effect1_dropShadow" result="shape"/></filter><filter id="filter5_d" width="56.565" height="61.026" x="47.25" y="11.823" color-interpolation-filters="sRGB" filterUnits="userSpaceOnUse"><feFlood flood-opacity="0" result="BackgroundImageFix"/><feColorMatrix in="SourceAlpha" values="0 0 0 0 0 0 0 0 0 0 0 0 0 0 0 0 0 0 127 0"/><feOffset dy="2.677"/><feGaussianBlur stdDeviation="6.693"/><feColorMatrix values="0 0 0 0 0.458333 0 0 0 0 0.435896 0 0 0 0 0.0496528 0 0 0 0.15 0"/><feBlend in2="BackgroundImageFix" result="effect1_dropShadow"/><feBlend in="SourceGraphic" in2="effect1_dropShadow" result="shape"/></filter><filter id="filter6_d" width="56.565" height="61.026" x="47.234" y="83.586" color-interpolation-filters="sRGB" filterUnits="userSpaceOnUse"><feFlood flood-opacity="0" result="BackgroundImageFix"/><feColorMatrix in="SourceAlpha" values="0 0 0 0 0 0 0 0 0 0 0 0 0 0 0 0 0 0 127 0"/><feOffset dy="2.677"/><feGaussianBlur stdDeviation="6.693"/><feColorMatrix values="0 0 0 0 0.458333 0 0 0 0 0.435896 0 0 0 0 0.0496528 0 0 0 0.15 0"/><feBlend in2="BackgroundImageFix" result="effect1_dropShadow"/><feBlend in="SourceGraphic" in2="effect1_dropShadow" result="shape"/></filter><filter id="filter7_d" width="61.026" height="56.565" x="80.893" y="49.943" color-interpolation-filters="sRGB" filterUnits="userSpaceOnUse"><feFlood flood-opacity="0" result="BackgroundImageFix"/><feColorMatrix in="SourceAlpha" values="0 0 0 0 0 0 0 0 0 0 0 0 0 0 0 0 0 0 127 0"/><feOffset dy="2.677"/><feGaussianBlur stdDeviation="6.693"/><feColorMatrix values="0 0 0 0 0.458333 0 0 0 0 0.435896 0 0 0 0 0.0496528 0 0 0 0.15 0"/><feBlend in2="BackgroundImageFix" result="effect1_dropShadow"/><feBlend in="SourceGraphic" in2="effect1_dropShadow" result="shape"/></filter><filter id="filter8_d" width="61.026" height="56.565" x="9.13" y="49.927" color-interpolation-filters="sRGB" filterUnits="userSpaceOnUse"><feFlood flood-opacity="0" result="BackgroundImageFix"/><feColorMatrix in="SourceAlpha" values="0 0 0 0 0 0 0 0 0 0 0 0 0 0 0 0 0 0 127 0"/><feOffset dy="2.677"/><feGaussianBlur stdDeviation="6.693"/><feColorMatrix values="0 0 0 0 0.458333 0 0 0 0 0.435896 0 0 0 0 0.0496528 0 0 0 0.15 0"/><feBlend in2="BackgroundImageFix" result="effect1_dropShadow"/><feBlend in="SourceGraphic" in2="effect1_dropShadow" result="shape"/></filter><filter id="filter9_d" width="76.094" height="76.095" x="12.051" y="14.983" color-interpolation-filters="sRGB" filterUnits="userSpaceOnUse"><feFlood flood-opacity="0" result="BackgroundImageFix"/><feColorMatrix in="SourceAlpha" values="0 0 0 0 0 0 0 0 0 0 0 0 0 0 0 0 0 0 127 0"/><feOffset dy="2.677"/><feGaussianBlur stdDeviation="6.693"/><feColorMatrix values="0 0 0 0 0.458333 0 0 0 0 0.435896 0 0 0 0 0.0496528 0 0 0 0.15 0"/><feBlend in2="BackgroundImageFix" result="effect1_dropShadow"/><feBlend in="SourceGraphic" in2="effect1_dropShadow" result="shape"/></filter><filter id="filter10_d" width="52.711" height="74.466" x="35.434" y="14.983" color-interpolation-filters="sRGB" filterUnits="userSpaceOnUse"><feFlood flood-opacity="0" result="BackgroundImageFix"/><feColorMatrix in="SourceAlpha" values="0 0 0 0 0 0 0 0 0 0 0 0 0 0 0 0 0 0 127 0"/><feOffset dy="2.677"/><feGaussianBlur stdDeviation="6.693"/><feColorMatrix values="0 0 0 0 0 0 0 0 0 0 0 0 0 0 0 0 0 0 0.15 0"/><feBlend in2="BackgroundImageFix" result="effect1_dropShadow"/><feBlend in="SourceGraphic" in2="effect1_dropShadow" result="shape"/></filter><filter id="filter11_d" width="69.247" height="38.074" x="17.286" y="53.004" color-interpolation-filters="sRGB" filterUnits="userSpaceOnUse"><feFlood flood-opacity="0" result="BackgroundImageFix"/><feColorMatrix in="SourceAlpha" values="0 0 0 0 0 0 0 0 0 0 0 0 0 0 0 0 0 0 127 0"/><feOffset dy="2.677"/><feGaussianBlur stdDeviation="6.693"/><feColorMatrix values="0 0 0 0 0 0 0 0 0 0 0 0 0 0 0 0 0 0 0.15 0"/><feBlend in2="BackgroundImageFix" result="effect1_dropShadow"/><feBlend in="SourceGraphic" in2="effect1_dropShadow" result="shape"/></filter><filter id="filter12_d" width="76.11" height="76.094" x="62.904" y="14.983" color-interpolation-filters="sRGB" filterUnits="userSpaceOnUse"><feFlood flood-opacity="0" result="BackgroundImageFix"/><feColorMatrix in="SourceAlpha" values="0 0 0 0 0 0 0 0 0 0 0 0 0 0 0 0 0 0 127 0"/><feOffset dy="2.677"/><feGaussianBlur stdDeviation="6.693"/><feColorMatrix values="0 0 0 0 0.458333 0 0 0 0 0.435896 0 0 0 0 0.0496528 0 0 0 0.15 0"/><feBlend in2="BackgroundImageFix" result="effect1_dropShadow"/><feBlend in="SourceGraphic" in2="effect1_dropShadow" result="shape"/></filter><filter id="filter13_d" width="74.466" height="52.711" x="64.548" y="33.012" color-interpolation-filters="sRGB" filterUnits="userSpaceOnUse"><feFlood flood-opacity="0" result="BackgroundImageFix"/><feColorMatrix in="SourceAlpha" values="0 0 0 0 0 0 0 0 0 0 0 0 0 0 0 0 0 0 127 0"/><feOffset dy="-2.677"/><feGaussianBlur stdDeviation="6.693"/><feColorMatrix values="0 0 0 0 0 0 0 0 0 0 0 0 0 0 0 0 0 0 0.15 0"/><feBlend in2="BackgroundImageFix" result="effect1_dropShadow"/><feBlend in="SourceGraphic" in2="effect1_dropShadow" result="shape"/></filter><filter id="filter14_d" width="38.074" height="69.247" x="62.904" y="14.864" color-interpolation-filters="sRGB" filterUnits="userSpaceOnUse"><feFlood flood-opacity="0" result="BackgroundImageFix"/><feColorMatrix in="SourceAlpha" values="0 0 0 0 0 0 0 0 0 0 0 0 0 0 0 0 0 0 127 0"/><feOffset dy="-2.677"/><feGaussianBlur stdDeviation="6.693"/><feColorMatrix values="0 0 0 0 0 0 0 0 0 0 0 0 0 0 0 0 0 0 0.15 0"/><feBlend in2="BackgroundImageFix" result="effect1_dropShadow"/><feBlend in="SourceGraphic" in2="effect1_dropShadow" result="shape"/></filter><filter id="filter15_d" width="76.094" height="76.095" x="62.92" y="65.358" color-interpolation-filters="sRGB" filterUnits="userSpaceOnUse"><feFlood flood-opacity="0" result="BackgroundImageFix"/><feColorMatrix in="SourceAlpha" values="0 0 0 0 0 0 0 0 0 0 0 0 0 0 0 0 0 0 127 0"/><feOffset dy="2.677"/><feGaussianBlur stdDeviation="6.693"/><feColorMatrix values="0 0 0 0 0.458333 0 0 0 0 0.435896 0 0 0 0 0.0496528 0 0 0 0.15 0"/><feBlend in2="BackgroundImageFix" result="effect1_dropShadow"/><feBlend in="SourceGraphic" in2="effect1_dropShadow" result="shape"/></filter><filter id="filter16_d" width="52.711" height="74.466" x="62.92" y="61.631" color-interpolation-filters="sRGB" filterUnits="userSpaceOnUse"><feFlood flood-opacity="0" result="BackgroundImageFix"/><feColorMatrix in="SourceAlpha" values="0 0 0 0 0 0 0 0 0 0 0 0 0 0 0 0 0 0 127 0"/><feOffset dy="-2.677"/><feGaussianBlur stdDeviation="6.693"/><feColorMatrix values="0 0 0 0 0 0 0 0 0 0 0 0 0 0 0 0 0 0 0.15 0"/><feBlend in2="BackgroundImageFix" result="effect1_dropShadow"/><feBlend in="SourceGraphic" in2="effect1_dropShadow" result="shape"/></filter><filter id="filter17_d" width="69.247" height="38.074" x="64.532" y="65.358" color-interpolation-filters="sRGB" filterUnits="userSpaceOnUse"><feFlood flood-opacity="0" result="BackgroundImageFix"/><feColorMatrix in="SourceAlpha" values="0 0 0 0 0 0 0 0 0 0 0 0 0 0 0 0 0 0 127 0"/><feOffset dy="2.677"/><feGaussianBlur stdDeviation="6.693"/><feColorMatrix values="0 0 0 0 0 0 0 0 0 0 0 0 0 0 0 0 0 0 0.15 0"/><feBlend in2="BackgroundImageFix" result="effect1_dropShadow"/><feBlend in="SourceGraphic" in2="effect1_dropShadow" result="shape"/></filter><filter id="filter18_d" width="76.094" height="76.094" x="12.051" y="65.358" color-interpolation-filters="sRGB" filterUnits="userSpaceOnUse"><feFlood flood-opacity="0" result="BackgroundImageFix"/><feColorMatrix in="SourceAlpha" values="0 0 0 0 0 0 0 0 0 0 0 0 0 0 0 0 0 0 127 0"/><feOffset dy="2.677"/><feGaussianBlur stdDeviation="6.693"/><feColorMatrix values="0 0 0 0 0.458333 0 0 0 0 0.435896 0 0 0 0 0.0496528 0 0 0 0.15 0"/><feBlend in2="BackgroundImageFix" result="effect1_dropShadow"/><feBlend in="SourceGraphic" in2="effect1_dropShadow" result="shape"/></filter><filter id="filter19_d" width="74.466" height="52.711" x="12.051" y="65.358" color-interpolation-filters="sRGB" filterUnits="userSpaceOnUse"><feFlood flood-opacity="0" result="BackgroundImageFix"/><feColorMatrix in="SourceAlpha" values="0 0 0 0 0 0 0 0 0 0 0 0 0 0 0 0 0 0 127 0"/><feOffset dy="2.677"/><feGaussianBlur stdDeviation="6.693"/><feColorMatrix values="0 0 0 0 0 0 0 0 0 0 0 0 0 0 0 0 0 0 0.15 0"/><feBlend in2="BackgroundImageFix" result="effect1_dropShadow"/><feBlend in="SourceGraphic" in2="effect1_dropShadow" result="shape"/></filter><filter id="filter20_d" width="38.074" height="69.247" x="50.071" y="61.615" color-interpolation-filters="sRGB" filterUnits="userSpaceOnUse"><feFlood flood-opacity="0" result="BackgroundImageFix"/><feColorMatrix in="SourceAlpha" values="0 0 0 0 0 0 0 0 0 0 0 0 0 0 0 0 0 0 127 0"/><feOffset dy="-2.677"/><feGaussianBlur stdDeviation="6.693"/><feColorMatrix values="0 0 0 0 0 0 0 0 0 0 0 0 0 0 0 0 0 0 0.15 0"/><feBlend in2="BackgroundImageFix" result="effect1_dropShadow"/><feBlend in="SourceGraphic" in2="effect1_dropShadow" result="shape"/></filter><filter id="filter21_i" width="40.385" height="40.385" x="56.371" y="56.386" color-interpolation-filters="sRGB" filterUnits="userSpaceOnUse"><feFlood flood-opacity="0" result="BackgroundImageFix"/><feBlend in="SourceGraphic" in2="BackgroundImageFix" result="shape"/><feColorMatrix in="SourceAlpha" result="hardAlpha" values="0 0 0 0 0 0 0 0 0 0 0 0 0 0 0 0 0 0 127 0"/><feOffset dx="2.078" dy="2.078"/><feGaussianBlur stdDeviation="6.492"/><feComposite in2="hardAlpha" k2="-1" k3="1" operator="arithmetic"/><feColorMatrix values="0 0 0 0 0.458824 0 0 0 0 0.435294 0 0 0 0 0.0509804 0 0 0 0.15 0"/><feBlend in2="shape" result="effect1_innerShadow"/></filter><clipPath id="clip0"><path fill="#fff" d="M0 0h152v211H0z"/></clipPath></defs></svg>