<svg width="35" height="35" viewBox="0 0 35 35" fill="none" xmlns="http://www.w3.org/2000/svg">
<path d="M9.3331 7.58318V5.24991C9.3331 4.92777 9.07192 4.66659 8.74978 4.66659H0.583319C0.261183 4.66659 0 4.92777 0 5.24991V7.58318H9.3331Z" fill="white"/>
<path d="M0 8.74985V27.9994H9.3331V8.74985H0ZM6.99983 16.333H2.33328C2.01114 16.333 1.74996 16.0718 1.74996 15.7497V11.0831C1.74996 10.761 2.01114 10.4998 2.33328 10.4998H6.99983C7.32196 10.4998 7.58315 10.761 7.58315 11.0831V15.7497C7.58315 16.0718 7.32196 16.333 6.99983 16.333Z" fill="white"/>
<path d="M0 31.4992V34.4158C0 34.7379 0.261183 34.9991 0.583319 34.9991H8.74978C9.07192 34.9991 9.3331 34.7379 9.3331 34.4158V31.4992H0Z" fill="white"/>
<path d="M0 29.166H9.3331V30.3327H0V29.166Z" fill="white"/>
<path d="M10.4997 29.166H18.0828V30.3327H10.4997V29.166Z" fill="white"/>
<path d="M18.0828 2.33334V0.58338C18.0828 0.261244 17.8217 6.10352e-05 17.4995 6.10352e-05H11.083C10.7609 6.10352e-05 10.4997 0.261244 10.4997 0.58338V2.33334H18.0828Z" fill="white"/>
<path d="M10.4997 6.41655H18.0828V27.9994H10.4997V6.41655Z" fill="white"/>
<path d="M10.4997 31.4992V34.4158C10.4997 34.7379 10.7609 34.9991 11.083 34.9991H17.4995C17.8217 34.9991 18.0828 34.7379 18.0828 34.4158V31.4992H10.4997Z" fill="white"/>
<path d="M10.4997 3.5H18.0828V5.24995H10.4997V3.5Z" fill="white"/>
<path d="M19.2355 12.0794L19.5477 13.2777L29.4265 10.6433L29.1141 9.44508L19.2355 12.0794Z" fill="white"/>
<path d="M24.1104 30.7661L33.9889 28.1318L33.3634 25.7338L23.4843 28.3682L24.1104 30.7661Z" fill="white"/>
<path d="M33.0689 24.6051L29.7214 11.7721L19.8423 14.4064L23.1898 27.2394L33.0689 24.6051Z" fill="white"/>
<path d="M18.9411 10.9507L28.8193 8.31662L27.9819 5.10409C27.8956 4.79306 27.5778 4.60707 27.2645 4.68426L18.5147 7.01754C18.2056 7.10213 18.0214 7.41857 18.1003 7.72902L18.9411 10.9507Z" fill="white"/>
<path d="M34.2834 29.2606L24.4043 31.8949L25.1001 34.5617C25.1405 34.7121 25.2391 34.8403 25.3744 34.9177C25.4624 34.971 25.5632 34.9992 25.666 34.9992C25.717 34.9992 25.768 34.9932 25.8176 34.9818L34.5673 32.6485C34.8764 32.564 35.0607 32.2472 34.9818 31.9368L34.2834 29.2606Z" fill="white"/>
</svg>
