<svg width="58" height="51" viewBox="0 0 58 51" fill="none" xmlns="http://www.w3.org/2000/svg">
<path d="M57.07 24.5575C56.7843 24.0146 56.2215 23.6747 55.608 23.6747H53.9037C53.5107 17.5314 50.9303 11.8099 46.5383 7.41782C41.7549 2.63439 35.3948 0 28.63 0C21.8652 0 15.505 2.63439 10.7216 7.41793C9.44988 8.68961 8.32381 10.0846 7.35699 11.5757C7.47342 11.5675 7.5904 11.5621 7.70816 11.5621C9.3404 11.5621 10.8668 12.3651 11.7914 13.71L14.2162 17.2371C17.0726 12.1156 22.5025 8.80928 28.6299 8.80928C37.1799 8.80928 44.2336 15.34 45.0652 23.6748H43.4954C42.8821 23.6748 42.3191 24.0146 42.0336 24.5576C41.7481 25.1005 41.7869 25.7569 42.1343 26.2623L48.1907 35.0716C48.2677 35.1836 48.3573 35.2844 48.4568 35.3725C48.7554 35.6369 49.1438 35.7876 49.5518 35.7876C50.0957 35.7876 50.6049 35.5197 50.913 35.0716L56.9692 26.2624C57.3168 25.7567 57.3555 25.1002 57.07 24.5575Z" fill="white"/>
<path d="M49.5517 39.0908C47.9195 39.0908 46.393 38.2878 45.4685 36.9428L43.0436 33.4158C40.1872 38.5373 34.7573 41.8437 28.63 41.8437C20.0799 41.8437 13.0262 35.313 12.1946 26.9782H13.7645C14.3778 26.9782 14.9407 26.6383 15.2263 26.0954C15.5118 25.5525 15.473 24.896 15.1255 24.3907L9.06916 15.5814C8.76116 15.1333 8.25209 14.8654 7.70812 14.8654C7.64012 14.8654 7.57269 14.8696 7.50603 14.8777C7.43938 14.8859 7.37373 14.8982 7.3092 14.9142C7.14793 14.9543 6.99405 15.0184 6.8528 15.104C6.65508 15.2236 6.48173 15.3852 6.34697 15.5813L0.290635 24.3906C-0.0568376 24.8959 -0.0956445 25.5525 0.189871 26.0953C0.475387 26.638 1.03837 26.9782 1.65178 26.9782H3.35616C3.74915 33.1214 6.32952 38.8429 10.7215 43.235C15.5051 48.0186 21.865 50.653 28.63 50.653C35.3949 50.653 41.7548 48.0186 46.5384 43.235C47.8101 41.9634 48.9361 40.5683 49.903 39.0772C49.7864 39.0854 49.6694 39.0908 49.5517 39.0908Z" fill="white"/>
</svg>
