<svg xmlns="http://www.w3.org/2000/svg" width="51" height="51" fill="none" viewBox="0 0 51 51"><path fill="#fff" d="M18.0532 31.6985C16.831 31.6985 15.8946 32.7851 16.0752 33.9939L16.6981 38.1644C16.8445 39.144 17.6857 39.869 18.6762 39.869H32.4872C33.4777 39.869 34.3189 39.1441 34.4653 38.1645L35.0885 33.994C35.2691 32.7852 34.3327 31.6985 33.1104 31.6985H18.0532Z"/><path fill="#fff" d="M34.2672 30.0658C35.0764 30.0658 35.7638 29.4735 35.8834 28.6731C36.0309 27.6854 35.2658 26.7976 34.2672 26.7976H16.8963C15.8977 26.7976 15.1326 27.6854 15.2802 28.6731C15.3997 29.4735 16.0871 30.0658 16.8963 30.0658H34.2672Z"/><path fill="#fff" d="M23.4718 18.1332C24.6583 18.7825 26.5052 18.7825 27.6917 18.1332C28.3806 17.7561 28.9823 17.0955 28.8122 16.3288C28.6107 15.4206 28.1557 14.574 27.4836 13.9017L26.9959 13.4141C26.2148 12.6331 24.9485 12.6331 24.1675 13.4141L23.6799 13.9017C23.0078 14.5739 22.5528 15.4206 22.3513 16.3288C22.1812 17.0955 22.7829 17.7561 23.4718 18.1332Z"/><path fill="#fff" d="M20.4954 25.1633H22.7653C23.8699 25.1633 24.7653 24.2679 24.7653 23.1633V23.0598C24.7653 20.8653 22.9799 19.0799 20.7854 19.0799H18.5155C17.4109 19.0799 16.5155 19.9754 16.5155 21.0799V21.1834C16.5155 23.3779 18.3009 25.1633 20.4954 25.1633Z"/><path fill="#fff" d="M30.378 19.0799C28.1835 19.0799 26.3981 20.8653 26.3981 23.0598V23.1633C26.3981 24.2679 27.2935 25.1633 28.3981 25.1633H30.6678C32.8623 25.1633 34.6477 23.3779 34.6477 21.1834V21.0799C34.6477 19.9754 33.7522 19.0799 32.6477 19.0799H30.378Z"/></svg>