<svg xmlns="http://www.w3.org/2000/svg" width="32" height="32" fill="none" viewBox="0 0 32 32"><path fill="#00CF8B" d="M32 16C32 24.8366 24.8366 32 16 32C7.16344 32 0 24.8366 0 16C0 7.16344 7.16344 0 16 0C24.8366 0 32 7.16344 32 16Z"/><path fill="#fff" d="M9.48441 19.7228L10.2918 25H21.7081L22.5157 19.7228H9.48441Z"/><path fill="#fff" d="M22.6771 18.6683L23 16.5574H9L9.32294 18.6683H22.6771Z"/><path fill="#fff" d="M15.9999 12.2622C16.4907 11.4761 17.2792 10.886 18.2113 10.6417C18.2549 9.74823 17.9117 8.86658 17.2581 8.22827L15.9999 7L14.7419 8.22827C14.0883 8.86644 13.7451 9.74823 13.7887 10.6417C14.7208 10.886 15.5093 11.4761 15.9999 12.2622Z"/><path fill="#fff" d="M12.6353 15.5019H15.4599V14.1433C15.4599 12.7259 14.2789 11.5728 12.8272 11.5728H10.0026V12.9314C10.0026 14.3488 11.1836 15.5019 12.6353 15.5019Z"/><path fill="#fff" d="M19.1728 11.5728C17.7211 11.5728 16.54 12.7259 16.54 14.1433V15.5019H19.3645C20.8162 15.5019 21.9973 14.3488 21.9973 12.9314V11.5728H19.1728Z"/></svg>