<svg xmlns="http://www.w3.org/2000/svg" width="51" height="51" fill="none" viewBox="0 0 51 51"><path fill="#00CF88" d="M17.8752 28.938C17.8752 28.3857 17.4274 27.938 16.8752 27.938H16C15.4477 27.938 15 28.3857 15 28.938V34.1258C15 34.6781 15.4477 35.1258 16 35.1258H21.1879C21.7401 35.1258 22.1879 34.6781 22.1879 34.1258V33.2507C22.1879 32.6984 21.7401 32.2507 21.1879 32.2507H18.8752C18.3229 32.2507 17.8752 31.803 17.8752 31.2507V28.938Z"/><path fill="#00CF88" d="M15 21.1879C15 21.7401 15.4477 22.1879 16 22.1879H16.8752C17.4274 22.1879 17.8752 21.7401 17.8752 21.1879V18.8752C17.8752 18.3229 18.3229 17.8752 18.8752 17.8752H21.1879C21.7401 17.8752 22.1879 17.4274 22.1879 16.8752V16C22.1879 15.4477 21.7401 15 21.1879 15H16C15.4477 15 15 15.4477 15 16V21.1879Z"/><path fill="#00CF88" d="M28.9381 15C28.3858 15 27.9381 15.4477 27.9381 16V16.8752C27.9381 17.4274 28.3858 17.8752 28.9381 17.8752H31.2508C31.8031 17.8752 32.2508 18.3229 32.2508 18.8752V21.1879C32.2508 21.7401 32.6985 22.1879 33.2508 22.1879H34.126C34.6783 22.1879 35.126 21.7401 35.126 21.1879V16C35.126 15.4477 34.6783 15 34.126 15H28.9381Z"/><path fill="#00CF88" d="M32.2508 31.2507C32.2508 31.803 31.8031 32.2507 31.2508 32.2507H28.9381C28.3858 32.2507 27.9381 32.6984 27.9381 33.2507V34.1258C27.9381 34.6781 28.3858 35.1258 28.9381 35.1258H34.126C34.6783 35.1258 35.126 34.6781 35.126 34.1258V28.938C35.126 28.3857 34.6783 27.938 34.126 27.938H33.2508C32.6985 27.938 32.2508 28.3857 32.2508 28.938V31.2507Z"/></svg>