<svg width="18" height="18" viewBox="0 0 18 18" fill="none" xmlns="http://www.w3.org/2000/svg">
<path d="M11.6125 9.73621C11.6125 11.1894 10.4345 12.3674 8.98127 12.3674C7.52808 12.3674 6.35004 11.1894 6.35004 9.73621C6.35004 8.28302 7.52808 7.10498 8.98127 7.10498C10.4345 7.10498 11.6125 8.28302 11.6125 9.73621Z" fill="#263238"/>
<path d="M17.8284 9.38521C17.6681 9.20635 13.8116 5 8.98128 5C4.15097 5 0.294505 9.20635 0.13414 9.38521C-0.0447134 9.58511 -0.0447134 9.88732 0.13414 10.0872C0.294505 10.2661 4.15105 14.4724 8.98128 14.4724C13.8115 14.4724 17.6681 10.2661 17.8284 10.0872C18.0072 9.88732 18.0072 9.58511 17.8284 9.38521ZM8.98128 13.4199C6.95029 13.4199 5.29756 11.7672 5.29756 9.73621C5.29756 7.70522 6.95029 6.05249 8.98128 6.05249C11.0123 6.05249 12.665 7.70522 12.665 9.73621C12.665 11.7672 11.0123 13.4199 8.98128 13.4199Z" fill="#263238"/>
<path d="M2.5 16.5L16 3" stroke="#263238" stroke-width="2" stroke-linecap="round"/>
</svg>
