<svg xmlns="http://www.w3.org/2000/svg" width="51" height="51" fill="none" viewBox="0 0 51 51"><path fill="#fff" d="M25.6152 24.6186C27.4862 24.6186 29.1063 23.9476 30.43 22.6236C31.7537 21.2999 32.4248 19.6802 32.4248 17.8091C32.4248 15.9386 31.7537 14.3187 30.4298 12.9945C29.1058 11.671 27.486 11 25.6152 11C23.7441 11 22.1244 11.671 20.8007 12.9948C19.477 14.3185 18.8057 15.9384 18.8057 17.8091C18.8057 19.6802 19.477 21.3001 20.8009 22.6238C22.1249 23.9474 23.7447 24.6186 25.6152 24.6186V24.6186Z"/><path fill="#fff" d="M37.53 32.7395C37.4919 32.1886 37.4146 31.5877 37.301 30.9531C37.1862 30.3138 37.0385 29.7094 36.8616 29.157C36.6789 28.5861 36.4304 28.0222 36.1233 27.4819C35.8045 26.9211 35.43 26.4328 35.0098 26.0309C34.5705 25.6105 34.0325 25.2725 33.4105 25.026C32.7905 24.7808 32.1036 24.6565 31.3687 24.6565C31.0801 24.6565 30.801 24.7749 30.2619 25.1259C29.9302 25.3422 29.5422 25.5924 29.1091 25.8692C28.7387 26.1051 28.237 26.3262 27.6173 26.5264C27.0127 26.722 26.3988 26.8212 25.7929 26.8212C25.1871 26.8212 24.5734 26.722 23.9682 26.5264C23.3491 26.3264 22.8474 26.1053 22.4775 25.8694C22.0485 25.5952 21.6602 25.345 21.3235 25.1256C20.7851 24.7747 20.5058 24.6563 20.2172 24.6563C19.4821 24.6563 18.7953 24.7808 18.1757 25.0262C17.554 25.2723 17.0159 25.6103 16.5761 26.0311C16.1561 26.4332 15.7814 26.9213 15.4631 27.4819C15.1561 28.0222 14.9076 28.5858 14.7247 29.1572C14.5481 29.7096 14.4003 30.3138 14.2856 30.9531C14.1719 31.5868 14.0947 32.188 14.0565 32.7401C14.019 33.2811 14 33.8426 14 34.4096C14 35.8854 14.4691 37.0802 15.3943 37.9613C16.3079 38.8307 17.5169 39.2718 18.9871 39.2718H32.6001C34.0703 39.2718 35.2788 38.831 36.1927 37.9613C37.1181 37.0808 37.5872 35.8858 37.5872 34.4094C37.587 33.8398 37.5678 33.2779 37.53 32.7395Z"/></svg>