<svg width="113" height="113" fill="none" xmlns="http://www.w3.org/2000/svg">
  <circle cx="56" cy="57" r="26" fill="#fff"/>
  <path d="M55.6269 62.6443c.2099-.2108.5509-.2108.7608 0l2.5859 2.598c2.1024 2.1123 2.1024 5.5348 0 7.6471l-2.5859 2.598c-.2099.2108-.5509.2108-.7608 0l-2.5858-2.598c-2.1025-2.1123-2.1025-5.5348 0-7.6471l2.5858-2.598z" fill="#EDE221"/>
  <g filter="url(#filter0_i)">
    <path d="M56.0275 75.6446c-2.7441-8.188-1.2251-11.6971-.6126-12.7498.0613-.1365.2695-.4094.6125-.4094s.5309.2729.6125.4094c1.3476 2.8658-.6737 12.7498-.6124 12.7498z" fill="#BBBE1D"/>
  </g>
  <path d="M55.8285 72.6683c.7161-2.5706 1.0854-21.4466-3.0325-27.1019" stroke="#00CF88" stroke-width="1.94631" stroke-linecap="round"/>
  <path d="M53.7891 47.294c-.1979-1.3851-1.492-2.4725-2.8904-2.4288l-.905.0283c-.1398.0043-.2372.1202-.2174.2587.1979 1.385 1.492 2.4724 2.8904 2.4287l.9051-.0283c.1398-.0043.2371-.1201.2173-.2586z" fill="#00CF88"/>
  <g filter="url(#filter1_d)">
    <path d="M53.8219 47.3444c-.1282-.8976-.9668-1.6022-1.873-1.5739l-.5865.0183c-.0906.0028-.1537.0779-.1408.1676.1282.8976.9668 1.6022 1.873 1.5739l.5865-.0183c.0906-.0028.1537-.0779.1408-.1676z" fill="#268766"/>
  </g>
  <path d="M56.0853 63.3944c-1.7066.9946-3.8963.4174-4.891-1.2891l-.5391-.9251c-.0994-.1706-.0417-.3896.1289-.4891 1.7066-.9946 3.8964-.4174 4.891 1.2892l.5391.925c.0995.1707.0418.3897-.1289.4891z" fill="#00CF88"/>
  <g filter="url(#filter2_d)">
    <path d="M56.1657 63.3872c-1.1059.6445-2.5249.2705-3.1694-.8354l-.3493-.5995c-.0645-.1106-.0271-.2525.0835-.3169 1.1059-.6445 2.5249-.2705 3.1694.8354l.3494.5994c.0644.1106.027.2525-.0836.317z" fill="#268766"/>
  </g>
  <path d="M56.3208 59.9796c.47-2.6371 2.4282-8.6946 6.5013-11.8277" stroke="#00CF88" stroke-width="1.16778" stroke-linecap="round"/>
  <path d="M55.1459 53.7914c-.705-1.8277-2.9922-5.2637-6.5014-4.3864" stroke="#268766" stroke-width="1.16778" stroke-linecap="round"/>
  <path d="M59.4262 51.3185c-1.5829-1.2238-2.0217-3.6009-.9802-5.3092l.674-1.1057c.1041-.1708.3169-.2101.4752-.0877 1.5828 1.2239 2.0217 3.6009.9802 5.3093l-.674 1.1056c-.1042.1709-.3169.2101-.4752.0877z" fill="#00CF88"/>
  <g filter="url(#filter3_d)">
    <path d="M59.4654 51.3945c-1.0257-.7931-1.3101-2.3335-.6352-3.4405l.4368-.7165c.0675-.1107.2053-.1361.3079-.0568 1.0257.7931 1.3101 2.3334.6352 3.4405l-.4368.7165c-.0675.1107-.2054.1361-.3079.0568z" fill="#268766"/>
  </g>
  <path d="M53.5818 46.5624c-.5212-1.2984.0558-2.8871 1.2888-3.5485l.7979-.4281c.1233-.0661.2654-.0145.3176.1154.5211 1.2984-.0559 2.8872-1.2888 3.5485l-.798.4281c-.1232.0661-.2654.0145-.3175-.1154z" fill="#00CF88"/>
  <g filter="url(#filter4_d)">
    <path d="M53.5783 46.6226c-.3377-.8414.0362-1.8709.8351-2.2995l.5171-.2774c.0799-.0429.172-.0094.2058.0748.3377.8414-.0362 1.8709-.8352 2.2995l-.517.2774c-.0799.0428-.1721.0094-.2058-.0748z" fill="#268766"/>
  </g>
  <path d="M53.4385 51.2437c-.7687 1.8472-2.949 2.8908-4.8699 2.3308l-1.2431-.3624c-.1921-.0559-.2855-.2511-.2087-.4358.7688-1.8472 2.9491-2.8908 4.87-2.3309l1.2431.3624c.1921.056.2855.2511.2086.4359z" fill="#00CF88"/>
  <g filter="url(#filter5_d)">
    <path d="M53.5018 51.1861c-.4981 1.197-1.911 1.8733-3.1558 1.5104l-.8056-.2348c-.1244-.0363-.185-.1627-.1351-.2825.4981-1.197 1.911-1.8733 3.1558-1.5104l.8056.2348c.1244.0363.185.1628.1351.2825z" fill="#268766"/>
  </g>
  <path d="M51.0533 49.5539c-1.0311-.1473-1.8407-1.1108-1.8082-2.1518l.0211-.6738c.0032-.1041.0895-.1766.1926-.1618 1.0311.1473 1.8406 1.1107 1.8081 2.1518l-.021.6738c-.0033.1041-.0895.1765-.1926.1618z" fill="#00CF88"/>
  <g filter="url(#filter6_d)">
    <path d="M51.0906 49.5772c-.6682-.0955-1.1928-.7198-1.1717-1.3945l.0136-.4366c.0021-.0674.058-.1144.1248-.1048.6682.0954 1.1928.7197 1.1717 1.3944l-.0136.4366c-.0021.0675-.058.1144-.1248.1049z" fill="#268766"/>
  </g>
  <path d="M58.2561 54.7509c1.7151 1.4444 4.2763 1.225 5.7206-.49l.783-.9296c.1444-.1715.1225-.4276-.049-.5721-1.7151-1.4444-4.2763-1.225-5.7207.49l-.7829.9296c-.1444.1716-.1225.4277.049.5721z" fill="#00CF88"/>
  <g filter="url(#filter7_d)">
    <path d="M58.1676 54.7281c1.1114.936 2.7711.7938 3.7071-.3176l.5073-.6024c.0936-.1111.0794-.2771-.0317-.3707-1.1114-.936-2.7711-.7938-3.7071.3176l-.5073.6024c-.0936.1111-.0794.2771.0317.3707z" fill="#268766"/>
  </g>
  <path d="M56.9893 62.6335c2.2384-.1309 3.9468-2.0516 3.8159-4.29l-.071-1.2133c-.0131-.2238-.2052-.3947-.429-.3816-2.2384.1309-3.9468 2.0517-3.8159 4.2901l.071 1.2133c.0131.2238.2051.3946.429.3815z" fill="#00CF88"/>
  <g filter="url(#filter8_d)">
    <path d="M56.9092 62.6785c1.4506-.0848 2.5577-1.3295 2.4728-2.78l-.046-.7863c-.0084-.145-.1329-.2557-.278-.2472-1.4505.0848-2.5576 1.3295-2.4728 2.78l.046.7862c.0085.1451.133.2558.278.2473z" fill="#268766"/>
  </g>
  <defs>
    <filter id="filter0_i" x="54.4409" y="62.4854" width="2.66319" height="13.9378" filterUnits="userSpaceOnUse" color-interpolation-filters="sRGB">
      <feFlood flood-opacity="0" result="BackgroundImageFix"/>
      <feBlend in="SourceGraphic" in2="BackgroundImageFix" result="shape"/>
      <feColorMatrix in="SourceAlpha" values="0 0 0 0 0 0 0 0 0 0 0 0 0 0 0 0 0 0 127 0" result="hardAlpha"/>
      <feOffset dy=".778523"/>
      <feGaussianBlur stdDeviation=".778523"/>
      <feComposite in2="hardAlpha" operator="arithmetic" k2="-1" k3="1"/>
      <feColorMatrix values="0 0 0 0 0 0 0 0 0 0 0 0 0 0 0 0 0 0 0.15 0"/>
      <feBlend in2="shape" result="effect1_innerShadow"/>
    </filter>
    <filter id="filter1_d" x="47.0059" y="41.5555" width="13.1387" height="12.2964" filterUnits="userSpaceOnUse" color-interpolation-filters="sRGB">
      <feFlood flood-opacity="0" result="BackgroundImageFix"/>
      <feColorMatrix in="SourceAlpha" values="0 0 0 0 0 0 0 0 0 0 0 0 0 0 0 0 0 0 127 0"/>
      <feOffset dx="1.0535" dy="1.0535"/>
      <feGaussianBlur stdDeviation="2.63374"/>
      <feColorMatrix values="0 0 0 0 0 0 0 0 0 0 0 0 0 0 0 0 0 0 0.15 0"/>
      <feBlend in2="BackgroundImageFix" result="effect1_dropShadow"/>
      <feBlend in="SourceGraphic" in2="effect1_dropShadow" result="shape"/>
    </filter>
    <filter id="filter2_d" x="48.4014" y="57.1058" width="14.2004" height="12.918" filterUnits="userSpaceOnUse" color-interpolation-filters="sRGB">
      <feFlood flood-opacity="0" result="BackgroundImageFix"/>
      <feColorMatrix in="SourceAlpha" values="0 0 0 0 0 0 0 0 0 0 0 0 0 0 0 0 0 0 127 0"/>
      <feOffset dx="1.0535" dy="1.0535"/>
      <feGaussianBlur stdDeviation="2.63374"/>
      <feColorMatrix values="0 0 0 0 0 0 0 0 0 0 0 0 0 0 0 0 0 0 0.15 0"/>
      <feBlend in2="BackgroundImageFix" result="effect1_dropShadow"/>
      <feBlend in="SourceGraphic" in2="effect1_dropShadow" result="shape"/>
    </filter>
    <filter id="filter3_d" x="54.25" y="42.9203" width="12.6473" height="14.8411" filterUnits="userSpaceOnUse" color-interpolation-filters="sRGB">
      <feFlood flood-opacity="0" result="BackgroundImageFix"/>
      <feColorMatrix in="SourceAlpha" values="0 0 0 0 0 0 0 0 0 0 0 0 0 0 0 0 0 0 127 0"/>
      <feOffset dx="1.0535" dy="1.0535"/>
      <feGaussianBlur stdDeviation="2.63374"/>
      <feColorMatrix values="0 0 0 0 0 0 0 0 0 0 0 0 0 0 0 0 0 0 0.15 0"/>
      <feBlend in2="BackgroundImageFix" result="effect1_dropShadow"/>
      <feBlend in="SourceGraphic" in2="effect1_dropShadow" result="shape"/>
    </filter>
    <filter id="filter4_d" x="49.24" y="39.8129" width="12.3417" height="13.224" filterUnits="userSpaceOnUse" color-interpolation-filters="sRGB">
      <feFlood flood-opacity="0" result="BackgroundImageFix"/>
      <feColorMatrix in="SourceAlpha" values="0 0 0 0 0 0 0 0 0 0 0 0 0 0 0 0 0 0 127 0"/>
      <feOffset dx="1.0535" dy="1.0535"/>
      <feGaussianBlur stdDeviation="2.63374"/>
      <feColorMatrix values="0 0 0 0 0 0 0 0 0 0 0 0 0 0 0 0 0 0 0.15 0"/>
      <feBlend in2="BackgroundImageFix" result="effect1_dropShadow"/>
      <feBlend in="SourceGraphic" in2="effect1_dropShadow" result="shape"/>
    </filter>
    <filter id="filter5_d" x="45.1738" y="46.3568" width="14.6665" height="12.7587" filterUnits="userSpaceOnUse" color-interpolation-filters="sRGB">
      <feFlood flood-opacity="0" result="BackgroundImageFix"/>
      <feColorMatrix in="SourceAlpha" values="0 0 0 0 0 0 0 0 0 0 0 0 0 0 0 0 0 0 127 0"/>
      <feOffset dx="1.0535" dy="1.0535"/>
      <feGaussianBlur stdDeviation="2.63374"/>
      <feColorMatrix values="0 0 0 0 0 0 0 0 0 0 0 0 0 0 0 0 0 0 0.15 0"/>
      <feBlend in2="BackgroundImageFix" result="effect1_dropShadow"/>
      <feBlend in="SourceGraphic" in2="effect1_dropShadow" result="shape"/>
    </filter>
    <filter id="filter6_d" x="45.7042" y="43.4261" width="11.8463" height="12.4734" filterUnits="userSpaceOnUse" color-interpolation-filters="sRGB">
      <feFlood flood-opacity="0" result="BackgroundImageFix"/>
      <feColorMatrix in="SourceAlpha" values="0 0 0 0 0 0 0 0 0 0 0 0 0 0 0 0 0 0 127 0"/>
      <feOffset dx="1.0535" dy="1.0535"/>
      <feGaussianBlur stdDeviation="2.63374"/>
      <feColorMatrix values="0 0 0 0 0 0 0 0 0 0 0 0 0 0 0 0 0 0 0.15 0"/>
      <feBlend in2="BackgroundImageFix" result="effect1_dropShadow"/>
      <feBlend in="SourceGraphic" in2="effect1_dropShadow" result="shape"/>
    </filter>
    <filter id="filter7_d" x="53.86" y="48.6049" width="14.9049" height="13.0629" filterUnits="userSpaceOnUse" color-interpolation-filters="sRGB">
      <feFlood flood-opacity="0" result="BackgroundImageFix"/>
      <feColorMatrix in="SourceAlpha" values="0 0 0 0 0 0 0 0 0 0 0 0 0 0 0 0 0 0 127 0"/>
      <feOffset dx="1.0535" dy="1.0535"/>
      <feGaussianBlur stdDeviation="2.63374"/>
      <feColorMatrix values="0 0 0 0 0 0 0 0 0 0 0 0 0 0 0 0 0 0 0.15 0"/>
      <feBlend in2="BackgroundImageFix" result="effect1_dropShadow"/>
      <feBlend in="SourceGraphic" in2="effect1_dropShadow" result="shape"/>
    </filter>
    <filter id="filter8_d" x="52.3667" y="54.6508" width="13.3409" height="14.3494" filterUnits="userSpaceOnUse" color-interpolation-filters="sRGB">
      <feFlood flood-opacity="0" result="BackgroundImageFix"/>
      <feColorMatrix in="SourceAlpha" values="0 0 0 0 0 0 0 0 0 0 0 0 0 0 0 0 0 0 127 0"/>
      <feOffset dx="1.0535" dy="1.0535"/>
      <feGaussianBlur stdDeviation="2.63374"/>
      <feColorMatrix values="0 0 0 0 0 0 0 0 0 0 0 0 0 0 0 0 0 0 0.15 0"/>
      <feBlend in2="BackgroundImageFix" result="effect1_dropShadow"/>
      <feBlend in="SourceGraphic" in2="effect1_dropShadow" result="shape"/>
    </filter>
  </defs>
</svg>