<svg width="32" height="32" viewBox="0 0 32 32" fill="none" xmlns="http://www.w3.org/2000/svg">
<circle cx="16" cy="16" r="16" fill="white"/>
<path d="M18.9702 16.5104C20.1377 17.6216 22.2698 17.9734 23.7323 17.2961L25.0603 16.6812C25.2065 16.6135 25.2304 16.4685 25.1137 16.3573V16.3573C23.9462 15.2461 21.8142 14.8943 20.3516 15.5716L19.0236 16.1865C18.8774 16.2543 18.8535 16.3993 18.9702 16.5104V16.5104Z" fill="#00CF88"/>
<g filter="url(#filter0_d)">
<path d="M18.8982 16.4832C19.6548 17.2033 21.0364 17.4313 21.9842 16.9924L22.8447 16.5939C22.9395 16.55 22.955 16.4561 22.8793 16.3841V16.3841C22.1228 15.664 20.7412 15.436 19.7934 15.8749L18.9328 16.2734C18.8381 16.3173 18.8226 16.4112 18.8982 16.4832V16.4832Z" fill="#268766"/>
</g>
<path d="M16.5099 15.1827C17.6211 14.0153 17.9729 11.8832 17.2956 10.4206L16.6807 9.09268C16.613 8.94643 16.468 8.9225 16.3569 9.03925V9.03925C15.2456 10.2067 14.8938 12.3388 15.5711 13.8014L16.1861 15.1293C16.2538 15.2756 16.3988 15.2995 16.5099 15.1827V15.1827Z" fill="#00CF88"/>
<g filter="url(#filter1_d)">
<path d="M16.4826 15.2546C17.2027 14.4981 17.4307 13.1164 16.9918 12.1687L16.5933 11.3081C16.5494 11.2134 16.4555 11.1979 16.3835 11.2735V11.2735C15.6634 12.0301 15.4354 13.4117 15.8743 14.3595L16.2728 15.22C16.3167 15.3148 16.4106 15.3303 16.4826 15.2546V15.2546Z" fill="#268766"/>
</g>
<path d="M16.3569 18.9706C15.2457 20.138 14.8939 22.2701 15.5712 23.7327L16.1861 25.0606C16.2538 25.2069 16.3988 25.2308 16.51 25.1141V25.1141C17.6212 23.9466 17.973 21.8145 17.2957 20.3519L16.6808 19.024C16.613 18.8778 16.468 18.8538 16.3569 18.9706V18.9706Z" fill="#00CF88"/>
<g filter="url(#filter2_d)">
<path d="M16.3842 18.8982C15.6641 19.6548 15.4361 21.0364 15.875 21.9842L16.2735 22.8447C16.3174 22.9395 16.4113 22.955 16.4834 22.8793V22.8793C17.2035 22.1228 17.4314 20.7412 16.9925 19.7934L16.594 18.9328C16.5502 18.8381 16.4562 18.8226 16.3842 18.8982V18.8982Z" fill="#268766"/>
</g>
<path d="M14.079 16.3573C12.9115 15.2461 10.7794 14.8943 9.31686 15.5715L7.98893 16.1865C7.84267 16.2542 7.81874 16.3992 7.93549 16.5103V16.5103C9.10296 17.6216 11.235 17.9734 12.6976 17.2961L14.0256 16.6811C14.1718 16.6134 14.1957 16.4684 14.079 16.3573V16.3573Z" fill="#00CF88"/>
<g filter="url(#filter3_d)">
<path d="M14.151 16.3844C13.3944 15.6643 12.0128 15.4364 11.065 15.8753L10.2045 16.2737C10.1097 16.3176 10.0942 16.4116 10.1699 16.4836V16.4836C10.9264 17.2037 12.308 17.4317 13.2558 16.9928L14.1164 16.5943C14.2111 16.5504 14.2266 16.4564 14.151 16.3844V16.3844Z" fill="#268766"/>
</g>
<g filter="url(#filter4_d)">
<path d="M24.4793 7.72461C24.7402 7.72461 24.9522 7.93658 24.9522 8.19748V11.4043C24.9522 14.0105 22.8406 16.1221 20.2344 16.1221H17.0276C16.7667 16.1221 16.5547 15.9102 16.5547 15.6493V12.4424C16.5547 9.83622 18.6663 7.72461 21.2725 7.72461H24.4793V7.72461Z" fill="#EDE221"/>
<g opacity="0.2" filter="url(#filter5_d)">
<path d="M20.2422 16.1217H17.0354C16.962 16.1217 16.8913 16.1054 16.8315 16.0755C21.4787 15.8636 24.0469 12.972 24.9519 11.7056C24.7942 14.1705 22.7479 16.1217 20.2422 16.1217Z" fill="#FFA400"/>
</g>
<g opacity="0.2" filter="url(#filter6_d)">
<path d="M16.6087 15.8474C16.5734 15.7794 16.5516 15.7033 16.5516 15.6245V12.4177C16.5516 11.1594 17.0462 10.0153 17.848 9.17012C18.0409 8.9663 18.2502 8.7815 18.4757 8.61572C18.0192 9.83323 17.0191 12.7411 16.6087 15.8474Z" fill="#FFA400"/>
</g>
</g>
<g filter="url(#filter7_d)">
<path d="M24.9497 24.4774C24.9497 24.7383 24.7377 24.9503 24.4768 24.9503H21.27C18.6637 24.9503 16.5521 22.8386 16.5521 20.2324V17.0256C16.5521 16.7647 16.7641 16.5527 17.025 16.5527H20.2318C22.838 16.5527 24.9497 18.6643 24.9497 21.2706V24.4774Z" fill="#EDE221"/>
<g opacity="0.2" filter="url(#filter8_d)">
<path d="M16.5516 20.2397V17.0329C16.5516 16.9595 16.5679 16.8889 16.5978 16.8291C16.8098 21.4763 19.7014 24.0445 20.9678 24.9494C18.5029 24.7945 16.5516 22.7454 16.5516 20.2397Z" fill="#FFA400"/>
</g>
<g opacity="0.2" filter="url(#filter9_d)">
<path d="M16.8259 16.6093C16.8939 16.574 16.97 16.5522 17.0488 16.5522H20.2556C21.5139 16.5522 22.658 17.0469 23.5032 17.8486C23.707 18.0415 23.8918 18.2508 24.0576 18.4763C22.8401 18.0171 19.9322 17.017 16.8259 16.6093Z" fill="#FFA400"/>
</g>
</g>
<g filter="url(#filter10_d)">
<path d="M8.19741 24.9502C7.93652 24.9502 7.72454 24.7382 7.72454 24.4773L7.72454 21.2705C7.72454 18.6643 9.83615 16.5527 12.4424 16.5527L15.6492 16.5527C15.9101 16.5527 16.1221 16.7646 16.1221 17.0255L16.1221 20.2324C16.1221 22.8386 14.0105 24.9502 11.4042 24.9502L8.19741 24.9502V24.9502Z" fill="#EDE221"/>
<g opacity="0.2" filter="url(#filter11_d)">
<path d="M12.4346 16.5531L15.6414 16.5531C15.7148 16.5531 15.7854 16.5694 15.8452 16.5993C11.198 16.8112 8.62987 19.7028 7.72489 20.9692C7.88251 18.5043 9.9289 16.5531 12.4346 16.5531Z" fill="#FFA400"/>
</g>
<g opacity="0.2" filter="url(#filter12_d)">
<path d="M16.0681 16.8274C16.1034 16.8954 16.1251 16.9715 16.1251 17.0503L16.1251 20.2571C16.1251 21.5154 15.6305 22.6595 14.8288 23.5047C14.6359 23.7085 14.4266 23.8933 14.201 24.0591C14.6576 22.8416 15.6577 19.9337 16.0681 16.8274Z" fill="#FFA400"/>
</g>
</g>
<g filter="url(#filter13_d)">
<path d="M7.72711 8.19741C7.72711 7.93652 7.93908 7.72454 8.19998 7.72454L11.4068 7.72454C14.013 7.72454 16.1246 9.83616 16.1246 12.4424L16.1246 15.6492C16.1246 15.9101 15.9127 16.1221 15.6518 16.1221L12.4449 16.1221C9.83872 16.1221 7.72711 14.0105 7.72711 11.4042L7.72711 8.19741Z" fill="#EDE221"/>
<g opacity="0.2" filter="url(#filter14_d)">
<path d="M16.1251 12.4351L16.1251 15.6419C16.1251 15.7153 16.1088 15.7859 16.0789 15.8457C15.8669 11.1985 12.9754 8.63035 11.7089 7.72537C14.1739 7.88028 16.1251 9.92939 16.1251 12.4351Z" fill="#FFA400"/>
</g>
<g opacity="0.2" filter="url(#filter15_d)">
<path d="M15.8507 16.0655C15.7828 16.1008 15.7067 16.1226 15.6279 16.1226L12.421 16.1226C11.1628 16.1226 10.0186 15.6279 9.17345 14.8262C8.96963 14.6333 8.78483 14.424 8.61905 14.1985C9.83655 14.6577 12.7444 15.6578 15.8507 16.0655Z" fill="#FFA400"/>
</g>
</g>
<g filter="url(#filter16_i)">
<path d="M16.5025 19.764C18.3036 19.764 19.7637 18.304 19.7637 16.5029C19.7637 14.7018 18.3036 13.2417 16.5025 13.2417C14.7014 13.2417 13.2413 14.7018 13.2413 16.5029C13.2413 18.304 14.7014 19.764 16.5025 19.764Z" fill="#FFA400"/>
</g>
<defs>
<filter id="filter0_d" x="16.6627" y="13.4638" width="9.54594" height="7.03302" filterUnits="userSpaceOnUse" color-interpolation-filters="sRGB">
<feFlood flood-opacity="0" result="BackgroundImageFix"/>
<feColorMatrix in="SourceAlpha" type="matrix" values="0 0 0 0 0 0 0 0 0 0 0 0 0 0 0 0 0 0 127 0"/>
<feOffset dx="0.546887" dy="0.546887"/>
<feGaussianBlur stdDeviation="1.36722"/>
<feColorMatrix type="matrix" values="0 0 0 0 0 0 0 0 0 0 0 0 0 0 0 0 0 0 0.15 0"/>
<feBlend mode="normal" in2="BackgroundImageFix" result="effect1_dropShadow"/>
<feBlend mode="normal" in="SourceGraphic" in2="effect1_dropShadow" result="shape"/>
</filter>
<filter id="filter1_d" x="13.4635" y="9.03804" width="7.03302" height="9.54594" filterUnits="userSpaceOnUse" color-interpolation-filters="sRGB">
<feFlood flood-opacity="0" result="BackgroundImageFix"/>
<feColorMatrix in="SourceAlpha" type="matrix" values="0 0 0 0 0 0 0 0 0 0 0 0 0 0 0 0 0 0 127 0"/>
<feOffset dx="0.546887" dy="0.546887"/>
<feGaussianBlur stdDeviation="1.36722"/>
<feColorMatrix type="matrix" values="0 0 0 0 0 0 0 0 0 0 0 0 0 0 0 0 0 0 0.15 0"/>
<feBlend mode="normal" in2="BackgroundImageFix" result="effect1_dropShadow"/>
<feBlend mode="normal" in="SourceGraphic" in2="effect1_dropShadow" result="shape"/>
</filter>
<filter id="filter2_d" x="13.4642" y="16.6625" width="7.03302" height="9.54594" filterUnits="userSpaceOnUse" color-interpolation-filters="sRGB">
<feFlood flood-opacity="0" result="BackgroundImageFix"/>
<feColorMatrix in="SourceAlpha" type="matrix" values="0 0 0 0 0 0 0 0 0 0 0 0 0 0 0 0 0 0 127 0"/>
<feOffset dx="0.546887" dy="0.546887"/>
<feGaussianBlur stdDeviation="1.36722"/>
<feColorMatrix type="matrix" values="0 0 0 0 0 0 0 0 0 0 0 0 0 0 0 0 0 0 0.15 0"/>
<feBlend mode="normal" in2="BackgroundImageFix" result="effect1_dropShadow"/>
<feBlend mode="normal" in="SourceGraphic" in2="effect1_dropShadow" result="shape"/>
</filter>
<filter id="filter3_d" x="7.9344" y="13.4643" width="9.54594" height="7.03302" filterUnits="userSpaceOnUse" color-interpolation-filters="sRGB">
<feFlood flood-opacity="0" result="BackgroundImageFix"/>
<feColorMatrix in="SourceAlpha" type="matrix" values="0 0 0 0 0 0 0 0 0 0 0 0 0 0 0 0 0 0 127 0"/>
<feOffset dx="0.546887" dy="0.546887"/>
<feGaussianBlur stdDeviation="1.36722"/>
<feColorMatrix type="matrix" values="0 0 0 0 0 0 0 0 0 0 0 0 0 0 0 0 0 0 0.15 0"/>
<feBlend mode="normal" in2="BackgroundImageFix" result="effect1_dropShadow"/>
<feBlend mode="normal" in="SourceGraphic" in2="effect1_dropShadow" result="shape"/>
</filter>
<filter id="filter4_d" x="13.8172" y="5.53706" width="13.8695" height="13.8664" filterUnits="userSpaceOnUse" color-interpolation-filters="sRGB">
<feFlood flood-opacity="0" result="BackgroundImageFix"/>
<feColorMatrix in="SourceAlpha" type="matrix" values="0 0 0 0 0 0 0 0 0 0 0 0 0 0 0 0 0 0 127 0"/>
<feOffset dy="0.546887"/>
<feGaussianBlur stdDeviation="1.36722"/>
<feColorMatrix type="matrix" values="0 0 0 0 0.458333 0 0 0 0 0.435896 0 0 0 0 0.0496528 0 0 0 0.15 0"/>
<feBlend mode="normal" in2="BackgroundImageFix" result="effect1_dropShadow"/>
<feBlend mode="normal" in="SourceGraphic" in2="effect1_dropShadow" result="shape"/>
</filter>
<filter id="filter5_d" x="14.0971" y="8.42424" width="13.5892" height="9.88505" filterUnits="userSpaceOnUse" color-interpolation-filters="sRGB">
<feFlood flood-opacity="0" result="BackgroundImageFix"/>
<feColorMatrix in="SourceAlpha" type="matrix" values="0 0 0 0 0 0 0 0 0 0 0 0 0 0 0 0 0 0 127 0"/>
<feOffset dy="-0.546887"/>
<feGaussianBlur stdDeviation="1.36722"/>
<feColorMatrix type="matrix" values="0 0 0 0 0 0 0 0 0 0 0 0 0 0 0 0 0 0 0.15 0"/>
<feBlend mode="normal" in2="BackgroundImageFix" result="effect1_dropShadow"/>
<feBlend mode="normal" in="SourceGraphic" in2="effect1_dropShadow" result="shape"/>
</filter>
<filter id="filter6_d" x="13.8172" y="5.3344" width="7.39297" height="12.7005" filterUnits="userSpaceOnUse" color-interpolation-filters="sRGB">
<feFlood flood-opacity="0" result="BackgroundImageFix"/>
<feColorMatrix in="SourceAlpha" type="matrix" values="0 0 0 0 0 0 0 0 0 0 0 0 0 0 0 0 0 0 127 0"/>
<feOffset dy="-0.546887"/>
<feGaussianBlur stdDeviation="1.36722"/>
<feColorMatrix type="matrix" values="0 0 0 0 0 0 0 0 0 0 0 0 0 0 0 0 0 0 0.15 0"/>
<feBlend mode="normal" in2="BackgroundImageFix" result="effect1_dropShadow"/>
<feBlend mode="normal" in="SourceGraphic" in2="effect1_dropShadow" result="shape"/>
</filter>
<filter id="filter7_d" x="13.8172" y="14.3647" width="13.8669" height="13.8669" filterUnits="userSpaceOnUse" color-interpolation-filters="sRGB">
<feFlood flood-opacity="0" result="BackgroundImageFix"/>
<feColorMatrix in="SourceAlpha" type="matrix" values="0 0 0 0 0 0 0 0 0 0 0 0 0 0 0 0 0 0 127 0"/>
<feOffset dy="0.546887"/>
<feGaussianBlur stdDeviation="1.36722"/>
<feColorMatrix type="matrix" values="0 0 0 0 0.458333 0 0 0 0 0.435896 0 0 0 0 0.0496528 0 0 0 0.15 0"/>
<feBlend mode="normal" in2="BackgroundImageFix" result="effect1_dropShadow"/>
<feBlend mode="normal" in="SourceGraphic" in2="effect1_dropShadow" result="shape"/>
</filter>
<filter id="filter8_d" x="13.8172" y="13.5478" width="9.88505" height="13.5892" filterUnits="userSpaceOnUse" color-interpolation-filters="sRGB">
<feFlood flood-opacity="0" result="BackgroundImageFix"/>
<feColorMatrix in="SourceAlpha" type="matrix" values="0 0 0 0 0 0 0 0 0 0 0 0 0 0 0 0 0 0 127 0"/>
<feOffset dy="-0.546887"/>
<feGaussianBlur stdDeviation="1.36722"/>
<feColorMatrix type="matrix" values="0 0 0 0 0 0 0 0 0 0 0 0 0 0 0 0 0 0 0.15 0"/>
<feBlend mode="normal" in2="BackgroundImageFix" result="effect1_dropShadow"/>
<feBlend mode="normal" in="SourceGraphic" in2="effect1_dropShadow" result="shape"/>
</filter>
<filter id="filter9_d" x="14.0915" y="14.3647" width="12.7005" height="7.39296" filterUnits="userSpaceOnUse" color-interpolation-filters="sRGB">
<feFlood flood-opacity="0" result="BackgroundImageFix"/>
<feColorMatrix in="SourceAlpha" type="matrix" values="0 0 0 0 0 0 0 0 0 0 0 0 0 0 0 0 0 0 127 0"/>
<feOffset dy="0.546887"/>
<feGaussianBlur stdDeviation="1.36722"/>
<feColorMatrix type="matrix" values="0 0 0 0 0 0 0 0 0 0 0 0 0 0 0 0 0 0 0.15 0"/>
<feBlend mode="normal" in2="BackgroundImageFix" result="effect1_dropShadow"/>
<feBlend mode="normal" in="SourceGraphic" in2="effect1_dropShadow" result="shape"/>
</filter>
<filter id="filter10_d" x="4.99005" y="14.3652" width="13.8695" height="13.8664" filterUnits="userSpaceOnUse" color-interpolation-filters="sRGB">
<feFlood flood-opacity="0" result="BackgroundImageFix"/>
<feColorMatrix in="SourceAlpha" type="matrix" values="0 0 0 0 0 0 0 0 0 0 0 0 0 0 0 0 0 0 127 0"/>
<feOffset dy="0.546887"/>
<feGaussianBlur stdDeviation="1.36722"/>
<feColorMatrix type="matrix" values="0 0 0 0 0.458333 0 0 0 0 0.435896 0 0 0 0 0.0496528 0 0 0 0.15 0"/>
<feBlend mode="normal" in2="BackgroundImageFix" result="effect1_dropShadow"/>
<feBlend mode="normal" in="SourceGraphic" in2="effect1_dropShadow" result="shape"/>
</filter>
<filter id="filter11_d" x="4.99042" y="13.2719" width="13.5892" height="9.88505" filterUnits="userSpaceOnUse" color-interpolation-filters="sRGB">
<feFlood flood-opacity="0" result="BackgroundImageFix"/>
<feColorMatrix in="SourceAlpha" type="matrix" values="0 0 0 0 0 0 0 0 0 0 0 0 0 0 0 0 0 0 127 0"/>
<feOffset dy="-0.546887"/>
<feGaussianBlur stdDeviation="1.36722"/>
<feColorMatrix type="matrix" values="0 0 0 0 0 0 0 0 0 0 0 0 0 0 0 0 0 0 0.15 0"/>
<feBlend mode="normal" in2="BackgroundImageFix" result="effect1_dropShadow"/>
<feBlend mode="normal" in="SourceGraphic" in2="effect1_dropShadow" result="shape"/>
</filter>
<filter id="filter12_d" x="11.4666" y="13.5463" width="7.39297" height="12.7005" filterUnits="userSpaceOnUse" color-interpolation-filters="sRGB">
<feFlood flood-opacity="0" result="BackgroundImageFix"/>
<feColorMatrix in="SourceAlpha" type="matrix" values="0 0 0 0 0 0 0 0 0 0 0 0 0 0 0 0 0 0 127 0"/>
<feOffset dy="-0.546887"/>
<feGaussianBlur stdDeviation="1.36722"/>
<feColorMatrix type="matrix" values="0 0 0 0 0 0 0 0 0 0 0 0 0 0 0 0 0 0 0.15 0"/>
<feBlend mode="normal" in2="BackgroundImageFix" result="effect1_dropShadow"/>
<feBlend mode="normal" in="SourceGraphic" in2="effect1_dropShadow" result="shape"/>
</filter>
<filter id="filter13_d" x="4.99261" y="5.53706" width="13.867" height="13.8666" filterUnits="userSpaceOnUse" color-interpolation-filters="sRGB">
<feFlood flood-opacity="0" result="BackgroundImageFix"/>
<feColorMatrix in="SourceAlpha" type="matrix" values="0 0 0 0 0 0 0 0 0 0 0 0 0 0 0 0 0 0 127 0"/>
<feOffset dy="0.546887"/>
<feGaussianBlur stdDeviation="1.36722"/>
<feColorMatrix type="matrix" values="0 0 0 0 0.458333 0 0 0 0 0.435896 0 0 0 0 0.0496528 0 0 0 0.15 0"/>
<feBlend mode="normal" in2="BackgroundImageFix" result="effect1_dropShadow"/>
<feBlend mode="normal" in="SourceGraphic" in2="effect1_dropShadow" result="shape"/>
</filter>
<filter id="filter14_d" x="8.97455" y="4.44426" width="9.88505" height="13.5892" filterUnits="userSpaceOnUse" color-interpolation-filters="sRGB">
<feFlood flood-opacity="0" result="BackgroundImageFix"/>
<feColorMatrix in="SourceAlpha" type="matrix" values="0 0 0 0 0 0 0 0 0 0 0 0 0 0 0 0 0 0 127 0"/>
<feOffset dy="-0.546887"/>
<feGaussianBlur stdDeviation="1.36722"/>
<feColorMatrix type="matrix" values="0 0 0 0 0 0 0 0 0 0 0 0 0 0 0 0 0 0 0.15 0"/>
<feBlend mode="normal" in2="BackgroundImageFix" result="effect1_dropShadow"/>
<feBlend mode="normal" in="SourceGraphic" in2="effect1_dropShadow" result="shape"/>
</filter>
<filter id="filter15_d" x="5.88458" y="12.0107" width="12.7005" height="7.39296" filterUnits="userSpaceOnUse" color-interpolation-filters="sRGB">
<feFlood flood-opacity="0" result="BackgroundImageFix"/>
<feColorMatrix in="SourceAlpha" type="matrix" values="0 0 0 0 0 0 0 0 0 0 0 0 0 0 0 0 0 0 127 0"/>
<feOffset dy="0.546887"/>
<feGaussianBlur stdDeviation="1.36722"/>
<feColorMatrix type="matrix" values="0 0 0 0 0 0 0 0 0 0 0 0 0 0 0 0 0 0 0.15 0"/>
<feBlend mode="normal" in2="BackgroundImageFix" result="effect1_dropShadow"/>
<feBlend mode="normal" in="SourceGraphic" in2="effect1_dropShadow" result="shape"/>
</filter>
<filter id="filter16_i" x="13.2413" y="13.2417" width="6.94673" height="6.94673" filterUnits="userSpaceOnUse" color-interpolation-filters="sRGB">
<feFlood flood-opacity="0" result="BackgroundImageFix"/>
<feBlend mode="normal" in="SourceGraphic" in2="BackgroundImageFix" result="shape"/>
<feColorMatrix in="SourceAlpha" type="matrix" values="0 0 0 0 0 0 0 0 0 0 0 0 0 0 0 0 0 0 127 0" result="hardAlpha"/>
<feOffset dx="0.424377" dy="0.424377"/>
<feGaussianBlur stdDeviation="1.32618"/>
<feComposite in2="hardAlpha" operator="arithmetic" k2="-1" k3="1"/>
<feColorMatrix type="matrix" values="0 0 0 0 0.458824 0 0 0 0 0.435294 0 0 0 0 0.0509804 0 0 0 0.15 0"/>
<feBlend mode="normal" in2="shape" result="effect1_innerShadow"/>
</filter>
</defs>
</svg>
