<svg width="113" height="113" viewBox="0 0 113 113" fill="none" xmlns="http://www.w3.org/2000/svg">
<g filter="url(#filter0_d)">
<path d="M83 57C83 71.3594 71.3594 83 57 83C42.6406 83 31 71.3594 31 57C31 42.6406 42.6406 31 57 31C71.3594 31 83 42.6406 83 57Z" fill="white"/>
<path d="M57 84.5C72.1878 84.5 84.5 72.1878 84.5 57C84.5 41.8122 72.1878 29.5 57 29.5C41.8122 29.5 29.5 41.8122 29.5 57C29.5 72.1878 41.8122 84.5 57 84.5Z" stroke="#00CF88" stroke-width="3"/>
</g>
<path d="M60.8266 57.8295C62.7238 59.6353 66.1884 60.2069 68.5651 59.1063L70.723 58.1071C70.9607 57.997 70.9995 57.7614 70.8098 57.5808C68.9127 55.775 65.448 55.2034 63.0714 56.304L60.9135 57.3033C60.6758 57.4133 60.6369 57.6489 60.8266 57.8295Z" fill="#00CF88"/>
<g filter="url(#filter1_d)">
<path d="M60.7095 57.7855C61.9389 58.9557 64.1841 59.3261 65.7242 58.6129L67.1226 57.9654C67.2766 57.8941 67.3018 57.7414 67.1788 57.6244C65.9495 56.4542 63.7043 56.0837 62.1642 56.7969L60.7658 57.4445C60.6118 57.5158 60.5866 57.6685 60.7095 57.7855Z" fill="#268766"/>
</g>
<path d="M56.8285 55.6719C58.6343 53.7748 59.2059 50.3101 58.1053 47.9334L57.1061 45.7756C56.996 45.5379 56.7604 45.499 56.5798 45.6887C54.7741 47.5859 54.2024 51.0505 55.303 53.4272L56.3023 55.5851C56.4123 55.8227 56.6479 55.8616 56.8285 55.6719Z" fill="#00CF88"/>
<g filter="url(#filter2_d)">
<path d="M56.7842 55.7885C57.9543 54.5591 58.3248 52.314 57.6116 50.7738L56.964 49.3755C56.8927 49.2215 56.74 49.1963 56.623 49.3192C55.4528 50.5486 55.0824 52.7937 55.7956 54.3339L56.4432 55.7322C56.5145 55.8863 56.6672 55.9114 56.7842 55.7885Z" fill="#268766"/>
</g>
<path d="M56.5799 61.8271C54.7742 63.7243 54.2025 67.1889 55.3031 69.5656L56.3024 71.7235C56.4124 71.9611 56.648 72 56.8286 71.8103C58.6344 69.9132 59.206 66.4485 58.1054 64.0718L57.1062 61.914C56.9961 61.6763 56.7605 61.6374 56.5799 61.8271Z" fill="#00CF88"/>
<g filter="url(#filter3_d)">
<path d="M56.6243 61.7095C55.4541 62.9389 55.0837 65.1841 55.7969 66.7242L56.4444 68.1226C56.5157 68.2766 56.6684 68.3018 56.7854 68.1788C57.9556 66.9495 58.326 64.7043 57.6128 63.1642L56.9653 61.7658C56.894 61.6118 56.7413 61.5866 56.6243 61.7095Z" fill="#268766"/>
</g>
<path d="M52.8782 57.5802C50.9811 55.7744 47.5164 55.2028 45.1397 56.3033L42.9819 57.3026C42.7442 57.4127 42.7053 57.6483 42.895 57.8289C44.7922 59.6346 48.2568 60.2063 50.6335 59.1057L52.7914 58.1064C53.029 57.9964 53.0679 57.7607 52.8782 57.5802Z" fill="#00CF88"/>
<g filter="url(#filter4_d)">
<path d="M52.9952 57.6246C51.7658 56.4545 49.5206 56.084 47.9805 56.7972L46.5821 57.4448C46.4281 57.5161 46.4029 57.6688 46.5259 57.7858C47.7553 58.956 50.0004 59.3264 51.5405 58.6132L52.9389 57.9657C53.0929 57.8943 53.1181 57.7417 52.9952 57.6246Z" fill="#268766"/>
</g>
<g filter="url(#filter5_d)">
<path d="M69.7789 43.5522C70.2029 43.5522 70.5473 43.8967 70.5473 44.3207V49.5317C70.5473 53.7669 67.116 57.1982 62.8809 57.1982H57.6698C57.2458 57.1982 56.9014 56.8538 56.9014 56.4298V51.2187C56.9014 46.9836 60.3327 43.5522 64.5678 43.5522H69.7789Z" fill="#EDE221"/>
<g opacity="0.2" filter="url(#filter6_d)">
<path d="M62.8935 57.1978H57.6824C57.5632 57.1978 57.4484 57.1713 57.3512 57.1227C64.9029 56.7782 69.0761 52.0794 70.5467 50.0215C70.2906 54.027 66.9652 57.1978 62.8935 57.1978Z" fill="#FFA400"/>
</g>
<g opacity="0.2" filter="url(#filter7_d)">
<path d="M56.9891 56.7519C56.9317 56.6415 56.8964 56.5179 56.8964 56.3898V51.1787C56.8964 49.134 57.7001 47.2748 59.0029 45.9014C59.3164 45.5702 59.6565 45.2699 60.023 45.0005C59.2811 46.9789 57.6559 51.7042 56.9891 56.7519Z" fill="#FFA400"/>
</g>
</g>
<g filter="url(#filter8_d)">
<path d="M70.543 70.775C70.543 71.199 70.1985 71.5434 69.7745 71.5434H64.5635C60.3283 71.5434 56.897 68.1121 56.897 63.877V58.6659C56.897 58.2419 57.2414 57.8975 57.6654 57.8975H62.8765C67.1116 57.8975 70.543 61.3288 70.543 65.5639V70.775Z" fill="#EDE221"/>
<g opacity="0.2" filter="url(#filter9_d)">
<path d="M56.8964 63.889V58.6779C56.8964 58.5587 56.9229 58.4438 56.9714 58.3467C57.3159 65.8983 62.0147 70.0716 64.0726 71.5422C60.0672 71.2905 56.8964 67.9607 56.8964 63.889Z" fill="#FFA400"/>
</g>
<g opacity="0.2" filter="url(#filter10_d)">
<path d="M57.3422 57.9897C57.4526 57.9323 57.5762 57.897 57.7043 57.897H62.9154C64.9601 57.897 66.8193 58.7007 68.1927 60.0035C68.5239 60.317 68.8242 60.6571 69.0936 61.0236C67.1152 60.2773 62.3899 58.6521 57.3422 57.9897Z" fill="#FFA400"/>
</g>
</g>
<g filter="url(#filter11_d)">
<path d="M43.3215 71.5439C42.8976 71.5439 42.5531 71.1995 42.5531 70.7755L42.5531 65.5644C42.5531 61.3293 45.9845 57.898 50.2196 57.898L55.4307 57.898C55.8546 57.898 56.1991 58.2424 56.1991 58.6664L56.1991 63.8775C56.1991 68.1126 52.7677 71.5439 48.5326 71.5439L43.3215 71.5439Z" fill="#EDE221"/>
<g opacity="0.2" filter="url(#filter12_d)">
<path d="M50.206 57.8989L55.4171 57.8989C55.5363 57.8989 55.6511 57.9254 55.7483 57.974C48.1966 58.3184 44.0233 63.0173 42.5528 65.0752C42.8089 61.0697 46.1343 57.8989 50.206 57.8989Z" fill="#FFA400"/>
</g>
<g opacity="0.2" filter="url(#filter13_d)">
<path d="M56.1105 58.3448C56.1679 58.4552 56.2032 58.5788 56.2032 58.7069L56.2032 63.918C56.2032 65.9627 55.3995 67.8219 54.0967 69.1953C53.7832 69.5265 53.4431 69.8268 53.0766 70.0962C53.8185 68.1177 55.4437 63.3924 56.1105 58.3448Z" fill="#FFA400"/>
</g>
</g>
<g filter="url(#filter14_d)">
<path d="M42.5568 44.3212C42.5568 43.8972 42.9012 43.5527 43.3252 43.5527L48.5363 43.5527C52.7714 43.5527 56.2028 46.9841 56.2028 51.2192L56.2028 56.4303C56.2028 56.8543 55.8583 57.1987 55.4343 57.1987L50.2233 57.1987C45.9881 57.1987 42.5568 53.7674 42.5568 49.5322L42.5568 44.3212Z" fill="#EDE221"/>
<g opacity="0.2" filter="url(#filter15_d)">
<path d="M56.2032 51.2067L56.2032 56.4178C56.2032 56.537 56.1767 56.6519 56.1282 56.749C55.7837 49.1974 51.0849 45.0241 49.027 43.5535C53.0324 43.8052 56.2032 47.135 56.2032 51.2067Z" fill="#FFA400"/>
</g>
<g opacity="0.2" filter="url(#filter16_d)">
<path d="M55.7573 57.1065C55.6469 57.1639 55.5233 57.1992 55.3952 57.1992L50.1841 57.1992C48.1394 57.1992 46.2802 56.3955 44.9068 55.0927C44.5756 54.7792 44.2753 54.4391 44.0059 54.0726C45.9843 54.8189 50.7096 56.4441 55.7573 57.1065Z" fill="#FFA400"/>
</g>
</g>
<g filter="url(#filter17_i)">
<path d="M56.8165 63.1164C59.7433 63.1164 62.1159 60.7438 62.1159 57.817C62.1159 54.8902 59.7433 52.5176 56.8165 52.5176C53.8897 52.5176 51.5171 54.8902 51.5171 57.817C51.5171 60.7438 53.8897 63.1164 56.8165 63.1164Z" fill="#FFA400"/>
</g>
<defs>
<filter id="filter0_d" x="13" y="13" width="88" height="88" filterUnits="userSpaceOnUse" color-interpolation-filters="sRGB">
<feFlood flood-opacity="0" result="BackgroundImageFix"/>
<feColorMatrix in="SourceAlpha" type="matrix" values="0 0 0 0 0 0 0 0 0 0 0 0 0 0 0 0 0 0 127 0"/>
<feOffset/>
<feGaussianBlur stdDeviation="7.5"/>
<feColorMatrix type="matrix" values="0 0 0 0 0 0 0 0 0 0 0 0 0 0 0 0 0 0 0.25 0"/>
<feBlend mode="normal" in2="BackgroundImageFix" result="effect1_dropShadow"/>
<feBlend mode="normal" in="SourceGraphic" in2="effect1_dropShadow" result="shape"/>
</filter>
<filter id="filter1_d" x="57.0768" y="52.8793" width="15.5121" height="11.4287" filterUnits="userSpaceOnUse" color-interpolation-filters="sRGB">
<feFlood flood-opacity="0" result="BackgroundImageFix"/>
<feColorMatrix in="SourceAlpha" type="matrix" values="0 0 0 0 0 0 0 0 0 0 0 0 0 0 0 0 0 0 127 0"/>
<feOffset dx="0.888692" dy="0.888692"/>
<feGaussianBlur stdDeviation="2.22173"/>
<feColorMatrix type="matrix" values="0 0 0 0 0 0 0 0 0 0 0 0 0 0 0 0 0 0 0.15 0"/>
<feBlend mode="normal" in2="BackgroundImageFix" result="effect1_dropShadow"/>
<feBlend mode="normal" in="SourceGraphic" in2="effect1_dropShadow" result="shape"/>
</filter>
<filter id="filter2_d" x="51.878" y="45.6864" width="11.4287" height="15.5121" filterUnits="userSpaceOnUse" color-interpolation-filters="sRGB">
<feFlood flood-opacity="0" result="BackgroundImageFix"/>
<feColorMatrix in="SourceAlpha" type="matrix" values="0 0 0 0 0 0 0 0 0 0 0 0 0 0 0 0 0 0 127 0"/>
<feOffset dx="0.888692" dy="0.888692"/>
<feGaussianBlur stdDeviation="2.22173"/>
<feColorMatrix type="matrix" values="0 0 0 0 0 0 0 0 0 0 0 0 0 0 0 0 0 0 0.15 0"/>
<feBlend mode="normal" in2="BackgroundImageFix" result="effect1_dropShadow"/>
<feBlend mode="normal" in="SourceGraphic" in2="effect1_dropShadow" result="shape"/>
</filter>
<filter id="filter3_d" x="51.8792" y="58.0766" width="11.4287" height="15.5121" filterUnits="userSpaceOnUse" color-interpolation-filters="sRGB">
<feFlood flood-opacity="0" result="BackgroundImageFix"/>
<feColorMatrix in="SourceAlpha" type="matrix" values="0 0 0 0 0 0 0 0 0 0 0 0 0 0 0 0 0 0 127 0"/>
<feOffset dx="0.888692" dy="0.888692"/>
<feGaussianBlur stdDeviation="2.22173"/>
<feColorMatrix type="matrix" values="0 0 0 0 0 0 0 0 0 0 0 0 0 0 0 0 0 0 0.15 0"/>
<feBlend mode="normal" in2="BackgroundImageFix" result="effect1_dropShadow"/>
<feBlend mode="normal" in="SourceGraphic" in2="effect1_dropShadow" result="shape"/>
</filter>
<filter id="filter4_d" x="42.8931" y="52.8798" width="15.5121" height="11.4287" filterUnits="userSpaceOnUse" color-interpolation-filters="sRGB">
<feFlood flood-opacity="0" result="BackgroundImageFix"/>
<feColorMatrix in="SourceAlpha" type="matrix" values="0 0 0 0 0 0 0 0 0 0 0 0 0 0 0 0 0 0 127 0"/>
<feOffset dx="0.888692" dy="0.888692"/>
<feGaussianBlur stdDeviation="2.22173"/>
<feColorMatrix type="matrix" values="0 0 0 0 0 0 0 0 0 0 0 0 0 0 0 0 0 0 0.15 0"/>
<feBlend mode="normal" in2="BackgroundImageFix" result="effect1_dropShadow"/>
<feBlend mode="normal" in="SourceGraphic" in2="effect1_dropShadow" result="shape"/>
</filter>
<filter id="filter5_d" x="52.4529" y="39.9975" width="22.5379" height="22.5329" filterUnits="userSpaceOnUse" color-interpolation-filters="sRGB">
<feFlood flood-opacity="0" result="BackgroundImageFix"/>
<feColorMatrix in="SourceAlpha" type="matrix" values="0 0 0 0 0 0 0 0 0 0 0 0 0 0 0 0 0 0 127 0"/>
<feOffset dy="0.888692"/>
<feGaussianBlur stdDeviation="2.22173"/>
<feColorMatrix type="matrix" values="0 0 0 0 0.458333 0 0 0 0 0.435896 0 0 0 0 0.0496528 0 0 0 0.15 0"/>
<feBlend mode="normal" in2="BackgroundImageFix" result="effect1_dropShadow"/>
<feBlend mode="normal" in="SourceGraphic" in2="effect1_dropShadow" result="shape"/>
</filter>
<filter id="filter6_d" x="52.9077" y="44.6893" width="22.0824" height="16.0632" filterUnits="userSpaceOnUse" color-interpolation-filters="sRGB">
<feFlood flood-opacity="0" result="BackgroundImageFix"/>
<feColorMatrix in="SourceAlpha" type="matrix" values="0 0 0 0 0 0 0 0 0 0 0 0 0 0 0 0 0 0 127 0"/>
<feOffset dy="-0.888692"/>
<feGaussianBlur stdDeviation="2.22173"/>
<feColorMatrix type="matrix" values="0 0 0 0 0 0 0 0 0 0 0 0 0 0 0 0 0 0 0.15 0"/>
<feBlend mode="normal" in2="BackgroundImageFix" result="effect1_dropShadow"/>
<feBlend mode="normal" in="SourceGraphic" in2="effect1_dropShadow" result="shape"/>
</filter>
<filter id="filter7_d" x="52.4529" y="39.6683" width="12.0136" height="20.6384" filterUnits="userSpaceOnUse" color-interpolation-filters="sRGB">
<feFlood flood-opacity="0" result="BackgroundImageFix"/>
<feColorMatrix in="SourceAlpha" type="matrix" values="0 0 0 0 0 0 0 0 0 0 0 0 0 0 0 0 0 0 127 0"/>
<feOffset dy="-0.888692"/>
<feGaussianBlur stdDeviation="2.22173"/>
<feColorMatrix type="matrix" values="0 0 0 0 0 0 0 0 0 0 0 0 0 0 0 0 0 0 0.15 0"/>
<feBlend mode="normal" in2="BackgroundImageFix" result="effect1_dropShadow"/>
<feBlend mode="normal" in="SourceGraphic" in2="effect1_dropShadow" result="shape"/>
</filter>
<filter id="filter8_d" x="52.4529" y="54.3422" width="22.5335" height="22.5334" filterUnits="userSpaceOnUse" color-interpolation-filters="sRGB">
<feFlood flood-opacity="0" result="BackgroundImageFix"/>
<feColorMatrix in="SourceAlpha" type="matrix" values="0 0 0 0 0 0 0 0 0 0 0 0 0 0 0 0 0 0 127 0"/>
<feOffset dy="0.888692"/>
<feGaussianBlur stdDeviation="2.22173"/>
<feColorMatrix type="matrix" values="0 0 0 0 0.458333 0 0 0 0 0.435896 0 0 0 0 0.0496528 0 0 0 0.15 0"/>
<feBlend mode="normal" in2="BackgroundImageFix" result="effect1_dropShadow"/>
<feBlend mode="normal" in="SourceGraphic" in2="effect1_dropShadow" result="shape"/>
</filter>
<filter id="filter9_d" x="52.4529" y="53.0145" width="16.0632" height="22.0825" filterUnits="userSpaceOnUse" color-interpolation-filters="sRGB">
<feFlood flood-opacity="0" result="BackgroundImageFix"/>
<feColorMatrix in="SourceAlpha" type="matrix" values="0 0 0 0 0 0 0 0 0 0 0 0 0 0 0 0 0 0 127 0"/>
<feOffset dy="-0.888692"/>
<feGaussianBlur stdDeviation="2.22173"/>
<feColorMatrix type="matrix" values="0 0 0 0 0 0 0 0 0 0 0 0 0 0 0 0 0 0 0.15 0"/>
<feBlend mode="normal" in2="BackgroundImageFix" result="effect1_dropShadow"/>
<feBlend mode="normal" in="SourceGraphic" in2="effect1_dropShadow" result="shape"/>
</filter>
<filter id="filter10_d" x="52.8987" y="54.3422" width="20.6384" height="12.0136" filterUnits="userSpaceOnUse" color-interpolation-filters="sRGB">
<feFlood flood-opacity="0" result="BackgroundImageFix"/>
<feColorMatrix in="SourceAlpha" type="matrix" values="0 0 0 0 0 0 0 0 0 0 0 0 0 0 0 0 0 0 127 0"/>
<feOffset dy="0.888692"/>
<feGaussianBlur stdDeviation="2.22173"/>
<feColorMatrix type="matrix" values="0 0 0 0 0 0 0 0 0 0 0 0 0 0 0 0 0 0 0.15 0"/>
<feBlend mode="normal" in2="BackgroundImageFix" result="effect1_dropShadow"/>
<feBlend mode="normal" in="SourceGraphic" in2="effect1_dropShadow" result="shape"/>
</filter>
<filter id="filter11_d" x="38.1093" y="54.3432" width="22.5374" height="22.5329" filterUnits="userSpaceOnUse" color-interpolation-filters="sRGB">
<feFlood flood-opacity="0" result="BackgroundImageFix"/>
<feColorMatrix in="SourceAlpha" type="matrix" values="0 0 0 0 0 0 0 0 0 0 0 0 0 0 0 0 0 0 127 0"/>
<feOffset dy="0.888692"/>
<feGaussianBlur stdDeviation="2.22173"/>
<feColorMatrix type="matrix" values="0 0 0 0 0.458333 0 0 0 0 0.435896 0 0 0 0 0.0496528 0 0 0 0.15 0"/>
<feBlend mode="normal" in2="BackgroundImageFix" result="effect1_dropShadow"/>
<feBlend mode="normal" in="SourceGraphic" in2="effect1_dropShadow" result="shape"/>
</filter>
<filter id="filter12_d" x="38.1093" y="52.5668" width="22.0824" height="16.0632" filterUnits="userSpaceOnUse" color-interpolation-filters="sRGB">
<feFlood flood-opacity="0" result="BackgroundImageFix"/>
<feColorMatrix in="SourceAlpha" type="matrix" values="0 0 0 0 0 0 0 0 0 0 0 0 0 0 0 0 0 0 127 0"/>
<feOffset dy="-0.888692"/>
<feGaussianBlur stdDeviation="2.22173"/>
<feColorMatrix type="matrix" values="0 0 0 0 0 0 0 0 0 0 0 0 0 0 0 0 0 0 0.15 0"/>
<feBlend mode="normal" in2="BackgroundImageFix" result="effect1_dropShadow"/>
<feBlend mode="normal" in="SourceGraphic" in2="effect1_dropShadow" result="shape"/>
</filter>
<filter id="filter13_d" x="48.6331" y="53.0126" width="12.0136" height="20.6384" filterUnits="userSpaceOnUse" color-interpolation-filters="sRGB">
<feFlood flood-opacity="0" result="BackgroundImageFix"/>
<feColorMatrix in="SourceAlpha" type="matrix" values="0 0 0 0 0 0 0 0 0 0 0 0 0 0 0 0 0 0 127 0"/>
<feOffset dy="-0.888692"/>
<feGaussianBlur stdDeviation="2.22173"/>
<feColorMatrix type="matrix" values="0 0 0 0 0 0 0 0 0 0 0 0 0 0 0 0 0 0 0.15 0"/>
<feBlend mode="normal" in2="BackgroundImageFix" result="effect1_dropShadow"/>
<feBlend mode="normal" in="SourceGraphic" in2="effect1_dropShadow" result="shape"/>
</filter>
<filter id="filter14_d" x="38.1133" y="39.998" width="22.5334" height="22.5336" filterUnits="userSpaceOnUse" color-interpolation-filters="sRGB">
<feFlood flood-opacity="0" result="BackgroundImageFix"/>
<feColorMatrix in="SourceAlpha" type="matrix" values="0 0 0 0 0 0 0 0 0 0 0 0 0 0 0 0 0 0 127 0"/>
<feOffset dy="0.888692"/>
<feGaussianBlur stdDeviation="2.22173"/>
<feColorMatrix type="matrix" values="0 0 0 0 0.458333 0 0 0 0 0.435896 0 0 0 0 0.0496528 0 0 0 0.15 0"/>
<feBlend mode="normal" in2="BackgroundImageFix" result="effect1_dropShadow"/>
<feBlend mode="normal" in="SourceGraphic" in2="effect1_dropShadow" result="shape"/>
</filter>
<filter id="filter15_d" x="44.5835" y="38.2216" width="16.0632" height="22.0825" filterUnits="userSpaceOnUse" color-interpolation-filters="sRGB">
<feFlood flood-opacity="0" result="BackgroundImageFix"/>
<feColorMatrix in="SourceAlpha" type="matrix" values="0 0 0 0 0 0 0 0 0 0 0 0 0 0 0 0 0 0 127 0"/>
<feOffset dy="-0.888692"/>
<feGaussianBlur stdDeviation="2.22173"/>
<feColorMatrix type="matrix" values="0 0 0 0 0 0 0 0 0 0 0 0 0 0 0 0 0 0 0.15 0"/>
<feBlend mode="normal" in2="BackgroundImageFix" result="effect1_dropShadow"/>
<feBlend mode="normal" in="SourceGraphic" in2="effect1_dropShadow" result="shape"/>
</filter>
<filter id="filter16_d" x="39.5624" y="50.518" width="20.6384" height="12.0136" filterUnits="userSpaceOnUse" color-interpolation-filters="sRGB">
<feFlood flood-opacity="0" result="BackgroundImageFix"/>
<feColorMatrix in="SourceAlpha" type="matrix" values="0 0 0 0 0 0 0 0 0 0 0 0 0 0 0 0 0 0 127 0"/>
<feOffset dy="0.888692"/>
<feGaussianBlur stdDeviation="2.22173"/>
<feColorMatrix type="matrix" values="0 0 0 0 0 0 0 0 0 0 0 0 0 0 0 0 0 0 0.15 0"/>
<feBlend mode="normal" in2="BackgroundImageFix" result="effect1_dropShadow"/>
<feBlend mode="normal" in="SourceGraphic" in2="effect1_dropShadow" result="shape"/>
</filter>
<filter id="filter17_i" x="51.5171" y="52.5176" width="11.2884" height="11.2884" filterUnits="userSpaceOnUse" color-interpolation-filters="sRGB">
<feFlood flood-opacity="0" result="BackgroundImageFix"/>
<feBlend mode="normal" in="SourceGraphic" in2="BackgroundImageFix" result="shape"/>
<feColorMatrix in="SourceAlpha" type="matrix" values="0 0 0 0 0 0 0 0 0 0 0 0 0 0 0 0 0 0 127 0" result="hardAlpha"/>
<feOffset dx="0.689612" dy="0.689612"/>
<feGaussianBlur stdDeviation="2.15504"/>
<feComposite in2="hardAlpha" operator="arithmetic" k2="-1" k3="1"/>
<feColorMatrix type="matrix" values="0 0 0 0 0.458824 0 0 0 0 0.435294 0 0 0 0 0.0509804 0 0 0 0.15 0"/>
<feBlend mode="normal" in2="shape" result="effect1_innerShadow"/>
</filter>
</defs>
</svg>
