<svg width="32" height="32" viewBox="0 0 32 32" fill="none" xmlns="http://www.w3.org/2000/svg">
<circle cx="16" cy="16" r="16" fill="white"/>
<path d="M16.2153 27.7324C16.8778 25.3268 18.6339 12.1981 14.8246 6.90576" stroke="#00CF8B" stroke-width="0.884035" stroke-linecap="round"/>
<path d="M16.2766 10.2148C16.1288 9.18063 15.1626 8.36872 14.1184 8.40133L13.4427 8.42243C13.3383 8.42569 13.2656 8.51217 13.2804 8.61559V8.61559C13.4282 9.64974 14.3944 10.4616 15.4385 10.429L16.1143 10.4079C16.2187 10.4047 16.2914 10.3182 16.2766 10.2148V10.2148Z" fill="#00CF88"/>
<g filter="url(#filter0_d)">
<path d="M16.3011 10.2525C16.2053 9.58233 15.5792 9.05619 14.9025 9.07732L14.4646 9.091C14.397 9.09311 14.3499 9.14915 14.3595 9.21617V9.21617C14.4552 9.88632 15.0814 10.4125 15.758 10.3913L16.1959 10.3776C16.2636 10.3755 16.3107 10.3195 16.3011 10.2525V10.2525Z" fill="#268766"/>
</g>
<g filter="url(#filter1_d)">
<path d="M12.8663 3.92547C12.9066 3.77479 13.0619 3.68516 13.2126 3.72554L15.0692 4.22302C16.5787 4.6275 17.474 6.17814 17.0695 7.68766L16.572 9.54429C16.5316 9.69497 16.3764 9.7846 16.2257 9.74422L14.3691 9.24674C12.8596 8.84227 11.9643 7.29162 12.3688 5.7821L12.8663 3.92547Z" fill="#00CD87"/>
<g opacity="0.5" filter="url(#filter2_d)">
<path d="M16.4076 6.52556C16.9063 6.66065 17.2048 7.17753 17.0734 7.67873C17.0726 7.68142 17.0719 7.68411 17.0712 7.6868L16.5737 9.54343C16.5333 9.69412 16.3781 9.78374 16.2274 9.74337L14.3708 9.24588C14.3681 9.24516 14.3654 9.24444 14.3627 9.24372C13.8639 9.10863 13.5645 8.59004 13.6969 8.09055C13.6976 8.08786 13.6984 8.08516 13.6991 8.08247L14.1966 6.22584C14.2369 6.07516 14.3922 5.98554 14.5429 6.02591L16.3995 6.52339C16.4022 6.52411 16.4049 6.52484 16.4076 6.52556Z" fill="#268766"/>
</g>
</g>
<g filter="url(#filter3_i)">
<path d="M16.2899 9.49914C13.1302 6.61155 12.8755 4.73927 12.863 4.14065C12.854 4.06732 12.8709 3.90048 13.0108 3.8197C13.1508 3.73891 13.2954 3.81247 13.3627 3.85213C14.6265 4.77162 16.2649 9.51357 16.2899 9.49914Z" fill="#00BC7E"/>
</g>
<path d="M16.4459 23.0595C15.3192 23.7162 13.8734 23.3351 13.2167 22.2084L12.8608 21.5976C12.7951 21.485 12.8332 21.3404 12.9459 21.2747V21.2747C14.0727 20.618 15.5184 20.9991 16.1751 22.1259L16.531 22.7366C16.5967 22.8493 16.5586 22.9939 16.4459 23.0595V23.0595Z" fill="#00CF88"/>
<g filter="url(#filter4_d)">
<path d="M16.4989 23.0547C15.7688 23.4802 14.8319 23.2333 14.4064 22.5031L14.1757 22.1074C14.1332 22.0343 14.1579 21.9406 14.2309 21.8981V21.8981C14.961 21.4726 15.8979 21.7195 16.3234 22.4497L16.5541 22.8454C16.5967 22.9184 16.572 23.0121 16.4989 23.0547V23.0547Z" fill="#268766"/>
</g>
<path d="M17.2078 19.584C17.645 17.1264 19.4667 11.481 23.2558 8.56104" stroke="#00CF8B" stroke-width="0.707228" stroke-linecap="round"/>
<path d="M17.0684 16.4583C16.4126 14.7649 14.2849 11.5813 11.0204 12.3941" stroke="#268766" stroke-width="0.707228" stroke-linecap="round"/>
<path d="M19.0713 13.8451C18.1412 13.126 17.8833 11.7292 18.4953 10.7253L18.8914 10.0756C18.9526 9.97521 19.0776 9.95213 19.1706 10.024V10.024C20.1008 10.7432 20.3586 12.14 19.7466 13.1439L19.3506 13.7936C19.2894 13.894 19.1643 13.9171 19.0713 13.8451V13.8451Z" fill="#00CF88"/>
<g filter="url(#filter5_d)">
<path d="M19.0945 13.8902C18.4918 13.4242 18.3247 12.519 18.7213 11.8685L18.9779 11.4475C19.0176 11.3824 19.0986 11.3675 19.1589 11.4141V11.4141C19.7616 11.8801 19.9287 12.7853 19.5321 13.4358L19.2755 13.8568C19.2358 13.9219 19.1548 13.9368 19.0945 13.8902V13.8902Z" fill="#268766"/>
</g>
<path d="M16.121 9.66557C15.7319 8.69608 16.1628 7.50983 17.0833 7.01599L17.6791 6.6964C17.7711 6.64701 17.8773 6.68557 17.9162 6.78252V6.78252C18.3053 7.75201 17.8745 8.93826 16.9539 9.43209L16.3582 9.75169C16.2661 9.80107 16.1599 9.76251 16.121 9.66557V9.66557Z" fill="#00CF88"/>
<g filter="url(#filter6_d)">
<path d="M16.1185 9.7103C15.8664 9.08205 16.1456 8.31333 16.7421 7.99332L17.1282 7.78621C17.1878 7.75421 17.2566 7.7792 17.2819 7.84202V7.84202C17.534 8.47027 17.2548 9.23899 16.6583 9.559L16.2722 9.76611C16.2125 9.79811 16.1437 9.77312 16.1185 9.7103V9.7103Z" fill="#268766"/>
</g>
<path d="M15.585 14.0205C15.0222 15.3729 13.4259 16.1369 12.0196 15.727L11.1095 15.4617C10.9688 15.4207 10.9005 15.2778 10.9567 15.1426V15.1426C11.5195 13.7902 13.1158 13.0262 14.5221 13.4361L15.4322 13.7014C15.5729 13.7424 15.6412 13.8853 15.585 14.0205V14.0205Z" fill="#00CF88"/>
<g filter="url(#filter7_d)">
<path d="M15.6313 13.9781C15.2666 14.8545 14.2322 15.3496 13.3209 15.0839L12.7311 14.912C12.64 14.8855 12.5957 14.7929 12.6321 14.7052V14.7052C12.9968 13.8289 14.0313 13.3338 14.9426 13.5994L15.5323 13.7713C15.6235 13.7979 15.6678 13.8905 15.6313 13.9781V13.9781Z" fill="#268766"/>
</g>
<path d="M13.8384 12.7827C13.0835 12.6748 12.4909 11.9695 12.5147 11.2073L12.5301 10.714C12.5324 10.6378 12.5956 10.5848 12.6711 10.5956V10.5956C13.426 10.7034 14.0186 11.4088 13.9948 12.171L13.9794 12.6642C13.977 12.7405 13.9139 12.7935 13.8384 12.7827V12.7827Z" fill="#00CF88"/>
<g filter="url(#filter8_d)">
<path d="M13.8656 12.8004C13.3764 12.7305 12.9924 12.2734 13.0078 11.7795L13.0178 11.4599C13.0193 11.4105 13.0602 11.3761 13.1091 11.3831V11.3831C13.5983 11.453 13.9824 11.91 13.967 12.404L13.957 12.7236C13.9554 12.773 13.9145 12.8074 13.8656 12.8004V12.8004Z" fill="#268766"/>
</g>
<path d="M18.3837 15.8621C19.3915 16.7109 20.8965 16.582 21.7453 15.5742L22.2054 15.0279C22.2902 14.9271 22.2773 14.7766 22.1766 14.6918V14.6918C21.1688 13.843 19.6638 13.9719 18.815 14.9797L18.3549 15.526C18.2701 15.6267 18.283 15.7772 18.3837 15.8621V15.8621Z" fill="#00CF88"/>
<g filter="url(#filter9_d)">
<path d="M18.3318 15.8484C18.9849 16.3984 19.9602 16.3148 20.5102 15.6618L20.8083 15.3078C20.8633 15.2425 20.8549 15.1449 20.7896 15.0899V15.0899C20.1366 14.5399 19.1613 14.6235 18.6113 15.2765L18.3131 15.6305C18.2581 15.6958 18.2665 15.7934 18.3318 15.8484V15.8484Z" fill="#268766"/>
</g>
<path d="M17.0427 22.5579C18.5206 22.4714 19.6486 21.2033 19.5621 19.7254L19.5153 18.9244C19.5066 18.7766 19.3798 18.6638 19.232 18.6724V18.6724C17.7541 18.7589 16.6262 20.027 16.7126 21.5049L16.7595 22.3059C16.7681 22.4537 16.8949 22.5665 17.0427 22.5579V22.5579Z" fill="#00CF88"/>
<g filter="url(#filter10_d)">
<path d="M16.9898 22.5868C17.9475 22.5308 18.6785 21.709 18.6225 20.7513L18.5921 20.2322C18.5865 20.1364 18.5043 20.0633 18.4085 20.0689V20.0689C17.4508 20.1249 16.7199 20.9467 16.7759 21.9044L16.8063 22.4235C16.8119 22.5193 16.8941 22.5924 16.9898 22.5868V22.5868Z" fill="#268766"/>
</g>
<path d="M17.6047 24.5922C15.3026 23.3156 12.8736 26.8038 11.9469 28.7076H21.0189C20.8401 27.8677 19.9069 25.8688 17.6047 24.5922Z" fill="#C4C4C4"/>
<path d="M17.6047 24.5922C15.3026 23.3156 12.8736 26.8038 11.9469 28.7076H21.0189C20.8401 27.8677 19.9069 25.8688 17.6047 24.5922Z" fill="#EDE221"/>
<path d="M21.2072 10.6468C21.8737 10.2892 23.3922 9.78841 24.1336 10.6468" stroke="#268766" stroke-width="0.442017" stroke-linecap="round"/>
<path d="M22.7561 10.0021C23.0366 9.24935 23.8742 8.86659 24.6269 9.14713L25.0349 9.2992C25.1102 9.32726 25.1485 9.41102 25.1204 9.48629V9.48629C24.8399 10.239 24.0023 10.6218 23.2496 10.3412L22.8416 10.1891C22.7663 10.1611 22.728 10.0773 22.7561 10.0021V10.0021Z" fill="#00CF88"/>
<g filter="url(#filter11_d)">
<path d="M22.7326 10.0248C22.9144 9.53702 23.4572 9.28898 23.945 9.47078L24.2093 9.56932C24.2581 9.5875 24.2829 9.64178 24.2647 9.69056V9.69056C24.0829 10.1783 23.5402 10.4264 23.0524 10.2446L22.788 10.146C22.7392 10.1278 22.7144 10.0736 22.7326 10.0248V10.0248Z" fill="#268766"/>
</g>
<defs>
<filter id="filter0_d" x="12.4442" y="7.16262" width="6.72918" height="6.10033" filterUnits="userSpaceOnUse" color-interpolation-filters="sRGB">
<feFlood flood-opacity="0" result="BackgroundImageFix"/>
<feColorMatrix in="SourceAlpha" type="matrix" values="0 0 0 0 0 0 0 0 0 0 0 0 0 0 0 0 0 0 127 0"/>
<feOffset dx="0.478511" dy="0.478511"/>
<feGaussianBlur stdDeviation="1.19628"/>
<feColorMatrix type="matrix" values="0 0 0 0 0 0 0 0 0 0 0 0 0 0 0 0 0 0 0.15 0"/>
<feBlend mode="normal" in2="BackgroundImageFix" result="effect1_dropShadow"/>
<feBlend mode="normal" in="SourceGraphic" in2="effect1_dropShadow" result="shape"/>
</filter>
<filter id="filter1_d" x="11.9936" y="3.71582" width="5.45095" height="6.59396" filterUnits="userSpaceOnUse" color-interpolation-filters="sRGB">
<feFlood flood-opacity="0" result="BackgroundImageFix"/>
<feColorMatrix in="SourceAlpha" type="matrix" values="0 0 0 0 0 0 0 0 0 0 0 0 0 0 0 0 0 0 127 0"/>
<feOffset dy="0.277957"/>
<feGaussianBlur stdDeviation="0.138978"/>
<feColorMatrix type="matrix" values="0 0 0 0 0 0 0 0 0 0 0 0 0 0 0 0 0 0 0.15 0"/>
<feBlend mode="normal" in2="BackgroundImageFix" result="effect1_dropShadow"/>
<feBlend mode="normal" in="SourceGraphic" in2="effect1_dropShadow" result="shape"/>
</filter>
<filter id="filter2_d" x="11.7849" y="4.51159" width="7.20008" height="7.49813" filterUnits="userSpaceOnUse" color-interpolation-filters="sRGB">
<feFlood flood-opacity="0" result="BackgroundImageFix"/>
<feColorMatrix in="SourceAlpha" type="matrix" values="0 0 0 0 0 0 0 0 0 0 0 0 0 0 0 0 0 0 127 0"/>
<feOffset dy="0.376131"/>
<feGaussianBlur stdDeviation="0.940327"/>
<feColorMatrix type="matrix" values="0 0 0 0 0.458333 0 0 0 0 0.435896 0 0 0 0 0.0496528 0 0 0 0.15 0"/>
<feBlend mode="normal" in2="BackgroundImageFix" result="effect1_dropShadow"/>
<feBlend mode="normal" in="SourceGraphic" in2="effect1_dropShadow" result="shape"/>
</filter>
<filter id="filter3_i" x="12.861" y="3.7832" width="3.42888" height="5.99376" filterUnits="userSpaceOnUse" color-interpolation-filters="sRGB">
<feFlood flood-opacity="0" result="BackgroundImageFix"/>
<feBlend mode="normal" in="SourceGraphic" in2="BackgroundImageFix" result="shape"/>
<feColorMatrix in="SourceAlpha" type="matrix" values="0 0 0 0 0 0 0 0 0 0 0 0 0 0 0 0 0 0 127 0" result="hardAlpha"/>
<feOffset dy="0.277957"/>
<feGaussianBlur stdDeviation="0.277957"/>
<feComposite in2="hardAlpha" operator="arithmetic" k2="-1" k3="1"/>
<feColorMatrix type="matrix" values="0 0 0 0 0 0 0 0 0 0 0 0 0 0 0 0 0 0 0.15 0"/>
<feBlend mode="normal" in2="shape" result="effect1_innerShadow"/>
</filter>
<filter id="filter4_d" x="12.2409" y="19.7759" width="7.20518" height="6.35848" filterUnits="userSpaceOnUse" color-interpolation-filters="sRGB">
<feFlood flood-opacity="0" result="BackgroundImageFix"/>
<feColorMatrix in="SourceAlpha" type="matrix" values="0 0 0 0 0 0 0 0 0 0 0 0 0 0 0 0 0 0 127 0"/>
<feOffset dx="0.478511" dy="0.478511"/>
<feGaussianBlur stdDeviation="1.19628"/>
<feColorMatrix type="matrix" values="0 0 0 0 0 0 0 0 0 0 0 0 0 0 0 0 0 0 0.15 0"/>
<feBlend mode="normal" in2="BackgroundImageFix" result="effect1_dropShadow"/>
<feBlend mode="normal" in="SourceGraphic" in2="effect1_dropShadow" result="shape"/>
</filter>
<filter id="filter5_d" x="16.5921" y="9.47268" width="6.02638" height="7.31549" filterUnits="userSpaceOnUse" color-interpolation-filters="sRGB">
<feFlood flood-opacity="0" result="BackgroundImageFix"/>
<feColorMatrix in="SourceAlpha" type="matrix" values="0 0 0 0 0 0 0 0 0 0 0 0 0 0 0 0 0 0 127 0"/>
<feOffset dx="0.478511" dy="0.478511"/>
<feGaussianBlur stdDeviation="1.19628"/>
<feColorMatrix type="matrix" values="0 0 0 0 0 0 0 0 0 0 0 0 0 0 0 0 0 0 0.15 0"/>
<feBlend mode="normal" in2="BackgroundImageFix" result="effect1_dropShadow"/>
<feBlend mode="normal" in="SourceGraphic" in2="effect1_dropShadow" result="shape"/>
</filter>
<filter id="filter6_d" x="14.1117" y="5.85842" width="6.13408" height="6.79287" filterUnits="userSpaceOnUse" color-interpolation-filters="sRGB">
<feFlood flood-opacity="0" result="BackgroundImageFix"/>
<feColorMatrix in="SourceAlpha" type="matrix" values="0 0 0 0 0 0 0 0 0 0 0 0 0 0 0 0 0 0 127 0"/>
<feOffset dx="0.478511" dy="0.478511"/>
<feGaussianBlur stdDeviation="1.19628"/>
<feColorMatrix type="matrix" values="0 0 0 0 0 0 0 0 0 0 0 0 0 0 0 0 0 0 0.15 0"/>
<feBlend mode="normal" in2="BackgroundImageFix" result="effect1_dropShadow"/>
<feBlend mode="normal" in="SourceGraphic" in2="effect1_dropShadow" result="shape"/>
</filter>
<filter id="filter7_d" x="10.7053" y="11.6138" width="7.80983" height="6.41311" filterUnits="userSpaceOnUse" color-interpolation-filters="sRGB">
<feFlood flood-opacity="0" result="BackgroundImageFix"/>
<feColorMatrix in="SourceAlpha" type="matrix" values="0 0 0 0 0 0 0 0 0 0 0 0 0 0 0 0 0 0 127 0"/>
<feOffset dx="0.478511" dy="0.478511"/>
<feGaussianBlur stdDeviation="1.19628"/>
<feColorMatrix type="matrix" values="0 0 0 0 0 0 0 0 0 0 0 0 0 0 0 0 0 0 0.15 0"/>
<feBlend mode="normal" in2="BackgroundImageFix" result="effect1_dropShadow"/>
<feBlend mode="normal" in="SourceGraphic" in2="effect1_dropShadow" result="shape"/>
</filter>
<filter id="filter8_d" x="11.0933" y="9.46828" width="5.74518" height="6.20423" filterUnits="userSpaceOnUse" color-interpolation-filters="sRGB">
<feFlood flood-opacity="0" result="BackgroundImageFix"/>
<feColorMatrix in="SourceAlpha" type="matrix" values="0 0 0 0 0 0 0 0 0 0 0 0 0 0 0 0 0 0 127 0"/>
<feOffset dx="0.478511" dy="0.478511"/>
<feGaussianBlur stdDeviation="1.19628"/>
<feColorMatrix type="matrix" values="0 0 0 0 0 0 0 0 0 0 0 0 0 0 0 0 0 0 0.15 0"/>
<feBlend mode="normal" in2="BackgroundImageFix" result="effect1_dropShadow"/>
<feBlend mode="normal" in="SourceGraphic" in2="effect1_dropShadow" result="shape"/>
</filter>
<filter id="filter9_d" x="16.3627" y="12.8125" width="7.35296" height="6.27059" filterUnits="userSpaceOnUse" color-interpolation-filters="sRGB">
<feFlood flood-opacity="0" result="BackgroundImageFix"/>
<feColorMatrix in="SourceAlpha" type="matrix" values="0 0 0 0 0 0 0 0 0 0 0 0 0 0 0 0 0 0 127 0"/>
<feOffset dx="0.478511" dy="0.478511"/>
<feGaussianBlur stdDeviation="1.19628"/>
<feColorMatrix type="matrix" values="0 0 0 0 0 0 0 0 0 0 0 0 0 0 0 0 0 0 0.15 0"/>
<feBlend mode="normal" in2="BackgroundImageFix" result="effect1_dropShadow"/>
<feBlend mode="normal" in="SourceGraphic" in2="effect1_dropShadow" result="shape"/>
</filter>
<filter id="filter10_d" x="14.8589" y="18.1548" width="6.63767" height="7.30355" filterUnits="userSpaceOnUse" color-interpolation-filters="sRGB">
<feFlood flood-opacity="0" result="BackgroundImageFix"/>
<feColorMatrix in="SourceAlpha" type="matrix" values="0 0 0 0 0 0 0 0 0 0 0 0 0 0 0 0 0 0 127 0"/>
<feOffset dx="0.478511" dy="0.478511"/>
<feGaussianBlur stdDeviation="1.19628"/>
<feColorMatrix type="matrix" values="0 0 0 0 0 0 0 0 0 0 0 0 0 0 0 0 0 0 0.15 0"/>
<feBlend mode="normal" in2="BackgroundImageFix" result="effect1_dropShadow"/>
<feBlend mode="normal" in="SourceGraphic" in2="effect1_dropShadow" result="shape"/>
</filter>
<filter id="filter11_d" x="20.8126" y="7.49709" width="6.32918" height="5.67811" filterUnits="userSpaceOnUse" color-interpolation-filters="sRGB">
<feFlood flood-opacity="0" result="BackgroundImageFix"/>
<feColorMatrix in="SourceAlpha" type="matrix" values="0 0 0 0 0 0 0 0 0 0 0 0 0 0 0 0 0 0 127 0"/>
<feOffset dx="0.478511" dy="0.478511"/>
<feGaussianBlur stdDeviation="1.19628"/>
<feColorMatrix type="matrix" values="0 0 0 0 0 0 0 0 0 0 0 0 0 0 0 0 0 0 0.15 0"/>
<feBlend mode="normal" in2="BackgroundImageFix" result="effect1_dropShadow"/>
<feBlend mode="normal" in="SourceGraphic" in2="effect1_dropShadow" result="shape"/>
</filter>
</defs>
</svg>
