<svg width="113" height="113" viewBox="0 0 113 113" fill="none" xmlns="http://www.w3.org/2000/svg">
<g filter="url(#filter0_d)">
<path d="M83 56C83 70.3594 71.3594 82 57 82C42.6406 82 31 70.3594 31 56C31 41.6406 42.6406 30 57 30C71.3594 30 83 41.6406 83 56Z" fill="white"/>
<path d="M57 83.5C72.1878 83.5 84.5 71.1878 84.5 56C84.5 40.8122 72.1878 28.5 57 28.5C41.8122 28.5 29.5 40.8122 29.5 56C29.5 71.1878 41.8122 83.5 57 83.5Z" stroke="#00CF88" stroke-width="3"/>
</g>
<path d="M56.35 76.065C57.4266 72.1558 60.2801 50.8218 54.0901 42.2217" stroke="#00CF88" stroke-width="1.43656" stroke-linecap="round"/>
<path d="M56.4494 47.5994C56.2093 45.9189 54.6392 44.5996 52.9424 44.6526L51.8443 44.6869C51.6747 44.6922 51.5566 44.8327 51.5806 45.0008C51.8207 46.6812 53.3909 48.0006 55.0876 47.9476L56.1857 47.9133C56.3554 47.908 56.4735 47.7675 56.4494 47.5994Z" fill="#00CF88"/>
<g filter="url(#filter1_d)">
<path d="M56.4893 47.6608C56.3337 46.5718 55.3162 45.7168 54.2167 45.7511L53.5051 45.7734C53.3951 45.7768 53.3186 45.8679 53.3342 45.9768C53.4898 47.0658 54.5073 47.9207 55.6068 47.8864L56.3184 47.8642C56.4283 47.8607 56.5048 47.7697 56.4893 47.6608Z" fill="#268766"/>
</g>
<g filter="url(#filter2_d)">
<path d="M50.9079 37.3788C50.9735 37.134 51.2258 36.9883 51.4707 37.0539L54.4877 37.8623C56.9406 38.5196 58.3955 41.0394 57.7382 43.4924L56.9298 46.5094C56.8642 46.7543 56.6119 46.8999 56.367 46.8343L53.35 46.0259C50.8971 45.3686 49.4422 42.8488 50.0995 40.3959L50.9079 37.3788Z" fill="#00CF88"/>
<g opacity="0.5" filter="url(#filter3_d)">
<path d="M56.6624 41.6037C57.473 41.8232 57.9579 42.6631 57.7443 43.4776C57.7432 43.4819 57.742 43.4863 57.7408 43.4907L56.9324 46.5077C56.8668 46.7526 56.6146 46.8982 56.3697 46.8326L53.3527 46.0242C53.3483 46.023 53.3439 46.0219 53.3396 46.0207C52.529 45.8012 52.0425 44.9585 52.2577 44.1468C52.2588 44.1424 52.26 44.138 52.2612 44.1337L53.0696 41.1166C53.1352 40.8718 53.3874 40.7261 53.6323 40.7917L56.6493 41.6001C56.6537 41.6013 56.6581 41.6025 56.6624 41.6037Z" fill="#268766"/>
</g>
</g>
<g filter="url(#filter4_i)">
<path d="M56.4712 46.4359C51.3367 41.7435 50.9227 38.7011 50.9025 37.7283C50.8879 37.6092 50.9154 37.338 51.1428 37.2068C51.3701 37.0755 51.6052 37.195 51.7146 37.2595C53.7683 38.7536 56.4306 46.4593 56.4712 46.4359Z" fill="#00CF88"/>
</g>
<path d="M56.7247 68.4717C54.8937 69.5388 52.5444 68.9195 51.4773 67.0885L50.8989 66.0961C50.7922 65.913 50.8541 65.6781 51.0372 65.5713C52.8681 64.5042 55.2175 65.1235 56.2846 66.9545L56.863 67.9469C56.9697 68.13 56.9078 68.3649 56.7247 68.4717Z" fill="#00CF88"/>
<g filter="url(#filter5_d)">
<path d="M56.8108 68.4637C55.6243 69.1552 54.1019 68.754 53.4104 67.5675L53.0356 66.9243C52.9664 66.8057 53.0066 66.6534 53.1252 66.5843C54.3117 65.8928 55.8341 66.2941 56.5256 67.4806L56.9005 68.1237C56.9696 68.2424 56.9295 68.3946 56.8108 68.4637Z" fill="#268766"/>
</g>
<path d="M57.9626 62.824C58.6731 58.8303 61.6334 49.6566 67.7907 44.9116" stroke="#00CF88" stroke-width="1.14925" stroke-linecap="round"/>
<path d="M57.7362 57.7444C56.6705 54.9927 53.213 49.8194 47.9082 51.1402" stroke="#268766" stroke-width="1.14925" stroke-linecap="round"/>
<path d="M60.991 53.4979C59.4795 52.3292 59.0605 50.0594 60.055 48.4281L60.6986 47.3724C60.7981 47.2092 61.0012 47.1717 61.1523 47.2886C62.6638 48.4572 63.0828 50.727 62.0883 52.3584L61.4447 53.4141C61.3453 53.5772 61.1421 53.6147 60.991 53.4979Z" fill="#00CF88"/>
<g filter="url(#filter6_d)">
<path d="M61.0287 53.5714C60.0492 52.8141 59.7777 51.3432 60.4221 50.2861L60.8392 49.602C60.9037 49.4963 61.0353 49.4719 61.1333 49.5477C62.1127 50.305 62.3843 51.7759 61.7398 52.833L61.3227 53.5171C61.2583 53.6229 61.1266 53.6472 61.0287 53.5714Z" fill="#268766"/>
</g>
<path d="M56.1967 46.7065C55.5644 45.1311 56.2646 43.2035 57.7605 42.401L58.7286 41.8816C58.8782 41.8014 59.0507 41.8641 59.1139 42.0216C59.7462 43.597 59.0461 45.5247 57.5502 46.3271L56.5821 46.8465C56.4325 46.9267 56.26 46.8641 56.1967 46.7065Z" fill="#00CF88"/>
<g filter="url(#filter7_d)">
<path d="M56.1927 46.7792C55.783 45.7583 56.2366 44.5091 57.206 43.9891L57.8334 43.6525C57.9303 43.6005 58.0421 43.6411 58.0831 43.7432C58.4928 44.7641 58.0392 46.0133 57.0698 46.5333L56.4424 46.8699C56.3455 46.9219 56.2337 46.8813 56.1927 46.7792Z" fill="#268766"/>
</g>
<path d="M55.3258 53.783C54.4112 55.9807 51.8173 57.2222 49.532 56.556L48.0531 56.1249C47.8245 56.0583 47.7134 55.8262 47.8049 55.6064C48.7194 53.4087 51.3134 52.1672 53.5986 52.8334L55.0776 53.2645C55.3061 53.3311 55.4172 53.5633 55.3258 53.783Z" fill="#00CF88"/>
<g filter="url(#filter8_d)">
<path d="M55.401 53.7139C54.8083 55.138 53.1274 55.9425 51.6465 55.5109L50.6881 55.2315C50.54 55.1883 50.468 55.0379 50.5273 54.8955C51.1199 53.4713 52.8009 52.6668 54.2818 53.0985L55.2401 53.3779C55.3882 53.421 55.4602 53.5715 55.401 53.7139Z" fill="#268766"/>
</g>
<path d="M52.4875 51.772C51.2608 51.5967 50.2977 50.4505 50.3364 49.212L50.3614 48.4104C50.3653 48.2865 50.4679 48.2003 50.5905 48.2179C51.8173 48.3932 52.7803 49.5393 52.7417 50.7779L52.7166 51.5795C52.7128 51.7033 52.6102 51.7895 52.4875 51.772Z" fill="#00CF88"/>
<g filter="url(#filter9_d)">
<path d="M52.5316 51.8004C51.7367 51.6868 51.1126 50.9441 51.1377 50.1415L51.1539 49.622C51.1564 49.5418 51.2229 49.4859 51.3024 49.4973C52.0973 49.6109 52.7214 50.3536 52.6963 51.1562L52.6801 51.6756C52.6776 51.7559 52.6111 51.8118 52.5316 51.8004Z" fill="#268766"/>
</g>
<path d="M59.8738 56.7756C61.5114 58.1549 63.9571 57.9454 65.3363 56.3077L66.0839 55.42C66.2218 55.2563 66.2009 55.0117 66.0371 54.8738C64.3995 53.4946 61.9538 53.7041 60.5746 55.3417L59.827 56.2294C59.689 56.3931 59.71 56.6377 59.8738 56.7756Z" fill="#00CF88"/>
<g filter="url(#filter10_d)">
<path d="M59.7893 56.7533C60.8505 57.647 62.4354 57.5113 63.3291 56.4501L63.8136 55.8748C63.903 55.7687 63.8894 55.6102 63.7833 55.5208C62.722 54.6271 61.1372 54.7628 60.2434 55.8241L59.759 56.3993C59.6696 56.5054 59.6832 56.6639 59.7893 56.7533Z" fill="#268766"/>
</g>
<path d="M57.6945 67.6567C60.096 67.5162 61.929 65.4555 61.7885 63.054L61.7124 61.7522C61.6983 61.5121 61.4923 61.3288 61.2521 61.3428C58.8506 61.4833 57.0176 63.544 57.1581 65.9456L57.2342 67.2473C57.2483 67.4874 57.4543 67.6707 57.6945 67.6567Z" fill="#00CF88"/>
<g filter="url(#filter11_d)">
<path d="M57.6086 67.7034C59.1648 67.6124 60.3526 66.277 60.2616 64.7207L60.2122 63.8772C60.2031 63.7216 60.0696 63.6028 59.914 63.6119C58.3577 63.7029 57.1699 65.0383 57.261 66.5945L57.3103 67.4381C57.3194 67.5937 57.4529 67.7125 57.6086 67.7034Z" fill="#268766"/>
</g>
<path d="M58.6078 70.9618C54.8668 68.8873 50.9197 74.5558 49.4138 77.6494H64.1559C63.8652 76.2846 62.3488 73.0363 58.6078 70.9618Z" fill="#C4C4C4"/>
<path d="M58.6078 70.9618C54.8668 68.8873 50.9197 74.5558 49.4138 77.6494H64.1559C63.8652 76.2846 62.3488 73.0363 58.6078 70.9618Z" fill="#EDE221"/>
<path d="M64.4617 48.301C65.5449 47.7198 68.0124 46.906 69.2172 48.301" stroke="#268766" stroke-width="0.718278" stroke-linecap="round"/>
<path d="M66.9786 47.2533C67.4345 46.0301 68.7956 45.4081 70.0188 45.864L70.6818 46.1111C70.8041 46.1567 70.8663 46.2928 70.8207 46.4152C70.3648 47.6383 69.0037 48.2603 67.7805 47.8044L67.1175 47.5573C66.9952 47.5117 66.933 47.3756 66.9786 47.2533Z" fill="#00CF88"/>
<g filter="url(#filter12_d)">
<path d="M66.9404 47.2906C67.2359 46.498 68.1179 46.095 68.9105 46.3904L69.3402 46.5505C69.4194 46.5801 69.4597 46.6683 69.4302 46.7475C69.1348 47.5402 68.2527 47.9432 67.4601 47.6478L67.0305 47.4877C66.9512 47.4581 66.9109 47.3699 66.9404 47.2906Z" fill="#268766"/>
</g>
<defs>
<filter id="filter0_d" x="13" y="12" width="88" height="88" filterUnits="userSpaceOnUse" color-interpolation-filters="sRGB">
<feFlood flood-opacity="0" result="BackgroundImageFix"/>
<feColorMatrix in="SourceAlpha" type="matrix" values="0 0 0 0 0 0 0 0 0 0 0 0 0 0 0 0 0 0 127 0"/>
<feOffset/>
<feGaussianBlur stdDeviation="7.5"/>
<feColorMatrix type="matrix" values="0 0 0 0 0 0 0 0 0 0 0 0 0 0 0 0 0 0 0.25 0"/>
<feBlend mode="normal" in2="BackgroundImageFix" result="effect1_dropShadow"/>
<feBlend mode="normal" in="SourceGraphic" in2="effect1_dropShadow" result="shape"/>
</filter>
<filter id="filter1_d" x="50.2218" y="42.6397" width="10.9349" height="9.91304" filterUnits="userSpaceOnUse" color-interpolation-filters="sRGB">
<feFlood flood-opacity="0" result="BackgroundImageFix"/>
<feColorMatrix in="SourceAlpha" type="matrix" values="0 0 0 0 0 0 0 0 0 0 0 0 0 0 0 0 0 0 127 0"/>
<feOffset dx="0.77758" dy="0.77758"/>
<feGaussianBlur stdDeviation="1.94395"/>
<feColorMatrix type="matrix" values="0 0 0 0 0 0 0 0 0 0 0 0 0 0 0 0 0 0 0.15 0"/>
<feBlend mode="normal" in2="BackgroundImageFix" result="effect1_dropShadow"/>
<feBlend mode="normal" in="SourceGraphic" in2="effect1_dropShadow" result="shape"/>
</filter>
<filter id="filter2_d" x="47.3099" y="35.1597" width="13.2178" height="14.472" filterUnits="userSpaceOnUse" color-interpolation-filters="sRGB">
<feFlood flood-opacity="0" result="BackgroundImageFix"/>
<feColorMatrix in="SourceAlpha" type="matrix" values="0 0 0 0 0 0 0 0 0 0 0 0 0 0 0 0 0 0 127 0"/>
<feOffset dy="0.45168"/>
<feGaussianBlur stdDeviation="0.22584"/>
<feColorMatrix type="matrix" values="0 0 0 0 0 0 0 0 0 0 0 0 0 0 0 0 0 0 0.15 0"/>
<feBlend mode="normal" in2="BackgroundImageFix" result="effect1_dropShadow"/>
<feBlend mode="normal" in="SourceGraphic" in2="effect1_dropShadow" result="shape"/>
</filter>
<filter id="filter3_d" x="47.6406" y="36.8994" width="14.7207" height="15.0482" filterUnits="userSpaceOnUse" color-interpolation-filters="sRGB">
<feFlood flood-opacity="0" result="BackgroundImageFix"/>
<feColorMatrix in="SourceAlpha" type="matrix" values="0 0 0 0 0 0 0 0 0 0 0 0 0 0 0 0 0 0 127 0"/>
<feOffset dy="0.611213"/>
<feGaussianBlur stdDeviation="1.52803"/>
<feColorMatrix type="matrix" values="0 0 0 0 0.458333 0 0 0 0 0.435896 0 0 0 0 0.0496528 0 0 0 0.15 0"/>
<feBlend mode="normal" in2="BackgroundImageFix" result="effect1_dropShadow"/>
<feBlend mode="normal" in="SourceGraphic" in2="effect1_dropShadow" result="shape"/>
</filter>
<filter id="filter4_i" x="50.0911" y="36.7949" width="7.09386" height="10.7001" filterUnits="userSpaceOnUse" color-interpolation-filters="sRGB">
<feFlood flood-opacity="0" result="BackgroundImageFix"/>
<feBlend mode="normal" in="SourceGraphic" in2="BackgroundImageFix" result="shape"/>
<feColorMatrix in="SourceAlpha" type="matrix" values="0 0 0 0 0 0 0 0 0 0 0 0 0 0 0 0 0 0 127 0" result="hardAlpha"/>
<feOffset dy="0.45168"/>
<feGaussianBlur stdDeviation="0.45168"/>
<feComposite in2="hardAlpha" operator="arithmetic" k2="-1" k3="1"/>
<feColorMatrix type="matrix" values="0 0 0 0 0 0 0 0 0 0 0 0 0 0 0 0 0 0 0.15 0"/>
<feBlend mode="normal" in2="shape" result="effect1_innerShadow"/>
</filter>
<filter id="filter5_d" x="49.8001" y="62.2217" width="11.8911" height="12.1594" filterUnits="userSpaceOnUse" color-interpolation-filters="sRGB">
<feFlood flood-opacity="0" result="BackgroundImageFix"/>
<feColorMatrix in="SourceAlpha" type="matrix" values="0 0 0 0 0 0 0 0 0 0 0 0 0 0 0 0 0 0 127 0"/>
<feOffset dx="0.77758" dy="0.77758"/>
<feGaussianBlur stdDeviation="1.94395"/>
<feColorMatrix type="matrix" values="0 0 0 0 0 0 0 0 0 0 0 0 0 0 0 0 0 0 0.15 0"/>
<feBlend mode="normal" in2="BackgroundImageFix" result="effect1_dropShadow"/>
<feBlend mode="normal" in="SourceGraphic" in2="effect1_dropShadow" result="shape"/>
</filter>
<filter id="filter6_d" x="56.9621" y="46.3931" width="9.79287" height="11.8877" filterUnits="userSpaceOnUse" color-interpolation-filters="sRGB">
<feFlood flood-opacity="0" result="BackgroundImageFix"/>
<feColorMatrix in="SourceAlpha" type="matrix" values="0 0 0 0 0 0 0 0 0 0 0 0 0 0 0 0 0 0 127 0"/>
<feOffset dx="0.77758" dy="0.77758"/>
<feGaussianBlur stdDeviation="1.94395"/>
<feColorMatrix type="matrix" values="0 0 0 0 0 0 0 0 0 0 0 0 0 0 0 0 0 0 0.15 0"/>
<feBlend mode="normal" in2="BackgroundImageFix" result="effect1_dropShadow"/>
<feBlend mode="normal" in="SourceGraphic" in2="effect1_dropShadow" result="shape"/>
</filter>
<filter id="filter7_d" x="52.9316" y="40.5196" width="9.96789" height="11.0384" filterUnits="userSpaceOnUse" color-interpolation-filters="sRGB">
<feFlood flood-opacity="0" result="BackgroundImageFix"/>
<feColorMatrix in="SourceAlpha" type="matrix" values="0 0 0 0 0 0 0 0 0 0 0 0 0 0 0 0 0 0 127 0"/>
<feOffset dx="0.77758" dy="0.77758"/>
<feGaussianBlur stdDeviation="1.94395"/>
<feColorMatrix type="matrix" values="0 0 0 0 0 0 0 0 0 0 0 0 0 0 0 0 0 0 0.15 0"/>
<feBlend mode="normal" in2="BackgroundImageFix" result="effect1_dropShadow"/>
<feBlend mode="normal" in="SourceGraphic" in2="effect1_dropShadow" result="shape"/>
</filter>
<filter id="filter8_d" x="47.3963" y="49.8716" width="12.691" height="10.4213" filterUnits="userSpaceOnUse" color-interpolation-filters="sRGB">
<feFlood flood-opacity="0" result="BackgroundImageFix"/>
<feColorMatrix in="SourceAlpha" type="matrix" values="0 0 0 0 0 0 0 0 0 0 0 0 0 0 0 0 0 0 127 0"/>
<feOffset dx="0.77758" dy="0.77758"/>
<feGaussianBlur stdDeviation="1.94395"/>
<feColorMatrix type="matrix" values="0 0 0 0 0 0 0 0 0 0 0 0 0 0 0 0 0 0 0.15 0"/>
<feBlend mode="normal" in2="BackgroundImageFix" result="effect1_dropShadow"/>
<feBlend mode="normal" in="SourceGraphic" in2="effect1_dropShadow" result="shape"/>
</filter>
<filter id="filter9_d" x="48.0266" y="46.3853" width="9.33592" height="10.0819" filterUnits="userSpaceOnUse" color-interpolation-filters="sRGB">
<feFlood flood-opacity="0" result="BackgroundImageFix"/>
<feColorMatrix in="SourceAlpha" type="matrix" values="0 0 0 0 0 0 0 0 0 0 0 0 0 0 0 0 0 0 127 0"/>
<feOffset dx="0.77758" dy="0.77758"/>
<feGaussianBlur stdDeviation="1.94395"/>
<feColorMatrix type="matrix" values="0 0 0 0 0 0 0 0 0 0 0 0 0 0 0 0 0 0 0.15 0"/>
<feBlend mode="normal" in2="BackgroundImageFix" result="effect1_dropShadow"/>
<feBlend mode="normal" in="SourceGraphic" in2="effect1_dropShadow" result="shape"/>
</filter>
<filter id="filter10_d" x="56.4868" y="50.792" width="12.1541" height="12.2449" filterUnits="userSpaceOnUse" color-interpolation-filters="sRGB">
<feFlood flood-opacity="0" result="BackgroundImageFix"/>
<feColorMatrix in="SourceAlpha" type="matrix" values="0 0 0 0 0 0 0 0 0 0 0 0 0 0 0 0 0 0 127 0"/>
<feOffset dx="0.77758" dy="0.77758"/>
<feGaussianBlur stdDeviation="1.94395"/>
<feColorMatrix type="matrix" values="0 0 0 0 0 0 0 0 0 0 0 0 0 0 0 0 0 0 0.15 0"/>
<feBlend mode="normal" in2="BackgroundImageFix" result="effect1_dropShadow"/>
<feBlend mode="normal" in="SourceGraphic" in2="effect1_dropShadow" result="shape"/>
</filter>
<filter id="filter11_d" x="53.9859" y="60.4849" width="11.1061" height="11.9003" filterUnits="userSpaceOnUse" color-interpolation-filters="sRGB">
<feFlood flood-opacity="0" result="BackgroundImageFix"/>
<feColorMatrix in="SourceAlpha" type="matrix" values="0 0 0 0 0 0 0 0 0 0 0 0 0 0 0 0 0 0 127 0"/>
<feOffset dx="0.77758" dy="0.77758"/>
<feGaussianBlur stdDeviation="1.94395"/>
<feColorMatrix type="matrix" values="0 0 0 0 0 0 0 0 0 0 0 0 0 0 0 0 0 0 0.15 0"/>
<feBlend mode="normal" in2="BackgroundImageFix" result="effect1_dropShadow"/>
<feBlend mode="normal" in="SourceGraphic" in2="effect1_dropShadow" result="shape"/>
</filter>
<filter id="filter12_d" x="63.8205" y="43.1831" width="10.2849" height="9.22692" filterUnits="userSpaceOnUse" color-interpolation-filters="sRGB">
<feFlood flood-opacity="0" result="BackgroundImageFix"/>
<feColorMatrix in="SourceAlpha" type="matrix" values="0 0 0 0 0 0 0 0 0 0 0 0 0 0 0 0 0 0 127 0"/>
<feOffset dx="0.77758" dy="0.77758"/>
<feGaussianBlur stdDeviation="1.94395"/>
<feColorMatrix type="matrix" values="0 0 0 0 0 0 0 0 0 0 0 0 0 0 0 0 0 0 0.15 0"/>
<feBlend mode="normal" in2="BackgroundImageFix" result="effect1_dropShadow"/>
<feBlend mode="normal" in="SourceGraphic" in2="effect1_dropShadow" result="shape"/>
</filter>
</defs>
</svg>
