<svg xmlns="http://www.w3.org/2000/svg" width="113" height="113" fill="none" viewBox="0 0 113 113"><g filter="url(#filter0_d)"><path fill="#fff" d="M82 57C82 71.3594 70.3594 83 56 83C41.6406 83 30 71.3594 30 57C30 42.6406 41.6406 31 56 31C70.3594 31 82 42.6406 82 57Z"/><path stroke="#00CF88" stroke-width="3" d="M56 84.5C71.1878 84.5 83.5 72.1878 83.5 57C83.5 41.8122 71.1878 29.5 56 29.5C40.8122 29.5 28.5 41.8122 28.5 57C28.5 72.1878 40.8122 84.5 56 84.5Z"/></g><path fill="#EDE221" d="M55.5791 40.814C56.0895 40.299 56.9189 40.299 57.4293 40.814L63.7182 47.1597C68.8314 52.319 68.8314 60.6787 63.7182 65.838L57.4293 72.1837C56.9189 72.6987 56.0895 72.6987 55.5791 72.1837L49.2902 65.838C44.177 60.6787 44.177 52.319 49.2902 47.1597L55.5791 40.814Z"/><g filter="url(#filter1_d)" opacity=".5"><path fill="#FFA400" d="M64.2747 59.3623C65.9672 61.1035 65.9672 63.9399 64.2747 65.6904C64.2656 65.6998 64.2564 65.7091 64.2472 65.7185L57.9348 72.1776C57.4225 72.7019 56.59 72.7019 56.0777 72.1776L49.7653 65.7185C49.7562 65.7091 49.747 65.6998 49.7378 65.6904C48.0454 63.9493 48.0454 61.1035 49.7378 59.3623C49.747 59.353 49.7562 59.3436 49.7653 59.3342L56.0777 52.8751C56.59 52.3509 57.4225 52.3509 57.9348 52.8751L64.2472 59.3342C64.2564 59.3436 64.2656 59.353 64.2747 59.3623Z"/></g><g filter="url(#filter2_i)"><path fill="#BBBE1D" d="M57.0811 72.5709C50.8715 52.5713 54.3089 44.0001 55.695 41.4287C55.8336 41.0954 56.3048 40.4287 57.081 40.4287C57.8572 40.4287 58.2823 41.0954 58.4671 41.4287C61.5165 48.4285 56.9425 72.5709 57.0811 72.5709Z"/></g><defs><filter id="filter0_d" width="88" height="88" x="12" y="13" color-interpolation-filters="sRGB" filterUnits="userSpaceOnUse"><feFlood flood-opacity="0" result="BackgroundImageFix"/><feColorMatrix in="SourceAlpha" type="matrix" values="0 0 0 0 0 0 0 0 0 0 0 0 0 0 0 0 0 0 127 0"/><feOffset/><feGaussianBlur stdDeviation="7.5"/><feColorMatrix type="matrix" values="0 0 0 0 0 0 0 0 0 0 0 0 0 0 0 0 0 0 0.25 0"/><feBlend in2="BackgroundImageFix" mode="normal" result="effect1_dropShadow"/><feBlend in="SourceGraphic" in2="effect1_dropShadow" mode="normal" result="shape"/></filter><filter id="filter1_d" width="53.215" height="56.228" x="30.399" y="38.026" color-interpolation-filters="sRGB" filterUnits="userSpaceOnUse"><feFlood flood-opacity="0" result="BackgroundImageFix"/><feColorMatrix in="SourceAlpha" type="matrix" values="0 0 0 0 0 0 0 0 0 0 0 0 0 0 0 0 0 0 127 0"/><feOffset dy="3.614"/><feGaussianBlur stdDeviation="9.035"/><feColorMatrix type="matrix" values="0 0 0 0 0.458333 0 0 0 0 0.435896 0 0 0 0 0.0496528 0 0 0 0.15 0"/><feBlend in2="BackgroundImageFix" mode="normal" result="effect1_dropShadow"/><feBlend in="SourceGraphic" in2="effect1_dropShadow" mode="normal" result="shape"/></filter><filter id="filter2_i" width="6.027" height="34.813" x="53.491" y="40.429" color-interpolation-filters="sRGB" filterUnits="userSpaceOnUse"><feFlood flood-opacity="0" result="BackgroundImageFix"/><feBlend in="SourceGraphic" in2="BackgroundImageFix" mode="normal" result="shape"/><feColorMatrix in="SourceAlpha" result="hardAlpha" type="matrix" values="0 0 0 0 0 0 0 0 0 0 0 0 0 0 0 0 0 0 127 0"/><feOffset dy="2.671"/><feGaussianBlur stdDeviation="2.671"/><feComposite in2="hardAlpha" k2="-1" k3="1" operator="arithmetic"/><feColorMatrix type="matrix" values="0 0 0 0 0 0 0 0 0 0 0 0 0 0 0 0 0 0 0.15 0"/><feBlend in2="shape" mode="normal" result="effect1_innerShadow"/></filter></defs></svg>