<svg width="29" height="29" viewBox="0 0 29 29" fill="none" xmlns="http://www.w3.org/2000/svg">
<g clip-path="url(#clip0)">
<circle cx="14.5" cy="14.5" r="14.5" fill="white"/>
<path d="M14.5458 5.44282C14.8405 5.14544 15.3194 5.14544 15.6141 5.44282L19.2456 9.10703C22.1981 12.0862 22.1981 16.9134 19.2456 19.8925L15.6141 23.5567C15.3194 23.8541 14.8405 23.8541 14.5458 23.5567L10.9143 19.8925C7.96182 16.9134 7.96182 12.0862 10.9143 9.10703L14.5458 5.44282Z" fill="#EDE221"/>
<g opacity="0.5" filter="url(#filter0_d)">
<path d="M19.567 16.1528C20.5443 17.1582 20.5443 18.796 19.567 19.8068C19.5617 19.8122 19.5564 19.8176 19.5511 19.823L15.9061 23.5528C15.6103 23.8555 15.1296 23.8555 14.8338 23.5528L11.1888 19.823C11.1835 19.8176 11.1782 19.8122 11.1729 19.8068C10.1956 18.8014 10.1956 17.1582 11.1729 16.1528C11.1782 16.1473 11.1835 16.1419 11.1888 16.1365L14.8338 12.4068C15.1296 12.1041 15.6103 12.1041 15.9061 12.4068L19.5511 16.1365C19.5564 16.1419 19.5617 16.1473 19.567 16.1528Z" fill="#FFA400"/>
</g>
<g filter="url(#filter1_i)">
<path d="M15.4131 23.7802C11.8275 12.2318 13.8123 7.28244 14.6127 5.79764C14.6928 5.60516 14.9649 5.22021 15.4131 5.22021C15.8613 5.22021 16.1067 5.60516 16.2134 5.79764C17.9742 9.83959 15.3331 23.7802 15.4131 23.7802Z" fill="#BBBE1D"/>
</g>
</g>
<defs>
<filter id="filter0_d" x="-1.07347" y="2.96908" width="32.8868" height="34.6268" filterUnits="userSpaceOnUse" color-interpolation-filters="sRGB">
<feFlood flood-opacity="0" result="BackgroundImageFix"/>
<feColorMatrix in="SourceAlpha" type="matrix" values="0 0 0 0 0 0 0 0 0 0 0 0 0 0 0 0 0 0 127 0"/>
<feOffset dy="2.30268"/>
<feGaussianBlur stdDeviation="5.75671"/>
<feColorMatrix type="matrix" values="0 0 0 0 0.458333 0 0 0 0 0.435896 0 0 0 0 0.0496528 0 0 0 0.15 0"/>
<feBlend mode="normal" in2="BackgroundImageFix" result="effect1_dropShadow"/>
<feBlend mode="normal" in="SourceGraphic" in2="effect1_dropShadow" result="shape"/>
</filter>
<filter id="filter1_i" x="13.34" y="5.22021" width="3.48" height="20.2617" filterUnits="userSpaceOnUse" color-interpolation-filters="sRGB">
<feFlood flood-opacity="0" result="BackgroundImageFix"/>
<feBlend mode="normal" in="SourceGraphic" in2="BackgroundImageFix" result="shape"/>
<feColorMatrix in="SourceAlpha" type="matrix" values="0 0 0 0 0 0 0 0 0 0 0 0 0 0 0 0 0 0 127 0" result="hardAlpha"/>
<feOffset dy="1.70166"/>
<feGaussianBlur stdDeviation="1.70166"/>
<feComposite in2="hardAlpha" operator="arithmetic" k2="-1" k3="1"/>
<feColorMatrix type="matrix" values="0 0 0 0 0 0 0 0 0 0 0 0 0 0 0 0 0 0 0.15 0"/>
<feBlend mode="normal" in2="shape" result="effect1_innerShadow"/>
</filter>
<clipPath id="clip0">
<rect width="29" height="29" fill="white"/>
</clipPath>
</defs>
</svg>
