<svg xmlns="http://www.w3.org/2000/svg" width="113" height="113" fill="none" viewBox="0 0 113 113"><g filter="url(#filter0_d)"><path fill="#fff" d="M82 56C82 70.3594 70.3594 82 56 82C41.6406 82 30 70.3594 30 56C30 41.6406 41.6406 30 56 30C70.3594 30 82 41.6406 82 56Z"/><path stroke="#00CF88" stroke-width="3" d="M56 83.5C71.1878 83.5 83.5 71.1878 83.5 56C83.5 40.8122 71.1878 28.5 56 28.5C40.8122 28.5 28.5 40.8122 28.5 56C28.5 71.1878 40.8122 83.5 56 83.5Z"/></g><path fill="#EDE221" d="M55.6269 62.6443C55.8368 62.4335 56.1778 62.4335 56.3877 62.6443L58.9736 65.2423C61.076 67.3546 61.076 70.7771 58.9736 72.8894L56.3877 75.4874C56.1778 75.6982 55.8368 75.6982 55.6269 75.4874L53.0411 72.8894C50.9386 70.7771 50.9386 67.3546 53.0411 65.2423L55.6269 62.6443Z"/><g filter="url(#filter1_i)"><path fill="#BBBE1D" d="M56.0275 75.6446C53.2834 67.4566 54.8024 63.9475 55.4149 62.8948C55.4762 62.7583 55.6844 62.4854 56.0274 62.4854C56.3704 62.4854 56.5583 62.7583 56.6399 62.8948C57.9875 65.7606 55.9662 75.6446 56.0275 75.6446Z"/></g><path stroke="#00CF88" stroke-linecap="round" stroke-width="1.946" d="M55.8285 72.6683C56.5446 70.0977 56.9139 51.2217 52.796 45.5664"/><path fill="#00CF88" d="M53.7891 47.294C53.5912 45.9089 52.2971 44.8215 50.8987 44.8652L49.9937 44.8935C49.8539 44.8978 49.7565 45.0137 49.7763 45.1522C49.9742 46.5372 51.2683 47.6246 52.6667 47.5809L53.5718 47.5526C53.7116 47.5483 53.8089 47.4325 53.7891 47.294Z"/><g filter="url(#filter2_d)"><path fill="#268766" d="M53.8219 47.3444C53.6937 46.4468 52.8551 45.7422 51.9489 45.7705L51.3624 45.7888C51.2718 45.7916 51.2087 45.8667 51.2216 45.9564C51.3498 46.854 52.1884 47.5586 53.0946 47.5303L53.6811 47.512C53.7717 47.5092 53.8348 47.4341 53.8219 47.3444Z"/></g><path fill="#00CF88" d="M56.0853 63.3944C54.3787 64.389 52.189 63.8118 51.1943 62.1053L50.6552 61.1802C50.5558 61.0096 50.6135 60.7906 50.7841 60.6911C52.4907 59.6965 54.6805 60.2737 55.6751 61.9803L56.2142 62.9053C56.3137 63.076 56.256 63.295 56.0853 63.3944Z"/><g filter="url(#filter3_d)"><path fill="#268766" d="M56.1657 63.3872C55.0598 64.0317 53.6408 63.6577 52.9963 62.5518L52.647 61.9523C52.5825 61.8417 52.6199 61.6998 52.7305 61.6354C53.8364 60.9909 55.2554 61.3649 55.8999 62.4708L56.2493 63.0702C56.3137 63.1808 56.2763 63.3227 56.1657 63.3872Z"/></g><path stroke="#00CF88" stroke-linecap="round" stroke-width="1.168" d="M56.3208 59.9796C56.7908 57.3425 58.749 51.285 62.8221 48.1519"/><path stroke="#268766" stroke-linecap="round" stroke-width="1.168" d="M55.1459 53.7914C54.4409 51.9637 52.1537 48.5277 48.6445 49.405"/><path fill="#00CF88" d="M59.4262 51.3185C57.8433 50.0947 57.4045 47.7176 58.446 46.0093L59.12 44.9036C59.2241 44.7328 59.4369 44.6935 59.5952 44.8159C61.178 46.0398 61.6169 48.4168 60.5754 50.1252L59.9014 51.2308C59.7972 51.4017 59.5845 51.4409 59.4262 51.3185Z"/><g filter="url(#filter4_d)"><path fill="#268766" d="M59.4654 51.3945C58.4397 50.6014 58.1553 49.061 58.8302 47.954L59.267 47.2375C59.3345 47.1268 59.4723 47.1014 59.5749 47.1807C60.6006 47.9738 60.885 49.5141 60.2101 50.6212L59.7733 51.3377C59.7058 51.4484 59.5679 51.4738 59.4654 51.3945Z"/></g><path fill="#00CF88" d="M53.5818 46.5624C53.0606 45.264 53.6376 43.6753 54.8706 43.0139L55.6685 42.5858C55.7918 42.5197 55.9339 42.5713 55.9861 42.7012C56.5072 43.9996 55.9302 45.5884 54.6973 46.2497L53.8993 46.6778C53.7761 46.7439 53.6339 46.6923 53.5818 46.5624Z"/><g filter="url(#filter5_d)"><path fill="#268766" d="M53.5783 46.6226C53.2406 45.7812 53.6145 44.7517 54.4134 44.3231L54.9305 44.0457C55.0104 44.0028 55.1025 44.0363 55.1363 44.1205C55.474 44.9619 55.1001 45.9914 54.3011 46.42L53.7841 46.6974C53.7042 46.7402 53.612 46.7068 53.5783 46.6226Z"/></g><path fill="#00CF88" d="M53.4385 51.2437C52.6698 53.0909 50.4895 54.1345 48.5686 53.5745L47.3255 53.2121C47.1334 53.1562 47.04 52.961 47.1168 52.7763C47.8856 50.9291 50.0659 49.8855 51.9868 50.4454L53.2299 50.8078C53.422 50.8638 53.5154 51.0589 53.4385 51.2437Z"/><g filter="url(#filter6_d)"><path fill="#268766" d="M53.5018 51.1861C53.0037 52.3831 51.5908 53.0594 50.346 52.6965L49.5404 52.4617C49.416 52.4254 49.3554 52.299 49.4053 52.1792C49.9034 50.9822 51.3163 50.3059 52.5611 50.6688L53.3667 50.9036C53.4911 50.9399 53.5517 51.0664 53.5018 51.1861Z"/></g><path fill="#00CF88" d="M51.0533 49.5539C50.0222 49.4066 49.2126 48.4431 49.2451 47.4021L49.2662 46.7283C49.2694 46.6242 49.3557 46.5517 49.4588 46.5665C50.4899 46.7138 51.2994 47.6772 51.2669 48.7183L51.2459 49.3921C51.2426 49.4962 51.1564 49.5686 51.0533 49.5539Z"/><g filter="url(#filter7_d)"><path fill="#268766" d="M51.0906 49.5772C50.4224 49.4817 49.8978 48.8574 49.9189 48.1827L49.9325 47.7461C49.9346 47.6787 49.9905 47.6317 50.0573 47.6413C50.7255 47.7367 51.2501 48.361 51.229 49.0357L51.2154 49.4723C51.2133 49.5398 51.1574 49.5867 51.0906 49.5772Z"/></g><path fill="#00CF88" d="M58.2561 54.7509C59.9712 56.1953 62.5324 55.9759 63.9767 54.2609L64.7597 53.3313C64.9041 53.1598 64.8822 52.9037 64.7107 52.7592C62.9956 51.3148 60.4344 51.5342 58.99 53.2492L58.2071 54.1788C58.0627 54.3504 58.0846 54.6065 58.2561 54.7509Z"/><g filter="url(#filter8_d)"><path fill="#268766" d="M58.1676 54.7281C59.279 55.6641 60.9387 55.5219 61.8747 54.4105L62.382 53.8081C62.4756 53.697 62.4614 53.531 62.3503 53.4374C61.2389 52.5014 59.5792 52.6436 58.6432 53.755L58.1359 54.3574C58.0423 54.4685 58.0565 54.6345 58.1676 54.7281Z"/></g><path fill="#00CF88" d="M56.9893 62.6335C59.2277 62.5026 60.9361 60.5819 60.8052 58.3435L60.7342 57.1302C60.7211 56.9064 60.529 56.7355 60.3052 56.7486C58.0668 56.8795 56.3584 58.8003 56.4893 61.0387L56.5603 62.252C56.5734 62.4758 56.7654 62.6466 56.9893 62.6335Z"/><g filter="url(#filter9_d)"><path fill="#268766" d="M56.9092 62.6785C58.3598 62.5937 59.4669 61.349 59.382 59.8985L59.336 59.1122C59.3276 58.9672 59.2031 58.8565 59.058 58.865C57.6075 58.9498 56.5004 60.1945 56.5852 61.645L56.6312 62.4312C56.6397 62.5763 56.7642 62.687 56.9092 62.6785Z"/></g><defs><filter id="filter0_d" width="88" height="88" x="12" y="12" color-interpolation-filters="sRGB" filterUnits="userSpaceOnUse"><feFlood flood-opacity="0" result="BackgroundImageFix"/><feColorMatrix in="SourceAlpha" type="matrix" values="0 0 0 0 0 0 0 0 0 0 0 0 0 0 0 0 0 0 127 0"/><feOffset/><feGaussianBlur stdDeviation="7.5"/><feColorMatrix type="matrix" values="0 0 0 0 0 0 0 0 0 0 0 0 0 0 0 0 0 0 0.25 0"/><feBlend in2="BackgroundImageFix" mode="normal" result="effect1_dropShadow"/><feBlend in="SourceGraphic" in2="effect1_dropShadow" mode="normal" result="shape"/></filter><filter id="filter1_i" width="2.663" height="13.938" x="54.441" y="62.485" color-interpolation-filters="sRGB" filterUnits="userSpaceOnUse"><feFlood flood-opacity="0" result="BackgroundImageFix"/><feBlend in="SourceGraphic" in2="BackgroundImageFix" mode="normal" result="shape"/><feColorMatrix in="SourceAlpha" result="hardAlpha" type="matrix" values="0 0 0 0 0 0 0 0 0 0 0 0 0 0 0 0 0 0 127 0"/><feOffset dy=".779"/><feGaussianBlur stdDeviation=".779"/><feComposite in2="hardAlpha" k2="-1" k3="1" operator="arithmetic"/><feColorMatrix type="matrix" values="0 0 0 0 0 0 0 0 0 0 0 0 0 0 0 0 0 0 0.15 0"/><feBlend in2="shape" mode="normal" result="effect1_innerShadow"/></filter><filter id="filter2_d" width="13.139" height="12.296" x="47.006" y="41.556" color-interpolation-filters="sRGB" filterUnits="userSpaceOnUse"><feFlood flood-opacity="0" result="BackgroundImageFix"/><feColorMatrix in="SourceAlpha" type="matrix" values="0 0 0 0 0 0 0 0 0 0 0 0 0 0 0 0 0 0 127 0"/><feOffset dx="1.054" dy="1.054"/><feGaussianBlur stdDeviation="2.634"/><feColorMatrix type="matrix" values="0 0 0 0 0 0 0 0 0 0 0 0 0 0 0 0 0 0 0.15 0"/><feBlend in2="BackgroundImageFix" mode="normal" result="effect1_dropShadow"/><feBlend in="SourceGraphic" in2="effect1_dropShadow" mode="normal" result="shape"/></filter><filter id="filter3_d" width="14.371" height="14.621" x="48.316" y="56.254" color-interpolation-filters="sRGB" filterUnits="userSpaceOnUse"><feFlood flood-opacity="0" result="BackgroundImageFix"/><feColorMatrix in="SourceAlpha" type="matrix" values="0 0 0 0 0 0 0 0 0 0 0 0 0 0 0 0 0 0 127 0"/><feOffset dx="1.054" dy="1.054"/><feGaussianBlur stdDeviation="2.634"/><feColorMatrix type="matrix" values="0 0 0 0 0 0 0 0 0 0 0 0 0 0 0 0 0 0 0.15 0"/><feBlend in2="BackgroundImageFix" mode="normal" result="effect1_dropShadow"/><feBlend in="SourceGraphic" in2="effect1_dropShadow" mode="normal" result="shape"/></filter><filter id="filter4_d" width="12.647" height="14.841" x="54.25" y="42.92" color-interpolation-filters="sRGB" filterUnits="userSpaceOnUse"><feFlood flood-opacity="0" result="BackgroundImageFix"/><feColorMatrix in="SourceAlpha" type="matrix" values="0 0 0 0 0 0 0 0 0 0 0 0 0 0 0 0 0 0 127 0"/><feOffset dx="1.054" dy="1.054"/><feGaussianBlur stdDeviation="2.634"/><feColorMatrix type="matrix" values="0 0 0 0 0 0 0 0 0 0 0 0 0 0 0 0 0 0 0.15 0"/><feBlend in2="BackgroundImageFix" mode="normal" result="effect1_dropShadow"/><feBlend in="SourceGraphic" in2="effect1_dropShadow" mode="normal" result="shape"/></filter><filter id="filter5_d" width="12.342" height="13.224" x="49.24" y="39.813" color-interpolation-filters="sRGB" filterUnits="userSpaceOnUse"><feFlood flood-opacity="0" result="BackgroundImageFix"/><feColorMatrix in="SourceAlpha" type="matrix" values="0 0 0 0 0 0 0 0 0 0 0 0 0 0 0 0 0 0 127 0"/><feOffset dx="1.054" dy="1.054"/><feGaussianBlur stdDeviation="2.634"/><feColorMatrix type="matrix" values="0 0 0 0 0 0 0 0 0 0 0 0 0 0 0 0 0 0 0.15 0"/><feBlend in2="BackgroundImageFix" mode="normal" result="effect1_dropShadow"/><feBlend in="SourceGraphic" in2="effect1_dropShadow" mode="normal" result="shape"/></filter><filter id="filter6_d" width="14.666" height="12.759" x="45.174" y="46.357" color-interpolation-filters="sRGB" filterUnits="userSpaceOnUse"><feFlood flood-opacity="0" result="BackgroundImageFix"/><feColorMatrix in="SourceAlpha" type="matrix" values="0 0 0 0 0 0 0 0 0 0 0 0 0 0 0 0 0 0 127 0"/><feOffset dx="1.054" dy="1.054"/><feGaussianBlur stdDeviation="2.634"/><feColorMatrix type="matrix" values="0 0 0 0 0 0 0 0 0 0 0 0 0 0 0 0 0 0 0.15 0"/><feBlend in2="BackgroundImageFix" mode="normal" result="effect1_dropShadow"/><feBlend in="SourceGraphic" in2="effect1_dropShadow" mode="normal" result="shape"/></filter><filter id="filter7_d" width="11.846" height="12.473" x="45.704" y="43.426" color-interpolation-filters="sRGB" filterUnits="userSpaceOnUse"><feFlood flood-opacity="0" result="BackgroundImageFix"/><feColorMatrix in="SourceAlpha" type="matrix" values="0 0 0 0 0 0 0 0 0 0 0 0 0 0 0 0 0 0 127 0"/><feOffset dx="1.054" dy="1.054"/><feGaussianBlur stdDeviation="2.634"/><feColorMatrix type="matrix" values="0 0 0 0 0 0 0 0 0 0 0 0 0 0 0 0 0 0 0.15 0"/><feBlend in2="BackgroundImageFix" mode="normal" result="effect1_dropShadow"/><feBlend in="SourceGraphic" in2="effect1_dropShadow" mode="normal" result="shape"/></filter><filter id="filter8_d" width="15.12" height="15.215" x="53.752" y="47.529" color-interpolation-filters="sRGB" filterUnits="userSpaceOnUse"><feFlood flood-opacity="0" result="BackgroundImageFix"/><feColorMatrix in="SourceAlpha" type="matrix" values="0 0 0 0 0 0 0 0 0 0 0 0 0 0 0 0 0 0 127 0"/><feOffset dx="1.054" dy="1.054"/><feGaussianBlur stdDeviation="2.634"/><feColorMatrix type="matrix" values="0 0 0 0 0 0 0 0 0 0 0 0 0 0 0 0 0 0 0.15 0"/><feBlend in2="BackgroundImageFix" mode="normal" result="effect1_dropShadow"/><feBlend in="SourceGraphic" in2="effect1_dropShadow" mode="normal" result="shape"/></filter><filter id="filter9_d" width="13.639" height="14.379" x="52.218" y="54.636" color-interpolation-filters="sRGB" filterUnits="userSpaceOnUse"><feFlood flood-opacity="0" result="BackgroundImageFix"/><feColorMatrix in="SourceAlpha" type="matrix" values="0 0 0 0 0 0 0 0 0 0 0 0 0 0 0 0 0 0 127 0"/><feOffset dx="1.054" dy="1.054"/><feGaussianBlur stdDeviation="2.634"/><feColorMatrix type="matrix" values="0 0 0 0 0 0 0 0 0 0 0 0 0 0 0 0 0 0 0.15 0"/><feBlend in2="BackgroundImageFix" mode="normal" result="effect1_dropShadow"/><feBlend in="SourceGraphic" in2="effect1_dropShadow" mode="normal" result="shape"/></filter></defs></svg>