<svg width="113" height="113" viewBox="0 0 113 113" fill="none" xmlns="http://www.w3.org/2000/svg">



<circle cx="56.5" cy="56.5" r="25.1111" fill="white"/>
<path d="M56.5791 40.8145C57.0895 40.2995 57.9189 40.2995 58.4293 40.8145L64.7182 47.1601C69.8314 52.3195 69.8314 60.6792 64.7182 65.8385L58.4293 72.1842C57.9189 72.6992 57.0895 72.6992 56.5791 72.1842L50.2902 65.8385C45.177 60.6792 45.177 52.3195 50.2902 47.1601L56.5791 40.8145Z" fill="#EDE221"/>
<g opacity="0.5" filter="url(#filter0_d)">
<path d="M65.2747 59.3626C66.9672 61.1037 66.9672 63.9401 65.2747 65.6907C65.2656 65.7 65.2564 65.7094 65.2472 65.7187L58.9348 72.1779C58.4225 72.7021 57.59 72.7021 57.0777 72.1779L50.7653 65.7187C50.7562 65.7094 50.747 65.7 50.7378 65.6907C49.0454 63.9495 49.0454 61.1037 50.7378 59.3626C50.747 59.3532 50.7562 59.3438 50.7653 59.3345L57.0777 52.8753C57.59 52.3511 58.4225 52.3511 58.9348 52.8753L65.2472 59.3345C65.2564 59.3438 65.2656 59.3532 65.2747 59.3626Z" fill="#FFA400"/>
</g>
<g filter="url(#filter1_i)">
<path d="M58.0811 72.5711C51.8715 52.5716 55.3089 44.0003 56.695 41.4289C56.8336 41.0956 57.3048 40.429 58.081 40.429C58.8572 40.429 59.2823 41.0956 59.4671 41.4289C62.5165 48.4288 57.9425 72.5711 58.0811 72.5711Z" fill="#BBBE1D"/>
</g>
<defs>
<filter id="filter0_d" x="31.3989" y="38.0265" width="53.2148" height="56.2282" filterUnits="userSpaceOnUse" color-interpolation-filters="sRGB">
<feFlood flood-opacity="0" result="BackgroundImageFix"/>
<feColorMatrix in="SourceAlpha" type="matrix" values="0 0 0 0 0 0 0 0 0 0 0 0 0 0 0 0 0 0 127 0"/>
<feOffset dy="3.61393"/>
<feGaussianBlur stdDeviation="9.03482"/>
<feColorMatrix type="matrix" values="0 0 0 0 0.458333 0 0 0 0 0.435896 0 0 0 0 0.0496528 0 0 0 0.15 0"/>
<feBlend mode="normal" in2="BackgroundImageFix" result="effect1_dropShadow"/>
<feBlend mode="normal" in="SourceGraphic" in2="effect1_dropShadow" result="shape"/>
</filter>
<filter id="filter1_i" x="54.4908" y="40.429" width="6.02666" height="34.8128" filterUnits="userSpaceOnUse" color-interpolation-filters="sRGB">
<feFlood flood-opacity="0" result="BackgroundImageFix"/>
<feBlend mode="normal" in="SourceGraphic" in2="BackgroundImageFix" result="shape"/>
<feColorMatrix in="SourceAlpha" type="matrix" values="0 0 0 0 0 0 0 0 0 0 0 0 0 0 0 0 0 0 127 0" result="hardAlpha"/>
<feOffset dy="2.67065"/>
<feGaussianBlur stdDeviation="2.67065"/>
<feComposite in2="hardAlpha" operator="arithmetic" k2="-1" k3="1"/>
<feColorMatrix type="matrix" values="0 0 0 0 0 0 0 0 0 0 0 0 0 0 0 0 0 0 0.15 0"/>
<feBlend mode="normal" in2="shape" result="effect1_innerShadow"/>
</filter>
</defs>
</svg>
