<svg width="32" height="32" viewBox="0 0 32 32" fill="none" xmlns="http://www.w3.org/2000/svg">
<circle cx="16" cy="16" r="16" fill="white"/>
<path d="M15.7704 19.4734C15.8996 19.3437 16.1094 19.3437 16.2386 19.4734L17.8299 21.0722C19.1237 22.372 19.1237 24.4782 17.8299 25.7781L16.2386 27.3768C16.1094 27.5066 15.8996 27.5066 15.7704 27.3768L14.1791 25.7781C12.8853 24.4782 12.8853 22.372 14.1791 21.0722L15.7704 19.4734Z" fill="#EDE221"/>
<g filter="url(#filter0_i)">
<path d="M16.0169 27.474C14.3282 22.4352 15.263 20.2758 15.6399 19.6279C15.6776 19.5439 15.8058 19.376 16.0168 19.376C16.2279 19.376 16.3435 19.5439 16.3938 19.6279C17.223 21.3915 15.9792 27.474 16.0169 27.474Z" fill="#BBBE1D"/>
</g>
<path d="M15.8944 25.642C16.3352 24.0601 16.5624 12.444 14.0283 8.96387" stroke="#00CF8B" stroke-width="1.19773" stroke-linecap="round"/>
<path d="M14.6395 10.0267C14.5177 9.17435 13.7213 8.50519 12.8608 8.53206L12.3038 8.54945C12.2178 8.55214 12.1579 8.62342 12.17 8.70865V8.70865C12.2918 9.56098 13.0882 10.2301 13.9488 10.2033L14.5057 10.1859C14.5918 10.1832 14.6516 10.1119 14.6395 10.0267V10.0267Z" fill="#00CF88"/>
<g filter="url(#filter1_d)">
<path d="M14.6596 10.0577C14.5807 9.50537 14.0646 9.07174 13.507 9.08915L13.1461 9.10042C13.0903 9.10216 13.0515 9.14835 13.0594 9.20358V9.20358C13.1383 9.75591 13.6544 10.1895 14.212 10.1721L14.5729 10.1609C14.6287 10.1591 14.6675 10.1129 14.6596 10.0577V10.0577Z" fill="#268766"/>
</g>
<path d="M16.0526 19.9347C15.0024 20.5468 13.6548 20.1916 13.0428 19.1414L12.711 18.5721C12.6498 18.4671 12.6853 18.3324 12.7903 18.2712V18.2712C13.8405 17.6591 15.1881 18.0143 15.8001 19.0645L16.1319 19.6337C16.1931 19.7388 16.1576 19.8735 16.0526 19.9347V19.9347Z" fill="#00CF88"/>
<g filter="url(#filter2_d)">
<path d="M16.102 19.9308C15.4215 20.3274 14.5482 20.0972 14.1516 19.4167L13.9366 19.0478C13.8969 18.9797 13.9199 18.8924 13.988 18.8527V18.8527C14.6686 18.4561 15.5418 18.6863 15.9384 19.3668L16.1534 19.7357C16.1931 19.8038 16.1701 19.8911 16.102 19.9308V19.9308Z" fill="#268766"/>
</g>
<path d="M16.1974 17.8338C16.4866 16.2109 17.6917 12.4833 20.1982 10.5552" stroke="#00CF8B" stroke-width="0.718636" stroke-linecap="round"/>
<path d="M15.4743 14.0257C15.0405 12.901 13.633 10.7865 11.4735 11.3264" stroke="#268766" stroke-width="0.718636" stroke-linecap="round"/>
<path d="M18.1084 12.5038C17.1344 11.7507 16.8643 10.2879 17.5052 9.23658L17.92 8.55619C17.9841 8.45106 18.115 8.42689 18.2124 8.5022V8.5022C19.1865 9.25535 19.4565 10.7182 18.8156 11.7695L18.4008 12.4498C18.3367 12.555 18.2058 12.5791 18.1084 12.5038V12.5038Z" fill="#00CF88"/>
<g filter="url(#filter3_d)">
<path d="M18.1325 12.5507C17.5013 12.0626 17.3263 11.1147 17.7416 10.4334L18.0104 9.99254C18.052 9.92442 18.1368 9.90875 18.1999 9.95756V9.95756C18.8311 10.4456 19.0061 11.3935 18.5908 12.0748L18.322 12.5157C18.2805 12.5838 18.1957 12.5995 18.1325 12.5507V12.5507Z" fill="#268766"/>
</g>
<path d="M14.5118 9.57666C14.1911 8.77763 14.5462 7.79994 15.3049 7.39293L15.7959 7.12952C15.8718 7.08882 15.9593 7.1206 15.9914 7.2005V7.2005C16.3121 7.99954 15.957 8.97723 15.1983 9.38424L14.7073 9.64764C14.6314 9.68834 14.5439 9.65656 14.5118 9.57666V9.57666Z" fill="#00CF88"/>
<g filter="url(#filter4_d)">
<path d="M14.5097 9.61381C14.3019 9.09602 14.532 8.46246 15.0237 8.19871L15.3418 8.02802C15.391 8.00164 15.4477 8.02223 15.4685 8.07401V8.07401C15.6763 8.5918 15.4462 9.22537 14.9545 9.48912L14.6364 9.65981C14.5872 9.68619 14.5305 9.66559 14.5097 9.61381V9.61381Z" fill="#268766"/>
</g>
<path d="M14.4237 12.4583C13.9506 13.5951 12.6089 14.2373 11.4268 13.8927L10.6618 13.6697C10.5436 13.6352 10.4861 13.5151 10.5334 13.4015V13.4015C11.0065 12.2647 12.3482 11.6225 13.5303 11.9671L14.2953 12.1901C14.4135 12.2246 14.471 12.3446 14.4237 12.4583V12.4583Z" fill="#00CF88"/>
<g filter="url(#filter5_d)">
<path d="M14.4627 12.4225C14.1561 13.1592 13.2866 13.5753 12.5206 13.352L12.0249 13.2075C11.9483 13.1852 11.911 13.1074 11.9417 13.0337V13.0337C12.2482 12.2971 13.1177 11.8809 13.8837 12.1042L14.3795 12.2487C14.4561 12.2711 14.4933 12.3489 14.4627 12.4225V12.4225Z" fill="#268766"/>
</g>
<path d="M12.9558 11.4176C12.3213 11.3269 11.8231 10.7341 11.8431 10.0934L11.8561 9.67876C11.8581 9.61469 11.9111 9.57011 11.9746 9.57917V9.57917C12.6091 9.66984 13.1073 10.2627 13.0873 10.9034L13.0743 11.318C13.0723 11.3821 13.0193 11.4267 12.9558 11.4176V11.4176Z" fill="#00CF88"/>
<g filter="url(#filter6_d)">
<path d="M12.9788 11.4321C12.5676 11.3733 12.2448 10.9891 12.2577 10.574L12.2661 10.3053C12.2674 10.2638 12.3018 10.2349 12.3429 10.2407V10.2407C12.7541 10.2995 13.0769 10.6837 13.064 11.0989L13.0556 11.3675C13.0543 11.4091 13.0199 11.4379 12.9788 11.4321V11.4321Z" fill="#268766"/>
</g>
<path d="M17.3884 14.6167C18.4437 15.5055 20.0199 15.3705 20.9087 14.3151L21.3905 13.743C21.4794 13.6375 21.4659 13.4799 21.3604 13.391V13.391C20.305 12.5021 18.7288 12.6372 17.84 13.6926L17.3582 14.2646C17.2693 14.3702 17.2828 14.5278 17.3884 14.6167V14.6167Z" fill="#00CF88"/>
<g filter="url(#filter7_d)">
<path d="M17.3339 14.6021C18.0178 15.1781 19.0392 15.0906 19.6152 14.4067L19.9274 14.036C19.985 13.9676 19.9763 13.8654 19.9079 13.8078V13.8078C19.224 13.2318 18.2026 13.3193 17.6266 14.0032L17.3144 14.374C17.2568 14.4423 17.2655 14.5445 17.3339 14.6021V14.6021Z" fill="#268766"/>
</g>
<path d="M16.6088 19.4672C17.9862 19.3866 19.0376 18.2046 18.957 16.8272L18.9133 16.0805C18.9053 15.9428 18.7871 15.8376 18.6493 15.8457V15.8457C17.2719 15.9262 16.2205 17.1082 16.3011 18.4857L16.3448 19.2323C16.3528 19.3701 16.471 19.4752 16.6088 19.4672V19.4672Z" fill="#00CF88"/>
<g filter="url(#filter8_d)">
<path d="M16.5595 19.4944C17.4522 19.4422 18.1335 18.6763 18.0812 17.7836L18.0529 17.2998C18.0477 17.2105 17.9711 17.1424 17.8819 17.1476V17.1476C16.9892 17.1998 16.3079 17.9658 16.3601 18.8584L16.3884 19.3423C16.3937 19.4315 16.4703 19.4997 16.5595 19.4944V19.4944Z" fill="#268766"/>
</g>
<defs>
<filter id="filter0_i" x="15.0405" y="19.376" width="1.63889" height="8.57712" filterUnits="userSpaceOnUse" color-interpolation-filters="sRGB">
<feFlood flood-opacity="0" result="BackgroundImageFix"/>
<feBlend mode="normal" in="SourceGraphic" in2="BackgroundImageFix" result="shape"/>
<feColorMatrix in="SourceAlpha" type="matrix" values="0 0 0 0 0 0 0 0 0 0 0 0 0 0 0 0 0 0 127 0" result="hardAlpha"/>
<feOffset dy="0.479091"/>
<feGaussianBlur stdDeviation="0.479091"/>
<feComposite in2="hardAlpha" operator="arithmetic" k2="-1" k3="1"/>
<feColorMatrix type="matrix" values="0 0 0 0 0 0 0 0 0 0 0 0 0 0 0 0 0 0 0.15 0"/>
<feBlend mode="normal" in2="shape" result="effect1_innerShadow"/>
</filter>
<filter id="filter1_d" x="10.4651" y="6.49564" width="8.08534" height="7.56705" filterUnits="userSpaceOnUse" color-interpolation-filters="sRGB">
<feFlood flood-opacity="0" result="BackgroundImageFix"/>
<feColorMatrix in="SourceAlpha" type="matrix" values="0 0 0 0 0 0 0 0 0 0 0 0 0 0 0 0 0 0 127 0"/>
<feOffset dx="0.648306" dy="0.648306"/>
<feGaussianBlur stdDeviation="1.62076"/>
<feColorMatrix type="matrix" values="0 0 0 0 0 0 0 0 0 0 0 0 0 0 0 0 0 0 0.15 0"/>
<feBlend mode="normal" in2="BackgroundImageFix" result="effect1_dropShadow"/>
<feBlend mode="normal" in="SourceGraphic" in2="effect1_dropShadow" result="shape"/>
</filter>
<filter id="filter2_d" x="11.3239" y="16.0655" width="8.73873" height="7.94956" filterUnits="userSpaceOnUse" color-interpolation-filters="sRGB">
<feFlood flood-opacity="0" result="BackgroundImageFix"/>
<feColorMatrix in="SourceAlpha" type="matrix" values="0 0 0 0 0 0 0 0 0 0 0 0 0 0 0 0 0 0 127 0"/>
<feOffset dx="0.648306" dy="0.648306"/>
<feGaussianBlur stdDeviation="1.62076"/>
<feColorMatrix type="matrix" values="0 0 0 0 0 0 0 0 0 0 0 0 0 0 0 0 0 0 0.15 0"/>
<feBlend mode="normal" in2="BackgroundImageFix" result="effect1_dropShadow"/>
<feBlend mode="normal" in="SourceGraphic" in2="effect1_dropShadow" result="shape"/>
</filter>
<filter id="filter3_d" x="14.923" y="7.33598" width="7.78297" height="9.13299" filterUnits="userSpaceOnUse" color-interpolation-filters="sRGB">
<feFlood flood-opacity="0" result="BackgroundImageFix"/>
<feColorMatrix in="SourceAlpha" type="matrix" values="0 0 0 0 0 0 0 0 0 0 0 0 0 0 0 0 0 0 127 0"/>
<feOffset dx="0.648306" dy="0.648306"/>
<feGaussianBlur stdDeviation="1.62076"/>
<feColorMatrix type="matrix" values="0 0 0 0 0 0 0 0 0 0 0 0 0 0 0 0 0 0 0.15 0"/>
<feBlend mode="normal" in2="BackgroundImageFix" result="effect1_dropShadow"/>
<feBlend mode="normal" in="SourceGraphic" in2="effect1_dropShadow" result="shape"/>
</filter>
<filter id="filter4_d" x="11.84" y="5.42338" width="7.59486" height="8.13782" filterUnits="userSpaceOnUse" color-interpolation-filters="sRGB">
<feFlood flood-opacity="0" result="BackgroundImageFix"/>
<feColorMatrix in="SourceAlpha" type="matrix" values="0 0 0 0 0 0 0 0 0 0 0 0 0 0 0 0 0 0 127 0"/>
<feOffset dx="0.648306" dy="0.648306"/>
<feGaussianBlur stdDeviation="1.62076"/>
<feColorMatrix type="matrix" values="0 0 0 0 0 0 0 0 0 0 0 0 0 0 0 0 0 0 0.15 0"/>
<feBlend mode="normal" in2="BackgroundImageFix" result="effect1_dropShadow"/>
<feBlend mode="normal" in="SourceGraphic" in2="effect1_dropShadow" result="shape"/>
</filter>
<filter id="filter5_d" x="9.33768" y="9.45072" width="9.02551" height="7.85149" filterUnits="userSpaceOnUse" color-interpolation-filters="sRGB">
<feFlood flood-opacity="0" result="BackgroundImageFix"/>
<feColorMatrix in="SourceAlpha" type="matrix" values="0 0 0 0 0 0 0 0 0 0 0 0 0 0 0 0 0 0 127 0"/>
<feOffset dx="0.648306" dy="0.648306"/>
<feGaussianBlur stdDeviation="1.62076"/>
<feColorMatrix type="matrix" values="0 0 0 0 0 0 0 0 0 0 0 0 0 0 0 0 0 0 0.15 0"/>
<feBlend mode="normal" in2="BackgroundImageFix" result="effect1_dropShadow"/>
<feBlend mode="normal" in="SourceGraphic" in2="effect1_dropShadow" result="shape"/>
</filter>
<filter id="filter6_d" x="9.6641" y="7.64652" width="7.29006" height="7.67591" filterUnits="userSpaceOnUse" color-interpolation-filters="sRGB">
<feFlood flood-opacity="0" result="BackgroundImageFix"/>
<feColorMatrix in="SourceAlpha" type="matrix" values="0 0 0 0 0 0 0 0 0 0 0 0 0 0 0 0 0 0 127 0"/>
<feOffset dx="0.648306" dy="0.648306"/>
<feGaussianBlur stdDeviation="1.62076"/>
<feColorMatrix type="matrix" values="0 0 0 0 0 0 0 0 0 0 0 0 0 0 0 0 0 0 0.15 0"/>
<feBlend mode="normal" in2="BackgroundImageFix" result="effect1_dropShadow"/>
<feBlend mode="normal" in="SourceGraphic" in2="effect1_dropShadow" result="shape"/>
</filter>
<filter id="filter7_d" x="14.6831" y="10.834" width="9.17223" height="8.03872" filterUnits="userSpaceOnUse" color-interpolation-filters="sRGB">
<feFlood flood-opacity="0" result="BackgroundImageFix"/>
<feColorMatrix in="SourceAlpha" type="matrix" values="0 0 0 0 0 0 0 0 0 0 0 0 0 0 0 0 0 0 127 0"/>
<feOffset dx="0.648306" dy="0.648306"/>
<feGaussianBlur stdDeviation="1.62076"/>
<feColorMatrix type="matrix" values="0 0 0 0 0 0 0 0 0 0 0 0 0 0 0 0 0 0 0.15 0"/>
<feBlend mode="normal" in2="BackgroundImageFix" result="effect1_dropShadow"/>
<feBlend mode="normal" in="SourceGraphic" in2="effect1_dropShadow" result="shape"/>
</filter>
<filter id="filter8_d" x="13.7641" y="14.5542" width="8.20978" height="8.83042" filterUnits="userSpaceOnUse" color-interpolation-filters="sRGB">
<feFlood flood-opacity="0" result="BackgroundImageFix"/>
<feColorMatrix in="SourceAlpha" type="matrix" values="0 0 0 0 0 0 0 0 0 0 0 0 0 0 0 0 0 0 127 0"/>
<feOffset dx="0.648306" dy="0.648306"/>
<feGaussianBlur stdDeviation="1.62076"/>
<feColorMatrix type="matrix" values="0 0 0 0 0 0 0 0 0 0 0 0 0 0 0 0 0 0 0.15 0"/>
<feBlend mode="normal" in2="BackgroundImageFix" result="effect1_dropShadow"/>
<feBlend mode="normal" in="SourceGraphic" in2="effect1_dropShadow" result="shape"/>
</filter>
</defs>
</svg>
