<svg xmlns="http://www.w3.org/2000/svg" width="100" height="100" fill="none" viewBox="0 0 100 100"><circle cx="50" cy="50" r="35" fill="none" stroke="#00cf88" stroke-dasharray="164.934 56.978" stroke-width="5" class="loader-svg" transform="rotate(159.821 50 50)"><animateTransform attributeName="transform" begin="0s" calcMode="linear" dur="0.6s" keyTimes="0;1" repeatCount="indefinite" type="rotate" values="0 50 50;360 50 50"/></circle><path fill="#FFF100" d="M49.8036 30.1821C50.0464 29.9393 50.4409 29.9393 50.6837 30.1821L53.675 33.1734C56.1071 35.6055 56.1071 39.5462 53.675 41.9782L50.6837 44.9696C50.4409 45.2123 50.0464 45.2123 49.8036 44.9696L46.8123 41.9782C44.3803 39.5462 44.3803 35.6055 46.8123 33.1734L49.8036 30.1821Z"/><g filter="url(#filter0_d)" opacity=".5"><path fill="#FFA400" d="M53.6876 39.0345C54.4896 39.8409 54.4896 41.1545 53.6876 41.9652C53.6832 41.9695 53.6789 41.9738 53.6746 41.9782L50.6833 44.9695C50.4405 45.2122 50.046 45.2122 49.8032 44.9695L46.8119 41.9782C46.8076 41.9738 46.8032 41.9695 46.7989 41.9652C45.9969 41.1588 45.9969 39.8409 46.7989 39.0345C46.8032 39.0302 46.8076 39.0259 46.8119 39.0215L49.8032 36.0302C50.046 35.7875 50.4405 35.7875 50.6833 36.0302L53.6746 39.0215C53.6789 39.0259 53.6832 39.0302 53.6876 39.0345Z"/></g><path fill="#FFF100" d="M50.6832 70.3089C50.4404 70.5517 50.0459 70.5517 49.8032 70.3089L46.8118 67.3176C44.3798 64.8855 44.3798 60.9448 46.8118 58.5127L49.8032 55.5214C50.0459 55.2787 50.4404 55.2787 50.6832 55.5214L53.6745 58.5127C56.1066 60.9448 56.1066 64.8855 53.6745 67.3176L50.6832 70.3089Z"/><g filter="url(#filter1_d)" opacity=".5"><path fill="#FFA400" d="M46.7946 61.4564C45.9926 60.65 45.9926 59.3364 46.7946 58.5258C46.799 58.5214 46.8033 58.5171 46.8076 58.5127L49.7989 55.5214C50.0417 55.2787 50.4362 55.2787 50.679 55.5214L53.6703 58.5127C53.6746 58.5171 53.679 58.5214 53.6833 58.5258C54.4853 59.3321 54.4853 60.65 53.6833 61.4564C53.679 61.4607 53.6746 61.465 53.6703 61.4694L50.679 64.4607C50.4362 64.7035 50.0417 64.7035 49.7989 64.4607L46.8076 61.4694C46.8033 61.465 46.799 61.4607 46.7946 61.4564Z"/></g><path fill="#FFF100" d="M70.3046 49.8036C70.5474 50.0464 70.5474 50.4409 70.3046 50.6837L67.3133 53.675C64.8813 56.1071 60.9405 56.1071 58.5085 53.675L55.5172 50.6837C55.2744 50.4409 55.2744 50.0464 55.5172 49.8036L58.5085 46.8123C60.9405 44.3803 64.8813 44.3803 67.3133 46.8123L70.3046 49.8036Z"/><g filter="url(#filter2_d)" opacity=".5"><path fill="#FFA400" d="M61.4521 53.6923C60.6457 54.4944 59.3322 54.4944 58.5215 53.6923C58.5171 53.688 58.5128 53.6837 58.5085 53.6793L55.5172 50.688C55.2744 50.4453 55.2744 50.0508 55.5172 49.808L58.5085 46.8167C58.5128 46.8123 58.5171 46.808 58.5215 46.8037C59.3278 46.0016 60.6457 46.0016 61.4521 46.8037C61.4564 46.808 61.4608 46.8123 61.4651 46.8167L64.4564 49.808C64.6992 50.0508 64.6992 50.4453 64.4564 50.688L61.4651 53.6793C61.4608 53.6837 61.4564 53.688 61.4521 53.6923Z"/></g><path fill="#FFF100" d="M30.1821 50.6876C29.9393 50.4448 29.9393 50.0503 30.1821 49.8075L33.1734 46.8162C35.6055 44.3842 39.5462 44.3842 41.9782 46.8162L44.9696 49.8075C45.2123 50.0503 45.2123 50.4448 44.9696 50.6876L41.9782 53.6789C39.5462 56.111 35.6055 56.111 33.1734 53.6789L30.1821 50.6876Z"/><g filter="url(#filter3_d)" opacity=".5"><path fill="#FFA400" d="M39.0309 46.7988C39.8372 45.9968 41.1508 45.9968 41.9615 46.7988C41.9658 46.8031 41.9702 46.8075 41.9745 46.8118L44.9658 49.8031C45.2086 50.0459 45.2086 50.4404 44.9658 50.6831L41.9745 53.6745C41.9702 53.6788 41.9658 53.6831 41.9615 53.6875C41.1551 54.4895 39.8372 54.4895 39.0309 53.6875C39.0265 53.6831 39.0222 53.6788 39.0179 53.6745L36.0266 50.6831C35.7838 50.4404 35.7838 50.0459 36.0266 49.8031L39.0179 46.8118C39.0222 46.8075 39.0265 46.8031 39.0309 46.7988Z"/></g><g filter="url(#filter4_d)"><path fill="#FFF100" d="M36.6381 37.4623C36.6381 37.0462 36.9762 36.708 37.3924 36.708H42.508C46.6655 36.708 50.0339 40.0765 50.0339 44.234V49.3495C50.0339 49.7657 49.6958 50.1039 49.2796 50.1039H44.164C40.0065 50.1039 36.6381 46.7354 36.6381 42.5779V37.4623V37.4623Z"/><g filter="url(#filter5_d)" opacity=".2"><path fill="#FFA400" d="M50.0332 44.22V49.3356C50.0332 49.4526 50.0071 49.5653 49.9595 49.6607C49.6213 42.2475 45.0086 38.1507 42.9884 36.707C46.9205 36.9541 50.0332 40.2229 50.0332 44.22Z"/></g><g filter="url(#filter6_d)" opacity=".2"><path fill="#FFA400" d="M49.5954 50.0125C49.487 50.0688 49.3656 50.1035 49.2399 50.1035H44.1243C42.1171 50.1035 40.292 49.3145 38.9437 48.0356C38.6186 47.7278 38.3238 47.394 38.0593 47.0342C40.0015 47.7668 44.6402 49.3622 49.5954 50.0125Z"/></g></g><g filter="url(#filter7_d)"><path fill="#FFF100" d="M63.0962 36.7061C63.5124 36.7061 63.8506 37.0442 63.8506 37.4604V42.576C63.8506 46.7334 60.4821 50.1019 56.3246 50.1019H51.209C50.7929 50.1019 50.4547 49.7638 50.4547 49.3476V44.232C50.4547 40.0745 53.8232 36.7061 57.9807 36.7061H63.0962V36.7061Z"/><g filter="url(#filter8_d)" opacity=".2"><path fill="#FFA400" d="M56.3365 50.1024H51.2209C51.1038 50.1024 50.9911 50.0764 50.8958 50.0287C58.309 49.6905 62.4058 45.0778 63.8494 43.0576C63.598 46.9897 60.3335 50.1024 56.3365 50.1024Z"/></g><g filter="url(#filter9_d)" opacity=".2"><path fill="#FFA400" d="M50.5403 49.6645C50.4839 49.5561 50.4492 49.4347 50.4492 49.309V44.1934C50.4492 42.1862 51.2382 40.3611 52.5171 39.0128C52.8249 38.6877 53.1587 38.3929 53.5186 38.1284C52.7902 40.0706 51.1949 44.7093 50.5403 49.6645Z"/></g></g><g filter="url(#filter10_d)"><path fill="#FFF100" d="M63.8497 63.0297C63.8497 63.4459 63.5116 63.784 63.0954 63.784H57.9798C53.8223 63.784 50.4539 60.4156 50.4539 56.2581V51.1425C50.4539 50.7263 50.792 50.3882 51.2082 50.3882H56.3238C60.4813 50.3882 63.8497 53.7567 63.8497 57.9141V63.0297Z"/><g filter="url(#filter11_d)" opacity=".2"><path fill="#FFA400" d="M50.4535 56.2713V51.1557C50.4535 51.0387 50.4795 50.9259 50.5272 50.8306C50.8653 58.2438 55.478 62.3406 57.4982 63.7842C53.5662 63.5371 50.4535 60.2684 50.4535 56.2713Z"/></g><g filter="url(#filter12_d)" opacity=".2"><path fill="#FFA400" d="M50.8914 50.4792C50.9997 50.4229 51.1211 50.3882 51.2468 50.3882H56.3624C58.3696 50.3882 60.1948 51.1772 61.543 52.4561C61.8682 52.7639 62.163 53.0977 62.4274 53.4575C60.4852 52.7249 55.8465 51.1295 50.8914 50.4792Z"/></g></g><g filter="url(#filter13_d)"><path fill="#FFF100" d="M37.3917 63.784C36.9755 63.784 36.6373 63.4459 36.6373 63.0297V57.9141C36.6373 53.7567 40.0058 50.3882 44.1633 50.3882H49.2789C49.695 50.3882 50.0332 50.7263 50.0332 51.1425V56.2581C50.0332 60.4156 46.6647 63.784 42.5072 63.784H37.3917Z"/><g filter="url(#filter14_d)" opacity=".2"><path fill="#FFA400" d="M44.1503 50.3882H49.2659C49.3829 50.3882 49.4956 50.4142 49.591 50.4619C42.1778 50.8 38.081 55.4127 36.6373 57.4329C36.8844 53.5009 40.1532 50.3882 44.1503 50.3882Z"/></g><g filter="url(#filter15_d)" opacity=".2"><path fill="#FFA400" d="M49.9422 50.8262C49.9985 50.9346 50.0332 51.0559 50.0332 51.1817V56.2972C50.0332 58.3044 49.2442 60.1296 47.9653 61.4778C47.6575 61.803 47.3237 62.0978 46.9639 62.3622C47.6965 60.42 49.2919 55.7813 49.9422 50.8262Z"/></g></g><g filter="url(#filter16_i)"><path fill="#FFA400" d="M50.2411 55.448C53.1142 55.448 55.4434 53.1189 55.4434 50.2457C55.4434 47.3726 53.1142 45.0435 50.2411 45.0435C47.368 45.0435 45.0388 47.3726 45.0388 50.2457C45.0388 53.1189 47.368 55.448 50.2411 55.448Z"/></g><defs><filter id="filter0_d" width="20.611" height="21.823" x="39.938" y="30.84" color-interpolation-filters="sRGB" filterUnits="userSpaceOnUse"><feFlood flood-opacity="0" result="BackgroundImageFix"/><feColorMatrix in="SourceAlpha" type="matrix" values="0 0 0 0 0 0 0 0 0 0 0 0 0 0 0 0 0 0 127 0"/><feOffset dy="1.252"/><feGaussianBlur stdDeviation="3.13"/><feColorMatrix type="matrix" values="0 0 0 0 0.458333 0 0 0 0 0.435896 0 0 0 0 0.0496528 0 0 0 0.15 0"/><feBlend in2="BackgroundImageFix" mode="normal" result="effect1_dropShadow"/><feBlend in="SourceGraphic" in2="effect1_dropShadow" mode="normal" result="shape"/></filter><filter id="filter1_d" width="20.611" height="21.823" x="39.934" y="50.332" color-interpolation-filters="sRGB" filterUnits="userSpaceOnUse"><feFlood flood-opacity="0" result="BackgroundImageFix"/><feColorMatrix in="SourceAlpha" type="matrix" values="0 0 0 0 0 0 0 0 0 0 0 0 0 0 0 0 0 0 127 0"/><feOffset dy="1.252"/><feGaussianBlur stdDeviation="3.13"/><feColorMatrix type="matrix" values="0 0 0 0 0.458333 0 0 0 0 0.435896 0 0 0 0 0.0496528 0 0 0 0.15 0"/><feBlend in2="BackgroundImageFix" mode="normal" result="effect1_dropShadow"/><feBlend in="SourceGraphic" in2="effect1_dropShadow" mode="normal" result="shape"/></filter><filter id="filter2_d" width="21.823" height="20.611" x="49.075" y="41.194" color-interpolation-filters="sRGB" filterUnits="userSpaceOnUse"><feFlood flood-opacity="0" result="BackgroundImageFix"/><feColorMatrix in="SourceAlpha" type="matrix" values="0 0 0 0 0 0 0 0 0 0 0 0 0 0 0 0 0 0 127 0"/><feOffset dy="1.252"/><feGaussianBlur stdDeviation="3.13"/><feColorMatrix type="matrix" values="0 0 0 0 0.458333 0 0 0 0 0.435896 0 0 0 0 0.0496528 0 0 0 0.15 0"/><feBlend in2="BackgroundImageFix" mode="normal" result="effect1_dropShadow"/><feBlend in="SourceGraphic" in2="effect1_dropShadow" mode="normal" result="shape"/></filter><filter id="filter3_d" width="21.823" height="20.611" x="29.585" y="41.19" color-interpolation-filters="sRGB" filterUnits="userSpaceOnUse"><feFlood flood-opacity="0" result="BackgroundImageFix"/><feColorMatrix in="SourceAlpha" type="matrix" values="0 0 0 0 0 0 0 0 0 0 0 0 0 0 0 0 0 0 127 0"/><feOffset dy="1.252"/><feGaussianBlur stdDeviation="3.13"/><feColorMatrix type="matrix" values="0 0 0 0 0.458333 0 0 0 0 0.435896 0 0 0 0 0.0496528 0 0 0 0.15 0"/><feBlend in2="BackgroundImageFix" mode="normal" result="effect1_dropShadow"/><feBlend in="SourceGraphic" in2="effect1_dropShadow" mode="normal" result="shape"/></filter><filter id="filter4_d" width="25.915" height="25.916" x="30.378" y="31.699" color-interpolation-filters="sRGB" filterUnits="userSpaceOnUse"><feFlood flood-opacity="0" result="BackgroundImageFix"/><feColorMatrix in="SourceAlpha" type="matrix" values="0 0 0 0 0 0 0 0 0 0 0 0 0 0 0 0 0 0 127 0"/><feOffset dy="1.252"/><feGaussianBlur stdDeviation="3.13"/><feColorMatrix type="matrix" values="0 0 0 0 0.458333 0 0 0 0 0.435896 0 0 0 0 0.0496528 0 0 0 0.15 0"/><feBlend in2="BackgroundImageFix" mode="normal" result="effect1_dropShadow"/><feBlend in="SourceGraphic" in2="effect1_dropShadow" mode="normal" result="shape"/></filter><filter id="filter5_d" width="19.564" height="25.473" x="36.729" y="31.699" color-interpolation-filters="sRGB" filterUnits="userSpaceOnUse"><feFlood flood-opacity="0" result="BackgroundImageFix"/><feColorMatrix in="SourceAlpha" type="matrix" values="0 0 0 0 0 0 0 0 0 0 0 0 0 0 0 0 0 0 127 0"/><feOffset dy="1.252"/><feGaussianBlur stdDeviation="3.13"/><feColorMatrix type="matrix" values="0 0 0 0 0 0 0 0 0 0 0 0 0 0 0 0 0 0 0.15 0"/><feBlend in2="BackgroundImageFix" mode="normal" result="effect1_dropShadow"/><feBlend in="SourceGraphic" in2="effect1_dropShadow" mode="normal" result="shape"/></filter><filter id="filter6_d" width="24.055" height="15.589" x="31.8" y="42.026" color-interpolation-filters="sRGB" filterUnits="userSpaceOnUse"><feFlood flood-opacity="0" result="BackgroundImageFix"/><feColorMatrix in="SourceAlpha" type="matrix" values="0 0 0 0 0 0 0 0 0 0 0 0 0 0 0 0 0 0 127 0"/><feOffset dy="1.252"/><feGaussianBlur stdDeviation="3.13"/><feColorMatrix type="matrix" values="0 0 0 0 0 0 0 0 0 0 0 0 0 0 0 0 0 0 0.15 0"/><feBlend in2="BackgroundImageFix" mode="normal" result="effect1_dropShadow"/><feBlend in="SourceGraphic" in2="effect1_dropShadow" mode="normal" result="shape"/></filter><filter id="filter7_d" width="25.921" height="25.916" x="44.19" y="31.698" color-interpolation-filters="sRGB" filterUnits="userSpaceOnUse"><feFlood flood-opacity="0" result="BackgroundImageFix"/><feColorMatrix in="SourceAlpha" type="matrix" values="0 0 0 0 0 0 0 0 0 0 0 0 0 0 0 0 0 0 127 0"/><feOffset dy="1.252"/><feGaussianBlur stdDeviation="3.13"/><feColorMatrix type="matrix" values="0 0 0 0 0.458333 0 0 0 0 0.435896 0 0 0 0 0.0496528 0 0 0 0.15 0"/><feBlend in2="BackgroundImageFix" mode="normal" result="effect1_dropShadow"/><feBlend in="SourceGraphic" in2="effect1_dropShadow" mode="normal" result="shape"/></filter><filter id="filter8_d" width="25.473" height="19.564" x="44.636" y="35.546" color-interpolation-filters="sRGB" filterUnits="userSpaceOnUse"><feFlood flood-opacity="0" result="BackgroundImageFix"/><feColorMatrix in="SourceAlpha" type="matrix" values="0 0 0 0 0 0 0 0 0 0 0 0 0 0 0 0 0 0 127 0"/><feOffset dy="-1.252"/><feGaussianBlur stdDeviation="3.13"/><feColorMatrix type="matrix" values="0 0 0 0 0 0 0 0 0 0 0 0 0 0 0 0 0 0 0.15 0"/><feBlend in2="BackgroundImageFix" mode="normal" result="effect1_dropShadow"/><feBlend in="SourceGraphic" in2="effect1_dropShadow" mode="normal" result="shape"/></filter><filter id="filter9_d" width="15.589" height="24.055" x="44.19" y="30.617" color-interpolation-filters="sRGB" filterUnits="userSpaceOnUse"><feFlood flood-opacity="0" result="BackgroundImageFix"/><feColorMatrix in="SourceAlpha" type="matrix" values="0 0 0 0 0 0 0 0 0 0 0 0 0 0 0 0 0 0 127 0"/><feOffset dy="-1.252"/><feGaussianBlur stdDeviation="3.13"/><feColorMatrix type="matrix" values="0 0 0 0 0 0 0 0 0 0 0 0 0 0 0 0 0 0 0.15 0"/><feBlend in2="BackgroundImageFix" mode="normal" result="effect1_dropShadow"/><feBlend in="SourceGraphic" in2="effect1_dropShadow" mode="normal" result="shape"/></filter><filter id="filter10_d" width="25.916" height="25.915" x="44.194" y="45.38" color-interpolation-filters="sRGB" filterUnits="userSpaceOnUse"><feFlood flood-opacity="0" result="BackgroundImageFix"/><feColorMatrix in="SourceAlpha" type="matrix" values="0 0 0 0 0 0 0 0 0 0 0 0 0 0 0 0 0 0 127 0"/><feOffset dy="1.252"/><feGaussianBlur stdDeviation="3.13"/><feColorMatrix type="matrix" values="0 0 0 0 0.458333 0 0 0 0 0.435896 0 0 0 0 0.0496528 0 0 0 0.15 0"/><feBlend in2="BackgroundImageFix" mode="normal" result="effect1_dropShadow"/><feBlend in="SourceGraphic" in2="effect1_dropShadow" mode="normal" result="shape"/></filter><filter id="filter11_d" width="19.564" height="25.473" x="44.194" y="43.319" color-interpolation-filters="sRGB" filterUnits="userSpaceOnUse"><feFlood flood-opacity="0" result="BackgroundImageFix"/><feColorMatrix in="SourceAlpha" type="matrix" values="0 0 0 0 0 0 0 0 0 0 0 0 0 0 0 0 0 0 127 0"/><feOffset dy="-1.252"/><feGaussianBlur stdDeviation="3.13"/><feColorMatrix type="matrix" values="0 0 0 0 0 0 0 0 0 0 0 0 0 0 0 0 0 0 0.15 0"/><feBlend in2="BackgroundImageFix" mode="normal" result="effect1_dropShadow"/><feBlend in="SourceGraphic" in2="effect1_dropShadow" mode="normal" result="shape"/></filter><filter id="filter12_d" width="24.055" height="15.589" x="44.632" y="45.38" color-interpolation-filters="sRGB" filterUnits="userSpaceOnUse"><feFlood flood-opacity="0" result="BackgroundImageFix"/><feColorMatrix in="SourceAlpha" type="matrix" values="0 0 0 0 0 0 0 0 0 0 0 0 0 0 0 0 0 0 127 0"/><feOffset dy="1.252"/><feGaussianBlur stdDeviation="3.13"/><feColorMatrix type="matrix" values="0 0 0 0 0 0 0 0 0 0 0 0 0 0 0 0 0 0 0.15 0"/><feBlend in2="BackgroundImageFix" mode="normal" result="effect1_dropShadow"/><feBlend in="SourceGraphic" in2="effect1_dropShadow" mode="normal" result="shape"/></filter><filter id="filter13_d" width="25.915" height="25.915" x="30.378" y="45.38" color-interpolation-filters="sRGB" filterUnits="userSpaceOnUse"><feFlood flood-opacity="0" result="BackgroundImageFix"/><feColorMatrix in="SourceAlpha" type="matrix" values="0 0 0 0 0 0 0 0 0 0 0 0 0 0 0 0 0 0 127 0"/><feOffset dy="1.252"/><feGaussianBlur stdDeviation="3.13"/><feColorMatrix type="matrix" values="0 0 0 0 0.458333 0 0 0 0 0.435896 0 0 0 0 0.0496528 0 0 0 0.15 0"/><feBlend in2="BackgroundImageFix" mode="normal" result="effect1_dropShadow"/><feBlend in="SourceGraphic" in2="effect1_dropShadow" mode="normal" result="shape"/></filter><filter id="filter14_d" width="25.473" height="19.564" x="30.378" y="45.38" color-interpolation-filters="sRGB" filterUnits="userSpaceOnUse"><feFlood flood-opacity="0" result="BackgroundImageFix"/><feColorMatrix in="SourceAlpha" type="matrix" values="0 0 0 0 0 0 0 0 0 0 0 0 0 0 0 0 0 0 127 0"/><feOffset dy="1.252"/><feGaussianBlur stdDeviation="3.13"/><feColorMatrix type="matrix" values="0 0 0 0 0 0 0 0 0 0 0 0 0 0 0 0 0 0 0.15 0"/><feBlend in2="BackgroundImageFix" mode="normal" result="effect1_dropShadow"/><feBlend in="SourceGraphic" in2="effect1_dropShadow" mode="normal" result="shape"/></filter><filter id="filter15_d" width="15.589" height="24.055" x="40.704" y="43.315" color-interpolation-filters="sRGB" filterUnits="userSpaceOnUse"><feFlood flood-opacity="0" result="BackgroundImageFix"/><feColorMatrix in="SourceAlpha" type="matrix" values="0 0 0 0 0 0 0 0 0 0 0 0 0 0 0 0 0 0 127 0"/><feOffset dy="-1.252"/><feGaussianBlur stdDeviation="3.13"/><feColorMatrix type="matrix" values="0 0 0 0 0 0 0 0 0 0 0 0 0 0 0 0 0 0 0.15 0"/><feBlend in2="BackgroundImageFix" mode="normal" result="effect1_dropShadow"/><feBlend in="SourceGraphic" in2="effect1_dropShadow" mode="normal" result="shape"/></filter><filter id="filter16_i" width="11.656" height="11.656" x="45.039" y="45.044" color-interpolation-filters="sRGB" filterUnits="userSpaceOnUse"><feFlood flood-opacity="0" result="BackgroundImageFix"/><feBlend in="SourceGraphic" in2="BackgroundImageFix" mode="normal" result="shape"/><feColorMatrix in="SourceAlpha" result="hardAlpha" type="matrix" values="0 0 0 0 0 0 0 0 0 0 0 0 0 0 0 0 0 0 127 0"/><feOffset dx="1.252" dy="1.252"/><feGaussianBlur stdDeviation="3.13"/><feComposite in2="hardAlpha" k2="-1" k3="1" operator="arithmetic"/><feColorMatrix type="matrix" values="0 0 0 0 0.458824 0 0 0 0 0.435294 0 0 0 0 0.0509804 0 0 0 0.15 0"/><feBlend in2="shape" mode="normal" result="effect1_innerShadow"/></filter></defs></svg>