<svg width="51" height="51" viewBox="0 0 51 51" fill="none" xmlns="http://www.w3.org/2000/svg">
<path d="M27.0173 15C26.5416 15 26.1614 15.3958 26.1805 15.8711C26.1846 15.9732 26.1887 16.0754 26.1928 16.1775C26.2052 16.4857 25.9587 16.7423 25.6503 16.7423V16.7423C25.342 16.7423 25.0956 16.4858 25.108 16.1777C25.1121 16.0755 25.1162 15.9733 25.1203 15.8711C25.1394 15.3957 24.7592 15 24.2834 15C23.9141 15 23.5448 15 23.1754 15C22.7212 15 22.324 15.3061 22.2084 15.7454C20.5407 22.0787 18.8728 28.4119 17.2052 34.7454C17.0383 35.3795 17.5165 36 18.1723 36C19.9281 36 21.6839 36 23.4397 36C23.9267 36 24.327 35.6155 24.3465 35.1288V35.1288C24.3661 34.6421 24.7663 34.2577 25.2534 34.2577C25.5181 34.2577 25.7828 34.2577 26.0476 34.2577C26.5346 34.2577 26.9348 34.642 26.9543 35.1287V35.1287C26.9739 35.6154 27.3741 36 27.8613 36C29.617 36 31.3728 36 33.1285 36C33.7842 36 34.2625 35.3795 34.0956 34.7454C32.4279 28.412 30.7601 22.0788 29.0924 15.7454C28.9767 15.3061 28.5796 15 28.1254 15C27.756 15 27.3867 15 27.0173 15ZM24.9534 20.0206C24.9685 19.6465 25.276 19.351 25.6504 19.3509V19.3509C26.0247 19.3508 26.3322 19.6463 26.3472 20.0202C26.3916 21.1241 26.4359 22.2279 26.4803 23.3317C26.4992 23.8031 26.1222 24.1956 25.6504 24.1956V24.1956C25.1786 24.1956 24.8015 23.8031 24.8205 23.3316C24.8649 22.228 24.9092 21.1243 24.9534 20.0206ZM25.5272 31.649C24.9592 31.649 24.5053 31.1764 24.5281 30.6089C24.5661 29.6607 24.6043 28.7124 24.6424 27.7642C24.6639 27.228 25.1137 26.8044 25.6504 26.8043V26.8043C26.187 26.8043 26.6368 27.2279 26.6583 27.7641C26.6964 28.7123 26.7345 29.6606 26.7726 30.6089C26.7954 31.1764 26.3415 31.649 25.7734 31.649C25.6914 31.649 25.6093 31.649 25.5272 31.649Z" fill="#00CF88"/>
<path d="M30.8147 15.2824C30.7448 15.1116 30.5641 15 30.3795 15V15C30.069 15 29.8641 15.3042 29.9624 15.5988C32.1554 22.1714 34.3478 28.7439 36.5409 35.3165C36.6771 35.7247 37.0592 36 37.4895 36C37.5965 36 37.7034 36 37.8104 36C38.5214 36 39.0053 35.2789 38.7358 34.621C36.0955 28.1747 33.4551 21.7286 30.8147 15.2824Z" fill="#00CF88"/>
<path d="M20.9211 15C20.7365 15 20.5558 15.1116 20.4859 15.2824C17.8455 21.7287 15.205 28.1747 12.5648 34.621C12.2953 35.2789 12.7792 36 13.4902 36C13.5972 36 13.7042 36 13.8112 36C14.2415 36 14.6236 35.7247 14.7598 35.3165C16.9526 28.7439 19.1453 22.1714 21.3382 15.5988C21.4365 15.3042 21.2316 15 20.9211 15V15Z" fill="#00CF88"/>
</svg>
