<svg xmlns="http://www.w3.org/2000/svg" width="51" height="51" fill="none" viewBox="0 0 51 51"><path fill="#00CF88" d="M38.5392 34.4292H11.8312C11.3721 34.4292 11 34.8015 11 35.2606C11 35.7194 11.3721 36.0917 11.8312 36.0917H38.5392C38.9983 36.0917 39.3703 35.7194 39.3703 35.2606C39.3703 34.8015 38.9983 34.4292 38.5392 34.4292Z"/><path fill="#00CF88" d="M17.911 21.7458C19.7709 21.7458 21.2839 20.2326 21.2839 18.3729C21.2839 16.513 19.7709 15 17.911 15C16.0513 15 14.5381 16.513 14.5381 18.3729C14.5381 20.2326 16.0513 21.7458 17.911 21.7458Z"/><path fill="#00CF88" d="M35.5031 30.2345C35.1167 29.5713 34.5325 29.191 33.8996 29.191C33.8992 29.191 33.8988 29.191 33.8983 29.191C33.2657 29.1917 32.6819 29.5724 32.297 30.2358L32.2919 30.2447C32.2804 30.265 32.2689 30.2856 32.257 30.3064L27.6166 22.2683C27.1441 21.4495 26.4369 20.9794 25.6765 20.9785C25.6759 20.9785 25.6752 20.9785 25.6744 20.9785C24.914 20.9785 24.2056 21.448 23.73 22.2683C23.73 22.2683 22.216 24.8923 21.2435 26.577C21.0922 26.3153 20.977 26.1157 20.974 26.1107C20.5019 25.2915 19.7945 24.8211 19.0337 24.8205C19.0333 24.8205 19.0329 24.8205 19.0322 24.8205C18.2714 24.8205 17.5632 25.2904 17.0889 26.1103L13.281 32.7074L13.2468 32.7667H36.9641C36.4823 31.936 35.8786 30.889 35.5031 30.2345V30.2345Z"/></svg>