<svg width="20" height="15" viewBox="0 0 20 15" fill="none" xmlns="http://www.w3.org/2000/svg">
<path d="M19.3779 10.287C18.7396 10.287 18.1427 9.973 17.7811 9.44704L16.8328 8.06773C15.7158 10.0706 13.5924 11.3636 11.1962 11.3636C7.85254 11.3636 5.0941 8.80965 4.76888 5.55022H5.38279C5.62263 5.55022 5.84279 5.41731 5.95445 5.20498C6.0661 4.99269 6.05093 4.73596 5.91504 4.53833L4.97343 3.16872L3.54663 1.09333C3.42618 0.918085 3.2271 0.813339 3.01437 0.813339C2.98778 0.813339 2.96141 0.814957 2.93534 0.81815C2.90928 0.821343 2.88361 0.826154 2.85837 0.832408C2.7953 0.848109 2.73513 0.873168 2.67989 0.906626C2.60257 0.953422 2.53478 1.01662 2.48208 1.09329L0.113657 4.53828C-0.0222272 4.73592 -0.0374032 4.99269 0.074252 5.20493C0.185907 5.41718 0.406068 5.55022 0.645954 5.55022H1.31247C1.46616 7.95262 2.47525 10.1901 4.19281 11.9077C6.06348 13.7784 8.55064 14.8086 11.1962 14.8086C13.8417 14.8086 16.3288 13.7784 18.1995 11.9077C18.6968 11.4104 19.1372 10.8648 19.5153 10.2817C19.4697 10.2849 19.424 10.287 19.3779 10.287Z" fill="white"/>
</svg>
