<svg xmlns="http://www.w3.org/2000/svg" width="21" height="14" fill="none" viewBox="0 0 21 14"><path fill="#fff" d="M20.3181 9.60357C20.2064 9.39128 19.9862 9.25832 19.7464 9.25832H19.0798C18.9261 6.85592 17.9171 4.61845 16.1995 2.90085C14.3289 1.03022 11.8417 0 9.19619 0C6.55071 0 4.06347 1.03022 2.19284 2.90089C1.69553 3.3982 1.25516 3.94375 0.877075 4.52687C0.922603 4.52363 0.96835 4.52153 1.0144 4.52153C1.65271 4.52153 2.24965 4.83555 2.61121 5.3615L3.55947 6.74081C4.6765 4.73797 6.79996 3.445 9.19615 3.445C12.5398 3.445 15.2982 5.99894 15.6234 9.25837H15.0095C14.7697 9.25837 14.5495 9.39128 14.4379 9.60361C14.3262 9.8159 14.3414 10.0726 14.4773 10.2703L15.4189 11.6399L16.8457 13.7153C16.8758 13.7591 16.9108 13.7985 16.9498 13.8329C17.0665 13.9363 17.2184 13.9952 17.378 13.9952C17.5907 13.9952 17.7898 13.8905 17.9103 13.7153L18.7655 12.4713L20.2787 10.2703C20.4146 10.0725 20.4297 9.81581 20.3181 9.60357Z"/></svg>