<svg width="18" height="10" viewBox="0 0 18 10" fill="none" xmlns="http://www.w3.org/2000/svg">
<path d="M11.6125 4.73621C11.6125 6.1894 10.4345 7.36744 8.98127 7.36744C7.52808 7.36744 6.35004 6.1894 6.35004 4.73621C6.35004 3.28302 7.52808 2.10498 8.98127 2.10498C10.4345 2.10498 11.6125 3.28302 11.6125 4.73621Z" fill="#00CB88"/>
<path d="M17.8284 4.38521C17.6681 4.20635 13.8116 0 8.98128 0C4.15097 0 0.294505 4.20635 0.13414 4.38521C-0.0447134 4.58511 -0.0447134 4.88732 0.13414 5.08722C0.294505 5.26607 4.15105 9.47243 8.98128 9.47243C13.8115 9.47243 17.6681 5.26607 17.8284 5.08722C18.0072 4.88732 18.0072 4.58511 17.8284 4.38521ZM8.98128 8.41994C6.95029 8.41994 5.29756 6.76721 5.29756 4.73621C5.29756 2.70522 6.95029 1.05249 8.98128 1.05249C11.0123 1.05249 12.665 2.70522 12.665 4.73621C12.665 6.76721 11.0123 8.41994 8.98128 8.41994Z" fill="#00CB88"/>
</svg>
